<svg width="9" height="9" viewBox="0 0 9 9" fill="none" xmlns="http://www.w3.org/2000/svg">
<g clip-path="url(#clip0_4037_76645)">
<path d="M7.97637 1.83164C7.81356 1.54966 7.52217 1.37802 7.19638 1.37278L2.77022 1.29823C2.18019 1.2883 1.68383 1.66527 1.5352 2.23644C1.38656 2.8076 1.63572 3.37852 2.15559 3.65785L3.5327 4.39745L3.48466 5.95987C3.46663 6.54976 3.8365 7.051 4.40547 7.20786C4.40863 7.2087 4.41147 7.20947 4.41464 7.21031C4.98059 7.36196 5.55055 7.12035 5.83549 6.6074L7.984 2.73698C8.14213 2.45181 8.13917 2.11363 7.97637 1.83164ZM7.55443 2.49775L5.4059 6.36821C5.19061 6.75538 4.80319 6.80041 4.53586 6.73387C4.26906 6.66034 3.96219 6.4174 3.97576 5.97449L4.02407 4.3972L5.72161 3.41716C5.83913 3.34931 5.8794 3.19903 5.81155 3.0815C5.74369 2.96397 5.59341 2.92371 5.47589 2.99156L3.77836 3.97165L2.38825 3.22484C1.99789 3.01514 1.94094 2.6279 2.01067 2.36007C2.08048 2.09193 2.31918 1.78191 2.76235 1.78944L7.18821 1.86391C7.22435 1.86444 7.25961 1.86947 7.29314 1.87845C7.4007 1.90727 7.49312 1.9775 7.55087 2.07706C7.6266 2.20822 7.62784 2.36551 7.55443 2.49775Z" fill="#141414"/>
</g>
<defs>
<clipPath id="clip0_4037_76645">
<rect width="7.86026" height="7.86026" fill="white" transform="translate(0.837891 0.315491)"/>
</clipPath>
</defs>
</svg>
