<svg width="9" height="9" viewBox="0 0 9 9" fill="none" xmlns="http://www.w3.org/2000/svg">
<g clip-path="url(#clip0_3861_72234)">
<path d="M7.94219 1.83164C7.77938 1.54966 7.48799 1.37802 7.1622 1.37278L2.73604 1.29823C2.14601 1.2883 1.64965 1.66527 1.50102 2.23644C1.35238 2.8076 1.60154 3.37852 2.12141 3.65785L3.49852 4.39745L3.45048 5.95987C3.43245 6.54976 3.80232 7.051 4.37129 7.20786C4.37445 7.2087 4.37729 7.20947 4.38046 7.21031C4.94641 7.36196 5.51637 7.12035 5.80131 6.6074L7.94982 2.73698C8.10795 2.45181 8.10499 2.11363 7.94219 1.83164ZM7.52025 2.49775L5.37172 6.36821C5.15643 6.75538 4.76901 6.80041 4.50168 6.73387C4.23488 6.66034 3.92801 6.4174 3.94158 5.97449L3.98989 4.3972L5.68743 3.41716C5.80495 3.34931 5.84522 3.19903 5.77737 3.0815C5.70951 2.96397 5.55923 2.92371 5.44171 2.99156L3.74418 3.97165L2.35407 3.22484C1.96371 3.01514 1.90676 2.6279 1.97649 2.36007C2.0463 2.09193 2.285 1.78191 2.72817 1.78944L7.15403 1.86391C7.19017 1.86444 7.22543 1.86947 7.25896 1.87845C7.36652 1.90727 7.45894 1.9775 7.51669 2.07706C7.59242 2.20822 7.59366 2.36551 7.52025 2.49775Z" fill="#141414"/>
</g>
<defs>
<clipPath id="clip0_3861_72234">
<rect width="7.86026" height="7.86026" fill="white" transform="translate(0.803589 0.315491)"/>
</clipPath>
</defs>
</svg>
