<svg width="9" height="9" viewBox="0 0 9 9" fill="none" xmlns="http://www.w3.org/2000/svg">
<g clip-path="url(#clip0_4037_75480)">
<path d="M7.9417 1.83169C7.77889 1.5497 7.48751 1.37806 7.16171 1.37282L2.73555 1.29827C2.14552 1.28835 1.64917 1.66531 1.50053 2.23648C1.35189 2.80765 1.60105 3.37857 2.12092 3.6579L3.49804 4.3975L3.44999 5.95992C3.43196 6.5498 3.80183 7.05104 4.3708 7.2079C4.37396 7.20875 4.37681 7.20951 4.37997 7.21036C4.94592 7.36201 5.51588 7.1204 5.80082 6.60745L7.94933 2.73702C8.10746 2.45186 8.1045 2.11367 7.9417 1.83169ZM7.51976 2.49779L5.37124 6.36826C5.15594 6.75542 4.76852 6.80046 4.5012 6.73392C4.23439 6.66039 3.92753 6.41745 3.94109 5.97454L3.9894 4.39725L5.68694 3.41721C5.80447 3.34935 5.84473 3.19907 5.77688 3.08155C5.70902 2.96402 5.55875 2.92375 5.44122 2.99161L3.74369 3.97169L2.35358 3.22489C1.96322 3.01518 1.90627 2.62794 1.976 2.36012C2.04581 2.09197 2.28451 1.78195 2.72768 1.78949L7.15354 1.86396C7.18968 1.86448 7.22494 1.86951 7.25848 1.8785C7.36604 1.90732 7.45845 1.97754 7.5162 2.0771C7.59193 2.20827 7.59317 2.36556 7.51976 2.49779Z" fill="#141414"/>
</g>
<defs>
<clipPath id="clip0_4037_75480">
<rect width="7.86026" height="7.86026" fill="white" transform="translate(0.803223 0.315506)"/>
</clipPath>
</defs>
</svg>
