<svg width="32" height="33" viewBox="0 0 32 33" fill="none" xmlns="http://www.w3.org/2000/svg">
<g clip-path="url(#clip0_5028_207)">
<path d="M29.056 25.4381C28.572 26.5561 27.9992 27.5852 27.3355 28.5313C26.4309 29.8211 25.6901 30.714 25.1193 31.2098C24.2344 32.0236 23.2863 32.4403 22.271 32.464C21.5421 32.464 20.6631 32.2566 19.64 31.8359C18.6134 31.4172 17.6701 31.2098 16.8075 31.2098C15.9028 31.2098 14.9326 31.4172 13.8948 31.8359C12.8554 32.2566 12.0181 32.4759 11.3779 32.4976C10.4043 32.5391 9.43388 32.1105 8.46522 31.2098C7.84697 30.6705 7.07366 29.7461 6.14727 28.4365C5.15332 27.038 4.33616 25.4163 3.69599 23.5675C3.01038 21.5705 2.66669 19.6368 2.66669 17.7646C2.66669 15.6201 3.13008 13.7705 4.05825 12.2205C4.78771 10.9755 5.75814 9.9934 6.97272 9.27244C8.1873 8.55147 9.49965 8.18407 10.9129 8.16057C11.6863 8.16057 12.7003 8.39977 13.9605 8.86988C15.2172 9.34157 16.0241 9.58077 16.3779 9.58077C16.6423 9.58077 17.5387 9.30108 19.0583 8.74347C20.4953 8.22634 21.7081 8.01223 22.7016 8.09657C25.3939 8.31385 27.4165 9.37515 28.7617 11.2872C26.3538 12.7461 25.1628 14.7895 25.1865 17.4109C25.2082 19.4527 25.9489 21.1518 27.4047 22.5009C28.0644 23.127 28.8012 23.611 29.6209 23.9547C29.4431 24.4702 29.2555 24.964 29.056 25.4381ZM22.8814 1.14053C22.8814 2.7409 22.2967 4.23516 21.1313 5.61822C19.7249 7.26242 18.0238 8.21252 16.1791 8.0626C16.1556 7.8706 16.142 7.66853 16.142 7.4562C16.142 5.91985 16.8108 4.27565 17.9985 2.93129C18.5915 2.25062 19.3457 1.68466 20.2602 1.23317C21.1728 0.788424 22.0359 0.54247 22.8478 0.500351C22.8715 0.714295 22.8814 0.928252 22.8814 1.14051V1.14053Z" fill="white"/>
</g>
<defs>
<clipPath id="clip0_5028_207">
<rect width="32" height="32" fill="white" transform="translate(0 0.5)"/>
</clipPath>
</defs>
</svg>
