<svg width="32" height="32" viewBox="0 0 32 32" fill="none" xmlns="http://www.w3.org/2000/svg">
<g id="Apple - Original" clip-path="url(#clip0_5361_1463)">
<path id="path4" d="M29.0558 24.9381C28.5718 26.0561 27.999 27.0852 27.3353 28.0313C26.4307 29.3212 25.69 30.214 25.1191 30.7098C24.2342 31.5236 23.2861 31.9403 22.2708 31.9641C21.542 31.9641 20.663 31.7566 19.6398 31.3359C18.6133 30.9172 17.6699 30.7098 16.8073 30.7098C15.9026 30.7098 14.9324 30.9172 13.8946 31.3359C12.8552 31.7566 12.0179 31.9759 11.3777 31.9976C10.4041 32.0391 9.43369 31.6105 8.46503 30.7098C7.84678 30.1705 7.07347 29.2461 6.14708 27.9365C5.15314 26.538 4.33598 24.9164 3.6958 23.0675C3.0102 21.0706 2.6665 19.1368 2.6665 17.2646C2.6665 15.1201 3.1299 13.2705 4.05806 11.7205C4.78752 10.4755 5.75796 9.49342 6.97254 8.77245C8.18712 8.05149 9.49947 7.68409 10.9128 7.66058C11.6861 7.66058 12.7002 7.89979 13.9604 8.3699C15.217 8.84159 16.0239 9.08079 16.3777 9.08079C16.6422 9.08079 17.5385 8.80109 19.0581 8.24348C20.4951 7.72636 21.7079 7.51224 22.7014 7.59659C25.3937 7.81386 27.4163 8.87516 28.7615 10.7872C26.3536 12.2461 25.1626 14.2895 25.1863 16.9109C25.208 18.9527 25.9487 20.6518 27.4045 22.0009C28.0642 22.627 28.801 23.111 29.6207 23.4547C29.4429 23.9702 29.2553 24.464 29.0558 24.9381ZM22.8812 0.640549C22.8812 2.24091 22.2965 3.73517 21.1311 5.11824C19.7247 6.76244 18.0236 7.71253 16.179 7.56261C16.1555 7.37062 16.1418 7.16855 16.1418 6.95621C16.1418 5.41986 16.8106 3.77566 17.9984 2.43131C18.5913 1.75064 19.3455 1.18467 20.26 0.733187C21.1726 0.28844 22.0358 0.0424849 22.8476 0.000366211C22.8713 0.21431 22.8812 0.428268 22.8812 0.640528V0.640549Z" fill="#141414"/>
</g>
<defs>
<clipPath id="clip0_5361_1463">
<rect width="32" height="32" fill="white"/>
</clipPath>
</defs>
</svg>
