<svg width="32" height="32" viewBox="0 0 32 32" fill="none" xmlns="http://www.w3.org/2000/svg">
<g clip-path="url(#clip0_5028_227)">
<path d="M29.056 24.938C28.572 26.056 27.9992 27.0851 27.3355 28.0312C26.4309 29.321 25.6901 30.2139 25.1193 30.7096C24.2344 31.5234 23.2863 31.9402 22.271 31.9639C21.5421 31.9639 20.6631 31.7565 19.64 31.3358C18.6134 30.917 17.6701 30.7096 16.8075 30.7096C15.9028 30.7096 14.9326 30.917 13.8948 31.3358C12.8554 31.7565 12.0181 31.9758 11.3779 31.9975C10.4043 32.039 9.43388 31.6104 8.46522 30.7096C7.84697 30.1704 7.07366 29.246 6.14727 27.9364C5.15332 26.5379 4.33616 24.9162 3.69599 23.0674C3.01038 21.0704 2.66669 19.1367 2.66669 17.2645C2.66669 15.12 3.13008 13.2704 4.05825 11.7204C4.78771 10.4754 5.75814 9.4933 6.97272 8.77233C8.1873 8.05136 9.49965 7.68397 10.9129 7.66046C11.6863 7.66046 12.7003 7.89967 13.9605 8.36977C15.2172 8.84146 16.0241 9.08067 16.3779 9.08067C16.6423 9.08067 17.5387 8.80097 19.0583 8.24336C20.4953 7.72624 21.7081 7.51212 22.7016 7.59646C25.3939 7.81374 27.4165 8.87504 28.7617 10.7871C26.3538 12.246 25.1628 14.2894 25.1865 16.9108C25.2082 18.9526 25.9489 20.6517 27.4047 22.0008C28.0644 22.6269 28.8012 23.1109 29.6209 23.4546C29.4431 23.9701 29.2555 24.4639 29.056 24.938ZM22.8814 0.640427C22.8814 2.24079 22.2967 3.73505 21.1313 5.11812C19.7249 6.76232 18.0238 7.71241 16.1791 7.56249C16.1556 7.3705 16.142 7.16843 16.142 6.95609C16.142 5.41974 16.8108 3.77554 17.9985 2.43119C18.5915 1.75052 19.3457 1.18455 20.2602 0.733065C21.1728 0.288318 22.0359 0.0423628 22.8478 0.000244141C22.8715 0.214188 22.8814 0.428145 22.8814 0.640406V0.640427Z" fill="#141414"/>
</g>
<defs>
<clipPath id="clip0_5028_227">
<rect width="32" height="32" fill="white"/>
</clipPath>
</defs>
</svg>
