<svg width="432" height="479" viewBox="0 0 432 479" fill="none" xmlns="http://www.w3.org/2000/svg">
<g filter="url(#filter0_d_4037_75436)">
<circle cx="217.799" cy="231.535" r="149.124" stroke="#104210" stroke-width="4.06463"/>
</g>
<g filter="url(#filter1_d_4037_75436)">
<circle cx="217.417" cy="231.153" r="172.127" stroke="#104210" stroke-width="2.03232"/>
</g>
<g filter="url(#filter2_d_4037_75436)">
<circle cx="217.034" cy="230.77" r="194.622" stroke="#104210" stroke-width="1.01616"/>
</g>
<g filter="url(#filter3_d_4037_75436)">
<circle cx="217.632" cy="231.368" r="214.114" stroke="#104210" stroke-width="0.508079"/>
</g>
<path d="M302.682 312.734H302.681H275.794H275.793C274.862 312.731 273.951 312.463 273.151 311.96C272.352 311.456 271.693 310.737 271.237 309.877L261.642 291.982C260.95 290.701 260.751 289.181 261.083 287.747L269.918 249.004C270.111 248.152 270.485 247.358 271.013 246.685C271.541 246.013 272.209 245.479 272.966 245.131L289.673 237.436C289.673 237.436 289.673 237.436 289.673 237.436C290.582 237.017 291.582 236.882 292.56 237.048C293.539 237.214 294.449 237.673 295.192 238.367L294.845 238.738L295.192 238.367L319.944 261.529L319.945 261.529C320.618 262.16 321.129 262.962 321.435 263.859C321.74 264.755 321.831 265.72 321.7 266.663C321.7 266.663 321.7 266.664 321.7 266.664L321.197 266.594C319.147 281.889 314.233 296.563 306.76 309.71L302.682 312.734ZM302.682 312.734C303.6 312.733 304.499 312.474 305.292 311.985C306.084 311.497 306.741 310.797 307.203 309.959L302.682 312.734ZM145.636 237.487L145.638 237.488L162.346 245.182C163.103 245.531 163.771 246.064 164.298 246.737C164.826 247.41 165.2 248.204 165.394 249.056L174.229 287.799C174.56 289.233 174.361 290.753 173.67 292.033L145.636 237.487ZM145.636 237.487C144.732 237.074 143.736 236.942 142.763 237.108C141.79 237.273 140.884 237.729 140.144 238.418L140.143 238.419L115.391 261.581L115.391 261.581M145.636 237.487L115.391 261.581M115.391 261.581C114.717 262.211 114.206 263.014 113.9 263.91C113.595 264.807 113.504 265.771 113.635 266.715L115.391 261.581ZM285.06 218.28L285.056 218.282L267.469 226.384L267.468 226.384C266.57 226.797 265.582 226.933 264.615 226.775C263.647 226.617 262.744 226.173 262.002 225.496C262.002 225.496 262.002 225.496 262.002 225.496L228.553 194.985C228.553 194.984 228.553 194.984 228.553 194.984C227.963 194.453 227.49 193.791 227.164 193.046C226.838 192.301 226.667 191.489 226.661 190.666L226.661 190.663L226.661 168.949V168.949C226.661 168.022 226.872 167.108 227.276 166.287C227.681 165.466 228.267 164.761 228.987 164.238L228.988 164.238L254.453 145.784L285.06 218.28ZM285.06 218.28C285.734 217.964 286.337 217.5 286.832 216.92C287.326 216.341 287.702 215.659 287.937 214.918L285.06 218.28ZM206.324 164.238L206.324 164.238C207.044 164.761 207.631 165.466 208.035 166.287C208.439 167.108 208.65 168.022 208.65 168.949V168.949V190.663C208.65 191.486 208.484 192.301 208.163 193.05C207.842 193.799 207.372 194.466 206.784 195.002L206.324 164.238ZM206.324 164.238L180.853 145.785C180.124 145.253 179.28 144.926 178.399 144.836C177.518 144.747 176.631 144.898 175.82 145.275L175.817 145.277L206.324 164.238ZM192.551 301.372L192.552 301.372L242.759 301.372H242.76C243.691 301.374 244.602 301.642 245.402 302.146C246.201 302.649 246.86 303.369 247.316 304.228L256.341 321.037L192.551 301.372ZM192.551 301.372C191.62 301.374 190.709 301.642 189.909 302.146C189.11 302.649 188.452 303.368 187.995 304.228C187.995 304.228 187.995 304.228 187.995 304.228L178.976 321.038C178.577 321.782 178.34 322.613 178.281 323.468C178.223 324.322 178.345 325.181 178.637 325.979M192.551 301.372L178.637 325.979M178.638 325.98L190.368 358.109C190.368 358.109 190.369 358.109 190.369 358.109C190.679 358.961 191.177 359.722 191.823 360.325C192.469 360.928 193.244 361.355 194.082 361.564C194.082 361.564 194.082 361.564 194.082 361.564L178.638 325.98ZM178.638 325.98C178.638 325.979 178.638 325.979 178.637 325.979M178.638 325.98L178.637 325.979M164.074 309.877L173.669 292.034L128.575 309.762L128.133 310.012C128.133 310.012 128.133 310.013 128.133 310.013C128.6 310.838 129.256 311.525 130.043 312.003L130.307 311.569C131.017 312 131.817 312.226 132.63 312.226V312.734H132.63L159.517 312.734L159.518 312.734C160.449 312.731 161.36 312.463 162.16 311.96C162.959 311.457 163.617 310.738 164.073 309.88C164.074 309.879 164.074 309.878 164.074 309.877ZM173.333 225.515L206.784 195.002L147.35 214.925C147.59 215.668 147.97 216.351 148.469 216.929C148.969 217.508 149.576 217.969 150.255 218.282C150.255 218.282 150.255 218.282 150.255 218.282L167.866 226.403L167.867 226.403C168.765 226.816 169.753 226.953 170.721 226.795C171.688 226.637 172.591 226.192 173.333 225.515C173.333 225.515 173.333 225.515 173.333 225.515ZM136.606 181.702L147.35 214.924L136.606 181.702ZM94.49 250.151C94.49 176.231 149.783 116.164 217.656 116.164C285.529 116.164 340.821 176.231 340.821 250.151C340.821 324.071 285.529 384.138 217.656 384.138C149.783 384.138 94.49 324.071 94.49 250.151ZM287.938 214.916L298.681 181.697C298.681 181.697 298.681 181.697 298.681 181.696C298.988 180.759 299.062 179.752 298.896 178.776C298.73 177.8 298.329 176.884 297.73 176.124L287.938 214.916ZM256.93 144.839C256.041 144.923 255.19 145.25 254.454 145.784L259.306 145.762L259.525 145.304C259.525 145.303 259.525 145.303 259.524 145.303C258.711 144.915 257.819 144.754 256.93 144.839ZM136.402 178.773C136.231 179.751 136.301 180.761 136.606 181.702L137.981 176.437L137.584 176.121C137.583 176.121 137.583 176.122 137.583 176.122C136.978 176.881 136.572 177.796 136.402 178.773ZM257.039 323.466C256.979 322.612 256.741 321.781 256.341 321.038L241.298 361.564C242.143 361.358 242.924 360.931 243.575 360.325C244.226 359.719 244.727 358.953 245.038 358.095L256.686 325.979C256.978 325.18 257.098 324.321 257.039 323.466Z" fill="#104210" stroke="#104210" stroke-width="1.01616"/>
<g filter="url(#filter4_d_4037_75436)">
<circle cx="216.123" cy="232.699" r="88.7651" fill="#196719"/>
</g>
<g filter="url(#filter5_d_4037_75436)">
<circle cx="217.7" cy="233.094" r="67.3469" fill="white"/>
<circle cx="217.701" cy="233.094" r="39.9093" fill="#CCFF33"/>
<path d="M295.025 233.094C295.025 275.799 260.406 310.418 217.701 310.418C174.996 310.418 140.376 275.799 140.376 233.094C140.376 190.389 174.996 155.77 217.701 155.77C260.406 155.77 295.025 190.389 295.025 233.094ZM154.443 233.094C154.443 268.03 182.764 296.352 217.701 296.352C252.637 296.352 280.959 268.03 280.959 233.094C280.959 198.157 252.637 169.836 217.701 169.836C182.764 169.836 154.443 198.157 154.443 233.094Z" fill="#CDDDCD"/>
<path d="M272.576 233.094C272.576 263.401 248.007 287.97 217.7 287.97C187.394 287.97 162.825 263.401 162.825 233.094C162.825 202.787 187.394 178.219 217.7 178.219C248.007 178.219 272.576 202.787 272.576 233.094ZM174.898 233.094C174.898 256.734 194.061 275.897 217.7 275.897C241.34 275.897 260.503 256.734 260.503 233.094C260.503 209.455 241.34 190.292 217.7 190.292C194.061 190.292 174.898 209.455 174.898 233.094Z" fill="#70E000"/>
<path d="M272.576 233.094C272.576 240.301 271.156 247.436 268.399 254.094C265.641 260.752 261.599 266.801 256.503 271.897C251.408 276.993 245.358 281.035 238.7 283.792C232.043 286.55 224.907 287.97 217.7 287.97C210.494 287.97 203.358 286.55 196.701 283.792C190.043 281.035 183.993 276.993 178.898 271.897C173.802 266.801 169.76 260.752 167.002 254.094C164.245 247.436 162.825 240.301 162.825 233.094H174.898C174.898 238.715 176.005 244.281 178.156 249.474C180.307 254.667 183.46 259.386 187.434 263.36C191.409 267.335 196.128 270.488 201.321 272.639C206.514 274.79 212.08 275.897 217.7 275.897C223.321 275.897 228.887 274.79 234.08 272.639C239.273 270.488 243.992 267.335 247.967 263.36C251.941 259.386 255.094 254.667 257.245 249.474C259.396 244.281 260.503 238.715 260.503 233.094H272.576Z" fill="#196719"/>
<path d="M217.701 192.561C195.351 192.561 177.168 210.745 177.168 233.094C177.168 255.444 195.351 273.627 217.701 273.627C240.05 273.627 258.234 255.444 258.234 233.094C258.234 210.745 240.05 192.561 217.701 192.561ZM245.567 251.802H236.755C236.482 251.801 236.214 251.729 235.978 251.592C235.741 251.455 235.545 251.259 235.409 251.022L232.263 245.628C232.056 245.275 231.996 244.856 232.096 244.459L234.992 232.782C235.05 232.547 235.162 232.329 235.319 232.144C235.476 231.96 235.675 231.815 235.898 231.72L241.374 229.401C241.641 229.288 241.935 229.251 242.222 229.296C242.51 229.341 242.778 229.465 242.999 229.655L251.111 236.635C251.311 236.807 251.464 237.027 251.556 237.275C251.648 237.522 251.675 237.789 251.635 238.05C250.964 242.659 249.353 247.081 246.904 251.044C246.766 251.275 246.57 251.466 246.335 251.599C246.101 251.732 245.837 251.801 245.567 251.802ZM194.028 229.417L199.504 231.736C199.727 231.83 199.925 231.975 200.083 232.16C200.24 232.344 200.352 232.563 200.41 232.798L203.306 244.475C203.405 244.871 203.345 245.291 203.138 245.644L199.993 251.022C199.857 251.259 199.66 251.455 199.424 251.592C199.188 251.729 198.92 251.801 198.646 251.802H189.834C189.568 251.802 189.306 251.734 189.073 251.604C188.841 251.474 188.645 251.286 188.505 251.059C186.056 247.097 184.446 242.675 183.774 238.065C183.735 237.804 183.762 237.538 183.854 237.29C183.945 237.043 184.098 236.823 184.298 236.651L192.411 229.67C192.63 229.482 192.898 229.359 193.183 229.314C193.469 229.269 193.762 229.305 194.028 229.417ZM244.098 212.417L240.577 222.429C240.506 222.634 240.393 222.821 240.246 222.98C240.099 223.139 239.92 223.265 239.721 223.351L233.957 225.792C233.692 225.904 233.402 225.941 233.118 225.898C232.834 225.856 232.567 225.735 232.347 225.551L221.384 216.355C221.209 216.21 221.067 216.028 220.97 215.823C220.872 215.618 220.821 215.393 220.819 215.166V208.622C220.819 208.366 220.882 208.114 221.003 207.888C221.124 207.662 221.299 207.469 221.512 207.327L229.859 201.765C230.077 201.62 230.328 201.531 230.588 201.509C230.849 201.486 231.112 201.529 231.351 201.634C236.154 203.729 240.416 206.891 243.813 210.879C243.992 211.088 244.112 211.34 244.162 211.61C244.212 211.879 244.19 212.158 244.098 212.417ZM205.541 201.765L213.889 207.327C214.102 207.469 214.277 207.662 214.398 207.888C214.519 208.114 214.583 208.366 214.583 208.622V215.166C214.583 215.394 214.533 215.619 214.437 215.825C214.34 216.032 214.2 216.214 214.026 216.361L203.062 225.557C202.842 225.741 202.576 225.861 202.291 225.904C202.007 225.947 201.717 225.91 201.453 225.798L195.681 223.351C195.481 223.266 195.3 223.14 195.152 222.982C195.003 222.824 194.889 222.636 194.817 222.431L191.296 212.418C191.205 212.159 191.183 211.88 191.235 211.609C191.286 211.339 191.408 211.087 191.588 210.879C194.988 206.887 199.253 203.722 204.06 201.627C204.299 201.524 204.559 201.484 204.818 201.508C205.077 201.532 205.325 201.62 205.541 201.765ZM208.914 265.577L205.069 255.894C204.981 255.674 204.945 255.436 204.962 255.2C204.98 254.964 205.051 254.734 205.171 254.53L208.127 249.463C208.263 249.227 208.46 249.03 208.696 248.893C208.932 248.757 209.2 248.684 209.473 248.684H225.928C226.201 248.684 226.469 248.757 226.706 248.893C226.942 249.03 227.138 249.227 227.275 249.463L230.233 254.53C230.353 254.734 230.424 254.964 230.442 255.2C230.46 255.436 230.424 255.674 230.336 255.894L226.519 265.573C226.425 265.81 226.275 266.02 226.082 266.185C225.889 266.351 225.658 266.466 225.41 266.522C220.344 267.685 215.081 267.685 210.015 266.522C209.769 266.466 209.54 266.35 209.348 266.185C209.156 266.021 209.007 265.812 208.914 265.577Z" fill="#196719"/>
</g>
<path d="M295.249 124.691C295.511 123.983 296.512 123.983 296.774 124.691L301.636 137.83C301.718 138.052 301.894 138.228 302.116 138.31L315.255 143.172C315.963 143.434 315.963 144.435 315.255 144.697L302.116 149.558C301.894 149.641 301.718 149.816 301.636 150.039L296.774 163.177C296.512 163.885 295.511 163.885 295.249 163.177L290.387 150.039C290.305 149.816 290.13 149.641 289.907 149.558L276.768 144.697C276.061 144.435 276.061 143.434 276.768 143.172L289.907 138.31C290.13 138.228 290.305 138.052 290.387 137.83L295.249 124.691Z" fill="#70E000"/>
<path d="M112.679 166.526C112.843 166.083 113.468 166.083 113.632 166.526L116.91 175.385C116.962 175.524 117.072 175.634 117.211 175.686L126.07 178.964C126.513 179.128 126.513 179.753 126.07 179.917L117.211 183.195C117.072 183.247 116.962 183.356 116.91 183.495L113.632 192.355C113.468 192.797 112.843 192.797 112.679 192.355L109.401 183.495C109.349 183.356 109.24 183.247 109.1 183.195L100.241 179.917C99.7985 179.753 99.7985 179.128 100.241 178.964L109.1 175.686C109.24 175.634 109.349 175.524 109.401 175.385L112.679 166.526Z" fill="#70E000"/>
<path d="M139.595 307.777C139.66 307.6 139.91 307.6 139.976 307.777L141.671 312.357C141.691 312.413 141.735 312.456 141.791 312.477L146.371 314.172C146.548 314.237 146.548 314.488 146.371 314.553L141.791 316.248C141.735 316.269 141.691 316.313 141.671 316.368L139.976 320.949C139.91 321.126 139.66 321.126 139.595 320.949L137.9 316.368C137.879 316.313 137.835 316.269 137.78 316.248L133.199 314.553C133.022 314.488 133.022 314.237 133.199 314.172L137.78 312.477C137.835 312.456 137.879 312.413 137.9 312.357L139.595 307.777Z" fill="#70E000"/>
<defs>
<filter id="filter0_d_4037_75436" x="42.2548" y="64.1198" width="351.089" height="351.089" filterUnits="userSpaceOnUse" color-interpolation-filters="sRGB">
<feFlood flood-opacity="0" result="BackgroundImageFix"/>
<feColorMatrix in="SourceAlpha" type="matrix" values="0 0 0 0 0 0 0 0 0 0 0 0 0 0 0 0 0 0 127 0" result="hardAlpha"/>
<feOffset dy="8.12927"/>
<feGaussianBlur stdDeviation="12.1939"/>
<feColorMatrix type="matrix" values="0 0 0 0 0.08 0 0 0 0 0.08 0 0 0 0 0.08 0 0 0 0.16 0"/>
<feBlend mode="normal" in2="BackgroundImageFix" result="effect1_dropShadow_4037_75436"/>
<feBlend mode="normal" in="SourceGraphic" in2="effect1_dropShadow_4037_75436" result="shape"/>
</filter>
<filter id="filter1_d_4037_75436" x="19.8856" y="41.7508" width="395.062" height="395.062" filterUnits="userSpaceOnUse" color-interpolation-filters="sRGB">
<feFlood flood-opacity="0" result="BackgroundImageFix"/>
<feColorMatrix in="SourceAlpha" type="matrix" values="0 0 0 0 0 0 0 0 0 0 0 0 0 0 0 0 0 0 127 0" result="hardAlpha"/>
<feOffset dy="8.12927"/>
<feGaussianBlur stdDeviation="12.1939"/>
<feColorMatrix type="matrix" values="0 0 0 0 0.08 0 0 0 0 0.08 0 0 0 0 0.08 0 0 0 0.16 0"/>
<feBlend mode="normal" in2="BackgroundImageFix" result="effect1_dropShadow_4037_75436"/>
<feBlend mode="normal" in="SourceGraphic" in2="effect1_dropShadow_4037_75436" result="shape"/>
</filter>
<filter id="filter2_d_4037_75436" x="-2.48302" y="19.3822" width="439.035" height="439.035" filterUnits="userSpaceOnUse" color-interpolation-filters="sRGB">
<feFlood flood-opacity="0" result="BackgroundImageFix"/>
<feColorMatrix in="SourceAlpha" type="matrix" values="0 0 0 0 0 0 0 0 0 0 0 0 0 0 0 0 0 0 127 0" result="hardAlpha"/>
<feOffset dy="8.12927"/>
<feGaussianBlur stdDeviation="12.1939"/>
<feColorMatrix type="matrix" values="0 0 0 0 0.08 0 0 0 0 0.08 0 0 0 0 0.08 0 0 0 0.16 0"/>
<feBlend mode="normal" in2="BackgroundImageFix" result="effect1_dropShadow_4037_75436"/>
<feBlend mode="normal" in="SourceGraphic" in2="effect1_dropShadow_4037_75436" result="shape"/>
</filter>
<filter id="filter3_d_4037_75436" x="-21.1236" y="0.741463" width="477.511" height="477.511" filterUnits="userSpaceOnUse" color-interpolation-filters="sRGB">
<feFlood flood-opacity="0" result="BackgroundImageFix"/>
<feColorMatrix in="SourceAlpha" type="matrix" values="0 0 0 0 0 0 0 0 0 0 0 0 0 0 0 0 0 0 127 0" result="hardAlpha"/>
<feOffset dy="8.12927"/>
<feGaussianBlur stdDeviation="12.1939"/>
<feColorMatrix type="matrix" values="0 0 0 0 0.08 0 0 0 0 0.08 0 0 0 0 0.08 0 0 0 0.16 0"/>
<feBlend mode="normal" in2="BackgroundImageFix" result="effect1_dropShadow_4037_75436"/>
<feBlend mode="normal" in="SourceGraphic" in2="effect1_dropShadow_4037_75436" result="shape"/>
</filter>
<filter id="filter4_d_4037_75436" x="102.97" y="127.676" width="226.306" height="226.306" filterUnits="userSpaceOnUse" color-interpolation-filters="sRGB">
<feFlood flood-opacity="0" result="BackgroundImageFix"/>
<feColorMatrix in="SourceAlpha" type="matrix" values="0 0 0 0 0 0 0 0 0 0 0 0 0 0 0 0 0 0 127 0" result="hardAlpha"/>
<feOffset dy="8.12927"/>
<feGaussianBlur stdDeviation="12.1939"/>
<feColorMatrix type="matrix" values="0 0 0 0 0.08 0 0 0 0 0.08 0 0 0 0 0.08 0 0 0 0.16 0"/>
<feBlend mode="normal" in2="BackgroundImageFix" result="effect1_dropShadow_4037_75436"/>
<feBlend mode="normal" in="SourceGraphic" in2="effect1_dropShadow_4037_75436" result="shape"/>
</filter>
<filter id="filter5_d_4037_75436" x="132.247" y="149.673" width="170.907" height="170.907" filterUnits="userSpaceOnUse" color-interpolation-filters="sRGB">
<feFlood flood-opacity="0" result="BackgroundImageFix"/>
<feColorMatrix in="SourceAlpha" type="matrix" values="0 0 0 0 0 0 0 0 0 0 0 0 0 0 0 0 0 0 127 0" result="hardAlpha"/>
<feOffset dy="2.03232"/>
<feGaussianBlur stdDeviation="4.06463"/>
<feColorMatrix type="matrix" values="0 0 0 0 0.08 0 0 0 0 0.08 0 0 0 0 0.08 0 0 0 0.08 0"/>
<feBlend mode="normal" in2="BackgroundImageFix" result="effect1_dropShadow_4037_75436"/>
<feBlend mode="normal" in="SourceGraphic" in2="effect1_dropShadow_4037_75436" result="shape"/>
</filter>
</defs>
</svg>
