<svg width="86" height="61" viewBox="0 0 86 61" fill="none" xmlns="http://www.w3.org/2000/svg">
<g filter="url(#filter0_d_4037_76443)">
<path d="M81.9315 49.7632C81.9315 65.4445 69.2193 78.1567 53.5379 78.1567C37.8566 78.1567 25.1444 65.4445 25.1444 49.7632C25.1444 34.0819 37.8566 21.3696 53.5379 21.3696C69.2193 21.3696 81.9315 34.0819 81.9315 49.7632Z" stroke="#2B892B" stroke-width="1.82693"/>
</g>
<g filter="url(#filter1_d_4037_76443)">
<path d="M86.577 49.689C86.577 67.9768 71.7517 82.8021 53.4639 82.8021C35.176 82.8021 20.3508 67.9768 20.3508 49.689C20.3508 31.4011 35.176 16.5759 53.4639 16.5759C71.7517 16.5759 86.577 31.4011 86.577 49.689Z" stroke="#2B892B" stroke-width="0.913465"/>
</g>
<g filter="url(#filter2_d_4037_76443)">
<path d="M90.9941 49.6149C90.9941 70.3832 74.1581 87.2192 53.3898 87.2192C32.6215 87.2192 15.7855 70.3832 15.7855 49.6149C15.7855 28.8466 32.6215 12.0106 53.3898 12.0106C74.1581 12.0106 90.9941 28.8466 90.9941 49.6149Z" stroke="#2B892B" stroke-width="0.456732"/>
</g>
<g filter="url(#filter3_d_4037_76443)">
<path d="M94.954 49.7307C94.954 72.6221 76.3969 91.1792 53.5055 91.1792C30.6142 91.1792 12.0571 72.6221 12.0571 49.7307C12.0571 26.8394 30.6142 8.28227 53.5055 8.28227C76.3969 8.28227 94.954 26.8394 94.954 49.7307Z" stroke="#2B892B" stroke-width="0.228366"/>
</g>
<path d="M44.4796 47.3481L44.4802 47.3484L47.8681 48.7202C48.0381 48.7889 48.1898 48.8949 48.3109 49.0306C48.432 49.1663 48.519 49.3279 48.5642 49.5028L44.4796 47.3481ZM44.4796 47.3481C44.2768 47.2667 44.0548 47.241 43.8381 47.2734C43.6214 47.3059 43.4174 47.3954 43.2491 47.5332L43.2487 47.5336L38.2294 51.6629L38.2294 51.663C38.076 51.7892 37.9577 51.9515 37.8865 52.1352C37.8154 52.3186 37.7939 52.5167 37.8244 52.7106C38.245 55.4697 39.2531 58.1165 40.7858 60.4871L44.4796 47.3481ZM72.7527 44.1824L72.7513 44.183L69.1849 45.6275L69.1848 45.6275C68.9835 45.709 68.7631 45.7355 68.5477 45.7045C68.3322 45.6736 68.1289 45.5863 67.9603 45.451L61.1783 40.0119C61.1781 40.0117 61.1779 40.0116 61.1777 40.0114C61.0438 39.9053 60.9348 39.7718 60.8593 39.6198C60.7836 39.4676 60.7434 39.3009 60.742 39.1315L60.742 39.1296L60.742 35.2584V35.2583C60.7421 35.0672 60.7916 34.8795 60.8853 34.7121C60.979 34.5448 61.1138 34.4033 61.2768 34.2993L61.2769 34.2992L66.4407 31.0092C66.6072 30.903 66.7981 30.839 66.996 30.8224C67.1936 30.8059 67.3927 30.8372 67.5751 30.9137C67.5753 30.9138 67.5754 30.9138 67.5756 30.9139L67.4871 31.1244L72.7527 44.1824ZM72.7527 44.1824C72.9041 44.12 73.0409 44.0277 73.1541 43.9111C73.2672 43.7946 73.3544 43.6562 73.4094 43.5045C73.4094 43.5042 73.4095 43.504 73.4096 43.5038M72.7527 44.1824L73.4096 43.5038M56.8056 34.2992L56.8057 34.2993C56.9688 34.4033 57.1035 34.5448 57.1972 34.7121C57.291 34.8795 57.3404 35.0672 57.3405 35.2583V35.2584V39.1296C57.3405 39.2993 57.3016 39.4666 57.2269 39.6196C57.1523 39.7726 57.0439 39.9072 56.9102 40.0144L50.127 45.4544C50.127 45.4545 50.127 45.4545 50.127 45.4545C49.9584 45.5897 49.7551 45.6771 49.5397 45.708C49.3242 45.7389 49.1039 45.7124 48.9026 45.631L48.9024 45.6309L45.3312 44.183C45.3312 44.183 45.3312 44.183 45.3312 44.183C45.1789 44.1213 45.0411 44.0296 44.9268 43.9132C44.8125 43.7968 44.7243 43.6581 44.6684 43.5058L42.4899 37.5831L42.4898 37.5829L42.7042 37.5041L56.8056 34.2992ZM56.8056 34.2992L51.641 31.0094C51.6409 31.0094 51.6409 31.0094 51.6409 31.0093C51.476 30.9037 51.2869 30.8396 51.0908 30.8221C50.8946 30.8045 50.6968 30.8341 50.515 30.9085L50.5136 30.909M56.8056 34.2992L50.5136 30.909M50.5136 30.909C47.5088 32.1615 44.8416 34.0532 42.7151 36.4407L50.5136 30.909ZM53.9503 58.7295H53.9508H64.1317H64.1322C64.3392 58.73 64.543 58.7824 64.7233 58.8822C64.9034 58.9819 65.0543 59.1257 65.1599 59.3003C65.16 59.3005 65.1602 59.3007 65.1603 59.301L66.9898 62.297L53.9503 58.7295ZM53.9503 58.7295C53.7433 58.73 53.5395 58.7824 53.3592 58.8822C53.179 58.9819 53.0281 59.1258 52.9225 59.3004C52.9224 59.3006 52.9223 59.3008 52.9222 59.301L51.0937 62.2973C51.0013 62.4488 50.9458 62.619 50.9321 62.7952C50.9184 62.9713 50.947 63.1479 51.0153 63.3113M53.9503 58.7295L51.0153 63.3113M64.497 68.9493L64.7081 69.0364C64.6356 69.212 64.5198 69.367 64.3716 69.4882C64.2236 69.6094 64.0477 69.6934 63.8594 69.7339C63.8592 69.7339 63.8591 69.734 63.8589 69.734L64.497 68.9493ZM64.497 68.9493L64.7081 69.0364L67.0698 63.311C67.1378 63.1475 67.1661 62.9709 67.1522 62.7947C67.1382 62.6187 67.0826 62.4486 66.99 62.2973L64.497 68.9493ZM73.4096 43.5038L75.5875 37.5827C75.5876 37.5825 75.5877 37.5822 75.5878 37.582C75.6592 37.39 75.6765 37.183 75.6376 36.9821C75.5988 36.7813 75.5054 36.5949 75.368 36.4415L73.4096 43.5038ZM51.0153 63.3113L53.3938 69.0391C53.4661 69.2135 53.5813 69.3674 53.7283 69.4881C53.8754 69.6087 54.0501 69.6928 54.2371 69.7338L51.0153 63.3113ZM76.2826 61.0307H76.2827C76.4869 61.0307 76.6881 60.98 76.8668 60.8831C77.0451 60.7865 77.1955 60.6467 77.3024 60.4765C78.8345 58.1064 79.8422 55.4604 80.2628 52.7021C80.2935 52.5079 80.272 52.3096 80.2009 52.126C80.1297 51.9423 80.0113 51.78 79.858 51.6538L79.8579 51.6537L74.8386 47.5243L74.8386 47.5243C74.6697 47.3854 74.4646 47.2952 74.2468 47.2628C74.029 47.2303 73.8058 47.2566 73.6022 47.3392L70.2144 48.711C70.0445 48.7797 69.8927 48.8857 69.7716 49.0214C69.6505 49.1571 69.5635 49.3188 69.5182 49.4939L67.7268 56.4005C67.6492 56.696 67.6964 57.0084 67.8566 57.2695C67.8567 57.2696 67.8567 57.2697 67.8568 57.2698L69.8019 60.4593C69.8019 60.4593 69.8019 60.4594 69.802 60.4594C69.9076 60.6343 70.0586 60.7783 70.2389 60.8781C70.4192 60.9779 70.623 61.0303 70.83 61.0307H70.8305H76.2826ZM50.3557 56.4098L48.5643 49.5031L50.1348 56.4678L50.3559 56.4105L50.3558 56.4102C50.3558 56.4101 50.3557 56.4099 50.3557 56.4098ZM48.2806 60.4593L50.2257 57.279L41.3289 60.6853C41.4728 60.7622 41.635 60.8025 41.7999 60.8024V61.0307H41.8H47.252H47.2525C47.4595 61.0303 47.6633 60.9779 47.8436 60.8781C48.0238 60.7784 48.1747 60.6346 48.2803 60.4599C48.2804 60.4597 48.2805 60.4595 48.2806 60.4593ZM34.1913 49.7354C34.1913 36.6495 45.3296 25.9853 59.0413 25.9853C72.753 25.9853 83.8913 36.6495 83.8913 49.7354C83.8913 62.8213 72.753 73.4855 59.0413 73.4855C45.3296 73.4855 34.1913 62.8213 34.1913 49.7354Z" fill="#2B892B" stroke="#2B892B" stroke-width="0.456732"/>
<defs>
<filter id="filter0_d_4037_76443" x="13.2694" y="13.1485" width="80.5369" height="80.5372" filterUnits="userSpaceOnUse" color-interpolation-filters="sRGB">
<feFlood flood-opacity="0" result="BackgroundImageFix"/>
<feColorMatrix in="SourceAlpha" type="matrix" values="0 0 0 0 0 0 0 0 0 0 0 0 0 0 0 0 0 0 127 0" result="hardAlpha"/>
<feOffset dy="3.65386"/>
<feGaussianBlur stdDeviation="5.48079"/>
<feColorMatrix type="matrix" values="0 0 0 0 0.08 0 0 0 0 0.08 0 0 0 0 0.08 0 0 0 0.16 0"/>
<feBlend mode="normal" in2="BackgroundImageFix" result="effect1_dropShadow_4037_76443"/>
<feBlend mode="normal" in="SourceGraphic" in2="effect1_dropShadow_4037_76443" result="shape"/>
</filter>
<filter id="filter1_d_4037_76443" x="8.93247" y="8.81142" width="89.0628" height="89.0628" filterUnits="userSpaceOnUse" color-interpolation-filters="sRGB">
<feFlood flood-opacity="0" result="BackgroundImageFix"/>
<feColorMatrix in="SourceAlpha" type="matrix" values="0 0 0 0 0 0 0 0 0 0 0 0 0 0 0 0 0 0 127 0" result="hardAlpha"/>
<feOffset dy="3.65386"/>
<feGaussianBlur stdDeviation="5.48079"/>
<feColorMatrix type="matrix" values="0 0 0 0 0.08 0 0 0 0 0.08 0 0 0 0 0.08 0 0 0 0.16 0"/>
<feBlend mode="normal" in2="BackgroundImageFix" result="effect1_dropShadow_4037_76443"/>
<feBlend mode="normal" in="SourceGraphic" in2="effect1_dropShadow_4037_76443" result="shape"/>
</filter>
<filter id="filter2_d_4037_76443" x="4.59555" y="4.47451" width="97.5887" height="97.5884" filterUnits="userSpaceOnUse" color-interpolation-filters="sRGB">
<feFlood flood-opacity="0" result="BackgroundImageFix"/>
<feColorMatrix in="SourceAlpha" type="matrix" values="0 0 0 0 0 0 0 0 0 0 0 0 0 0 0 0 0 0 127 0" result="hardAlpha"/>
<feOffset dy="3.65386"/>
<feGaussianBlur stdDeviation="5.48079"/>
<feColorMatrix type="matrix" values="0 0 0 0 0.08 0 0 0 0 0.08 0 0 0 0 0.08 0 0 0 0.16 0"/>
<feBlend mode="normal" in2="BackgroundImageFix" result="effect1_dropShadow_4037_76443"/>
<feBlend mode="normal" in="SourceGraphic" in2="effect1_dropShadow_4037_76443" result="shape"/>
</filter>
<filter id="filter3_d_4037_76443" x="0.981295" y="0.860373" width="105.049" height="105.048" filterUnits="userSpaceOnUse" color-interpolation-filters="sRGB">
<feFlood flood-opacity="0" result="BackgroundImageFix"/>
<feColorMatrix in="SourceAlpha" type="matrix" values="0 0 0 0 0 0 0 0 0 0 0 0 0 0 0 0 0 0 127 0" result="hardAlpha"/>
<feOffset dy="3.65386"/>
<feGaussianBlur stdDeviation="5.48079"/>
<feColorMatrix type="matrix" values="0 0 0 0 0.08 0 0 0 0 0.08 0 0 0 0 0.08 0 0 0 0.16 0"/>
<feBlend mode="normal" in2="BackgroundImageFix" result="effect1_dropShadow_4037_76443"/>
<feBlend mode="normal" in="SourceGraphic" in2="effect1_dropShadow_4037_76443" result="shape"/>
</filter>
</defs>
</svg>
