<svg width="395" height="470" viewBox="0 0 395 470" fill="none" xmlns="http://www.w3.org/2000/svg">
<g filter="url(#filter0_d_4037_76601)">
<circle cx="216.834" cy="231.535" r="149.124" stroke="#2B892B" stroke-width="4.06463"/>
</g>
<g filter="url(#filter1_d_4037_76601)">
<circle cx="216.451" cy="231.153" r="172.127" stroke="#2B892B" stroke-width="2.03232"/>
</g>
<g filter="url(#filter2_d_4037_76601)">
<circle cx="216.069" cy="230.77" r="194.622" stroke="#2B892B" stroke-width="1.01616"/>
</g>
<g filter="url(#filter3_d_4037_76601)">
<circle cx="216.667" cy="231.368" r="214.114" stroke="#2B892B" stroke-width="0.508079"/>
</g>
<path d="M274.807 304.174H274.806C273.878 304.172 272.969 303.911 272.169 303.421C271.371 302.931 270.711 302.23 270.253 301.39C270.253 301.39 270.253 301.39 270.253 301.39L260.659 283.96C260.658 283.96 260.658 283.959 260.658 283.959L260.658 283.959L261.103 283.714C260.471 282.574 260.288 281.217 260.592 279.935L274.807 304.174ZM274.807 304.174H301.692C302.607 304.173 303.505 303.922 304.298 303.446C305.089 302.97 305.747 302.288 306.211 301.468L274.807 304.174ZM318.949 254.273L318.949 254.273C319.623 254.888 320.136 255.671 320.443 256.548C320.749 257.424 320.841 258.367 320.709 259.29C320.709 259.291 320.709 259.292 320.709 259.293L320.206 259.221C318.156 274.118 313.243 288.411 305.771 301.216L318.949 254.273ZM318.949 254.273L294.198 231.714L293.856 232.089M318.949 254.273L293.856 232.089M293.856 232.089L294.198 231.713C293.455 231.037 292.545 230.59 291.57 230.429C290.594 230.268 289.596 230.399 288.69 230.807M293.856 232.089L288.69 230.807M144.655 230.856L144.657 230.857L161.363 238.352C161.363 238.352 161.363 238.352 161.363 238.352C162.119 238.69 162.787 239.21 163.316 239.867C163.845 240.523 164.22 241.299 164.414 242.132L144.655 230.856ZM144.655 230.856C143.752 230.455 142.759 230.326 141.789 230.487C140.818 230.648 139.913 231.091 139.173 231.763L139.172 231.764L114.421 254.323L114.421 254.323C113.747 254.938 113.234 255.722 112.927 256.599C112.621 257.475 112.529 258.419 112.661 259.342C114.72 274.303 119.654 288.659 127.16 301.522L144.655 230.856ZM284.067 212.177L284.064 212.179L266.477 220.07L266.477 220.07C265.581 220.472 264.595 220.604 263.63 220.451C262.666 220.297 261.763 219.865 261.021 219.205C261.021 219.205 261.021 219.205 261.021 219.205L227.575 189.487C227.574 189.487 227.574 189.486 227.573 189.486C226.983 188.968 226.509 188.322 226.183 187.595C225.856 186.866 225.684 186.072 225.678 185.267L225.678 185.263L225.678 164.115V164.114C225.678 163.207 225.89 162.313 226.295 161.511C226.701 160.708 227.289 160.021 228.009 159.512L228.009 159.511L253.473 141.537L284.067 212.177ZM284.067 212.177C284.74 211.869 285.344 211.417 285.839 210.852C286.335 210.286 286.712 209.619 286.949 208.894M284.067 212.177L286.949 208.894M205.337 159.511L205.337 159.512C206.058 160.021 206.645 160.708 207.051 161.511C207.456 162.313 207.668 163.207 207.669 164.114V164.115V185.263C207.669 186.069 207.502 186.866 207.179 187.598C206.857 188.33 206.386 188.981 205.798 189.504L205.337 159.511ZM205.337 159.511L179.868 141.538C179.868 141.538 179.868 141.538 179.868 141.538C179.139 141.02 178.297 140.702 177.418 140.615C176.54 140.528 175.655 140.675 174.846 141.042L174.842 141.044C160.105 147.85 147.03 158.126 136.61 171.088C136.005 171.828 135.597 172.722 135.426 173.679C135.255 174.636 135.325 175.624 135.631 176.544L146.374 208.902C146.615 209.629 146.996 210.296 147.497 210.86C147.997 211.425 148.605 211.875 149.282 212.179L166.892 220.089L166.893 220.089C167.789 220.491 168.775 220.623 169.74 220.469C170.704 220.316 171.607 219.884 172.349 219.224C172.349 219.224 172.349 219.224 172.349 219.224L205.798 189.504L205.337 159.511ZM191.571 293.081L191.572 293.081L241.775 293.081H241.776C242.704 293.083 243.613 293.344 244.412 293.834C245.21 294.323 245.87 295.024 246.328 295.863L191.571 293.081ZM191.571 293.081C190.643 293.083 189.733 293.344 188.934 293.834C188.135 294.324 187.475 295.025 187.017 295.865C187.017 295.865 187.017 295.865 187.017 295.865L177.999 312.238C177.599 312.965 177.361 313.777 177.302 314.614C177.243 315.45 177.366 316.29 177.66 317.071M191.571 293.081L177.66 317.071M288.689 230.807L271.983 238.301L288.689 230.807ZM288.689 230.807C288.689 230.807 288.69 230.807 288.69 230.807M288.689 230.807L288.69 230.807M286.949 208.894L297.691 176.539C297.691 176.539 297.691 176.539 297.691 176.538C297.999 175.622 298.073 174.637 297.906 173.681C297.739 172.726 297.337 171.831 296.736 171.088C286.323 158.139 273.258 147.872 258.534 141.069M286.949 208.894L258.534 141.069M258.534 141.069C258.534 141.069 258.534 141.069 258.535 141.07L258.32 141.53L258.534 141.069ZM258.534 141.069C257.722 140.691 256.831 140.536 255.946 140.618C255.059 140.7 254.209 141.017 253.473 141.537L258.534 141.069ZM177.66 317.071L189.39 348.364C189.701 349.198 190.201 349.941 190.847 350.529C191.494 351.117 192.268 351.532 193.105 351.735C193.105 351.735 193.105 351.735 193.105 351.735L177.66 317.071ZM173.249 279.868L164.415 242.132L129.332 303.026C130.041 303.446 130.841 303.666 131.654 303.666V304.174H131.655L158.539 304.174L158.54 304.174C159.468 304.172 160.378 303.911 161.177 303.421C161.976 302.931 162.636 302.23 163.093 301.39C163.093 301.39 163.094 301.39 163.094 301.39L172.688 284.01C173.381 282.759 173.582 281.273 173.249 279.869C173.249 279.869 173.249 279.868 173.249 279.868ZM255.353 312.237L246.329 295.865L255.353 312.237ZM93.5174 243.205C93.5174 171.226 148.793 112.715 216.673 112.715C284.553 112.715 339.829 171.226 339.829 243.205C339.829 315.184 284.553 373.695 216.673 373.695C148.793 373.695 93.5174 315.184 93.5174 243.205ZM240.312 351.735C241.154 351.534 241.934 351.119 242.586 350.529C243.237 349.938 243.74 349.19 244.052 348.351L255.699 317.07C255.992 316.289 256.113 315.449 256.053 314.612C255.993 313.776 255.754 312.964 255.353 312.238L240.312 351.735Z" fill="#2B892B" stroke="#2B892B" stroke-width="1.01616"/>
<g filter="url(#filter4_d_4037_76601)">
<circle cx="215.158" cy="232.699" r="88.7651" fill="#196719"/>
</g>
<g filter="url(#filter5_d_4037_76601)">
<circle cx="216.735" cy="233.094" r="67.3469" fill="white"/>
<circle cx="216.736" cy="233.094" r="39.9093" fill="#CCFF33"/>
<path d="M294.06 233.094C294.06 275.799 259.44 310.418 216.735 310.418C174.03 310.418 139.411 275.799 139.411 233.094C139.411 190.389 174.03 155.77 216.735 155.77C259.44 155.77 294.06 190.389 294.06 233.094ZM153.477 233.094C153.477 268.03 181.799 296.352 216.735 296.352C251.672 296.352 279.993 268.03 279.993 233.094C279.993 198.157 251.672 169.836 216.735 169.836C181.799 169.836 153.477 198.157 153.477 233.094Z" fill="#CDDDCD"/>
<path d="M271.61 233.094C271.61 263.401 247.042 287.969 216.735 287.969C186.428 287.969 161.86 263.401 161.86 233.094C161.86 202.787 186.428 178.219 216.735 178.219C247.042 178.219 271.61 202.787 271.61 233.094ZM173.932 233.094C173.932 256.733 193.096 275.897 216.735 275.897C240.374 275.897 259.538 256.733 259.538 233.094C259.538 209.455 240.374 190.291 216.735 190.291C193.096 190.291 173.932 209.455 173.932 233.094Z" fill="#70E000"/>
<path d="M271.61 233.094C271.61 240.301 270.191 247.436 267.433 254.094C264.676 260.752 260.633 266.801 255.538 271.897C250.442 276.993 244.393 281.035 237.735 283.792C231.077 286.55 223.941 287.969 216.735 287.969C209.529 287.969 202.393 286.55 195.735 283.792C189.078 281.035 183.028 276.993 177.932 271.897C172.837 266.801 168.795 260.752 166.037 254.094C163.279 247.436 161.86 240.301 161.86 233.094H173.932C173.932 238.715 175.04 244.281 177.191 249.474C179.342 254.667 182.494 259.386 186.469 263.36C190.444 267.335 195.162 270.488 200.355 272.639C205.548 274.79 211.114 275.897 216.735 275.897C222.356 275.897 227.922 274.79 233.115 272.639C238.308 270.488 243.027 267.335 247.001 263.36C250.976 259.386 254.129 254.667 256.28 249.474C258.431 244.281 259.538 238.715 259.538 233.094H271.61Z" fill="#196719"/>
<path d="M216.736 192.561C194.386 192.561 176.203 210.744 176.203 233.094C176.203 255.444 194.386 273.627 216.736 273.627C239.085 273.627 257.268 255.444 257.268 233.094C257.268 210.744 239.085 192.561 216.736 192.561ZM244.602 251.802H235.79C235.517 251.801 235.249 251.729 235.012 251.592C234.776 251.455 234.58 251.259 234.443 251.022L231.298 245.628C231.091 245.275 231.031 244.856 231.131 244.459L234.026 232.782C234.084 232.547 234.197 232.329 234.354 232.144C234.511 231.96 234.709 231.815 234.932 231.72L240.408 229.401C240.676 229.288 240.97 229.251 241.257 229.296C241.544 229.341 241.813 229.465 242.033 229.655L250.146 236.635C250.346 236.807 250.499 237.027 250.591 237.275C250.682 237.522 250.71 237.789 250.67 238.05C249.998 242.659 248.388 247.081 245.939 251.044C245.8 251.275 245.604 251.466 245.37 251.599C245.136 251.732 244.871 251.801 244.602 251.802ZM193.063 229.417L198.539 231.736C198.762 231.83 198.96 231.975 199.117 232.16C199.274 232.344 199.387 232.563 199.445 232.798L202.34 244.474C202.44 244.871 202.38 245.291 202.173 245.644L199.028 251.022C198.891 251.259 198.695 251.455 198.459 251.592C198.222 251.729 197.954 251.801 197.681 251.802H188.869C188.603 251.802 188.341 251.734 188.108 251.604C187.875 251.474 187.68 251.286 187.54 251.059C185.091 247.097 183.481 242.675 182.809 238.065C182.769 237.804 182.797 237.538 182.888 237.29C182.98 237.043 183.133 236.823 183.333 236.65L191.445 229.67C191.665 229.482 191.932 229.359 192.218 229.314C192.504 229.269 192.796 229.305 193.063 229.417ZM243.133 212.416L239.611 222.429C239.54 222.634 239.428 222.821 239.281 222.98C239.133 223.139 238.955 223.265 238.756 223.351L232.992 225.792C232.727 225.904 232.437 225.941 232.153 225.898C231.869 225.856 231.602 225.735 231.382 225.551L220.419 216.355C220.243 216.21 220.102 216.028 220.004 215.823C219.907 215.618 219.855 215.393 219.853 215.166V208.622C219.854 208.366 219.917 208.114 220.038 207.888C220.159 207.661 220.334 207.469 220.547 207.326L228.893 201.765C229.111 201.62 229.362 201.531 229.623 201.509C229.884 201.486 230.146 201.529 230.386 201.634C235.189 203.729 239.45 206.891 242.848 210.879C243.027 211.087 243.147 211.339 243.197 211.609C243.247 211.879 243.225 212.158 243.133 212.416ZM204.576 201.765L212.924 207.326C213.137 207.469 213.312 207.661 213.433 207.888C213.554 208.114 213.617 208.366 213.618 208.622V215.166C213.618 215.394 213.568 215.619 213.471 215.825C213.375 216.032 213.235 216.214 213.06 216.361L202.097 225.557C201.877 225.741 201.61 225.861 201.326 225.904C201.042 225.947 200.752 225.91 200.487 225.798L194.715 223.351C194.515 223.266 194.335 223.14 194.186 222.982C194.038 222.824 193.924 222.636 193.852 222.431L190.331 212.418C190.239 212.159 190.218 211.88 190.269 211.609C190.321 211.339 190.443 211.087 190.623 210.879C194.022 206.887 198.288 203.722 203.095 201.627C203.333 201.524 203.594 201.484 203.853 201.508C204.111 201.532 204.36 201.62 204.576 201.765ZM207.949 265.577L204.104 255.894C204.016 255.674 203.98 255.436 203.997 255.2C204.015 254.964 204.086 254.734 204.205 254.53L207.162 249.463C207.298 249.227 207.494 249.03 207.731 248.893C207.967 248.757 208.235 248.684 208.508 248.684H224.963C225.236 248.684 225.504 248.757 225.74 248.893C225.977 249.03 226.173 249.227 226.309 249.463L229.268 254.53C229.387 254.734 229.459 254.963 229.477 255.2C229.495 255.436 229.458 255.674 229.371 255.894L225.553 265.573C225.46 265.81 225.31 266.02 225.117 266.185C224.924 266.351 224.693 266.466 224.445 266.522C219.379 267.685 214.116 267.685 209.05 266.522C208.803 266.466 208.574 266.35 208.383 266.185C208.191 266.021 208.042 265.812 207.949 265.577Z" fill="#196719"/>
</g>
<path d="M294.284 124.691C294.546 123.983 295.547 123.983 295.809 124.691L300.67 137.83C300.753 138.052 300.928 138.228 301.151 138.31L314.29 143.172C314.997 143.434 314.997 144.435 314.29 144.697L301.151 149.558C300.928 149.641 300.753 149.816 300.67 150.039L295.809 163.177C295.547 163.885 294.546 163.885 294.284 163.177L289.422 150.039C289.34 149.816 289.164 149.641 288.942 149.558L275.803 144.697C275.095 144.435 275.095 143.434 275.803 143.172L288.942 138.31C289.164 138.228 289.34 138.052 289.422 137.83L294.284 124.691Z" fill="#70E000"/>
<path d="M111.714 166.526C111.877 166.083 112.503 166.083 112.667 166.526L115.945 175.385C115.997 175.524 116.106 175.634 116.245 175.686L125.105 178.964C125.547 179.128 125.547 179.753 125.105 179.917L116.245 183.195C116.106 183.247 115.997 183.356 115.945 183.496L112.667 192.355C112.503 192.797 111.877 192.797 111.714 192.355L108.435 183.496C108.384 183.356 108.274 183.247 108.135 183.195L99.2755 179.917C98.8332 179.753 98.8332 179.128 99.2755 178.964L108.135 175.686C108.274 175.634 108.384 175.524 108.435 175.385L111.714 166.526Z" fill="#70E000"/>
<path d="M138.629 307.777C138.695 307.6 138.945 307.6 139.011 307.777L140.705 312.357C140.726 312.413 140.77 312.456 140.826 312.477L145.406 314.172C145.583 314.237 145.583 314.488 145.406 314.553L140.826 316.248C140.77 316.269 140.726 316.313 140.705 316.368L139.011 320.949C138.945 321.126 138.695 321.126 138.629 320.949L136.934 316.368C136.914 316.313 136.87 316.269 136.814 316.248L132.234 314.553C132.057 314.488 132.057 314.237 132.234 314.172L136.814 312.477C136.87 312.456 136.914 312.413 136.934 312.357L138.629 307.777Z" fill="#70E000"/>
<defs>
<filter id="filter0_d_4037_76601" x="41.2894" y="64.1198" width="351.089" height="351.089" filterUnits="userSpaceOnUse" color-interpolation-filters="sRGB">
<feFlood flood-opacity="0" result="BackgroundImageFix"/>
<feColorMatrix in="SourceAlpha" type="matrix" values="0 0 0 0 0 0 0 0 0 0 0 0 0 0 0 0 0 0 127 0" result="hardAlpha"/>
<feOffset dy="8.12927"/>
<feGaussianBlur stdDeviation="12.1939"/>
<feColorMatrix type="matrix" values="0 0 0 0 0.08 0 0 0 0 0.08 0 0 0 0 0.08 0 0 0 0.16 0"/>
<feBlend mode="normal" in2="BackgroundImageFix" result="effect1_dropShadow_4037_76601"/>
<feBlend mode="normal" in="SourceGraphic" in2="effect1_dropShadow_4037_76601" result="shape"/>
</filter>
<filter id="filter1_d_4037_76601" x="18.9203" y="41.7509" width="395.062" height="395.062" filterUnits="userSpaceOnUse" color-interpolation-filters="sRGB">
<feFlood flood-opacity="0" result="BackgroundImageFix"/>
<feColorMatrix in="SourceAlpha" type="matrix" values="0 0 0 0 0 0 0 0 0 0 0 0 0 0 0 0 0 0 127 0" result="hardAlpha"/>
<feOffset dy="8.12927"/>
<feGaussianBlur stdDeviation="12.1939"/>
<feColorMatrix type="matrix" values="0 0 0 0 0.08 0 0 0 0 0.08 0 0 0 0 0.08 0 0 0 0.16 0"/>
<feBlend mode="normal" in2="BackgroundImageFix" result="effect1_dropShadow_4037_76601"/>
<feBlend mode="normal" in="SourceGraphic" in2="effect1_dropShadow_4037_76601" result="shape"/>
</filter>
<filter id="filter2_d_4037_76601" x="-3.44835" y="19.3822" width="439.035" height="439.035" filterUnits="userSpaceOnUse" color-interpolation-filters="sRGB">
<feFlood flood-opacity="0" result="BackgroundImageFix"/>
<feColorMatrix in="SourceAlpha" type="matrix" values="0 0 0 0 0 0 0 0 0 0 0 0 0 0 0 0 0 0 127 0" result="hardAlpha"/>
<feOffset dy="8.12927"/>
<feGaussianBlur stdDeviation="12.1939"/>
<feColorMatrix type="matrix" values="0 0 0 0 0.08 0 0 0 0 0.08 0 0 0 0 0.08 0 0 0 0.16 0"/>
<feBlend mode="normal" in2="BackgroundImageFix" result="effect1_dropShadow_4037_76601"/>
<feBlend mode="normal" in="SourceGraphic" in2="effect1_dropShadow_4037_76601" result="shape"/>
</filter>
<filter id="filter3_d_4037_76601" x="-22.089" y="0.741463" width="477.511" height="477.511" filterUnits="userSpaceOnUse" color-interpolation-filters="sRGB">
<feFlood flood-opacity="0" result="BackgroundImageFix"/>
<feColorMatrix in="SourceAlpha" type="matrix" values="0 0 0 0 0 0 0 0 0 0 0 0 0 0 0 0 0 0 127 0" result="hardAlpha"/>
<feOffset dy="8.12927"/>
<feGaussianBlur stdDeviation="12.1939"/>
<feColorMatrix type="matrix" values="0 0 0 0 0.08 0 0 0 0 0.08 0 0 0 0 0.08 0 0 0 0.16 0"/>
<feBlend mode="normal" in2="BackgroundImageFix" result="effect1_dropShadow_4037_76601"/>
<feBlend mode="normal" in="SourceGraphic" in2="effect1_dropShadow_4037_76601" result="shape"/>
</filter>
<filter id="filter4_d_4037_76601" x="102.005" y="127.676" width="226.306" height="226.306" filterUnits="userSpaceOnUse" color-interpolation-filters="sRGB">
<feFlood flood-opacity="0" result="BackgroundImageFix"/>
<feColorMatrix in="SourceAlpha" type="matrix" values="0 0 0 0 0 0 0 0 0 0 0 0 0 0 0 0 0 0 127 0" result="hardAlpha"/>
<feOffset dy="8.12927"/>
<feGaussianBlur stdDeviation="12.1939"/>
<feColorMatrix type="matrix" values="0 0 0 0 0.08 0 0 0 0 0.08 0 0 0 0 0.08 0 0 0 0.16 0"/>
<feBlend mode="normal" in2="BackgroundImageFix" result="effect1_dropShadow_4037_76601"/>
<feBlend mode="normal" in="SourceGraphic" in2="effect1_dropShadow_4037_76601" result="shape"/>
</filter>
<filter id="filter5_d_4037_76601" x="131.282" y="149.673" width="170.907" height="170.907" filterUnits="userSpaceOnUse" color-interpolation-filters="sRGB">
<feFlood flood-opacity="0" result="BackgroundImageFix"/>
<feColorMatrix in="SourceAlpha" type="matrix" values="0 0 0 0 0 0 0 0 0 0 0 0 0 0 0 0 0 0 127 0" result="hardAlpha"/>
<feOffset dy="2.03232"/>
<feGaussianBlur stdDeviation="4.06463"/>
<feColorMatrix type="matrix" values="0 0 0 0 0.08 0 0 0 0 0.08 0 0 0 0 0.08 0 0 0 0.08 0"/>
<feBlend mode="normal" in2="BackgroundImageFix" result="effect1_dropShadow_4037_76601"/>
<feBlend mode="normal" in="SourceGraphic" in2="effect1_dropShadow_4037_76601" result="shape"/>
</filter>
</defs>
</svg>
