<svg width="941" height="306" viewBox="0 0 941 306" fill="none" xmlns="http://www.w3.org/2000/svg">
<g filter="url(#filter0_d_4037_75326)">
<circle cx="719.055" cy="266.356" r="119.545" stroke="#141414" stroke-width="7.69189"/>
</g>
<g filter="url(#filter1_d_4037_75326)">
<circle cx="718.743" cy="266.044" r="139.415" stroke="#141414" stroke-width="3.84594"/>
</g>
<g filter="url(#filter2_d_4037_75326)">
<circle cx="718.431" cy="265.732" r="158.325" stroke="#141414" stroke-width="1.92297"/>
</g>
<g filter="url(#filter3_d_4037_75326)">
<circle cx="718.919" cy="266.22" r="174.51" stroke="#141414" stroke-width="0.961486"/>
</g>
<path d="M814.818 313.796H814.817H791.862H791.86C790.988 313.794 790.13 313.574 789.371 313.154C788.613 312.734 787.978 312.128 787.533 311.393C787.532 311.392 787.532 311.391 787.531 311.39L779.342 297.962C779.342 297.961 779.341 297.961 779.341 297.96C778.667 296.861 778.468 295.547 778.794 294.304C778.795 294.303 778.795 294.303 778.795 294.302L786.337 265.223L814.818 313.796ZM814.818 313.796C815.677 313.796 816.524 313.583 817.277 313.175C818.027 312.768 818.66 312.18 819.111 311.463C825.561 301.484 829.804 290.344 831.575 278.73C831.704 277.913 831.614 277.078 831.314 276.305C831.014 275.531 830.516 274.848 829.87 274.316L829.87 274.316L808.738 256.93L808.737 256.93M814.818 313.796L808.737 256.93M808.737 256.93C808.026 256.346 807.163 255.966 806.246 255.829C805.329 255.693 804.389 255.803 803.532 256.151C803.532 256.151 803.532 256.151 803.532 256.151L789.268 261.927C788.553 262.216 787.914 262.662 787.404 263.234C786.894 263.805 786.528 264.485 786.337 265.222L808.737 256.93ZM680.917 256.189L680.92 256.19L695.184 261.965C695.9 262.255 696.539 262.701 697.048 263.272C697.558 263.844 697.924 264.524 698.115 265.261L680.917 256.189ZM680.917 256.189C680.063 255.846 679.129 255.737 678.217 255.874C677.304 256.011 676.445 256.388 675.737 256.968L675.735 256.969L654.602 274.355L654.602 274.355C653.957 274.887 653.458 275.57 653.159 276.344C652.859 277.117 652.769 277.951 652.898 278.769C654.669 290.384 658.913 301.526 665.365 311.507L680.917 256.189ZM799.955 242.86L799.949 242.863L784.934 248.944L784.933 248.944C784.086 249.287 783.158 249.399 782.251 249.269C781.344 249.138 780.488 248.771 779.778 248.201L751.224 225.301C751.223 225.3 751.222 225.3 751.221 225.299C750.657 224.852 750.199 224.29 749.881 223.65C749.562 223.009 749.393 222.308 749.387 221.594L749.387 221.586L749.387 205.288V205.287C749.387 204.482 749.595 203.692 749.99 202.988L750.829 203.457L749.99 202.988C750.384 202.283 750.952 201.687 751.638 201.249L751.639 201.249L773.38 187.397C773.38 187.397 773.38 187.397 773.38 187.397L773.381 187.397L799.955 242.86ZM799.955 242.86C800.592 242.597 801.168 242.209 801.645 241.718C802.122 241.227 802.488 240.644 802.72 240.006C802.72 240.005 802.721 240.004 802.721 240.003M799.955 242.86L802.721 240.003M810.966 210.268C802.018 200.225 790.797 192.267 778.157 186.995M810.966 210.268L778.157 186.995M810.966 210.268C811.545 210.915 811.938 211.699 812.102 212.545C812.265 213.391 812.192 214.264 811.891 215.073M810.966 210.268L811.891 215.073M778.157 186.995C778.157 186.996 778.158 186.996 778.158 186.996L777.786 187.882L778.156 186.995C778.156 186.995 778.157 186.995 778.157 186.995ZM811.891 215.073C811.891 215.073 811.891 215.073 811.891 215.073M811.891 215.073L811.891 215.073M811.891 215.073L802.721 240.003M811.891 215.073L802.721 240.003M732.813 201.249L732.814 201.249C733.5 201.687 734.068 202.283 734.462 202.988C734.857 203.692 735.065 204.482 735.066 205.287V205.288V221.586C735.066 222.301 734.902 223.005 734.587 223.649C734.273 224.293 733.817 224.86 733.254 225.311C733.254 225.311 733.254 225.312 733.254 225.312L704.695 248.216C703.985 248.785 703.129 249.153 702.222 249.283C701.315 249.413 700.387 249.302 699.539 248.959L699.539 248.959L684.503 242.863C683.862 242.603 683.281 242.217 682.8 241.727C682.319 241.236 681.948 240.653 681.712 240.011L672.54 215.075L732.813 201.249ZM732.813 201.249L711.069 187.398C711.069 187.398 711.068 187.398 711.068 187.397C710.374 186.953 709.578 186.683 708.752 186.609C707.927 186.535 707.093 186.66 706.328 186.973L706.322 186.975M732.813 201.249L706.322 186.975M706.322 186.975C693.671 192.249 682.442 200.213 673.489 210.265C672.906 210.909 672.508 211.694 672.34 212.54C672.171 213.387 672.241 214.262 672.54 215.074L706.322 186.975ZM720.792 304.107H720.794H763.658H763.66C764.532 304.109 765.39 304.33 766.149 304.75C766.907 305.17 767.542 305.775 767.987 306.509L767.989 306.513M720.792 304.107L767.166 307.01L767.989 306.513M720.792 304.107C719.92 304.109 719.062 304.33 718.303 304.75C717.544 305.17 716.909 305.776 716.464 306.511C716.464 306.512 716.464 306.513 716.463 306.513L708.765 319.129L720.792 304.107ZM767.989 306.513L775.692 319.128L767.989 306.513ZM765.196 347.136L766.085 347.502C765.78 348.242 765.292 348.894 764.668 349.405C764.045 349.915 763.305 350.268 762.512 350.439C749.181 353.364 735.33 353.364 721.999 350.438C721.999 350.438 721.999 350.438 721.999 350.438L765.196 347.136ZM765.196 347.136L766.085 347.502L776.029 323.397C776.029 323.397 776.029 323.396 776.029 323.396C776.315 322.708 776.434 321.964 776.375 321.223C776.317 320.482 776.082 319.766 775.692 319.129L765.196 347.136ZM705.657 294.341L698.115 265.262L667.652 312.342C668.258 312.665 668.941 312.835 669.635 312.835V313.796H669.636H692.59H692.592C693.464 313.794 694.322 313.574 695.081 313.154L694.615 312.312L695.081 313.154C695.84 312.734 696.475 312.128 696.92 311.392C696.92 311.392 696.92 311.391 696.921 311.39L705.11 298C705.785 296.901 705.984 295.586 705.658 294.341C705.658 294.341 705.658 294.341 705.657 294.341ZM637.601 266.24C637.601 211.144 684.496 166.245 742.226 166.245C799.956 166.245 846.852 211.144 846.852 266.24C846.852 321.335 799.956 366.234 742.226 366.234C684.496 366.234 637.601 321.335 637.601 266.24Z" fill="#141414" stroke="#141414" stroke-width="1.92297"/>
<path d="M-16.9066 -24.9568L15.0511 305.442" stroke="#594700" stroke-width="3.66883"/>
<path d="M1.93813 -40.1975L45.8456 352.051" stroke="#594700" stroke-width="3.66883"/>
<path d="M19.3241 -48.894L81.4432 401.067" stroke="#594700" stroke-width="3.66883"/>
<path d="M42.9322 -59.8423L119.41 463.395" stroke="#594700" stroke-width="3.66883"/>
<path d="M56.8959 -73.7181L158.759 522.951" stroke="#594700" stroke-width="3.66883"/>
<path d="M77.4715 -87.3122L199.512 557.401" stroke="#594700" stroke-width="3.66883"/>
<path d="M90.8899 -96.178L227.883 550.745" stroke="#594700" stroke-width="3.66883"/>
<path d="M104.756 -105.339L258.959 541.373" stroke="#594700" stroke-width="3.66883"/>
<path d="M113.313 -113.783L294.039 530.283" stroke="#594700" stroke-width="3.66883"/>
<path d="M123.601 -120.58L325.892 525.978" stroke="#594700" stroke-width="3.66883"/>
<path d="M131.652 -125.899L355.158 518.73" stroke="#594700" stroke-width="3.66883"/>
<path d="M139.664 -129.333L384.561 504.883" stroke="#594700" stroke-width="3.66883"/>
<path d="M145.459 -132.231L413.439 495.103" stroke="#594700" stroke-width="3.66883"/>
<path d="M148.123 -133.062L444.534 484.788" stroke="#594700" stroke-width="3.66883"/>
<path d="M148.064 -130.233L475.162 475.711" stroke="#594700" stroke-width="3.66883"/>
<path d="M147.656 -131.823L507.967 467.986" stroke="#594700" stroke-width="3.66883"/>
<path d="M184.402 562.735L839.585 367.918" stroke="#594700" stroke-width="3.66883"/>
<path d="M154.501 515.534L831.36 360.332" stroke="#594700" stroke-width="3.66883"/>
<path d="M119.818 464.985L829.319 352.381" stroke="#594700" stroke-width="3.66883"/>
<path d="M82.9189 414.971L831.674 345.247" stroke="#594700" stroke-width="3.66883"/>
<path d="M47.9058 359.059L821.99 344.205" stroke="#594700" stroke-width="3.66883"/>
<path d="M10.4248 294.55L825.741 354.745" stroke="#594700" stroke-width="3.66883"/>
<path d="M10.1211 245.464L758.85 346.864" stroke="#594700" stroke-width="3.66883"/>
<path d="M-0.0976562 185.262L784.284 354.239" stroke="#594700" stroke-width="3.66883"/>
<path d="M-0.186523 125.804L794.937 372.308" stroke="#594700" stroke-width="3.66883"/>
<path d="M-6.84668 64.1799L778.329 386.071" stroke="#594700" stroke-width="3.66883"/>
<path d="M-17.5137 4.27197L747.779 391.376" stroke="#594700" stroke-width="3.66883"/>
<path d="M1.06348 -40.5494L717.968 403.633" stroke="#594700" stroke-width="3.66883"/>
<path d="M43.458 -63.9091L689.557 412.175" stroke="#594700" stroke-width="3.66883"/>
<path d="M73.5239 -88.4238L658.462 422.49" stroke="#594700" stroke-width="3.66883"/>
<path d="M96.2769 -100.667C112.951 -87.8775 459.035 261.014 629.992 433.86" stroke="#594700" stroke-width="3.66883"/>
<path d="M115.918 -111.784L599.443 439.166" stroke="#594700" stroke-width="3.66883"/>
<path d="M566.598 448.777L115.533 -135.707" stroke="#594700" stroke-width="3.66883"/>
<path d="M536.379 459.444L134.065 -135.862" stroke="#594700" stroke-width="3.66883"/>
<g filter="url(#filter4_d_4037_75326)">
<circle cx="787.032" cy="162.053" r="90.0532" fill="#141414"/>
<path d="M771.37 88.5479L751.486 111.451L771.37 138.415H812.18L831.752 111.451L812.18 88.5479C795.773 83.0511 778.137 86.2576 771.37 88.5479Z" stroke="url(#paint0_linear_4037_75326)" stroke-width="7.07337"/>
<path d="M812.492 146.223H771.266L758.461 184.325L791.775 208.374L824.673 184.325L812.492 146.223Z" fill="url(#paint1_linear_4037_75326)"/>
<path d="M753.152 182.451L720.775 192.758C716.527 187.678 708.108 172.874 704.43 166.107C702.681 156.113 711.405 136.471 715.986 127.9L745.656 116.344L765.332 143.828L753.152 182.451Z" stroke="url(#paint2_linear_4037_75326)" stroke-width="7.07337"/>
<path d="M787.507 213.059L755.13 189.635L722.753 199.733C722.267 202.683 721.837 209.477 724.002 213.059" stroke="url(#paint3_linear_4037_75326)" stroke-width="7.07337"/>
<path d="M796.46 213.059L829.253 189.739L861.006 200.462L860.277 212.746" stroke="url(#paint4_linear_4037_75326)" stroke-width="7.07337"/>
<path d="M861.318 192.238L831.335 182.868L818.218 143.1L838.206 115.928L861.214 125.714" stroke="url(#paint5_linear_4037_75326)" stroke-width="7.07337"/>
<path d="M840.809 109.369C833.563 105.038 826.963 95.6967 824.568 91.5671C844.807 98.1466 856.182 111.798 859.34 117.802C856.182 116.795 848.055 113.7 840.809 109.369Z" fill="url(#paint6_linear_4037_75326)"/>
<path d="M735.974 104.476C742.179 98.7529 753.927 93.2148 758.565 92.0875C747.843 111.139 730.758 115.64 724.106 116.969C725.966 114.225 729.769 110.199 735.974 104.476Z" fill="url(#paint7_linear_4037_75326)"/>
<path d="M708.282 205.147C705.389 197.217 702.885 184.099 703.051 179.328C718.502 194.795 717.126 212.958 716.611 219.721C714.471 217.191 712.991 218.049 708.282 205.147Z" fill="url(#paint8_linear_4037_75326)"/>
</g>
<g filter="url(#filter5_d_4037_75326)">
<circle cx="613.777" cy="268.747" r="90.0532" fill="#141414"/>
<path d="M552.549 221.464L552.124 248.765L581.448 255.816L609.561 232.166L607.417 202.249L580.662 197.814C566.174 203.535 555.883 215.964 552.549 221.464Z" stroke="url(#paint9_linear_4037_75326)" stroke-width="7.07337"/>
<path d="M614.301 237.364L585.901 261.255L599.161 294.924L636.047 292.185L644.773 256.553L614.301 237.364Z" fill="url(#paint10_linear_4037_75326)"/>
<path d="M594.417 296.71L578.086 322.573C572.216 321.535 557.837 316.216 551.382 313.686C544.385 307.815 539.012 289.228 537.2 280.669L550.943 255.514L580.425 263.044L594.417 296.71Z" stroke="url(#paint11_linear_4037_75326)" stroke-width="7.07337"/>
<path d="M635.822 297.886L599.943 300.513L583.491 326.232C584.866 328.546 588.507 333.476 592.074 334.688" stroke="url(#paint12_linear_4037_75326)" stroke-width="7.07337"/>
<path d="M641.989 292.697L651.066 257.628L679.154 246.613L685.771 255.498" stroke="url(#paint13_linear_4037_75326)" stroke-width="7.07337"/>
<path d="M674.602 240.767L648.518 251.688L616.435 231.894L614.458 201.592L635.979 195" stroke="url(#paint14_linear_4037_75326)" stroke-width="7.07337"/>
<path d="M612.45 195.565C604.949 196.781 594.988 194.171 590.946 192.714C608.701 185.518 624.448 188.33 630.103 190.635C627.344 191.772 619.952 194.35 612.45 195.565Z" fill="url(#paint15_linear_4037_75326)"/>
<path d="M537.396 252.949C538.354 245.411 543.237 234.788 545.779 231.323C549.433 250.661 540.272 263.663 536.46 268.433C536.151 265.465 536.438 260.488 537.396 252.949Z" fill="url(#paint16_linear_4037_75326)"/>
</g>
<g filter="url(#filter6_d_4037_75326)">
<circle cx="738.09" cy="276.577" r="111.588" fill="#141414"/>
<path d="M716.614 179.31L692.938 206.581L716.614 238.687H765.206L788.51 206.581L765.206 179.31C745.67 172.765 724.671 176.583 716.614 179.31Z" stroke="url(#paint17_linear_4037_75326)" stroke-width="7.07337"/>
<path d="M765.577 247.984H716.49L701.243 293.353L740.91 321.988L780.081 293.353L765.577 247.984Z" fill="url(#paint18_linear_4037_75326)"/>
<path d="M694.921 291.122L656.37 303.394C651.312 297.344 641.288 279.717 636.908 271.66C634.826 259.76 645.213 236.373 650.668 226.167L685.996 212.408L709.424 245.133L694.921 291.122Z" stroke="url(#paint19_linear_4037_75326)" stroke-width="7.07337"/>
<path d="M735.827 327.566L697.276 299.675L658.725 311.699C658.146 315.211 657.634 323.302 660.212 327.566" stroke="url(#paint20_linear_4037_75326)" stroke-width="7.07337"/>
<path d="M746.488 327.566L785.535 299.799L823.342 312.567L822.475 327.194" stroke="url(#paint21_linear_4037_75326)" stroke-width="7.07337"/>
<path d="M823.715 302.774L788.014 291.618L772.396 244.265L796.196 211.912L823.591 223.564" stroke="url(#paint22_linear_4037_75326)" stroke-width="7.07337"/>
<path d="M799.295 204.102C790.667 198.946 782.808 187.822 779.957 182.905C804.055 190.739 817.599 206.995 821.359 214.143C817.599 212.945 807.922 209.259 799.295 204.102Z" fill="url(#paint23_linear_4037_75326)"/>
<path d="M674.468 198.276C681.856 191.462 695.844 184.867 701.367 183.525C688.599 206.21 668.257 211.569 660.336 213.151C662.55 209.884 667.079 205.091 674.468 198.276Z" fill="url(#paint24_linear_4037_75326)"/>
<path d="M641.494 318.145C638.049 308.703 635.067 293.083 635.265 287.403C653.663 305.819 652.025 327.445 651.411 335.499C648.863 332.486 647.101 333.508 641.494 318.145Z" fill="url(#paint25_linear_4037_75326)"/>
</g>
<defs>
<filter id="filter0_d_4037_75326" x="549.513" y="112.198" width="339.084" height="339.084" filterUnits="userSpaceOnUse" color-interpolation-filters="sRGB">
<feFlood flood-opacity="0" result="BackgroundImageFix"/>
<feColorMatrix in="SourceAlpha" type="matrix" values="0 0 0 0 0 0 0 0 0 0 0 0 0 0 0 0 0 0 127 0" result="hardAlpha"/>
<feOffset dy="15.3838"/>
<feGaussianBlur stdDeviation="23.0757"/>
<feColorMatrix type="matrix" values="0 0 0 0 0.08 0 0 0 0 0.08 0 0 0 0 0.08 0 0 0 0.16 0"/>
<feBlend mode="normal" in2="BackgroundImageFix" result="effect1_dropShadow_4037_75326"/>
<feBlend mode="normal" in="SourceGraphic" in2="effect1_dropShadow_4037_75326" result="shape"/>
</filter>
<filter id="filter1_d_4037_75326" x="531.253" y="93.9384" width="374.979" height="374.98" filterUnits="userSpaceOnUse" color-interpolation-filters="sRGB">
<feFlood flood-opacity="0" result="BackgroundImageFix"/>
<feColorMatrix in="SourceAlpha" type="matrix" values="0 0 0 0 0 0 0 0 0 0 0 0 0 0 0 0 0 0 127 0" result="hardAlpha"/>
<feOffset dy="15.3838"/>
<feGaussianBlur stdDeviation="23.0757"/>
<feColorMatrix type="matrix" values="0 0 0 0 0.08 0 0 0 0 0.08 0 0 0 0 0.08 0 0 0 0.16 0"/>
<feBlend mode="normal" in2="BackgroundImageFix" result="effect1_dropShadow_4037_75326"/>
<feBlend mode="normal" in="SourceGraphic" in2="effect1_dropShadow_4037_75326" result="shape"/>
</filter>
<filter id="filter2_d_4037_75326" x="512.994" y="75.6786" width="410.875" height="410.875" filterUnits="userSpaceOnUse" color-interpolation-filters="sRGB">
<feFlood flood-opacity="0" result="BackgroundImageFix"/>
<feColorMatrix in="SourceAlpha" type="matrix" values="0 0 0 0 0 0 0 0 0 0 0 0 0 0 0 0 0 0 127 0" result="hardAlpha"/>
<feOffset dy="15.3838"/>
<feGaussianBlur stdDeviation="23.0757"/>
<feColorMatrix type="matrix" values="0 0 0 0 0.08 0 0 0 0 0.08 0 0 0 0 0.08 0 0 0 0.16 0"/>
<feBlend mode="normal" in2="BackgroundImageFix" result="effect1_dropShadow_4037_75326"/>
<feBlend mode="normal" in="SourceGraphic" in2="effect1_dropShadow_4037_75326" result="shape"/>
</filter>
<filter id="filter3_d_4037_75326" x="497.777" y="60.4621" width="442.284" height="442.283" filterUnits="userSpaceOnUse" color-interpolation-filters="sRGB">
<feFlood flood-opacity="0" result="BackgroundImageFix"/>
<feColorMatrix in="SourceAlpha" type="matrix" values="0 0 0 0 0 0 0 0 0 0 0 0 0 0 0 0 0 0 127 0" result="hardAlpha"/>
<feOffset dy="15.3838"/>
<feGaussianBlur stdDeviation="23.0757"/>
<feColorMatrix type="matrix" values="0 0 0 0 0.08 0 0 0 0 0.08 0 0 0 0 0.08 0 0 0 0.16 0"/>
<feBlend mode="normal" in2="BackgroundImageFix" result="effect1_dropShadow_4037_75326"/>
<feBlend mode="normal" in="SourceGraphic" in2="effect1_dropShadow_4037_75326" result="shape"/>
</filter>
<filter id="filter4_d_4037_75326" x="673.401" y="48.4222" width="217.831" height="217.831" filterUnits="userSpaceOnUse" color-interpolation-filters="sRGB">
<feFlood flood-opacity="0" result="BackgroundImageFix"/>
<feColorMatrix in="SourceAlpha" type="matrix" values="0 0 0 0 0 0 0 0 0 0 0 0 0 0 0 0 0 0 127 0" result="hardAlpha"/>
<feOffset dx="-4.71558" dy="-4.71558"/>
<feGaussianBlur stdDeviation="9.43115"/>
<feComposite in2="hardAlpha" operator="out"/>
<feColorMatrix type="matrix" values="0 0 0 0 0 0 0 0 0 0.564706 0 0 0 0 0.145098 0 0 0 0.12 0"/>
<feBlend mode="normal" in2="BackgroundImageFix" result="effect1_dropShadow_4037_75326"/>
<feBlend mode="normal" in="SourceGraphic" in2="effect1_dropShadow_4037_75326" result="shape"/>
</filter>
<filter id="filter5_d_4037_75326" x="500.146" y="155.115" width="217.831" height="217.831" filterUnits="userSpaceOnUse" color-interpolation-filters="sRGB">
<feFlood flood-opacity="0" result="BackgroundImageFix"/>
<feColorMatrix in="SourceAlpha" type="matrix" values="0 0 0 0 0 0 0 0 0 0 0 0 0 0 0 0 0 0 127 0" result="hardAlpha"/>
<feOffset dx="-4.71558" dy="-4.71558"/>
<feGaussianBlur stdDeviation="9.43115"/>
<feComposite in2="hardAlpha" operator="out"/>
<feColorMatrix type="matrix" values="0 0 0 0 0 0 0 0 0 0.564706 0 0 0 0 0.145098 0 0 0 0.12 0"/>
<feBlend mode="normal" in2="BackgroundImageFix" result="effect1_dropShadow_4037_75326"/>
<feBlend mode="normal" in="SourceGraphic" in2="effect1_dropShadow_4037_75326" result="shape"/>
</filter>
<filter id="filter6_d_4037_75326" x="588.778" y="127.265" width="279.762" height="279.762" filterUnits="userSpaceOnUse" color-interpolation-filters="sRGB">
<feFlood flood-opacity="0" result="BackgroundImageFix"/>
<feColorMatrix in="SourceAlpha" type="matrix" values="0 0 0 0 0 0 0 0 0 0 0 0 0 0 0 0 0 0 127 0" result="hardAlpha"/>
<feOffset dx="-9.43115" dy="-9.43115"/>
<feGaussianBlur stdDeviation="14.1467"/>
<feColorMatrix type="matrix" values="0 0 0 0 0 0 0 0 0 0.564706 0 0 0 0 0.145098 0 0 0 0.16 0"/>
<feBlend mode="normal" in2="BackgroundImageFix" result="effect1_dropShadow_4037_75326"/>
<feBlend mode="normal" in="SourceGraphic" in2="effect1_dropShadow_4037_75326" result="shape"/>
</filter>
<linearGradient id="paint0_linear_4037_75326" x1="751.36" y1="114.578" x2="831.625" y2="114.578" gradientUnits="userSpaceOnUse">
<stop stop-color="#FCCE17"/>
<stop offset="1" stop-color="#104210" stop-opacity="0"/>
</linearGradient>
<linearGradient id="paint1_linear_4037_75326" x1="758.357" y1="180.369" x2="824.569" y2="180.369" gradientUnits="userSpaceOnUse">
<stop stop-color="#FCCE17"/>
<stop offset="1" stop-color="#104210" stop-opacity="0"/>
</linearGradient>
<linearGradient id="paint2_linear_4037_75326" x1="704.106" y1="158.327" x2="765.236" y2="158.327" gradientUnits="userSpaceOnUse">
<stop stop-color="#FCCE17"/>
<stop offset="1" stop-color="#104210" stop-opacity="0"/>
</linearGradient>
<linearGradient id="paint3_linear_4037_75326" x1="722.256" y1="202.504" x2="787.405" y2="202.504" gradientUnits="userSpaceOnUse">
<stop stop-color="#FCCE17"/>
<stop offset="1" stop-color="#104210" stop-opacity="0"/>
</linearGradient>
<linearGradient id="paint4_linear_4037_75326" x1="796.358" y1="202.551" x2="860.904" y2="202.551" gradientUnits="userSpaceOnUse">
<stop stop-color="#FCCE17"/>
<stop offset="1" stop-color="#104210" stop-opacity="0"/>
</linearGradient>
<linearGradient id="paint5_linear_4037_75326" x1="818.15" y1="157.854" x2="861.25" y2="157.854" gradientUnits="userSpaceOnUse">
<stop stop-color="#FCCE17"/>
<stop offset="1" stop-color="#104210" stop-opacity="0"/>
</linearGradient>
<linearGradient id="paint6_linear_4037_75326" x1="824.514" y1="105.981" x2="859.285" y2="105.981" gradientUnits="userSpaceOnUse">
<stop stop-color="#FCCE17"/>
<stop offset="1" stop-color="#104210" stop-opacity="0"/>
</linearGradient>
<linearGradient id="paint7_linear_4037_75326" x1="744.878" y1="87.9918" x2="735.359" y2="120.236" gradientUnits="userSpaceOnUse">
<stop stop-color="#FCCE17"/>
<stop offset="1" stop-color="#104210" stop-opacity="0"/>
</linearGradient>
<linearGradient id="paint8_linear_4037_75326" x1="695.12" y1="191.872" x2="723.035" y2="209.384" gradientUnits="userSpaceOnUse">
<stop stop-color="#FCCE17"/>
<stop offset="1" stop-color="#104210" stop-opacity="0"/>
</linearGradient>
<linearGradient id="paint9_linear_4037_75326" x1="553.849" y1="250.992" x2="609.142" y2="204.476" gradientUnits="userSpaceOnUse">
<stop stop-color="#FCCE17"/>
<stop offset="1" stop-color="#104210" stop-opacity="0"/>
</linearGradient>
<linearGradient id="paint10_linear_4037_75326" x1="596.797" y1="292.259" x2="642.409" y2="253.888" gradientUnits="userSpaceOnUse">
<stop stop-color="#FCCE17"/>
<stop offset="1" stop-color="#104210" stop-opacity="0"/>
</linearGradient>
<linearGradient id="paint11_linear_4037_75326" x1="546.649" y1="308.515" x2="588.761" y2="273.088" gradientUnits="userSpaceOnUse">
<stop stop-color="#FCCE17"/>
<stop offset="1" stop-color="#104210" stop-opacity="0"/>
</linearGradient>
<linearGradient id="paint12_linear_4037_75326" x1="584.755" y1="328.429" x2="629.635" y2="290.674" gradientUnits="userSpaceOnUse">
<stop stop-color="#FCCE17"/>
<stop offset="1" stop-color="#104210" stop-opacity="0"/>
</linearGradient>
<linearGradient id="paint13_linear_4037_75326" x1="635.83" y1="285.517" x2="680.295" y2="248.112" gradientUnits="userSpaceOnUse">
<stop stop-color="#FCCE17"/>
<stop offset="1" stop-color="#104210" stop-opacity="0"/>
</linearGradient>
<linearGradient id="paint14_linear_4037_75326" x1="624.939" y1="242.097" x2="654.629" y2="217.12" gradientUnits="userSpaceOnUse">
<stop stop-color="#FCCE17"/>
<stop offset="1" stop-color="#104210" stop-opacity="0"/>
</linearGradient>
<linearGradient id="paint15_linear_4037_75326" x1="599.261" y1="202.675" x2="623.215" y2="182.524" gradientUnits="userSpaceOnUse">
<stop stop-color="#FCCE17"/>
<stop offset="1" stop-color="#104210" stop-opacity="0"/>
</linearGradient>
<linearGradient id="paint16_linear_4037_75326" x1="533.976" y1="236.434" x2="546.105" y2="264.162" gradientUnits="userSpaceOnUse">
<stop stop-color="#FCCE17"/>
<stop offset="1" stop-color="#104210" stop-opacity="0"/>
</linearGradient>
<linearGradient id="paint17_linear_4037_75326" x1="692.787" y1="210.304" x2="788.36" y2="210.304" gradientUnits="userSpaceOnUse">
<stop stop-color="#FCCE17"/>
<stop offset="1" stop-color="#104210" stop-opacity="0"/>
</linearGradient>
<linearGradient id="paint18_linear_4037_75326" x1="701.119" y1="288.643" x2="779.957" y2="288.643" gradientUnits="userSpaceOnUse">
<stop stop-color="#FCCE17"/>
<stop offset="1" stop-color="#104210" stop-opacity="0"/>
</linearGradient>
<linearGradient id="paint19_linear_4037_75326" x1="636.522" y1="262.397" x2="709.31" y2="262.397" gradientUnits="userSpaceOnUse">
<stop stop-color="#FCCE17"/>
<stop offset="1" stop-color="#104210" stop-opacity="0"/>
</linearGradient>
<linearGradient id="paint20_linear_4037_75326" x1="658.133" y1="314.999" x2="735.705" y2="314.999" gradientUnits="userSpaceOnUse">
<stop stop-color="#FCCE17"/>
<stop offset="1" stop-color="#104210" stop-opacity="0"/>
</linearGradient>
<linearGradient id="paint21_linear_4037_75326" x1="746.367" y1="315.054" x2="823.222" y2="315.054" gradientUnits="userSpaceOnUse">
<stop stop-color="#FCCE17"/>
<stop offset="1" stop-color="#104210" stop-opacity="0"/>
</linearGradient>
<linearGradient id="paint22_linear_4037_75326" x1="772.315" y1="261.833" x2="823.634" y2="261.833" gradientUnits="userSpaceOnUse">
<stop stop-color="#FCCE17"/>
<stop offset="1" stop-color="#104210" stop-opacity="0"/>
</linearGradient>
<linearGradient id="paint23_linear_4037_75326" x1="779.892" y1="200.068" x2="821.294" y2="200.068" gradientUnits="userSpaceOnUse">
<stop stop-color="#FCCE17"/>
<stop offset="1" stop-color="#104210" stop-opacity="0"/>
</linearGradient>
<linearGradient id="paint24_linear_4037_75326" x1="685.069" y1="178.648" x2="673.735" y2="217.041" gradientUnits="userSpaceOnUse">
<stop stop-color="#FCCE17"/>
<stop offset="1" stop-color="#104210" stop-opacity="0"/>
</linearGradient>
<linearGradient id="paint25_linear_4037_75326" x1="625.822" y1="302.338" x2="659.06" y2="323.19" gradientUnits="userSpaceOnUse">
<stop stop-color="#FCCE17"/>
<stop offset="1" stop-color="#104210" stop-opacity="0"/>
</linearGradient>
</defs>
</svg>
