<svg width="431" height="450" viewBox="0 0 431 450" fill="none" xmlns="http://www.w3.org/2000/svg">
<g filter="url(#filter0_d_4037_76417)">
<circle cx="216.834" cy="231.558" r="149.124" stroke="#2B892B" stroke-width="4.06463"/>
</g>
<g filter="url(#filter1_d_4037_76417)">
<circle cx="216.451" cy="231.176" r="172.127" stroke="#2B892B" stroke-width="2.03232"/>
</g>
<g filter="url(#filter2_d_4037_76417)">
<circle cx="216.069" cy="230.793" r="194.622" stroke="#2B892B" stroke-width="1.01616"/>
</g>
<g filter="url(#filter3_d_4037_76417)">
<circle cx="216.667" cy="231.391" r="214.114" stroke="#2B892B" stroke-width="0.508079"/>
</g>
<path d="M144.664 243.561L144.665 243.562L161.371 251.426C161.371 251.426 161.372 251.426 161.372 251.426C162.129 251.782 162.797 252.328 163.324 253.014C163.85 253.7 164.223 254.509 164.416 255.377L144.664 243.561ZM144.664 243.561C143.757 243.139 142.76 243.003 141.785 243.173C140.81 243.342 139.903 243.809 139.164 244.513L139.163 244.514L114.412 268.185L114.412 268.185C113.739 268.829 113.229 269.647 112.925 270.561C112.62 271.474 112.53 272.456 112.66 273.417M144.664 243.561L172.693 299.287L163.098 317.523C163.098 317.523 163.098 317.524 163.098 317.524C162.643 318.4 161.985 319.134 161.186 319.648C160.386 320.163 159.474 320.438 158.541 320.44L158.539 320.44L131.655 320.44H131.654V319.932C130.841 319.933 130.041 319.701 129.332 319.261L129.064 319.692C128.276 319.203 127.621 318.502 127.155 317.661C119.651 304.168 114.718 289.109 112.66 273.417M112.66 273.417C112.66 273.416 112.66 273.416 112.66 273.416L113.164 273.35L112.661 273.418C112.661 273.418 112.661 273.417 112.66 273.417ZM284.076 223.908L284.072 223.91L266.486 232.19L266.486 232.19C265.587 232.613 264.597 232.752 263.627 232.59C262.657 232.429 261.753 231.973 261.012 231.282L227.566 200.1C227.565 200.099 227.565 200.099 227.564 200.098C226.975 199.556 226.504 198.881 226.179 198.122C225.854 197.363 225.684 196.536 225.678 195.698L225.678 195.695L225.678 173.504V173.504C225.678 172.56 225.888 171.628 226.291 170.791C226.694 169.954 227.279 169.235 228 168.701L228 168.701L253.464 149.841C254.2 149.295 255.052 148.96 255.943 148.874C256.834 148.787 257.729 148.952 258.543 149.35C273.27 156.489 286.333 167.262 296.744 180.847M284.076 223.908L296.744 180.847M284.076 223.908C284.751 223.584 285.353 223.11 285.847 222.518C286.341 221.927 286.716 221.23 286.951 220.475M284.076 223.908L286.951 220.475M296.744 180.847C297.342 181.623 297.741 182.556 297.907 183.55C298.073 184.544 297.999 185.569 297.694 186.524L296.744 180.847ZM205.346 168.701L205.347 168.701C206.067 169.235 206.652 169.954 207.055 170.791C207.458 171.628 207.668 172.56 207.669 173.504V173.504V195.695C207.669 196.533 207.503 197.363 207.183 198.126C206.863 198.89 206.394 199.57 205.807 200.117L205.346 168.701ZM205.346 168.701L179.878 149.841L205.346 168.701ZM174.834 149.323L174.837 149.321C175.649 148.935 176.537 148.78 177.421 148.871C178.304 148.963 179.148 149.298 179.876 149.841L174.834 149.323ZM174.834 149.323C160.095 156.465 147.021 167.247 136.603 180.845C136 181.619 135.595 182.552 135.425 183.547C135.255 184.544 135.325 185.572 135.629 186.53L174.834 149.323ZM191.57 308.851L191.572 308.851L241.775 308.851H241.776C242.709 308.853 243.621 309.128 244.421 309.643C245.221 310.157 245.879 310.892 246.334 311.768L255.357 328.947C255.757 329.705 255.994 330.551 256.053 331.422C256.112 332.292 255.993 333.166 255.702 333.98L191.57 308.851ZM191.57 308.851C190.637 308.853 189.725 309.128 188.925 309.643C188.125 310.157 187.468 310.891 187.013 311.767C187.013 311.767 187.013 311.768 187.013 311.768L177.995 328.948C177.596 329.706 177.36 330.553 177.302 331.423C177.244 332.293 177.365 333.168 177.657 333.981L191.57 308.851ZM286.951 220.475L297.693 186.525L286.951 220.475ZM301.692 320.44H301.692C302.613 320.44 303.514 320.174 304.307 319.674C305.099 319.175 305.755 318.461 306.216 317.606C313.719 304.113 318.652 289.056 320.71 273.364C320.84 272.403 320.75 271.421 320.445 270.508C320.141 269.594 319.631 268.776 318.958 268.132L318.958 268.132L294.207 244.461L293.856 244.828L294.207 244.461C293.465 243.752 292.554 243.282 291.574 243.112C290.593 242.942 289.59 243.081 288.681 243.509L271.975 251.373C271.975 251.373 271.975 251.373 271.975 251.373C271.217 251.729 270.55 252.275 270.023 252.961C269.496 253.647 269.123 254.457 268.93 255.324L260.096 294.92C259.766 296.38 259.964 297.929 260.654 299.234L270.248 317.523C270.703 318.399 271.361 319.134 272.16 319.648C272.96 320.163 273.873 320.438 274.806 320.44H274.807H301.692ZM173.25 294.973L164.416 255.377L172.755 295.085L173.251 294.974L173.25 294.974C173.25 294.973 173.25 294.973 173.25 294.973ZM172.358 231.302L205.807 200.117L146.372 220.484C146.611 221.241 146.99 221.937 147.489 222.527C147.987 223.118 148.595 223.59 149.274 223.91L166.884 232.21L166.884 232.21C167.783 232.632 168.773 232.772 169.743 232.61C170.713 232.449 171.617 231.993 172.358 231.302C172.358 231.302 172.358 231.302 172.358 231.302ZM135.629 186.53L146.372 220.484L135.629 186.53ZM244.055 366.803L255.701 333.981L240.316 370.345C240.316 370.345 240.317 370.344 240.317 370.344C241.163 370.133 241.944 369.696 242.594 369.078C243.245 368.459 243.745 367.677 244.055 366.803L243.576 366.633L244.055 366.803ZM93.5174 256.492C93.5174 180.929 148.815 119.546 216.673 119.546C284.531 119.546 339.829 180.929 339.829 256.492C339.829 332.054 284.531 393.438 216.673 393.438C148.815 393.438 93.5174 332.054 93.5174 256.492ZM177.657 333.981L189.387 366.817C189.387 366.817 189.387 366.817 189.387 366.818C189.697 367.685 190.193 368.462 190.838 369.078C191.484 369.694 192.259 370.13 193.099 370.344L177.657 333.981Z" fill="#42AB42" stroke="#2B892B" stroke-width="1.01616"/>
<g filter="url(#filter4_d_4037_76417)">
<circle cx="215.158" cy="232.722" r="88.7651" fill="#42AB42"/>
<circle cx="215.158" cy="232.722" r="88.257" stroke="#2B892B" stroke-width="1.01616"/>
</g>
<g filter="url(#filter5_d_4037_76417)">
<circle cx="216.735" cy="233.117" r="66.8389" fill="white" stroke="#2B892B" stroke-width="1.01616"/>
<circle cx="216.736" cy="233.117" r="39.4012" fill="#CCFF33" stroke="#2B892B" stroke-width="1.01616"/>
<mask id="path-10-inside-1_4037_76417" fill="white">
<path d="M294.06 233.117C294.06 275.822 259.44 310.441 216.735 310.441C174.03 310.441 139.411 275.822 139.411 233.117C139.411 190.412 174.03 155.792 216.735 155.792C259.44 155.792 294.06 190.412 294.06 233.117ZM153.477 233.117C153.477 268.053 181.799 296.375 216.735 296.375C251.672 296.375 279.993 268.053 279.993 233.117C279.993 198.18 251.672 169.859 216.735 169.859C181.799 169.859 153.477 198.18 153.477 233.117Z"/>
</mask>
<path d="M294.06 233.117C294.06 275.822 259.44 310.441 216.735 310.441C174.03 310.441 139.411 275.822 139.411 233.117C139.411 190.412 174.03 155.792 216.735 155.792C259.44 155.792 294.06 190.412 294.06 233.117ZM153.477 233.117C153.477 268.053 181.799 296.375 216.735 296.375C251.672 296.375 279.993 268.053 279.993 233.117C279.993 198.18 251.672 169.859 216.735 169.859C181.799 169.859 153.477 198.18 153.477 233.117Z" fill="#CDDDCD" stroke="#2B892B" stroke-width="2.03232" mask="url(#path-10-inside-1_4037_76417)"/>
<mask id="path-11-inside-2_4037_76417" fill="white">
<path d="M271.61 233.117C271.61 263.424 247.042 287.993 216.735 287.993C186.428 287.993 161.86 263.424 161.86 233.117C161.86 202.81 186.428 178.242 216.735 178.242C247.042 178.242 271.61 202.81 271.61 233.117ZM173.932 233.117C173.932 256.757 193.096 275.92 216.735 275.92C240.374 275.92 259.538 256.757 259.538 233.117C259.538 209.478 240.374 190.315 216.735 190.315C193.096 190.315 173.932 209.478 173.932 233.117Z"/>
</mask>
<path d="M271.61 233.117C271.61 263.424 247.042 287.993 216.735 287.993C186.428 287.993 161.86 263.424 161.86 233.117C161.86 202.81 186.428 178.242 216.735 178.242C247.042 178.242 271.61 202.81 271.61 233.117ZM173.932 233.117C173.932 256.757 193.096 275.92 216.735 275.92C240.374 275.92 259.538 256.757 259.538 233.117C259.538 209.478 240.374 190.315 216.735 190.315C193.096 190.315 173.932 209.478 173.932 233.117Z" fill="#42AB42" stroke="#2B892B" stroke-width="2.03232" mask="url(#path-11-inside-2_4037_76417)"/>
<mask id="path-12-inside-3_4037_76417" fill="white">
<path d="M271.61 233.117C271.61 240.324 270.191 247.459 267.433 254.117C264.676 260.775 260.633 266.824 255.538 271.92C250.442 277.016 244.393 281.058 237.735 283.815C231.077 286.573 223.941 287.993 216.735 287.993C209.529 287.993 202.393 286.573 195.735 283.815C189.078 281.058 183.028 277.016 177.932 271.92C172.837 266.824 168.795 260.775 166.037 254.117C163.279 247.459 161.86 240.324 161.86 233.117H173.932C173.932 238.738 175.04 244.304 177.191 249.497C179.342 254.69 182.494 259.409 186.469 263.383C190.444 267.358 195.162 270.511 200.355 272.662C205.548 274.813 211.114 275.92 216.735 275.92C222.356 275.92 227.922 274.813 233.115 272.662C238.308 270.511 243.027 267.358 247.001 263.383C250.976 259.409 254.129 254.69 256.28 249.497C258.431 244.304 259.538 238.738 259.538 233.117H271.61Z"/>
</mask>
<path d="M271.61 233.117C271.61 240.324 270.191 247.459 267.433 254.117C264.676 260.775 260.633 266.824 255.538 271.92C250.442 277.016 244.393 281.058 237.735 283.815C231.077 286.573 223.941 287.993 216.735 287.993C209.529 287.993 202.393 286.573 195.735 283.815C189.078 281.058 183.028 277.016 177.932 271.92C172.837 266.824 168.795 260.775 166.037 254.117C163.279 247.459 161.86 240.324 161.86 233.117H173.932C173.932 238.738 175.04 244.304 177.191 249.497C179.342 254.69 182.494 259.409 186.469 263.383C190.444 267.358 195.162 270.511 200.355 272.662C205.548 274.813 211.114 275.92 216.735 275.92C222.356 275.92 227.922 274.813 233.115 272.662C238.308 270.511 243.027 267.358 247.001 263.383C250.976 259.409 254.129 254.69 256.28 249.497C258.431 244.304 259.538 238.738 259.538 233.117H271.61Z" fill="#42AB42" stroke="#2B892B" stroke-width="2.03232" mask="url(#path-12-inside-3_4037_76417)"/>
<path d="M216.736 192.584C194.386 192.584 176.203 210.768 176.203 233.117C176.203 255.467 194.386 273.65 216.736 273.65C239.085 273.65 257.268 255.467 257.268 233.117C257.268 210.768 239.085 192.584 216.736 192.584ZM244.602 251.825H235.79C235.517 251.824 235.249 251.752 235.012 251.615C234.776 251.478 234.58 251.282 234.443 251.045L231.298 245.651C231.091 245.298 231.031 244.879 231.131 244.482L234.026 232.805C234.084 232.57 234.197 232.352 234.354 232.167C234.511 231.983 234.709 231.838 234.932 231.743L240.408 229.424C240.676 229.311 240.97 229.274 241.257 229.319C241.544 229.364 241.813 229.488 242.033 229.678L250.146 236.658C250.346 236.83 250.499 237.05 250.591 237.298C250.682 237.545 250.71 237.812 250.67 238.073C249.998 242.682 248.388 247.104 245.939 251.067C245.8 251.298 245.604 251.489 245.37 251.622C245.136 251.755 244.871 251.824 244.602 251.825ZM193.063 229.44L198.539 231.759C198.762 231.853 198.96 231.998 199.117 232.183C199.274 232.367 199.387 232.586 199.445 232.821L202.34 244.497C202.44 244.894 202.38 245.314 202.173 245.667L199.028 251.045C198.891 251.282 198.695 251.478 198.459 251.615C198.222 251.752 197.954 251.824 197.681 251.825H188.869C188.603 251.825 188.341 251.757 188.108 251.627C187.875 251.497 187.68 251.309 187.54 251.082C185.091 247.12 183.481 242.698 182.809 238.088C182.769 237.827 182.797 237.561 182.888 237.313C182.98 237.066 183.133 236.846 183.333 236.673L191.445 229.693C191.665 229.505 191.932 229.382 192.218 229.337C192.504 229.292 192.796 229.328 193.063 229.44ZM243.133 212.439L239.611 222.452C239.54 222.657 239.428 222.844 239.281 223.003C239.133 223.162 238.955 223.288 238.756 223.374L232.992 225.815C232.727 225.927 232.437 225.964 232.153 225.921C231.869 225.879 231.602 225.758 231.382 225.574L220.419 216.378C220.243 216.233 220.102 216.051 220.004 215.846C219.907 215.641 219.855 215.416 219.853 215.189V208.645C219.854 208.389 219.917 208.137 220.038 207.911C220.159 207.685 220.334 207.492 220.547 207.349L228.893 201.788C229.111 201.643 229.362 201.554 229.623 201.532C229.884 201.509 230.146 201.552 230.386 201.657C235.189 203.752 239.45 206.914 242.848 210.902C243.027 211.11 243.147 211.362 243.197 211.632C243.247 211.902 243.225 212.181 243.133 212.439ZM204.576 201.788L212.924 207.349C213.137 207.492 213.312 207.685 213.433 207.911C213.554 208.137 213.617 208.389 213.618 208.645V215.189C213.618 215.417 213.568 215.642 213.471 215.848C213.375 216.055 213.235 216.237 213.06 216.384L202.097 225.58C201.877 225.764 201.61 225.884 201.326 225.927C201.042 225.97 200.752 225.933 200.487 225.821L194.715 223.374C194.515 223.289 194.335 223.163 194.186 223.005C194.038 222.847 193.924 222.659 193.852 222.454L190.331 212.441C190.239 212.182 190.218 211.903 190.269 211.632C190.321 211.362 190.443 211.11 190.623 210.902C194.022 206.91 198.288 203.745 203.095 201.65C203.333 201.547 203.594 201.507 203.853 201.531C204.111 201.555 204.36 201.643 204.576 201.788ZM207.949 265.6L204.104 255.917C204.016 255.697 203.98 255.459 203.997 255.223C204.015 254.987 204.086 254.757 204.205 254.553L207.162 249.486C207.298 249.25 207.494 249.053 207.731 248.916C207.967 248.78 208.235 248.707 208.508 248.707H224.963C225.236 248.707 225.504 248.78 225.74 248.916C225.977 249.053 226.173 249.25 226.309 249.486L229.268 254.553C229.387 254.757 229.459 254.986 229.477 255.223C229.495 255.459 229.458 255.697 229.371 255.917L225.553 265.596C225.46 265.833 225.31 266.043 225.117 266.208C224.924 266.374 224.693 266.489 224.445 266.545C219.379 267.708 214.116 267.708 209.05 266.545C208.803 266.489 208.574 266.373 208.383 266.208C208.191 266.044 208.042 265.835 207.949 265.6Z" fill="#42AB42"/>
<rect x="167.357" y="183.739" width="98.7571" height="98.7571" stroke="#2B892B" stroke-width="1.01616"/>
</g>
<path d="M294.76 124.89C294.859 124.625 295.234 124.625 295.332 124.89L300.194 138.029C300.328 138.39 300.613 138.676 300.974 138.809L314.113 143.671C314.379 143.769 314.379 144.145 314.113 144.243L300.974 149.105C300.613 149.239 300.328 149.524 300.194 149.885L300.67 150.062L300.194 149.885L295.332 163.024C295.234 163.289 294.859 163.289 294.76 163.024L289.899 149.885C289.765 149.524 289.48 149.239 289.118 149.105L275.979 144.243C275.714 144.145 275.714 143.769 275.979 143.671L289.118 138.809C289.48 138.676 289.765 138.39 289.899 138.029L294.76 124.89Z" fill="#42AB42" stroke="#2B892B" stroke-width="1.01616"/>
<path d="M112.19 166.725L115.469 175.585C115.571 175.863 115.791 176.082 116.069 176.185L124.929 179.463L116.069 182.742C115.791 182.845 115.571 183.064 115.469 183.342L112.19 192.202L108.912 183.342C108.809 183.064 108.59 182.845 108.311 182.742L99.4518 179.463L108.311 176.185L108.135 175.709L108.311 176.185C108.59 176.082 108.809 175.863 108.912 175.585L112.19 166.725Z" fill="#42AB42" stroke="#2B892B" stroke-width="1.01616"/>
<path d="M140.229 316.215L140.229 316.215L138.82 320.023L137.411 316.215C137.339 316.02 137.185 315.867 136.991 315.795L133.183 314.386L136.991 312.977C137.185 312.905 137.339 312.751 137.411 312.556L138.82 308.748L140.229 312.556L140.705 312.38L140.229 312.556C140.301 312.751 140.455 312.905 140.649 312.977L140.826 312.5L140.649 312.977L144.457 314.386L140.649 315.795L140.826 316.271L140.649 315.795C140.455 315.867 140.301 316.02 140.229 316.215Z" fill="#42AB42" stroke="#2B892B" stroke-width="1.01616"/>
<defs>
<filter id="filter0_d_4037_76417" x="41.2894" y="64.1427" width="351.089" height="351.089" filterUnits="userSpaceOnUse" color-interpolation-filters="sRGB">
<feFlood flood-opacity="0" result="BackgroundImageFix"/>
<feColorMatrix in="SourceAlpha" type="matrix" values="0 0 0 0 0 0 0 0 0 0 0 0 0 0 0 0 0 0 127 0" result="hardAlpha"/>
<feOffset dy="8.12927"/>
<feGaussianBlur stdDeviation="12.1939"/>
<feColorMatrix type="matrix" values="0 0 0 0 0.08 0 0 0 0 0.08 0 0 0 0 0.08 0 0 0 0.16 0"/>
<feBlend mode="normal" in2="BackgroundImageFix" result="effect1_dropShadow_4037_76417"/>
<feBlend mode="normal" in="SourceGraphic" in2="effect1_dropShadow_4037_76417" result="shape"/>
</filter>
<filter id="filter1_d_4037_76417" x="18.9203" y="41.7738" width="395.062" height="395.062" filterUnits="userSpaceOnUse" color-interpolation-filters="sRGB">
<feFlood flood-opacity="0" result="BackgroundImageFix"/>
<feColorMatrix in="SourceAlpha" type="matrix" values="0 0 0 0 0 0 0 0 0 0 0 0 0 0 0 0 0 0 127 0" result="hardAlpha"/>
<feOffset dy="8.12927"/>
<feGaussianBlur stdDeviation="12.1939"/>
<feColorMatrix type="matrix" values="0 0 0 0 0.08 0 0 0 0 0.08 0 0 0 0 0.08 0 0 0 0.16 0"/>
<feBlend mode="normal" in2="BackgroundImageFix" result="effect1_dropShadow_4037_76417"/>
<feBlend mode="normal" in="SourceGraphic" in2="effect1_dropShadow_4037_76417" result="shape"/>
</filter>
<filter id="filter2_d_4037_76417" x="-3.44835" y="19.4052" width="439.035" height="439.035" filterUnits="userSpaceOnUse" color-interpolation-filters="sRGB">
<feFlood flood-opacity="0" result="BackgroundImageFix"/>
<feColorMatrix in="SourceAlpha" type="matrix" values="0 0 0 0 0 0 0 0 0 0 0 0 0 0 0 0 0 0 127 0" result="hardAlpha"/>
<feOffset dy="8.12927"/>
<feGaussianBlur stdDeviation="12.1939"/>
<feColorMatrix type="matrix" values="0 0 0 0 0.08 0 0 0 0 0.08 0 0 0 0 0.08 0 0 0 0.16 0"/>
<feBlend mode="normal" in2="BackgroundImageFix" result="effect1_dropShadow_4037_76417"/>
<feBlend mode="normal" in="SourceGraphic" in2="effect1_dropShadow_4037_76417" result="shape"/>
</filter>
<filter id="filter3_d_4037_76417" x="-22.089" y="0.764412" width="477.511" height="477.511" filterUnits="userSpaceOnUse" color-interpolation-filters="sRGB">
<feFlood flood-opacity="0" result="BackgroundImageFix"/>
<feColorMatrix in="SourceAlpha" type="matrix" values="0 0 0 0 0 0 0 0 0 0 0 0 0 0 0 0 0 0 127 0" result="hardAlpha"/>
<feOffset dy="8.12927"/>
<feGaussianBlur stdDeviation="12.1939"/>
<feColorMatrix type="matrix" values="0 0 0 0 0.08 0 0 0 0 0.08 0 0 0 0 0.08 0 0 0 0.16 0"/>
<feBlend mode="normal" in2="BackgroundImageFix" result="effect1_dropShadow_4037_76417"/>
<feBlend mode="normal" in="SourceGraphic" in2="effect1_dropShadow_4037_76417" result="shape"/>
</filter>
<filter id="filter4_d_4037_76417" x="102.005" y="127.699" width="226.306" height="226.306" filterUnits="userSpaceOnUse" color-interpolation-filters="sRGB">
<feFlood flood-opacity="0" result="BackgroundImageFix"/>
<feColorMatrix in="SourceAlpha" type="matrix" values="0 0 0 0 0 0 0 0 0 0 0 0 0 0 0 0 0 0 127 0" result="hardAlpha"/>
<feOffset dy="8.12927"/>
<feGaussianBlur stdDeviation="12.1939"/>
<feColorMatrix type="matrix" values="0 0 0 0 0.08 0 0 0 0 0.08 0 0 0 0 0.08 0 0 0 0.16 0"/>
<feBlend mode="normal" in2="BackgroundImageFix" result="effect1_dropShadow_4037_76417"/>
<feBlend mode="normal" in="SourceGraphic" in2="effect1_dropShadow_4037_76417" result="shape"/>
</filter>
<filter id="filter5_d_4037_76417" x="131.282" y="149.696" width="170.907" height="170.907" filterUnits="userSpaceOnUse" color-interpolation-filters="sRGB">
<feFlood flood-opacity="0" result="BackgroundImageFix"/>
<feColorMatrix in="SourceAlpha" type="matrix" values="0 0 0 0 0 0 0 0 0 0 0 0 0 0 0 0 0 0 127 0" result="hardAlpha"/>
<feOffset dy="2.03232"/>
<feGaussianBlur stdDeviation="4.06463"/>
<feColorMatrix type="matrix" values="0 0 0 0 0.08 0 0 0 0 0.08 0 0 0 0 0.08 0 0 0 0.08 0"/>
<feBlend mode="normal" in2="BackgroundImageFix" result="effect1_dropShadow_4037_76417"/>
<feBlend mode="normal" in="SourceGraphic" in2="effect1_dropShadow_4037_76417" result="shape"/>
</filter>
</defs>
</svg>
