<svg width="20" height="20" viewBox="0 0 20 20" fill="none" xmlns="http://www.w3.org/2000/svg">
<g id="vuesax/outline/clock">
<g id="clock">
<path id="Vector" d="M9.99984 18.9583C5.05817 18.9583 1.0415 14.9417 1.0415 9.99999C1.0415 5.05832 5.05817 1.04166 9.99984 1.04166C14.9415 1.04166 18.9582 5.05832 18.9582 9.99999C18.9582 14.9417 14.9415 18.9583 9.99984 18.9583ZM9.99984 2.29166C5.74984 2.29166 2.2915 5.74999 2.2915 9.99999C2.2915 14.25 5.74984 17.7083 9.99984 17.7083C14.2498 17.7083 17.7082 14.25 17.7082 9.99999C17.7082 5.74999 14.2498 2.29166 9.99984 2.29166Z" fill="#858585"/>
<path id="Vector_2" d="M13.0919 13.275C12.9835 13.275 12.8752 13.25 12.7752 13.1833L10.1919 11.6417C9.55019 11.2583 9.0752 10.4167 9.0752 9.675V6.25833C9.0752 5.91666 9.35853 5.63333 9.7002 5.63333C10.0419 5.63333 10.3252 5.91666 10.3252 6.25833V9.675C10.3252 9.975 10.5752 10.4167 10.8335 10.5667L13.4169 12.1083C13.7169 12.2833 13.8085 12.6667 13.6335 12.9667C13.5085 13.1667 13.3002 13.275 13.0919 13.275Z" fill="#858585"/>
</g>
</g>
</svg>
