<svg width="32" height="32" viewBox="0 0 32 32" fill="none" xmlns="http://www.w3.org/2000/svg">
<g id="vuesax/bold/copy">
<g id="copy">
<path id="Vector" d="M21.3337 17.2V22.8C21.3337 27.4667 19.467 29.3334 14.8003 29.3334H9.20033C4.53366 29.3334 2.66699 27.4667 2.66699 22.8V17.2C2.66699 12.5334 4.53366 10.6667 9.20033 10.6667H14.8003C19.467 10.6667 21.3337 12.5334 21.3337 17.2Z" fill="#141414"/>
<path id="Vector_2" d="M22.7997 2.66669H17.1997C12.9609 2.66669 11.043 4.21775 10.7262 7.98758C10.6796 8.54253 11.1347 9.00002 11.6916 9.00002H14.7997C20.3997 9.00002 22.9997 11.6 22.9997 17.2V20.3081C22.9997 20.865 23.4572 21.3201 24.0121 21.2735C27.782 20.9567 29.333 19.0388 29.333 14.8V9.20002C29.333 4.53335 27.4664 2.66669 22.7997 2.66669Z" fill="#141414"/>
</g>
</g>
</svg>
