<svg width="33" height="33" viewBox="0 0 33 33" fill="none" xmlns="http://www.w3.org/2000/svg">
<g id="icons / download">
<path id="Vector" d="M24.001 10.5H17.501V20.0856L20.7941 16.7931C20.9832 16.6135 21.2349 16.5148 21.4957 16.5182C21.7564 16.5215 22.0056 16.6266 22.19 16.811C22.3744 16.9954 22.4795 17.2445 22.4828 17.5053C22.4861 17.7661 22.3875 18.0178 22.2079 18.2069L17.2079 23.2069C17.0203 23.3943 16.7661 23.4995 16.501 23.4995C16.2359 23.4995 15.9816 23.3943 15.7941 23.2069L10.7941 18.2069C10.6145 18.0178 10.5158 17.7661 10.5192 17.5053C10.5225 17.2445 10.6276 16.9954 10.812 16.811C10.9964 16.6266 11.2455 16.5215 11.5063 16.5182C11.767 16.5148 12.0188 16.6135 12.2079 16.7931L15.501 20.0856V10.5H9.00098C8.07302 10.501 7.18336 10.8701 6.5272 11.5262C5.87104 12.1824 5.50197 13.072 5.50098 14V27C5.50197 27.928 5.87104 28.8176 6.5272 29.4738C7.18336 30.1299 8.07302 30.499 9.00098 30.5H24.001C24.9289 30.499 25.8186 30.1299 26.4748 29.4738C27.1309 28.8176 27.5 27.928 27.501 27V14C27.5 13.072 27.1309 12.1824 26.4748 11.5262C25.8186 10.8701 24.9289 10.501 24.001 10.5Z" fill="white"/>
<path id="Vector_2" d="M17.501 3.5C17.501 3.23478 17.3956 2.98043 17.2081 2.79289C17.0205 2.60536 16.7662 2.5 16.501 2.5C16.2358 2.5 15.9814 2.60536 15.7939 2.79289C15.6063 2.98043 15.501 3.23478 15.501 3.5V10.5H17.501V3.5Z" fill="white"/>
</g>
</svg>
