<svg width="8" height="7" viewBox="0 0 8 7" fill="none" xmlns="http://www.w3.org/2000/svg">
<path fill-rule="evenodd" clip-rule="evenodd" d="M4.80313 1.87447C4.80313 2.17593 4.55874 2.42032 4.25728 2.42032C3.95581 2.42032 3.71143 2.17593 3.71143 1.87447C3.71143 1.573 3.95581 1.32861 4.25728 1.32861C4.55874 1.32861 4.80313 1.573 4.80313 1.87447ZM4.25728 4.05787C4.55874 4.05787 4.80313 3.81349 4.80313 3.51202C4.80313 3.21055 4.55874 2.96617 4.25728 2.96617C3.95581 2.96617 3.71143 3.21055 3.71143 3.51202C3.71143 3.81349 3.95581 4.05787 4.25728 4.05787ZM4.25728 5.69543C4.55874 5.69543 4.80313 5.45104 4.80313 5.14957C4.80313 4.84811 4.55874 4.60372 4.25728 4.60372C3.95581 4.60372 3.71143 4.84811 3.71143 5.14957C3.71143 5.45104 3.95581 5.69543 4.25728 5.69543Z" fill="#141414"/>
</svg>
