<svg width="8" height="7" viewBox="0 0 8 7" fill="none" xmlns="http://www.w3.org/2000/svg">
<path fill-rule="evenodd" clip-rule="evenodd" d="M4.76846 1.87446C4.76846 2.17592 4.52407 2.42031 4.22261 2.42031C3.92114 2.42031 3.67676 2.17592 3.67676 1.87446C3.67676 1.57299 3.92114 1.32861 4.22261 1.32861C4.52407 1.32861 4.76846 1.57299 4.76846 1.87446ZM4.22261 4.05786C4.52407 4.05786 4.76846 3.81348 4.76846 3.51201C4.76846 3.21054 4.52407 2.96616 4.22261 2.96616C3.92114 2.96616 3.67676 3.21054 3.67676 3.51201C3.67676 3.81348 3.92114 4.05786 4.22261 4.05786ZM4.22261 5.69542C4.52407 5.69542 4.76846 5.45103 4.76846 5.14956C4.76846 4.8481 4.52407 4.60371 4.22261 4.60371C3.92114 4.60371 3.67676 4.8481 3.67676 5.14956C3.67676 5.45103 3.92114 5.69542 4.22261 5.69542Z" fill="#141414"/>
</svg>
