
<svg width="8" height="7" viewBox="0 0 8 7" fill="none" xmlns="http://www.w3.org/2000/svg">
<path fill-rule="evenodd" clip-rule="evenodd" d="M4.76871 1.8744C4.76871 2.17587 4.52432 2.42026 4.22285 2.42026C3.92139 2.42026 3.677 2.17587 3.677 1.8744C3.677 1.57294 3.92139 1.32855 4.22285 1.32855C4.52432 1.32855 4.76871 1.57294 4.76871 1.8744ZM4.22288 4.05783C4.52434 4.05783 4.76873 3.81345 4.76873 3.51198C4.76873 3.21051 4.52434 2.96613 4.22288 2.96613C3.92141 2.96613 3.67702 3.21051 3.67702 3.51198C3.67702 3.81345 3.92141 4.05783 4.22288 4.05783ZM4.22288 5.69539C4.52434 5.69539 4.76873 5.451 4.76873 5.14953C4.76873 4.84807 4.52434 4.60368 4.22288 4.60368C3.92141 4.60368 3.67702 4.84807 3.67702 5.14953C3.67702 5.451 3.92141 5.69539 4.22288 5.69539Z" fill="#141414"/>
</svg>
