<svg width="36" height="32" viewBox="0 0 36 32" fill="none" xmlns="http://www.w3.org/2000/svg">
<path d="M5.55507 28.6821C-1.21823 24.7714 -1.21823 18.4304 5.55507 14.5227C12.3284 10.615 23.3105 10.612 30.0861 14.5227C36.8616 18.4334 36.8594 24.7744 30.0861 28.6821C23.3128 32.5898 12.3291 32.5935 5.55507 28.6821Z" fill="#E0E0E0"/>
<path d="M10.976 28.8709C13.9153 28.8709 16.2981 27.4954 16.2981 25.7986C16.2981 24.1017 13.9153 22.7262 10.976 22.7262C8.03661 22.7262 5.65381 24.1017 5.65381 25.7986C5.65381 27.4954 8.03661 28.8709 10.976 28.8709Z" fill="#C2C2C2"/>
<path d="M23.277 24.3626C26.9674 22.3721 29.1562 19.2698 28.1657 17.4333C27.1752 15.5968 23.3805 15.7216 19.69 17.712C15.9995 19.7025 13.8108 22.8048 14.8013 24.6413C15.7918 26.4778 19.5865 26.353 23.277 24.3626Z" fill="#C2C2C2"/>
<path d="M26.9492 19.9999C27.6871 19.1204 28.8431 18.5473 30.1429 18.2087C31.427 17.8753 31.657 17.0849 30.8059 16.8294C29.8417 16.5388 28.6385 17.0722 27.8624 17.8146C26.5109 19.1084 26.3408 20.0966 26.3408 20.0966L26.9492 19.9999Z" fill="#196719"/>
<path opacity="0.15" d="M26.9492 19.9999C27.6871 19.1204 28.8431 18.5473 30.1429 18.2087C31.427 17.8753 31.657 17.0849 30.8059 16.8294C29.8417 16.5388 28.6385 17.0722 27.8624 17.8146C26.5109 19.1084 26.3408 20.0966 26.3408 20.0966L26.9492 19.9999Z" fill="black"/>
<path d="M26.5693 19.9468C26.5639 19.9479 26.5582 19.9479 26.5528 19.9468C26.5484 19.9446 26.5444 19.9416 26.5411 19.9379C26.5379 19.9342 26.5354 19.9299 26.5338 19.9252C26.5322 19.9206 26.5315 19.9156 26.5318 19.9107C26.5321 19.9058 26.5334 19.901 26.5356 19.8966C27.6309 17.649 30.0567 17.0961 30.6441 17.1381C30.6539 17.1389 30.663 17.1435 30.6694 17.1509C30.6759 17.1583 30.6791 17.168 30.6785 17.1778C30.6776 17.1877 30.6728 17.1968 30.6653 17.2032C30.6577 17.2097 30.648 17.2129 30.6381 17.2123C30.0627 17.1688 27.6811 17.7165 26.603 19.9295C26.5993 19.935 26.5943 19.9395 26.5884 19.9425C26.5825 19.9455 26.5759 19.947 26.5693 19.9468Z" fill="white"/>
<path d="M26.3408 20.2337C26.3409 20.2698 26.3505 20.3053 26.3687 20.3365C26.3869 20.3677 26.4131 20.3936 26.4445 20.4114C26.476 20.4292 26.5116 20.4384 26.5477 20.4379C26.5838 20.4375 26.6192 20.4275 26.6502 20.409C27.3365 20.0097 28.3374 19.7887 29.9571 20.2502C30.8186 20.4952 31.2427 20.3311 31.424 19.9805C31.6263 19.5909 31.1992 19.2141 30.7123 19.0365C29.0543 18.4304 27.5582 18.844 26.3408 20.0532V20.2337Z" fill="#196719"/>
<path d="M26.4357 20.2659C26.4304 20.266 26.4251 20.265 26.4202 20.2629C26.4153 20.2608 26.4109 20.2578 26.4073 20.2539C26.4003 20.2468 26.3965 20.2372 26.3965 20.2273C26.3965 20.2174 26.4003 20.2078 26.4073 20.2007C27.8389 18.9211 30.0565 19.1706 30.8956 19.6696C30.9041 19.6746 30.9103 19.6827 30.9128 19.6923C30.9153 19.7018 30.914 19.7119 30.9091 19.7205C30.9039 19.7291 30.8956 19.7353 30.886 19.7378C30.8763 19.7403 30.866 19.7389 30.8574 19.734C30.0333 19.2448 27.8607 19.0013 26.4575 20.2584C26.4511 20.263 26.4435 20.2656 26.4357 20.2659Z" fill="white"/>
<path d="M10.3229 23.2169C9.69355 22.2565 8.61324 21.5507 7.36212 21.0615C6.12747 20.5791 5.99187 19.7677 6.86691 19.6134C7.85882 19.4388 8.99082 20.1108 9.67407 20.9394C10.8638 22.3838 10.9155 23.387 10.9155 23.387L10.3229 23.2169Z" fill="#196719"/>
<path opacity="0.15" d="M10.3229 23.2169C9.69355 22.2565 8.61324 21.5507 7.36212 21.0615C6.12747 20.5791 5.99187 19.7677 6.86691 19.6134C7.85882 19.4388 8.99082 20.1108 9.67407 20.9394C10.8638 22.3838 10.9155 23.387 10.9155 23.387L10.3229 23.2169Z" fill="black"/>
<path d="M10.7033 23.2109C10.7088 23.212 10.7144 23.212 10.7198 23.2109C10.7292 23.2075 10.7368 23.2006 10.7412 23.1916C10.7455 23.1827 10.7462 23.1724 10.7431 23.163C9.91896 20.8023 7.57854 19.967 6.98819 19.9415C6.97837 19.9411 6.96879 19.9446 6.9615 19.9511C6.95422 19.9577 6.94981 19.9669 6.94923 19.9767C6.94901 19.9867 6.95261 19.9963 6.9593 20.0037C6.96599 20.0111 6.97525 20.0157 6.98519 20.0164C7.56205 20.0404 9.86202 20.8652 10.6719 23.1899C10.6748 23.1959 10.6792 23.201 10.6848 23.2047C10.6903 23.2084 10.6967 23.2105 10.7033 23.2109Z" fill="white"/>
<path d="M10.9206 23.3413C10.9148 23.3945 10.8953 23.4453 10.864 23.4889C10.8328 23.5324 10.7909 23.5671 10.7423 23.5897C10.6937 23.6123 10.6402 23.622 10.5868 23.6178C10.5333 23.6137 10.4819 23.5958 10.4374 23.566C9.80211 23.1405 8.8559 22.864 7.30586 23.1165C6.42183 23.2581 6.02027 23.0416 5.88242 22.6753C5.72809 22.2647 6.19708 21.9418 6.70127 21.8227C8.41913 21.4166 9.85605 22.004 10.9221 23.3473L10.9206 23.3413Z" fill="#196719"/>
<path d="M10.8024 23.5428C10.8076 23.5435 10.8129 23.5431 10.818 23.5416C10.823 23.54 10.8277 23.5374 10.8316 23.5338C10.8385 23.5267 10.8424 23.5171 10.8424 23.5072C10.8424 23.4973 10.8385 23.4877 10.8316 23.4806C9.55799 22.0415 7.32919 22.0272 6.43692 22.4235C6.42778 22.4276 6.42063 22.4351 6.41705 22.4445C6.41347 22.4538 6.41374 22.4642 6.41782 22.4734C6.42189 22.4825 6.42943 22.4896 6.43877 22.4932C6.44811 22.4968 6.4585 22.4965 6.46764 22.4925C7.34193 22.1036 9.52952 22.1179 10.7754 23.5301C10.7787 23.5341 10.7828 23.5373 10.7874 23.5395C10.7921 23.5417 10.7972 23.5428 10.8024 23.5428Z" fill="white"/>
<path d="M24.8771 7.29841L24.8651 7.29242L22.0093 5.64872L21.9921 5.64048C20.6578 4.96622 18.8777 5.16925 16.9628 6.40689C13.1166 8.89416 10.1858 14.6194 10.4166 19.1946C10.5312 21.4743 11.4107 23.0379 12.739 23.7256L12.7502 23.7316L15.6068 25.376L15.6203 25.3835C16.9546 26.0578 18.7361 25.8578 20.6525 24.6186C24.4988 22.1314 27.4296 16.4061 27.1988 11.8309C27.0857 9.54968 26.2062 7.98615 24.8771 7.29841Z" fill="#104210"/>
<path d="M15.5086 25.3229L12.7539 23.7301L12.7404 23.7219C11.4121 23.0326 10.5333 21.4691 10.4179 19.1923C10.3153 17.1516 10.842 14.8838 11.7964 12.7779L11.8152 12.7314L14.653 14.4216C13.6971 16.5275 13.1719 18.7953 13.2745 20.836C13.3832 23.0678 14.2275 24.6126 15.5086 25.3229Z" fill="#041004"/>
<path d="M20.6542 24.6171C24.5004 22.1298 27.4312 16.4046 27.2005 11.8294C26.9697 7.2542 23.6644 5.56256 19.8181 8.04982C15.9718 10.5371 13.0403 16.2623 13.271 20.8368C13.5018 25.4112 16.8079 27.1044 20.6542 24.6171Z" fill="#196719"/>
<path d="M23.9114 6.9433L19.0905 16.8751L18.0529 15.7514C17.7435 15.4292 17.3201 15.2413 16.8737 15.2279C16.4273 15.2145 15.9934 15.3768 15.6652 15.6798C15.3371 15.9828 15.1409 16.4024 15.1188 16.8485C15.0967 17.2946 15.2504 17.7316 15.5469 18.0656L18.2806 21.0271C18.5812 21.3536 18.9978 21.5494 19.4411 21.5725C19.4726 21.5725 19.504 21.5725 19.5355 21.5725C19.6182 21.5724 19.7009 21.5664 19.7827 21.5545C20.0579 21.5144 20.3191 21.4076 20.5435 21.2433C20.7678 21.079 20.9485 20.8623 21.0698 20.612L26.5987 9.22454C26.0316 7.95993 25.0876 7.17629 23.9114 6.9433Z" fill="#104210"/>
<path d="M27.8266 3.67237C27.7966 3.65514 27.7652 3.63866 27.7337 3.62368C27.3803 3.45245 26.9735 3.42839 26.6024 3.55676C26.2314 3.68513 25.9264 3.95545 25.7544 4.30842L19.6201 16.944L19.271 16.5694C19.1702 16.4594 19.053 16.3656 18.9234 16.2915C18.7406 16.1866 17.9629 15.7364 17.8371 15.6637C17.5303 15.4862 17.17 15.4246 16.8217 15.4901C16.4734 15.5556 16.1601 15.7438 15.9387 16.0206C15.7174 16.2973 15.6026 16.6443 15.6152 16.9985C15.6278 17.3527 15.7671 17.6906 16.0076 17.9509L18.7413 20.9117C18.8438 21.0229 18.9628 21.1176 19.0942 21.1926C19.2725 21.2938 20.0471 21.7433 20.1745 21.8167C20.3507 21.9187 20.546 21.9833 20.7482 22.0065C20.9505 22.0296 21.1553 22.0108 21.35 21.9513C21.5446 21.8917 21.7249 21.7927 21.8796 21.6604C22.0343 21.528 22.16 21.3652 22.249 21.1821L29.5062 6.23381C29.6694 5.8969 29.6991 5.51076 29.5895 5.15283C29.4799 4.79491 29.239 4.49167 28.9151 4.30393L27.8266 3.67237Z" fill="#70E000"/>
<path opacity="0.15" d="M27.8266 3.67237C27.7966 3.65514 27.7652 3.63866 27.7337 3.62368C27.3803 3.45245 26.9735 3.42839 26.6024 3.55676C26.2314 3.68513 25.9264 3.95545 25.7544 4.30842L19.6201 16.944L19.271 16.5694C19.1702 16.4594 19.053 16.3656 18.9234 16.2915C18.7406 16.1866 17.9629 15.7364 17.8371 15.6637C17.5303 15.4862 17.17 15.4246 16.8217 15.4901C16.4734 15.5556 16.1601 15.7438 15.9387 16.0206C15.7174 16.2973 15.6026 16.6443 15.6152 16.9985C15.6278 17.3527 15.7671 17.6906 16.0076 17.9509L18.7413 20.9117C18.8438 21.0229 18.9628 21.1176 19.0942 21.1926C19.2725 21.2938 20.0471 21.7433 20.1745 21.8167C20.3507 21.9187 20.546 21.9833 20.7482 22.0065C20.9505 22.0296 21.1553 22.0108 21.35 21.9513C21.5446 21.8917 21.7249 21.7927 21.8796 21.6604C22.0343 21.528 22.16 21.3652 22.249 21.1821L29.5062 6.23381C29.6694 5.8969 29.6991 5.51076 29.5895 5.15283C29.4799 4.79491 29.239 4.49167 28.9151 4.30393L27.8266 3.67237Z" fill="black"/>
<path opacity="0.15" d="M20.1708 21.8137C20.0449 21.7388 19.2718 21.2892 19.0912 21.1896C18.9599 21.1146 18.8409 21.0198 18.7383 20.9087L16.0046 17.9479C15.8841 17.8164 15.7884 17.6641 15.7222 17.4984L16.8092 18.1255C16.8751 18.2916 16.9714 18.4441 17.0932 18.575L19.8262 21.5357C19.9267 21.6448 20.0428 21.7385 20.1708 21.8137Z" fill="black"/>
<path opacity="0.15" d="M27.1853 4.48071C27.0425 4.60888 26.9259 4.76358 26.8422 4.93621L20.5326 17.9329L19.6201 16.944L25.7544 4.3084C25.838 4.13546 25.9548 3.98068 26.0982 3.85291L27.1853 4.48071Z" fill="black"/>
<path d="M28.8214 4.25147C28.468 4.08066 28.0613 4.0568 27.6904 4.18514C27.3194 4.31347 27.0144 4.58353 26.8421 4.93622L20.5325 17.9329L19.2717 16.5664C19.0018 16.2923 18.6359 16.134 18.2514 16.125C17.8669 16.116 17.4939 16.257 17.2116 16.5181C16.9292 16.7793 16.7595 17.1401 16.7385 17.5241C16.7175 17.9082 16.8468 18.2853 17.0991 18.5757L19.8321 21.5372C19.9957 21.7142 20.2 21.8486 20.4273 21.9287C20.6546 22.0089 20.8981 22.0323 21.1365 21.997C21.3749 21.9617 21.6012 21.8688 21.7955 21.7263C21.9899 21.5837 22.1466 21.3959 22.2519 21.1791L29.5092 6.23079C29.6802 5.87708 29.7038 5.46995 29.5748 5.09882C29.4459 4.7277 29.1749 4.42294 28.8214 4.25147Z" fill="#CCFF33"/>
<path d="M26.0328 2.14027L25.6125 2.26688L25.3091 1.25324L25.7279 1.12738L26.0328 2.14027Z" fill="#E0E0E0"/>
<path d="M27.3444 1.24053C27.3479 1.28165 27.3382 1.32282 27.3168 1.35809C27.2954 1.39337 27.2634 1.42094 27.2253 1.43682C27.2526 1.4678 27.2728 1.50436 27.2845 1.54395C27.3084 1.61887 27.2448 1.7275 27.1181 1.7687L26.157 2.05789L25.8745 1.11617C25.8745 1.11617 26.0371 0.700379 26.0453 0.637448C26.0536 0.574517 25.9577 0.343771 25.9442 0.300319C25.9307 0.256866 26.0865 0.199929 26.2094 0.249374C26.238 0.26208 26.2635 0.280723 26.2843 0.304064C26.3285 0.351127 26.3656 0.404378 26.3944 0.46214C26.4352 0.544466 26.4553 0.635507 26.4529 0.727349L27.035 0.549794C27.0752 0.535259 27.1192 0.535259 27.1593 0.549794C27.1856 0.560186 27.2088 0.5772 27.2266 0.599185C27.2444 0.62117 27.2562 0.647379 27.2609 0.675271C27.2655 0.703162 27.2629 0.731788 27.2533 0.758371C27.2436 0.784954 27.2273 0.808591 27.2058 0.826989C27.2404 0.824478 27.2749 0.833672 27.3037 0.853097C27.3325 0.872523 27.354 0.901056 27.3646 0.934122C27.3735 0.972563 27.3688 1.0129 27.3513 1.04827C27.3338 1.08364 27.3047 1.11187 27.2687 1.12816C27.3076 1.15438 27.3347 1.19467 27.3444 1.24053Z" fill="#E0E0E0"/>
<path d="M32.0548 12.6505L31.5161 12.5209L31.83 11.2218L32.3687 11.3514L32.0548 12.6505Z" fill="#E0E0E0"/>
<path d="M34.0601 12.5044C34.0377 12.5515 34.0011 12.5902 33.9553 12.6151C33.9095 12.64 33.857 12.6498 33.8054 12.643C33.8151 12.6941 33.8138 12.7467 33.8016 12.7973C33.7777 12.8985 33.6406 12.9727 33.4788 12.9329L32.2456 12.6333L32.5363 11.4264C32.5363 11.4264 32.979 11.0765 33.0277 11.0128C33.0764 10.9491 33.1184 10.6382 33.1319 10.5805C33.1454 10.5228 33.3514 10.5618 33.454 10.6944C33.4789 10.7266 33.4963 10.764 33.505 10.8038C33.5232 10.8831 33.5297 10.9646 33.5244 11.0458C33.5163 11.1617 33.4803 11.2741 33.4196 11.3732L34.1642 11.553C34.2171 11.5642 34.2643 11.5936 34.2976 11.6361C34.3161 11.6604 34.3291 11.6883 34.336 11.718C34.3428 11.7477 34.3433 11.7785 34.3373 11.8084C34.3273 11.8478 34.3065 11.8836 34.2773 11.9118C34.248 11.94 34.2115 11.9595 34.1717 11.968C34.2111 11.9873 34.2429 12.0193 34.2619 12.0588C34.281 12.0984 34.2861 12.1432 34.2766 12.186C34.2614 12.2334 34.2305 12.2741 34.1889 12.3014C34.1473 12.3286 34.0976 12.3408 34.0481 12.3359C34.0739 12.3883 34.0782 12.4488 34.0601 12.5044Z" fill="#E0E0E0"/>
<path d="M4.84619 11.8736L5.43429 12.0504L5.85983 10.6315L5.27247 10.4547L4.84619 11.8736Z" fill="#E0E0E0"/>
<path d="M3.00859 10.6127C3.00369 10.6703 3.01723 10.728 3.04726 10.7774C3.07729 10.8269 3.12226 10.8655 3.17566 10.8877C3.1379 10.9312 3.10981 10.9823 3.09325 11.0375C3.05954 11.1476 3.14944 11.2952 3.32549 11.3477L4.67401 11.753L5.06808 10.4322C5.06808 10.4322 4.83958 9.8493 4.82834 9.7579C4.8171 9.6665 4.95195 9.34735 4.96993 9.28592C4.98492 9.23648 4.77065 9.14582 4.59535 9.2155C4.55366 9.23183 4.51626 9.25745 4.48597 9.29042C4.42372 9.35731 4.37171 9.43305 4.33164 9.51517C4.27423 9.63151 4.24595 9.76006 4.24923 9.88976L3.44012 9.64553C3.38306 9.62676 3.32119 9.62888 3.26556 9.65152C3.22869 9.66603 3.1962 9.68985 3.17128 9.72066C3.14636 9.75147 3.12985 9.78821 3.12336 9.8273C3.11687 9.86639 3.12062 9.90649 3.13425 9.9437C3.14788 9.98091 3.17092 10.0139 3.20113 10.0396C3.15223 10.0354 3.10336 10.0479 3.06252 10.0752C3.02169 10.1024 2.99131 10.1427 2.97638 10.1894C2.96392 10.2434 2.97047 10.3 2.9949 10.3496C3.01933 10.3993 3.06015 10.4391 3.11048 10.4621C3.05915 10.4981 3.02287 10.5517 3.00859 10.6127Z" fill="#E0E0E0"/>
</svg>
