<svg width="157" height="74" viewBox="0 0 157 74" fill="none" xmlns="http://www.w3.org/2000/svg">
<path d="M-4.51729 8.11386L1.45634 69.8729" stroke="#196719" stroke-width="0.685787"/>
<path d="M-0.994662 5.26502L7.21263 78.5851" stroke="#196719" stroke-width="0.685787"/>
<path d="M2.25539 3.63938L13.8669 87.7472" stroke="#196719" stroke-width="0.685787"/>
<path d="M6.66808 1.59301L20.9636 99.3979" stroke="#196719" stroke-width="0.685787"/>
<path d="M9.27807 -1.00073L28.3186 110.53" stroke="#196719" stroke-width="0.685787"/>
<path d="M13.1243 -3.5418L35.9364 116.97" stroke="#196719" stroke-width="0.685787"/>
<path d="M15.6327 -5.19902L41.2399 115.725" stroke="#196719" stroke-width="0.685787"/>
<path d="M18.2244 -6.9114L47.0483 113.974" stroke="#196719" stroke-width="0.685787"/>
<path d="M19.824 -8.48976L53.6058 111.901" stroke="#196719" stroke-width="0.685787"/>
<path d="M21.7468 -9.76023L59.5595 111.096" stroke="#196719" stroke-width="0.685787"/>
<path d="M23.2516 -10.7546L65.03 109.741" stroke="#196719" stroke-width="0.685787"/>
<path d="M24.7496 -11.3964L70.5265 107.153" stroke="#196719" stroke-width="0.685787"/>
<path d="M25.8327 -11.9382L75.9243 105.325" stroke="#196719" stroke-width="0.685787"/>
<path d="M26.3305 -12.0934L81.7364 103.397" stroke="#196719" stroke-width="0.685787"/>
<path d="M26.3194 -11.5648L87.4613 101.7" stroke="#196719" stroke-width="0.685787"/>
<path d="M26.2436 -11.8619L93.5939 100.256" stroke="#196719" stroke-width="0.685787"/>
<path d="M33.1118 117.967L155.58 81.551" stroke="#196719" stroke-width="0.685787"/>
<path d="M27.5229 109.144L154.043 80.133" stroke="#196719" stroke-width="0.685787"/>
<path d="M21.04 99.6951L153.662 78.6469" stroke="#196719" stroke-width="0.685787"/>
<path d="M14.1426 90.3462L154.102 77.3132" stroke="#196719" stroke-width="0.685787"/>
<path d="M7.59766 79.8951L152.291 77.1185" stroke="#196719" stroke-width="0.685787"/>
<path d="M0.591797 67.8368L152.993 79.0887" stroke="#196719" stroke-width="0.685787"/>
<path d="M0.534668 58.6616L140.489 77.6155" stroke="#196719" stroke-width="0.685787"/>
<path d="M-1.37549 47.4084L145.243 78.9941" stroke="#196719" stroke-width="0.685787"/>
<path d="M-1.39209 36.2944L147.234 82.3716" stroke="#196719" stroke-width="0.685787"/>
<path d="M-2.63672 24.7755L144.13 84.9442" stroke="#196719" stroke-width="0.685787"/>
<path d="M-4.63086 13.5774L138.42 85.9358" stroke="#196719" stroke-width="0.685787"/>
<path d="M-1.1582 5.19922L132.847 88.2269" stroke="#196719" stroke-width="0.685787"/>
<path d="M6.7666 0.832764L127.537 89.8237" stroke="#196719" stroke-width="0.685787"/>
<path d="M12.3862 -3.74963L121.724 91.7517" stroke="#196719" stroke-width="0.685787"/>
<path d="M16.6392 -6.03809C19.756 -3.64746 84.4468 61.5682 116.403 93.8772" stroke="#196719" stroke-width="0.685787"/>
<path d="M20.311 -8.11609L110.693 94.8689" stroke="#196719" stroke-width="0.685787"/>
<path d="M104.553 96.6654L20.2388 -12.588" stroke="#196719" stroke-width="0.685787"/>
<path d="M98.9042 98.6594L23.7026 -12.6168" stroke="#196719" stroke-width="0.685787"/>
<path d="M123.055 100.47L63.4777 -50.4027L7.41457 -25.7144L-30.4751 20.3191L26.5309 133.388L123.055 100.47Z" fill="url(#paint0_linear_4037_76449)"/>
<defs>
<linearGradient id="paint0_linear_4037_76449" x1="71.4263" y1="23.2542" x2="40.3275" y2="58.0942" gradientUnits="userSpaceOnUse">
<stop stop-color="#104210" stop-opacity="0"/>
<stop offset="0.187157" stop-color="#104210" stop-opacity="0.7"/>
<stop offset="0.40625" stop-color="#104210"/>
<stop offset="0.587198" stop-color="#104210" stop-opacity="0.7"/>
<stop offset="1" stop-color="#104210" stop-opacity="0"/>
</linearGradient>
</defs>
</svg>
