<svg width="216" height="200" viewBox="0 0 216 200" fill="none" xmlns="http://www.w3.org/2000/svg">
<g opacity="0.2">
<circle cx="81.4232" cy="43.3643" r="18.6822" fill="#FCCE17"/>
<path d="M91.3468 206C95.1204 189.648 116.441 146 171.535 102.226C240.403 47.5095 189.46 187.132 91.3468 206Z" fill="#FCCE17"/>
<path d="M105.014 68.7824C70.852 102.944 24.2799 52.1019 58.9755 17.4064C-32.238 42.7924 -11.4833 202.226 78.992 202.226C89.0003 149.516 157.057 95.9159 197.09 52.769C209.767 40.0919 205.764 21.2763 197.757 14.0704C181.744 -0.341389 166.398 7.84294 160.393 13.4031L105.014 68.7824Z" fill="#196719" stroke="#196719" stroke-width="10.6755" stroke-linecap="round"/>
<path d="M190.986 7.96478C177.64 7.96478 166.781 18.0015 166.781 30.3378C166.781 42.6742 177.64 52.7108 190.986 52.7108C204.333 52.7108 215.192 42.6742 215.192 30.3378C215.192 18.0015 204.333 7.96478 190.986 7.96478ZM207.628 40.6638H202.365C202.202 40.6635 202.042 40.6236 201.901 40.548C201.76 40.4725 201.643 40.3641 201.561 40.2336L199.683 37.2562C199.559 37.0616 199.523 36.8298 199.583 36.6109L201.312 30.1657C201.347 30.0358 201.414 29.9152 201.508 29.8135C201.602 29.7117 201.72 29.6316 201.853 29.5795L205.123 28.2995C205.283 28.2369 205.459 28.2168 205.63 28.2415C205.802 28.2662 205.962 28.3347 206.094 28.4393L210.938 32.2922C211.058 32.3873 211.149 32.5088 211.204 32.6453C211.259 32.7819 211.275 32.9291 211.251 33.0731C210.85 35.6173 209.889 38.0584 208.426 40.2454C208.343 40.3729 208.226 40.4785 208.086 40.5518C207.947 40.6252 207.788 40.6638 207.628 40.6638ZM176.849 28.3081L180.119 29.5881C180.253 29.6402 180.371 29.7203 180.465 29.8221C180.559 29.9238 180.626 30.0444 180.661 30.1743L182.39 36.6195C182.449 36.8384 182.413 37.0702 182.29 37.2648L180.412 40.2336C180.33 40.3641 180.213 40.4725 180.072 40.548C179.931 40.6236 179.77 40.6635 179.607 40.6638H174.345C174.186 40.6639 174.029 40.6263 173.89 40.5545C173.751 40.4828 173.635 40.3793 173.551 40.254C172.089 38.067 171.127 35.6259 170.726 33.0817C170.702 32.9377 170.719 32.7905 170.773 32.6539C170.828 32.5174 170.919 32.3959 171.039 32.3008L175.883 28.4479C176.015 28.3441 176.174 28.2761 176.345 28.2514C176.516 28.2267 176.69 28.2463 176.849 28.3081ZM206.75 18.9243L204.647 24.4509C204.605 24.5639 204.538 24.6674 204.45 24.755C204.362 24.8426 204.255 24.9123 204.136 24.9597L200.694 26.3074C200.536 26.3692 200.363 26.3894 200.193 26.3659C200.024 26.3424 199.864 26.276 199.733 26.1741L193.186 21.0982C193.081 21.0182 192.997 20.918 192.938 20.8046C192.88 20.6913 192.849 20.5675 192.848 20.442V16.8301C192.848 16.6886 192.886 16.5493 192.959 16.4245C193.031 16.2997 193.135 16.1933 193.263 16.1148L198.247 13.045C198.377 12.9647 198.527 12.916 198.683 12.9035C198.838 12.8909 198.995 12.9147 199.138 12.9729C202.006 14.1291 204.551 15.8742 206.58 18.0757C206.687 18.1908 206.759 18.3299 206.789 18.4789C206.819 18.6279 206.805 18.7816 206.75 18.9243ZM183.725 13.045L188.71 16.1148C188.837 16.1933 188.942 16.2997 189.014 16.4245C189.086 16.5493 189.124 16.6886 189.124 16.8301V20.442C189.124 20.5677 189.095 20.6919 189.037 20.8058C188.98 20.9198 188.896 21.0206 188.792 21.1014L182.244 26.1773C182.113 26.2792 181.954 26.3456 181.784 26.3691C181.615 26.3927 181.441 26.3724 181.283 26.3107L177.836 24.9597C177.717 24.9129 177.609 24.8436 177.52 24.7562C177.432 24.6687 177.364 24.5651 177.321 24.452L175.218 18.9254C175.163 18.7821 175.151 18.628 175.181 18.4788C175.212 18.3295 175.285 18.1905 175.392 18.0757C177.423 15.872 179.97 14.1253 182.84 12.9686C182.983 12.9122 183.139 12.8897 183.293 12.903C183.447 12.9163 183.596 12.9651 183.725 13.045ZM185.739 48.2674L183.443 42.9226C183.391 42.8011 183.369 42.6702 183.379 42.5397C183.39 42.4092 183.432 42.2827 183.504 42.1697L185.269 39.3731C185.35 39.2425 185.468 39.1341 185.609 39.0586C185.75 38.9831 185.91 38.9432 186.073 38.9428H195.9C196.063 38.9432 196.223 38.9831 196.364 39.0586C196.505 39.1341 196.622 39.2425 196.704 39.3731L198.47 42.1697C198.542 42.2826 198.585 42.4091 198.595 42.5396C198.606 42.6701 198.584 42.8011 198.532 42.9226L196.252 48.2653C196.196 48.3959 196.107 48.5119 195.992 48.6032C195.876 48.6945 195.738 48.7584 195.59 48.7891C192.565 49.4308 189.422 49.4308 186.397 48.7891C186.249 48.7579 186.113 48.6942 185.998 48.6033C185.884 48.5124 185.795 48.3971 185.739 48.2674Z" fill="white"/>
<g filter="url(#filter0_d_3861_71798)">
<circle cx="178.659" cy="34.6347" r="12.9844" fill="white"/>
<circle cx="178.659" cy="34.6345" r="6.75304" fill="#FCCE17"/>
<path d="M187.76 34.6345C187.76 39.661 183.686 43.7357 178.659 43.7357C173.633 43.7357 169.558 39.661 169.558 34.6345C169.558 29.6081 173.633 25.5334 178.659 25.5334C183.686 25.5334 187.76 29.6081 187.76 34.6345ZM171.886 34.6345C171.886 38.3755 174.918 41.4081 178.659 41.4081C182.4 41.4081 185.433 38.3755 185.433 34.6345C185.433 30.8936 182.4 27.861 178.659 27.861C174.918 27.861 171.886 30.8936 171.886 34.6345Z" fill="white"/>
<path d="M193.567 34.6345C193.567 42.868 186.893 49.5425 178.659 49.5425C170.426 49.5425 163.751 42.868 163.751 34.6345C163.751 26.4011 170.426 19.7266 178.659 19.7266C186.893 19.7266 193.567 26.4011 193.567 34.6345ZM165.907 34.6345C165.907 41.6774 171.616 47.3868 178.659 47.3868C185.702 47.3868 191.412 41.6774 191.412 34.6345C191.412 27.5916 185.702 21.8823 178.659 21.8823C171.616 21.8823 165.907 27.5916 165.907 34.6345Z" fill="#196719"/>
<path d="M189.239 34.6348C189.239 40.4778 184.502 45.2146 178.659 45.2146C172.816 45.2146 168.079 40.4778 168.079 34.6348C168.079 28.7917 172.816 24.0549 178.659 24.0549C184.502 24.0549 189.239 28.7917 189.239 34.6348ZM170.407 34.6348C170.407 39.1924 174.102 42.887 178.659 42.887C183.217 42.887 186.911 39.1924 186.911 34.6348C186.911 30.0771 183.217 26.3825 178.659 26.3825C174.102 26.3825 170.407 30.0771 170.407 34.6348Z" fill="#70E000"/>
<path d="M189.239 34.6348C189.239 36.0241 188.965 37.3999 188.434 38.6835C187.902 39.9671 187.123 41.1334 186.14 42.1158C185.158 43.0983 183.991 43.8776 182.708 44.4093C181.424 44.941 180.049 45.2146 178.659 45.2146C177.27 45.2146 175.894 44.941 174.61 44.4093C173.327 43.8776 172.16 43.0983 171.178 42.1158C170.196 41.1334 169.416 39.9671 168.885 38.6835C168.353 37.3999 168.079 36.0241 168.079 34.6348H170.407C170.407 35.7185 170.62 36.7916 171.035 37.7928C171.45 38.794 172.058 39.7037 172.824 40.47C173.59 41.2363 174.5 41.8442 175.501 42.2589C176.502 42.6736 177.575 42.887 178.659 42.887C179.743 42.887 180.816 42.6736 181.817 42.2589C182.818 41.8442 183.728 41.2363 184.494 40.47C185.261 39.7037 185.869 38.794 186.283 37.7928C186.698 36.7916 186.911 35.7185 186.911 34.6348H189.239Z" fill="#196719"/>
<path d="M178.659 27.6147C174.788 27.6147 171.639 30.7639 171.639 34.6346C171.639 38.5054 174.788 41.6545 178.659 41.6545C182.53 41.6545 185.679 38.5054 185.679 34.6346C185.679 30.7639 182.53 27.6147 178.659 27.6147ZM183.485 37.8746H181.959C181.912 37.8745 181.865 37.862 181.825 37.8383C181.784 37.8146 181.75 37.7805 181.726 37.7396L181.181 36.8054C181.145 36.7443 181.135 36.6716 181.152 36.6029L181.654 34.5806C181.664 34.5399 181.683 34.5021 181.71 34.4701C181.738 34.4382 181.772 34.4131 181.811 34.3967L182.759 33.9951C182.805 33.9754 182.856 33.9691 182.906 33.9769C182.956 33.9846 183.002 34.0061 183.041 34.039L184.446 35.2479C184.48 35.2777 184.507 35.3158 184.523 35.3587C184.538 35.4015 184.543 35.4477 184.536 35.4929C184.42 36.2912 184.141 37.0571 183.717 37.7433C183.693 37.7833 183.659 37.8164 183.618 37.8395C183.578 37.8625 183.532 37.8746 183.485 37.8746ZM174.559 33.9978L175.508 34.3994C175.546 34.4158 175.581 34.4409 175.608 34.4728C175.635 34.5048 175.655 34.5426 175.665 34.5833L176.166 36.6056C176.183 36.6743 176.173 36.747 176.137 36.8081L175.592 37.7396C175.569 37.7805 175.535 37.8146 175.494 37.8383C175.453 37.862 175.406 37.8745 175.359 37.8746H173.833C173.787 37.8746 173.741 37.8628 173.701 37.8403C173.661 37.8178 173.627 37.7853 173.603 37.746C173.179 37.0598 172.9 36.2939 172.783 35.4956C172.777 35.4504 172.781 35.4042 172.797 35.3614C172.813 35.3185 172.84 35.2804 172.874 35.2506L174.279 34.0417C174.317 34.0091 174.364 33.9877 174.413 33.98C174.462 33.9722 174.513 33.9784 174.559 33.9978ZM183.231 31.0535L182.621 32.7875C182.609 32.823 182.589 32.8555 182.564 32.8829C182.538 32.9104 182.507 32.9323 182.473 32.9472L181.475 33.37C181.429 33.3894 181.378 33.3958 181.329 33.3884C181.28 33.381 181.234 33.3602 181.196 33.3282L179.297 31.7356C179.267 31.7105 179.242 31.679 179.225 31.6435C179.208 31.6079 179.199 31.5691 179.199 31.5297V30.3964C179.199 30.352 179.21 30.3083 179.231 30.2691C179.252 30.23 179.282 30.1966 179.319 30.1719L180.765 29.2087C180.803 29.1836 180.846 29.1683 180.891 29.1643C180.936 29.1604 180.982 29.1679 181.023 29.1861C181.855 29.5489 182.593 30.0964 183.182 30.7872C183.213 30.8233 183.233 30.867 183.242 30.9137C183.251 30.9605 183.247 31.0087 183.231 31.0535ZM176.553 29.2087L177.999 30.1719C178.036 30.1966 178.066 30.23 178.087 30.2691C178.108 30.3083 178.119 30.352 178.119 30.3964V31.5297C178.119 31.5691 178.111 31.6081 178.094 31.6438C178.077 31.6796 178.053 31.7112 178.023 31.7366L176.124 33.3292C176.086 33.3612 176.04 33.382 175.99 33.3894C175.941 33.3968 175.891 33.3904 175.845 33.3711L174.845 32.9472C174.811 32.9325 174.78 32.9107 174.754 32.8833C174.728 32.8559 174.708 32.8234 174.696 32.7879L174.086 31.0538C174.07 31.0089 174.067 30.9605 174.075 30.9137C174.084 30.8669 174.106 30.8232 174.137 30.7872C174.726 30.0957 175.464 29.5477 176.297 29.1848C176.338 29.1671 176.383 29.16 176.428 29.1642C176.473 29.1684 176.516 29.1837 176.553 29.2087ZM177.137 40.2603L176.472 38.5833C176.456 38.5452 176.45 38.5041 176.453 38.4632C176.456 38.4222 176.468 38.3825 176.489 38.3471L177.001 37.4696C177.025 37.4286 177.059 37.3946 177.1 37.3709C177.141 37.3472 177.187 37.3347 177.234 37.3346H180.084C180.131 37.3347 180.178 37.3472 180.219 37.3709C180.26 37.3946 180.294 37.4286 180.317 37.4696L180.83 38.3471C180.85 38.3825 180.863 38.4222 180.866 38.4631C180.869 38.5041 180.863 38.5452 180.847 38.5833L180.186 40.2597C180.17 40.3006 180.144 40.3371 180.111 40.3657C180.077 40.3944 180.037 40.4144 179.994 40.424C179.117 40.6254 178.205 40.6254 177.328 40.424C177.285 40.4142 177.246 40.3942 177.213 40.3657C177.179 40.3372 177.154 40.301 177.137 40.2603Z" fill="#196719"/>
</g>
</g>
<defs>
<filter id="filter0_d_3861_71798" x="161.835" y="18.289" width="33.6495" height="33.6494" filterUnits="userSpaceOnUse" color-interpolation-filters="sRGB">
<feFlood flood-opacity="0" result="BackgroundImageFix"/>
<feColorMatrix in="SourceAlpha" type="matrix" values="0 0 0 0 0 0 0 0 0 0 0 0 0 0 0 0 0 0 127 0" result="hardAlpha"/>
<feOffset dy="0.479185"/>
<feGaussianBlur stdDeviation="0.95837"/>
<feColorMatrix type="matrix" values="0 0 0 0 0.08 0 0 0 0 0.08 0 0 0 0 0.08 0 0 0 0.08 0"/>
<feBlend mode="normal" in2="BackgroundImageFix" result="effect1_dropShadow_3861_71798"/>
<feBlend mode="normal" in="SourceGraphic" in2="effect1_dropShadow_3861_71798" result="shape"/>
</filter>
</defs>
</svg>
