<svg width="81" height="60" viewBox="0 0 81 60" fill="none" xmlns="http://www.w3.org/2000/svg">
<path d="M47.5508 37.3518L39.208 46.5752L53.7504 59.729L62.0932 50.5056L47.5508 37.3518Z" fill="white"/>
<path d="M53.7494 59.7141L46.4228 53.2859L39.0594 46.7399L38.8827 46.5779L39.0447 46.4012L47.358 37.1528L47.5421 36.9467L47.7483 37.1307C52.5713 41.5488 57.4312 45.9152 62.2247 50.3848L62.3573 50.51L62.2395 50.6425C59.3898 53.7056 56.5254 56.7099 53.7494 59.7141ZM53.7494 59.7141C56.5328 56.57 59.2278 53.4258 61.9596 50.37V50.6204C57.0556 46.2981 52.2105 41.9022 47.3433 37.5431H47.7335L39.3613 46.7399V46.4086L46.5259 53.0356L53.7494 59.7141Z" fill="#C2C2C2"/>
<path opacity="0.2" d="M62.0919 50.4862C60.9948 50.4862 59.8829 50.4862 58.8152 50.5377H55.5606C54.4266 50.5377 53.3 50.5377 52.1734 50.4935H52.0629L49.0734 50.4346H48.9335V50.2947L48.58 47.3494C48.58 47.3494 48.58 47.2831 48.58 47.2463C48.4475 46.1271 48.315 45.0373 48.1971 43.8739C48.0793 42.7105 47.9689 41.7238 47.8658 40.6414C47.7627 39.5589 47.6596 38.4692 47.5786 37.3794C47.7701 38.425 47.9247 39.4853 48.1014 40.5383C48.2781 41.5912 48.4254 42.6589 48.5727 43.7192C48.742 44.9047 48.904 46.0902 49.0587 47.2905C49.1838 48.1814 49.2943 49.0724 49.4121 49.9634L52.1145 50.0444C53.3123 50.0836 54.5125 50.1278 55.7152 50.1769C56.7829 50.2211 57.8579 50.2653 58.9256 50.3242C59.9933 50.3831 61.0316 50.4052 62.0919 50.4862Z" fill="black"/>
<path opacity="0.2" d="M48.8526 47.476H48.4476C47.8069 47.476 47.1663 47.4098 46.5257 47.3509C45.7452 47.2919 44.9647 47.1962 44.1842 47.1005C43.4036 47.0048 42.6305 46.8943 41.8499 46.7618C41.0694 46.6292 40.3036 46.4967 39.5378 46.3126C40.3257 46.3126 41.1062 46.3789 41.8941 46.4452C42.682 46.5114 43.4552 46.5998 44.2357 46.6955C45.0162 46.7912 45.7894 46.9017 46.5699 47.0342C47.1884 47.1373 47.8069 47.2478 48.4255 47.3877L48.8526 47.4834V47.476Z" fill="black"/>
<path opacity="0.2" d="M53.9766 59.3901C53.7189 58.6537 53.498 57.9174 53.2992 57.1295C53.1004 56.3416 52.9089 55.6053 52.7248 54.8395C52.5408 54.0737 52.3861 53.3079 52.2389 52.5348C52.1211 51.9089 52.0106 51.2757 51.9296 50.6424C51.9296 50.5025 51.8928 50.37 51.8781 50.2374L52.0106 50.6571C52.2094 51.2609 52.3861 51.8647 52.5481 52.4685C52.7543 53.2049 52.9384 53.9927 53.1151 54.7585C53.2918 55.5243 53.4612 56.2901 53.6011 57.0633C53.741 57.8364 53.8883 58.6022 53.9766 59.3901Z" fill="black"/>
<path d="M72.7471 31.4601C74.8929 19.9612 67.3106 8.89999 55.8115 6.75426C44.3125 4.60852 33.2512 12.1908 31.1054 23.6897C28.9597 35.1886 36.542 46.2498 48.0411 48.3956C59.5401 50.5413 70.6014 42.959 72.7471 31.4601Z" fill="#E0E0E0"/>
<path d="M63.4042 45.3078C72.938 39.5021 75.9602 27.0671 70.1544 17.5334C64.3487 7.9997 51.9135 4.97755 42.3798 10.7833C32.846 16.589 29.8238 29.024 35.6296 38.5577C41.4353 48.0914 53.8705 51.1135 63.4042 45.3078Z" fill="#DBDBDB"/>
<path d="M56.0106 47.0638C66.364 45.3906 73.4007 35.6411 71.7274 25.2878C70.0541 14.9344 60.3045 7.89785 49.9511 9.57111C39.5977 11.2444 32.5611 20.9939 34.2343 31.3472C35.9076 41.7005 45.6572 48.7371 56.0106 47.0638Z" fill="white"/>
<path opacity="0.5" d="M71.3994 24.032C62.7777 29.2564 48.6064 37.8229 40.6838 42.52C38.4428 40.6347 36.671 38.2541 35.5083 35.5663L61.7046 11.2834C64.1529 12.5723 66.2894 14.3815 67.9642 16.5838C69.639 18.7861 70.8115 21.3283 71.3994 24.032Z" fill="#E0E0E0"/>
<path opacity="0.5" d="M71.8102 28.7098C71.7492 30.8083 71.3346 32.8814 70.5838 34.8419L46.9446 46.0328C45.9158 45.693 44.9187 45.2642 43.9644 44.7512C51.096 40.6244 64.1328 33.1249 71.8102 28.7098Z" fill="#E0E0E0"/>
<path d="M53.0765 10.4856H52.7086V13.3554H53.0765V10.4856Z" fill="#C2C2C2"/>
<path d="M44.2705 12.74L43.9519 12.924L45.3868 15.4093L45.7054 15.2253L44.2705 12.74Z" fill="#C2C2C2"/>
<path d="M37.9454 18.9297L37.7615 19.2498L40.2582 20.6847L40.4422 20.3646L37.9454 18.9297Z" fill="#C2C2C2"/>
<path d="M38.1992 27.8646H35.3293V28.2325H38.1992V27.8646Z" fill="#C2C2C2"/>
<path d="M40.0761 35.2304L37.5913 36.6661L37.7754 36.9847L40.2602 35.5489L40.0761 35.2304Z" fill="#C2C2C2"/>
<path d="M45.3901 40.6721L43.9569 43.1584L44.2757 43.3422L45.7088 40.8559L45.3901 40.6721Z" fill="#C2C2C2"/>
<path d="M53.0765 42.7407H52.7086V45.6105H53.0765V42.7407Z" fill="#C2C2C2"/>
<path d="M60.3996 40.6753L60.0809 40.8593L61.5158 43.3446L61.8345 43.1606L60.3996 40.6753Z" fill="#C2C2C2"/>
<path d="M65.7032 35.2339L65.5193 35.5525L68.0046 36.9874L68.1886 36.6688L65.7032 35.2339Z" fill="#C2C2C2"/>
<path d="M70.4547 27.8646H67.5848V28.2325H70.4547V27.8646Z" fill="#C2C2C2"/>
<path d="M68.0071 19.1147L65.5217 20.5496L65.7057 20.8682L68.191 19.4333L68.0071 19.1147Z" fill="#C2C2C2"/>
<path d="M61.5186 12.7522L60.0846 15.238L60.4033 15.4219L61.8373 12.9361L61.5186 12.7522Z" fill="#C2C2C2"/>
<path d="M53.1676 11.7868L53.7869 29.3244L51.9902 29.306L52.677 11.7806L53.1676 11.7868Z" fill="#141414"/>
<path d="M64.0889 21.9297L52.2907 29.466L51.4323 27.8839L63.8559 21.5066L64.0889 21.9297Z" fill="#FCCE17"/>
<path d="M53.5112 28.0478C53.5112 28.1691 53.4752 28.2876 53.4079 28.3885C53.3405 28.4893 53.2447 28.5679 53.1327 28.6143C53.0206 28.6607 52.8973 28.6729 52.7784 28.6492C52.6594 28.6255 52.5502 28.5671 52.4644 28.4814C52.3786 28.3956 52.3202 28.2864 52.2966 28.1674C52.2729 28.0485 52.2851 27.9252 52.3315 27.8131C52.3779 27.7011 52.4565 27.6053 52.5573 27.5379C52.6582 27.4705 52.7767 27.4346 52.898 27.4346C53.0606 27.4346 53.2166 27.4992 53.3316 27.6142C53.4466 27.7292 53.5112 27.8851 53.5112 28.0478Z" fill="#C2C2C2"/>
<path d="M40.3113 57.4267L0.666626 47.4199L9.13456 13.8872L32.1305 6.30298L48.7792 23.894L40.3113 57.4267Z" fill="#FFC727"/>
<path opacity="0.2" d="M40.3113 57.4267L0.666626 47.4199L9.13456 13.8872L32.1305 6.30298L48.7792 23.894L40.3113 57.4267Z" fill="black"/>
<path d="M38.7294 54.2959L3.55432 45.4231L14.9455 0.270996L41.0636 6.8612L47.9484 17.7516L38.7294 54.2959Z" fill="#E0E0E0"/>
<path d="M41.0623 6.86108L47.9471 17.7515L38.8901 15.4615L41.0623 6.86108Z" fill="#DBDBDB"/>
<path d="M29.6057 15.4849C30.6799 15.7305 31.695 16.1859 32.5927 16.825C33.4903 17.464 34.2529 18.2741 34.8366 19.2088C35.4202 20.1434 35.8134 21.1842 35.9936 22.2713C36.1739 23.3583 36.1375 24.4703 35.8867 25.5433C35.5942 26.8405 35.0015 28.051 34.1563 29.0777C33.4935 29.8016 32.5965 30.2683 31.6233 30.3957C31.4613 30.398 31.2999 30.3757 31.1447 30.3295C30.8862 30.281 30.6433 30.1706 30.4369 30.0077C30.2304 29.8448 30.0665 29.6344 29.9592 29.3943C29.7994 29.0126 29.7608 28.591 29.8487 28.1867L30.0328 27.3915C29.5626 27.7471 29.0211 27.9971 28.4454 28.1241C27.8697 28.2512 27.2734 28.2525 26.6972 28.1278C25.5615 27.8317 24.5861 27.1041 23.9785 26.0999C23.371 25.0957 23.1792 23.8941 23.4439 22.7507C23.7087 21.6073 24.4091 20.6123 25.3962 19.9773C26.3833 19.3423 27.5792 19.1175 28.7295 19.3507C29.8477 19.6448 30.8037 20.3705 31.3876 21.3685C31.9715 22.3666 32.1357 23.5555 31.8442 24.6744L31.8 24.8585V24.9763L30.99 28.3413C30.9426 28.5199 30.9426 28.7077 30.99 28.8862C31.0342 28.9967 31.1373 29.0924 31.3729 29.144L31.557 29.1881C32.1983 29.1127 32.7862 28.7937 33.1991 28.2972C33.933 27.4287 34.4391 26.3912 34.6717 25.2782C34.9926 23.8856 34.8931 22.4292 34.386 21.0931C33.8789 19.7571 32.9868 18.6015 31.8228 17.7726C30.6587 16.9436 29.2749 16.4786 27.8465 16.4362C26.4181 16.3939 25.0092 16.7763 23.7981 17.5349C22.587 18.2935 21.6281 19.3942 21.0428 20.6979C20.4575 22.0016 20.272 23.4496 20.5098 24.8587C20.7477 26.2678 21.3981 27.5747 22.3789 28.6141C23.3597 29.6535 24.6267 30.3785 26.0197 30.6976C26.6028 30.8552 27.2052 30.9296 27.809 30.9185C28.133 30.9185 28.4276 31.1321 28.376 31.4634C28.3848 31.5404 28.3766 31.6183 28.352 31.6917C28.3274 31.7652 28.287 31.8323 28.2336 31.8885C28.1803 31.9446 28.1153 31.9884 28.0432 32.0167C27.9711 32.0451 27.8937 32.0573 27.8164 32.0525C26.6258 32.0782 25.4433 31.8504 24.3475 31.384C23.2517 30.9177 22.2677 30.2235 21.4608 29.3476C20.654 28.4717 20.0427 27.4341 19.6677 26.3038C19.2926 25.1736 19.1623 23.9764 19.2855 22.7919C19.4087 21.6074 19.7825 20.4627 20.3821 19.4337C20.9817 18.4048 21.7934 17.5153 22.7633 16.8241C23.7331 16.133 24.8389 15.6562 26.0072 15.4253C27.1755 15.1944 28.3796 15.2147 29.5394 15.4849H29.6057ZM26.977 26.8466C27.8028 27.0068 28.6586 26.8333 29.3568 26.3641C30.0551 25.8949 30.5391 25.1682 30.7029 24.343C30.9169 23.532 30.8059 22.6694 30.3932 21.939C29.9806 21.2087 29.299 20.6683 28.4938 20.4331C27.6704 20.2865 26.8223 20.4701 26.1333 20.9442C25.4442 21.4183 24.9695 22.1447 24.8121 22.9661C24.5852 23.7677 24.6857 24.6267 25.0916 25.3543C25.4975 26.0818 26.1756 26.6186 26.977 26.8466Z" fill="#141414"/>
<path d="M46.6585 32.2869L40.3113 57.4254L0.666626 47.4186L7.01389 22.2948C8.48657 23.6865 9.89298 25.1223 11.3288 26.5361C12.7647 27.9499 14.1785 29.4004 15.5849 30.8437C17.1607 32.439 18.7266 34.0541 20.2828 35.6887H20.349H20.2901C21.4585 36.9012 22.6268 38.1285 23.7951 39.3704C25.4004 38.8476 27.0056 38.3248 28.6108 37.8168V37.7652L28.6623 37.8094C30.8026 37.1172 32.9478 36.4374 35.098 35.7697C37.0223 35.1709 38.949 34.5842 40.8782 34.0099C42.7706 33.4061 44.7146 32.817 46.6585 32.2869Z" fill="#FFC727"/>
<g opacity="0.2">
<path d="M46.6595 32.2867C44.7745 33.023 42.8674 33.671 40.975 34.3705C39.0826 35.0701 37.1755 35.718 35.2683 36.3734C33.3612 37.0287 31.2847 37.7356 29.2892 38.4056L29.1052 38.4719L23.8035 40.2318L23.5458 40.3128L23.3617 40.1213L19.5327 36.0567L19.4002 35.9095C17.9569 34.3779 16.5235 32.834 15.0999 31.2779C13.7377 29.8053 12.3755 28.3326 11.028 26.8157C9.68046 25.2989 8.33294 23.8115 7.01489 22.2799C8.48758 23.6716 9.89398 25.1074 11.3298 26.5212C12.7657 27.935 14.1795 29.3855 15.5859 30.8288C17.1617 32.4241 18.7276 34.0392 20.2838 35.6738C21.4521 36.8863 22.6204 38.1136 23.7888 39.3555C25.394 38.8327 26.9992 38.3099 28.6044 37.8019C30.7447 37.1097 32.8899 36.4298 35.0401 35.7622C36.9644 35.1633 38.8911 34.5767 40.8204 34.0024C42.7717 33.4059 44.7156 32.8169 46.6595 32.2867Z" fill="black"/>
<path d="M20.3501 35.6517H20.2912L19.5549 36.0273C18.3571 36.6114 17.1299 37.1612 15.8732 37.6767C14.4005 38.3246 12.8468 38.9211 11.3152 39.5101C9.78361 40.0992 8.25202 40.703 6.69098 41.189C5.12993 41.675 3.56889 42.2051 1.97839 42.6617C3.45108 41.9253 4.92377 41.2405 6.44799 40.5999C7.97222 39.9593 9.4817 39.3629 11.0059 38.7738C12.5302 38.1847 14.0765 37.6325 15.6375 37.117C16.8746 36.6973 18.1264 36.2997 19.3929 35.9463L20.2765 35.7106L20.3501 35.6517Z" fill="black"/>
<path d="M41.4389 52.5802C40.2313 51.4609 39.0826 50.2754 37.9707 49.0826C36.8589 47.8897 35.7617 46.6674 34.6793 45.4377C33.5969 44.208 32.5512 42.9415 31.5351 41.6603C30.703 40.6221 29.8857 39.5617 29.1052 38.472C28.9358 38.2437 28.7738 38.0081 28.6118 37.7798V37.7283L28.6634 37.7724L29.3261 38.4057C30.2759 39.3188 31.1817 40.2613 32.08 41.2185C33.2066 42.4114 34.289 43.6337 35.3641 44.9002C36.4391 46.1667 37.4921 47.389 38.5083 48.6776C39.5244 49.9662 40.4964 51.2253 41.4389 52.5802Z" fill="black"/>
</g>
</svg>
