<svg width="99" height="63" viewBox="0 0 99 63" fill="none" xmlns="http://www.w3.org/2000/svg">
<g filter="url(#filter0_d_4037_76485)">
<ellipse cx="84.1067" cy="26.9896" rx="21.3889" ry="21.3889" fill="#2B892B"/>
<path d="M80.3868 9.53105L75.6641 14.9709L80.3868 21.3751H90.0797L94.7283 14.9709L90.0797 9.53105C86.1828 8.22549 81.9941 8.98707 80.3868 9.53105Z" stroke="url(#paint0_linear_4037_76485)" stroke-width="1.68002"/>
<path d="M90.1534 23.2296H80.3617L77.3203 32.2796L85.2328 37.9914L93.0464 32.2796L90.1534 23.2296Z" fill="url(#paint1_linear_4037_76485)"/>
<path d="M76.0594 31.8345L68.3694 34.2824C67.3606 33.0757 65.361 29.5596 64.4874 27.9524C64.0719 25.5786 66.144 20.9135 67.232 18.8777L74.2791 16.1331L78.9524 22.6609L76.0594 31.8345Z" stroke="url(#paint2_linear_4037_76485)" stroke-width="1.68002"/>
<path d="M84.2193 39.1041L76.5293 33.5406L68.8393 35.9391C68.7239 36.6397 68.6217 38.2535 69.1361 39.1041" stroke="url(#paint3_linear_4037_76485)" stroke-width="1.68002"/>
<path d="M86.3457 39.1041L94.1346 33.5653L101.676 36.1121L101.503 39.0299" stroke="url(#paint4_linear_4037_76485)" stroke-width="1.68002"/>
<path d="M101.75 34.1588L94.6292 31.9334L91.5137 22.4878L96.2612 16.0342L101.726 18.3585" stroke="url(#paint5_linear_4037_76485)" stroke-width="1.68002"/>
<path d="M96.8793 14.4764C95.1584 13.4478 93.5907 11.229 93.022 10.2482C97.8288 11.8109 100.531 15.0534 101.281 16.4793C100.531 16.2403 98.6003 15.505 96.8793 14.4764Z" fill="url(#paint6_linear_4037_76485)"/>
<path d="M71.9795 13.3142C73.4533 11.9548 76.2435 10.6395 77.3452 10.3717C74.7984 14.8967 70.7406 15.9657 69.1607 16.2814C69.6023 15.6297 70.5058 14.6735 71.9795 13.3142Z" fill="url(#paint7_linear_4037_76485)"/>
<path d="M65.4022 37.2249C64.7149 35.3414 64.1202 32.2257 64.1597 31.0927C67.8295 34.7661 67.5028 39.0801 67.3804 40.6866C66.872 40.0855 66.5205 40.2894 65.4022 37.2249Z" fill="url(#paint8_linear_4037_76485)"/>
</g>
<g filter="url(#filter1_d_4037_76485)">
<ellipse cx="42.9563" cy="52.3308" rx="21.3889" ry="21.3889" fill="#2B892B"/>
<path d="M28.4134 41.1003L28.3125 47.5847L35.2773 49.2595L41.9545 43.6423L41.4455 36.5366L35.0906 35.4831C31.6495 36.8421 29.2053 39.7942 28.4134 41.1003Z" stroke="url(#paint9_linear_4037_76485)" stroke-width="1.68002"/>
<path d="M43.0803 44.8769L36.3349 50.5514L39.4844 58.5483L48.2453 57.8976L50.3179 49.4347L43.0803 44.8769Z" fill="url(#paint10_linear_4037_76485)"/>
<path d="M38.358 58.9725L34.4791 65.1154C33.0849 64.8688 29.6697 63.6054 28.1364 63.0045C26.4746 61.61 25.1985 57.1955 24.7682 55.1625L28.0323 49.1878L35.0347 50.9764L38.358 58.9725Z" stroke="url(#paint11_linear_4037_76485)" stroke-width="1.68002"/>
<path d="M48.1918 59.2517L39.6702 59.8756L35.7626 65.9844C36.0892 66.5339 36.954 67.7049 37.8012 67.9928" stroke="url(#paint12_linear_4037_76485)" stroke-width="1.68002"/>
<path d="M49.6566 58.0193L51.8124 49.6899L58.4837 47.0738L60.0553 49.1841" stroke="url(#paint13_linear_4037_76485)" stroke-width="1.68002"/>
<path d="M57.4033 45.6852L51.2079 48.2791L43.5877 43.5778L43.1181 36.3807L48.2296 34.815" stroke="url(#paint14_linear_4037_76485)" stroke-width="1.68002"/>
<path d="M42.6408 34.9492C40.8592 35.2379 38.4934 34.6179 37.5332 34.2719C41.7502 32.5627 45.4905 33.2306 46.8335 33.7783C46.1783 34.0483 44.4225 34.6605 42.6408 34.9492Z" fill="url(#paint15_linear_4037_76485)"/>
<path d="M24.8146 48.5787C25.0421 46.7882 26.2019 44.2651 26.8057 43.4421C27.6735 48.0353 25.4977 51.1233 24.5923 52.2563C24.5188 51.5515 24.5871 50.3692 24.8146 48.5787Z" fill="url(#paint16_linear_4037_76485)"/>
</g>
<g filter="url(#filter2_d_4037_76485)">
<ellipse cx="72.4821" cy="54.1906" rx="26.5036" ry="26.5036" fill="#2B892B"/>
<path d="M67.3812 31.0884L61.7578 37.5657L67.3812 45.1912H78.9225L84.4576 37.5657L78.9225 31.0884C74.2824 29.5339 69.295 30.4407 67.3812 31.0884Z" stroke="url(#paint17_linear_4037_76485)" stroke-width="1.68002"/>
<path d="M79.0109 47.3993H67.3518L63.7305 58.1751L73.1519 64.9762L82.4556 58.1751L79.0109 47.3993Z" fill="url(#paint18_linear_4037_76485)"/>
<path d="M62.2292 57.6451L53.0727 60.5599C51.8715 59.1231 49.4906 54.9365 48.4503 53.0227C47.9557 50.1963 50.423 44.6416 51.7184 42.2175L60.1094 38.9495L65.6739 46.7222L62.2292 57.6451Z" stroke="url(#paint19_linear_4037_76485)" stroke-width="1.68002"/>
<path d="M71.945 66.3011L62.7886 59.6766L53.6321 62.5325C53.4947 63.3667 53.373 65.2883 53.9854 66.3011" stroke="url(#paint20_linear_4037_76485)" stroke-width="1.68002"/>
<path d="M74.4771 66.3011L83.7513 59.7061L92.7311 62.7386L92.525 66.2127" stroke="url(#paint21_linear_4037_76485)" stroke-width="1.68002"/>
<path d="M92.8194 60.4127L84.3401 57.7629L80.6304 46.516L86.2832 38.8317L92.7899 41.5992" stroke="url(#paint22_linear_4037_76485)" stroke-width="1.68002"/>
<path d="M87.0192 36.9767C84.9701 35.7519 83.1034 33.11 82.4263 31.9421C88.1498 33.8029 91.3668 37.6637 92.2599 39.3615C91.3668 39.0769 89.0684 38.2015 87.0192 36.9767Z" fill="url(#paint23_linear_4037_76485)"/>
<path d="M57.3713 35.5931C59.1262 33.9745 62.4485 32.4083 63.7603 32.0895C60.7277 37.4774 55.8962 38.7503 54.015 39.1261C54.5408 38.3502 55.6165 37.2116 57.3713 35.5931Z" fill="url(#paint24_linear_4037_76485)"/>
<path d="M49.5396 64.0635C48.7212 61.8208 48.013 58.111 48.0601 56.7618C52.4297 61.1358 52.0407 66.2725 51.8949 68.1853C51.2897 67.4696 50.8712 67.7124 49.5396 64.0635Z" fill="url(#paint25_linear_4037_76485)"/>
</g>
<defs>
<filter id="filter0_d_4037_76485" x="57.1177" y="0.000634074" width="51.738" height="51.738" filterUnits="userSpaceOnUse" color-interpolation-filters="sRGB">
<feFlood flood-opacity="0" result="BackgroundImageFix"/>
<feColorMatrix in="SourceAlpha" type="matrix" values="0 0 0 0 0 0 0 0 0 0 0 0 0 0 0 0 0 0 127 0" result="hardAlpha"/>
<feOffset dx="-1.12001" dy="-1.12001"/>
<feGaussianBlur stdDeviation="2.24003"/>
<feComposite in2="hardAlpha" operator="out"/>
<feColorMatrix type="matrix" values="0 0 0 0 0 0 0 0 0 0.564706 0 0 0 0 0.145098 0 0 0 0.12 0"/>
<feBlend mode="normal" in2="BackgroundImageFix" result="effect1_dropShadow_4037_76485"/>
<feBlend mode="normal" in="SourceGraphic" in2="effect1_dropShadow_4037_76485" result="shape"/>
</filter>
<filter id="filter1_d_4037_76485" x="15.9673" y="25.3418" width="51.738" height="51.738" filterUnits="userSpaceOnUse" color-interpolation-filters="sRGB">
<feFlood flood-opacity="0" result="BackgroundImageFix"/>
<feColorMatrix in="SourceAlpha" type="matrix" values="0 0 0 0 0 0 0 0 0 0 0 0 0 0 0 0 0 0 127 0" result="hardAlpha"/>
<feOffset dx="-1.12001" dy="-1.12001"/>
<feGaussianBlur stdDeviation="2.24003"/>
<feComposite in2="hardAlpha" operator="out"/>
<feColorMatrix type="matrix" values="0 0 0 0 0 0 0 0 0 0.564706 0 0 0 0 0.145098 0 0 0 0.12 0"/>
<feBlend mode="normal" in2="BackgroundImageFix" result="effect1_dropShadow_4037_76485"/>
<feBlend mode="normal" in="SourceGraphic" in2="effect1_dropShadow_4037_76485" result="shape"/>
</filter>
<filter id="filter2_d_4037_76485" x="37.0184" y="18.7269" width="66.4475" height="66.4474" filterUnits="userSpaceOnUse" color-interpolation-filters="sRGB">
<feFlood flood-opacity="0" result="BackgroundImageFix"/>
<feColorMatrix in="SourceAlpha" type="matrix" values="0 0 0 0 0 0 0 0 0 0 0 0 0 0 0 0 0 0 127 0" result="hardAlpha"/>
<feOffset dx="-2.24003" dy="-2.24003"/>
<feGaussianBlur stdDeviation="3.36004"/>
<feColorMatrix type="matrix" values="0 0 0 0 0 0 0 0 0 0.564706 0 0 0 0 0.145098 0 0 0 0.16 0"/>
<feBlend mode="normal" in2="BackgroundImageFix" result="effect1_dropShadow_4037_76485"/>
<feBlend mode="normal" in="SourceGraphic" in2="effect1_dropShadow_4037_76485" result="shape"/>
</filter>
<linearGradient id="paint0_linear_4037_76485" x1="75.6341" y1="15.7135" x2="94.6983" y2="15.7135" gradientUnits="userSpaceOnUse">
<stop stop-color="#104210"/>
<stop offset="1" stop-color="#104210" stop-opacity="0"/>
</linearGradient>
<linearGradient id="paint1_linear_4037_76485" x1="77.2956" y1="31.3399" x2="93.0217" y2="31.3399" gradientUnits="userSpaceOnUse">
<stop stop-color="#104210"/>
<stop offset="1" stop-color="#104210" stop-opacity="0"/>
</linearGradient>
<linearGradient id="paint2_linear_4037_76485" x1="64.4103" y1="26.1046" x2="78.9296" y2="26.1046" gradientUnits="userSpaceOnUse">
<stop stop-color="#104210"/>
<stop offset="1" stop-color="#104210" stop-opacity="0"/>
</linearGradient>
<linearGradient id="paint3_linear_4037_76485" x1="68.7213" y1="36.5973" x2="84.195" y2="36.5973" gradientUnits="userSpaceOnUse">
<stop stop-color="#104210"/>
<stop offset="1" stop-color="#104210" stop-opacity="0"/>
</linearGradient>
<linearGradient id="paint4_linear_4037_76485" x1="86.3216" y1="36.6084" x2="101.652" y2="36.6084" gradientUnits="userSpaceOnUse">
<stop stop-color="#104210"/>
<stop offset="1" stop-color="#104210" stop-opacity="0"/>
</linearGradient>
<linearGradient id="paint5_linear_4037_76485" x1="91.4976" y1="25.9921" x2="101.734" y2="25.9921" gradientUnits="userSpaceOnUse">
<stop stop-color="#104210"/>
<stop offset="1" stop-color="#104210" stop-opacity="0"/>
</linearGradient>
<linearGradient id="paint6_linear_4037_76485" x1="93.009" y1="13.6716" x2="101.268" y2="13.6716" gradientUnits="userSpaceOnUse">
<stop stop-color="#104210"/>
<stop offset="1" stop-color="#104210" stop-opacity="0"/>
</linearGradient>
<linearGradient id="paint7_linear_4037_76485" x1="74.0942" y1="9.39891" x2="71.8334" y2="17.0573" gradientUnits="userSpaceOnUse">
<stop stop-color="#104210"/>
<stop offset="1" stop-color="#104210" stop-opacity="0"/>
</linearGradient>
<linearGradient id="paint8_linear_4037_76485" x1="62.2761" y1="34.0719" x2="68.9062" y2="38.2313" gradientUnits="userSpaceOnUse">
<stop stop-color="#104210"/>
<stop offset="1" stop-color="#104210" stop-opacity="0"/>
</linearGradient>
<linearGradient id="paint9_linear_4037_76485" x1="28.7222" y1="48.1137" x2="41.8552" y2="37.0655" gradientUnits="userSpaceOnUse">
<stop stop-color="#104210"/>
<stop offset="1" stop-color="#104210" stop-opacity="0"/>
</linearGradient>
<linearGradient id="paint10_linear_4037_76485" x1="38.9228" y1="57.9154" x2="49.7563" y2="48.8017" gradientUnits="userSpaceOnUse">
<stop stop-color="#104210"/>
<stop offset="1" stop-color="#104210" stop-opacity="0"/>
</linearGradient>
<linearGradient id="paint11_linear_4037_76485" x1="27.0125" y1="61.7762" x2="37.0146" y2="53.362" gradientUnits="userSpaceOnUse">
<stop stop-color="#104210"/>
<stop offset="1" stop-color="#104210" stop-opacity="0"/>
</linearGradient>
<linearGradient id="paint12_linear_4037_76485" x1="36.0627" y1="66.5063" x2="46.7223" y2="57.5389" gradientUnits="userSpaceOnUse">
<stop stop-color="#104210"/>
<stop offset="1" stop-color="#104210" stop-opacity="0"/>
</linearGradient>
<linearGradient id="paint13_linear_4037_76485" x1="48.1937" y1="56.314" x2="58.7546" y2="47.4297" gradientUnits="userSpaceOnUse">
<stop stop-color="#104210"/>
<stop offset="1" stop-color="#104210" stop-opacity="0"/>
</linearGradient>
<linearGradient id="paint14_linear_4037_76485" x1="45.6074" y1="46.0011" x2="52.6594" y2="40.0687" gradientUnits="userSpaceOnUse">
<stop stop-color="#104210"/>
<stop offset="1" stop-color="#104210" stop-opacity="0"/>
</linearGradient>
<linearGradient id="paint15_linear_4037_76485" x1="39.5082" y1="36.6377" x2="45.1975" y2="31.8516" gradientUnits="userSpaceOnUse">
<stop stop-color="#104210"/>
<stop offset="1" stop-color="#104210" stop-opacity="0"/>
</linearGradient>
<linearGradient id="paint16_linear_4037_76485" x1="24.0023" y1="44.6561" x2="26.8831" y2="51.2419" gradientUnits="userSpaceOnUse">
<stop stop-color="#104210"/>
<stop offset="1" stop-color="#104210" stop-opacity="0"/>
</linearGradient>
<linearGradient id="paint17_linear_4037_76485" x1="61.7221" y1="38.4499" x2="84.4219" y2="38.4499" gradientUnits="userSpaceOnUse">
<stop stop-color="#104210"/>
<stop offset="1" stop-color="#104210" stop-opacity="0"/>
</linearGradient>
<linearGradient id="paint18_linear_4037_76485" x1="63.701" y1="57.0563" x2="82.4261" y2="57.0563" gradientUnits="userSpaceOnUse">
<stop stop-color="#104210"/>
<stop offset="1" stop-color="#104210" stop-opacity="0"/>
</linearGradient>
<linearGradient id="paint19_linear_4037_76485" x1="48.3586" y1="50.8225" x2="65.6467" y2="50.8225" gradientUnits="userSpaceOnUse">
<stop stop-color="#104210"/>
<stop offset="1" stop-color="#104210" stop-opacity="0"/>
</linearGradient>
<linearGradient id="paint20_linear_4037_76485" x1="53.4915" y1="63.3162" x2="71.9161" y2="63.3162" gradientUnits="userSpaceOnUse">
<stop stop-color="#104210"/>
<stop offset="1" stop-color="#104210" stop-opacity="0"/>
</linearGradient>
<linearGradient id="paint21_linear_4037_76485" x1="74.4483" y1="63.3294" x2="92.7024" y2="63.3294" gradientUnits="userSpaceOnUse">
<stop stop-color="#104210"/>
<stop offset="1" stop-color="#104210" stop-opacity="0"/>
</linearGradient>
<linearGradient id="paint22_linear_4037_76485" x1="80.6112" y1="50.6886" x2="92.8002" y2="50.6886" gradientUnits="userSpaceOnUse">
<stop stop-color="#104210"/>
<stop offset="1" stop-color="#104210" stop-opacity="0"/>
</linearGradient>
<linearGradient id="paint23_linear_4037_76485" x1="82.4108" y1="36.0185" x2="92.2444" y2="36.0185" gradientUnits="userSpaceOnUse">
<stop stop-color="#104210"/>
<stop offset="1" stop-color="#104210" stop-opacity="0"/>
</linearGradient>
<linearGradient id="paint24_linear_4037_76485" x1="59.8892" y1="30.9312" x2="57.1974" y2="40.05" gradientUnits="userSpaceOnUse">
<stop stop-color="#104210"/>
<stop offset="1" stop-color="#104210" stop-opacity="0"/>
</linearGradient>
<linearGradient id="paint25_linear_4037_76485" x1="45.8173" y1="60.3092" x2="53.7117" y2="65.2619" gradientUnits="userSpaceOnUse">
<stop stop-color="#104210"/>
<stop offset="1" stop-color="#104210" stop-opacity="0"/>
</linearGradient>
</defs>
</svg>
