<svg width="32" height="33" viewBox="0 0 32 33" fill="none" xmlns="http://www.w3.org/2000/svg">
<path d="M3 4.21754V28.78C3.00016 28.8333 3.01606 28.8854 3.04569 28.9297C3.07532 28.974 3.11737 29.0085 3.16656 29.029C3.21575 29.0495 3.2699 29.055 3.32222 29.0449C3.37453 29.0347 3.42268 29.0093 3.46062 28.9719L16.25 16.4994L3.46062 4.02567C3.42268 3.98825 3.37453 3.96288 3.32222 3.95272C3.2699 3.94256 3.21575 3.94807 3.16656 3.96856C3.11737 3.98905 3.07532 4.02361 3.04569 4.06791C3.01606 4.1122 3.00016 4.16425 3 4.21754Z" fill="white"/>
<path d="M21.6124 11.3749L5.57615 2.53993L5.56615 2.5343C5.2899 2.3843 5.0274 2.75805 5.25365 2.97555L17.8243 14.9956L21.6124 11.3749Z" fill="white"/>
<path d="M5.25487 30.0246C5.02737 30.2421 5.28987 30.6159 5.56737 30.4659L5.57737 30.4602L21.6124 21.6252L17.8242 18.0034L5.25487 30.0246Z" fill="white"/>
<path d="M28.0864 14.9374L23.6083 12.4712L19.3976 16.4999L23.6083 20.5268L28.0864 18.0624C29.3045 17.3893 29.3045 15.6106 28.0864 14.9374Z" fill="white"/>
</svg>
