<svg width="17" height="16" viewBox="0 0 17 16" fill="none" xmlns="http://www.w3.org/2000/svg">
<path d="M8.50016 14.6666C4.82297 14.6666 1.8335 11.6771 1.8335 7.99992M8.50016 14.6666C12.1774 14.6666 15.1668 11.6771 15.1668 7.99992M8.50016 14.6666C12.1763 14.6666 15.1668 11.6761 15.1668 7.99992M8.50016 14.6666C4.82402 14.6666 1.8335 11.6761 1.8335 7.99992M1.8335 7.99992C1.8335 4.32273 4.82297 1.33325 8.50016 1.33325M1.8335 7.99992C1.8335 4.32378 4.82402 1.33325 8.50016 1.33325M15.1668 7.99992C15.1668 4.32273 12.1774 1.33325 8.50016 1.33325M15.1668 7.99992C15.1668 4.32378 12.1763 1.33325 8.50016 1.33325" fill="white" stroke="white"/>
<path d="M10.3066 10.1009C9.83477 10.4654 9.25609 10.6666 8.66032 10.6666C7.19202 10.6666 5.99727 9.47406 5.99366 8.00659C5.99366 8.00437 5.99365 8.00214 5.99365 7.99992C5.99365 6.52939 7.18979 5.33325 8.66032 5.33325C9.30606 5.33325 9.93341 5.56928 10.4135 5.99909L10.4134 5.99913L10.4163 6.00164C10.4163 6.00184 10.4164 6.00207 10.4164 6.00232C10.4164 6.00243 10.4164 6.00254 10.4164 6.00264C10.4158 6.0026 10.4152 6.00252 10.4149 6.00244C9.93133 5.57741 9.30845 5.33993 8.66032 5.33993C7.19084 5.33993 5.99365 6.53712 5.99365 8.00659C5.99365 9.47607 7.19084 10.6733 8.66032 10.6733C9.25421 10.6733 9.83868 10.4697 10.3066 10.1009ZM10.3066 10.1009C10.3434 10.0719 10.3795 10.0418 10.4149 10.0107M10.3066 10.1009C10.3438 10.0721 10.3804 10.0423 10.4163 10.0115M10.4149 10.0107L10.747 5.62659C10.1737 5.11325 9.42699 4.83325 8.66032 4.83325C6.91365 4.83325 5.49365 6.25325 5.49365 7.99992C5.49365 9.74659 6.91365 11.1666 8.66032 11.1666C9.42699 11.1666 10.167 10.8866 10.747 10.3866L10.4197 10.0108C10.4194 10.0107 10.4188 10.0106 10.4179 10.0105C10.4178 10.0105 10.4177 10.0105 10.4176 10.0105C10.4169 10.0113 10.4164 10.0122 10.4161 10.0128C10.416 10.0129 10.416 10.0129 10.416 10.0129C10.416 10.0129 10.4162 10.0125 10.4163 10.0115M10.4149 10.0107C10.4152 10.0107 10.4158 10.0106 10.4164 10.0105M10.4149 10.0107L10.4164 10.0105M10.4163 10.0115C10.4167 10.0112 10.4171 10.0109 10.4175 10.0105C10.4171 10.0105 10.4167 10.0105 10.4164 10.0105M10.4163 10.0115C10.4163 10.0113 10.4164 10.0111 10.4164 10.0109C10.4164 10.0108 10.4164 10.0106 10.4164 10.0105" fill="white" stroke="white"/>
</svg>
