<svg width="9" height="9" viewBox="0 0 9 9" fill="none" xmlns="http://www.w3.org/2000/svg">
<path d="M6.9975 5.98529C6.98066 5.92384 7.01756 5.8384 7.05277 5.77681C7.06369 5.75841 7.07558 5.74062 7.08841 5.7235C7.39042 5.26547 7.5514 4.72889 7.55138 4.18026C7.55643 2.60546 6.25057 1.32751 4.63579 1.32751C3.22752 1.32751 2.05185 2.30312 1.7773 3.59818C1.73609 3.79018 1.71526 3.98599 1.71515 4.18236C1.71515 5.75941 2.97064 7.05742 4.58542 7.05742C4.8423 7.05742 5.18869 6.99288 5.37766 6.93999C5.56664 6.8871 5.75533 6.81695 5.80402 6.79815C5.85385 6.77901 5.90678 6.76917 5.96016 6.76911C6.01838 6.7689 6.07603 6.7805 6.12964 6.8032L7.08139 7.14664C7.10219 7.15563 7.12423 7.1614 7.14677 7.16376C7.16459 7.16371 7.18223 7.16012 7.19866 7.1532C7.21509 7.14629 7.22998 7.13619 7.24248 7.12348C7.25498 7.11077 7.26483 7.09571 7.27148 7.07917C7.27812 7.06263 7.28141 7.04494 7.28117 7.02711C7.28 7.01147 7.27718 6.996 7.27275 6.98096L6.9975 5.98529Z" stroke="#141414" stroke-width="0.491266" stroke-miterlimit="10" stroke-linecap="round"/>
</svg>
