<svg width="9" height="9" viewBox="0 0 9 9" fill="none" xmlns="http://www.w3.org/2000/svg">
<path d="M7.03204 5.98529C7.01521 5.92384 7.0521 5.8384 7.08732 5.77681C7.09823 5.75841 7.11013 5.74062 7.12295 5.7235C7.42497 5.26547 7.58594 4.72889 7.58592 4.18026C7.59097 2.60546 6.28512 1.32751 4.67033 1.32751C3.26206 1.32751 2.0864 2.30312 1.81184 3.59818C1.77064 3.79018 1.74981 3.98599 1.74969 4.18236C1.74969 5.75941 3.00518 7.05742 4.61997 7.05742C4.87685 7.05742 5.22323 6.99288 5.41221 6.93999C5.60118 6.8871 5.78988 6.81695 5.83856 6.79815C5.8884 6.77901 5.94132 6.76917 5.99471 6.76911C6.05292 6.7689 6.11058 6.7805 6.16418 6.8032L7.11594 7.14664C7.13674 7.15563 7.15878 7.1614 7.18132 7.16376C7.19914 7.16371 7.21678 7.16012 7.2332 7.1532C7.24963 7.14629 7.26453 7.13619 7.27703 7.12348C7.28953 7.11077 7.29938 7.09571 7.30602 7.07917C7.31266 7.06263 7.31596 7.04494 7.31572 7.02711C7.31455 7.01147 7.31172 6.996 7.3073 6.98096L7.03204 5.98529Z" stroke="#141414" stroke-width="0.491266" stroke-miterlimit="10" stroke-linecap="round"/>
</svg>
