<svg width="24" height="24" viewBox="0 0 24 24" fill="none" xmlns="http://www.w3.org/2000/svg">
<path d="M17.782 9.98068L17.7821 9.98069L17.7853 9.97806C18.3171 9.54598 18.4018 8.7559 17.9734 8.22133C17.5464 7.66552 16.7468 7.59123 16.2165 8.02047L13.088 10.5193L13.087 10.5201C12.8117 10.7411 12.4159 10.8675 11.995 10.8675C11.5741 10.8675 11.1783 10.7411 10.903 10.5201L10.902 10.5193L7.77342 8.02042C7.22844 7.57934 6.44673 7.69189 6.02194 8.2147L6.02187 8.21465L6.01599 8.22218C5.59983 8.75486 5.68133 9.54469 6.2147 9.97806L6.21469 9.97807L6.21796 9.98068L9.34605 12.4792C10.0977 13.0912 11.0633 13.38 12 13.38C12.9396 13.38 13.8935 13.0896 14.6526 12.4803C14.6527 12.4801 14.6529 12.48 14.6531 12.4799L17.782 9.98068ZM7 4H17C18.4234 4 19.5331 4.35591 20.2848 5.0539C21.0297 5.74565 21.5 6.8453 21.5 8.5V15.5C21.5 17.1547 21.0297 18.2543 20.2848 18.9461C19.5331 19.6441 18.4234 20 17 20H7C5.57665 20 4.4669 19.6441 3.71523 18.9461C2.97026 18.2543 2.5 17.1547 2.5 15.5V8.5C2.5 6.8453 2.97026 5.74565 3.71523 5.0539C4.4669 4.35591 5.57665 4 7 4Z" fill="#858585" stroke="#858585"/>
</svg>
