<svg width="9" height="9" viewBox="0 0 9 9" fill="none" xmlns="http://www.w3.org/2000/svg">
<path d="M6.99737 5.98527C6.98054 5.92382 7.01744 5.83838 7.05265 5.77679C7.06357 5.7584 7.07546 5.7406 7.08828 5.72348C7.3903 5.26546 7.55127 4.72888 7.55125 4.18024C7.55631 2.60544 6.25045 1.3275 4.63567 1.3275C3.22739 1.3275 2.05173 2.30311 1.77717 3.59816C1.73597 3.79016 1.71514 3.98598 1.71502 4.18235C1.71502 5.7594 2.97052 7.0574 4.5853 7.0574C4.84218 7.0574 5.18856 6.99287 5.37754 6.93997C5.56652 6.88708 5.75521 6.81694 5.80389 6.79814C5.85373 6.779 5.90665 6.76915 5.96004 6.7691C6.01826 6.76889 6.07591 6.78049 6.12952 6.80319L7.08127 7.14663C7.10207 7.15562 7.12411 7.16139 7.14665 7.16374C7.16447 7.16369 7.18211 7.1601 7.19854 7.15319C7.21497 7.14627 7.22986 7.13617 7.24236 7.12346C7.25486 7.11076 7.26471 7.0957 7.27135 7.07915C7.27799 7.06261 7.28129 7.04492 7.28105 7.0271C7.27988 7.01146 7.27706 6.99599 7.27263 6.98094L6.99737 5.98527Z" stroke="#141414" stroke-width="0.491266" stroke-miterlimit="10" stroke-linecap="round"/>
</svg>
