<svg width="17" height="16" viewBox="0 0 17 16" fill="none" xmlns="http://www.w3.org/2000/svg">
<path d="M8.50004 14.6666C4.82285 14.6666 1.83337 11.6771 1.83337 7.99992M8.50004 14.6666C12.1772 14.6666 15.1667 11.6771 15.1667 7.99992M8.50004 14.6666C12.1762 14.6666 15.1667 11.6761 15.1667 7.99992M8.50004 14.6666C4.8239 14.6666 1.83337 11.6761 1.83337 7.99992M1.83337 7.99992C1.83337 4.32273 4.82285 1.33325 8.50004 1.33325M1.83337 7.99992C1.83337 4.32378 4.8239 1.33325 8.50004 1.33325M15.1667 7.99992C15.1667 4.32273 12.1772 1.33325 8.50004 1.33325M15.1667 7.99992C15.1667 4.32378 12.1762 1.33325 8.50004 1.33325" fill="white" stroke="white"/>
<path d="M10.3064 10.1009C9.83465 10.4654 9.25597 10.6666 8.6602 10.6666C7.1919 10.6666 5.99715 9.47406 5.99354 8.00659C5.99353 8.00437 5.99353 8.00214 5.99353 7.99992C5.99353 6.52939 7.18967 5.33325 8.6602 5.33325C9.30594 5.33325 9.93329 5.56928 10.4133 5.99909L10.4133 5.99913L10.4162 6.00164C10.4162 6.00184 10.4162 6.00207 10.4163 6.00232C10.4163 6.00243 10.4163 6.00254 10.4163 6.00264C10.4156 6.0026 10.4151 6.00252 10.4148 6.00244C9.93121 5.57741 9.30833 5.33993 8.6602 5.33993C7.19072 5.33993 5.99353 6.53712 5.99353 8.00659C5.99353 9.47607 7.19072 10.6733 8.6602 10.6733C9.25409 10.6733 9.83856 10.4697 10.3064 10.1009ZM10.3064 10.1009C10.3433 10.0719 10.3794 10.0418 10.4148 10.0107M10.3064 10.1009C10.3437 10.0721 10.3803 10.0423 10.4162 10.0115M10.4148 10.0107L10.7469 5.62659C10.1735 5.11325 9.42686 4.83325 8.6602 4.83325C6.91353 4.83325 5.49353 6.25325 5.49353 7.99992C5.49353 9.74659 6.91353 11.1666 8.6602 11.1666C9.42686 11.1666 10.1669 10.8866 10.7469 10.3866L10.4196 10.0108C10.4192 10.0107 10.4186 10.0106 10.4178 10.0105C10.4177 10.0105 10.4176 10.0105 10.4175 10.0105C10.4168 10.0113 10.4163 10.0122 10.416 10.0128C10.4159 10.0129 10.4159 10.0129 10.4159 10.0129C10.4159 10.0129 10.4161 10.0125 10.4162 10.0115M10.4148 10.0107C10.4151 10.0107 10.4156 10.0106 10.4163 10.0105M10.4148 10.0107L10.4163 10.0105M10.4162 10.0115C10.4166 10.0112 10.417 10.0109 10.4173 10.0105C10.417 10.0105 10.4166 10.0105 10.4163 10.0105M10.4162 10.0115C10.4162 10.0113 10.4162 10.0111 10.4163 10.0109C10.4163 10.0108 10.4163 10.0106 10.4163 10.0105" fill="white" stroke="white"/>
</svg>
