<svg width="9" height="9" viewBox="0 0 9 9" fill="none" xmlns="http://www.w3.org/2000/svg">
<path d="M3.08358 1.49127C1.96431 1.49127 1.01074 2.32819 1.01074 3.41514C1.01074 4.16498 1.36186 4.79627 1.8272 5.31921C2.29094 5.84036 2.88924 6.2778 3.43012 6.64393L4.36335 7.27563C4.46555 7.34481 4.59957 7.34481 4.70177 7.27563L5.635 6.64393C6.17588 6.2778 6.77418 5.84036 7.23792 5.31921C7.70326 4.79627 8.05438 4.16498 8.05438 3.41514C8.05438 2.32819 7.10081 1.49127 5.98153 1.49127C5.40457 1.49127 4.89688 1.76181 4.53256 2.11186C4.16824 1.76181 3.66055 1.49127 3.08358 1.49127Z" stroke="#141414" stroke-width="0.491266" stroke-linecap="round" stroke-linejoin="round"/>
</svg>
