<svg width="9" height="9" viewBox="0 0 9 9" fill="none" xmlns="http://www.w3.org/2000/svg">
<path d="M3.11825 1.49127C1.99897 1.49127 1.04541 2.32819 1.04541 3.41514C1.04541 4.16498 1.39652 4.79627 1.86186 5.31921C2.32561 5.84036 2.9239 6.2778 3.46479 6.64393L4.39801 7.27563C4.50022 7.34481 4.63424 7.34481 4.73644 7.27563L5.66967 6.64393C6.21055 6.2778 6.80885 5.84036 7.27259 5.31921C7.73793 4.79627 8.08904 4.16498 8.08904 3.41514C8.08904 2.32819 7.13548 1.49127 6.0162 1.49127C5.43924 1.49127 4.93155 1.76181 4.56723 2.11186C4.20291 1.76181 3.69521 1.49127 3.11825 1.49127Z" stroke="#141414" stroke-width="0.491266" stroke-linecap="round" stroke-linejoin="round"/>
</svg>
