<svg width="9" height="9" viewBox="0 0 9 9" fill="none" xmlns="http://www.w3.org/2000/svg">
<path d="M3.08358 1.49126C1.96431 1.49126 1.01074 2.32817 1.01074 3.41512C1.01074 4.16496 1.36186 4.79625 1.8272 5.3192C2.29094 5.84035 2.88924 6.27779 3.43012 6.64391L4.36335 7.27562C4.46555 7.3448 4.59957 7.3448 4.70177 7.27562L5.635 6.64391C6.17588 6.27779 6.77418 5.84035 7.23792 5.3192C7.70326 4.79625 8.05438 4.16496 8.05438 3.41512C8.05438 2.32817 7.10081 1.49126 5.98153 1.49126C5.40457 1.49126 4.89688 1.76179 4.53256 2.11184C4.16824 1.76179 3.66055 1.49126 3.08358 1.49126Z" stroke="#141414" stroke-width="0.491266" stroke-linecap="round" stroke-linejoin="round"/>
</svg>
