<svg width="32" height="32" viewBox="0 0 32 32" fill="none" xmlns="http://www.w3.org/2000/svg">
<g id="icons / logo-google-playstore">
<path id="Vector" d="M3 3.71754V28.28C3.00016 28.3333 3.01606 28.3854 3.04569 28.4297C3.07532 28.474 3.11737 28.5085 3.16656 28.529C3.21575 28.5495 3.2699 28.555 3.32222 28.5449C3.37453 28.5347 3.42268 28.5093 3.46062 28.4719L16.25 15.9994L3.46062 3.52567C3.42268 3.48825 3.37453 3.46288 3.32222 3.45272C3.2699 3.44256 3.21575 3.44807 3.16656 3.46856C3.11737 3.48905 3.07532 3.52361 3.04569 3.56791C3.01606 3.6122 3.00016 3.66425 3 3.71754Z" fill="#141414"/>
<path id="Vector_2" d="M21.6125 10.8749L5.57621 2.03994L5.56621 2.03432C5.28996 1.88432 5.02746 2.25807 5.25371 2.47557L17.8243 14.4956L21.6125 10.8749Z" fill="#141414"/>
<path id="Vector_3" d="M5.25493 29.5247C5.02743 29.7422 5.28993 30.1159 5.56743 29.9659L5.57743 29.9603L21.6124 21.1253L17.8243 17.5034L5.25493 29.5247Z" fill="#141414"/>
<path id="Vector_4" d="M28.0862 14.4374L23.6081 11.9712L19.3975 15.9999L23.6081 20.0268L28.0862 17.5624C29.3043 16.8893 29.3043 15.1106 28.0862 14.4374Z" fill="#141414"/>
</g>
</svg>
