<svg width="146" height="42" viewBox="0 0 146 42" fill="none" xmlns="http://www.w3.org/2000/svg">
<ellipse cx="16.7533" cy="8.77015" rx="3.38513" ry="3.38514" fill="#FCCE17"/>
<path d="M21.028 13.376C14.8381 19.5659 6.39942 10.3535 12.6861 4.06681C-3.8414 8.66667 -0.0807328 37.5555 16.313 37.5555C18.1265 28.0046 30.458 18.2925 37.7119 10.4744C40.0089 8.17733 39.2836 4.76801 37.8328 3.46233C34.9312 0.850962 32.1506 2.33394 31.0625 3.34142L21.028 13.376Z" fill="#196719" stroke="#196719" stroke-width="3.22394" stroke-linecap="round"/>
<path d="M34.4194 3.02563C32.1573 3.02563 30.3169 4.86607 30.3169 7.1282C30.3169 9.39033 32.1573 11.2308 34.4194 11.2308C36.6816 11.2308 38.522 9.39033 38.522 7.1282C38.522 4.86607 36.6816 3.02563 34.4194 3.02563ZM37.2399 9.02169H36.348C36.3204 9.02163 36.2933 9.01431 36.2693 9.00046C36.2454 8.98661 36.2256 8.96673 36.2117 8.94279L35.8934 8.39684C35.8724 8.36114 35.8663 8.31864 35.8764 8.27849L36.1695 7.09664C36.1754 7.07283 36.1868 7.05071 36.2027 7.03205C36.2186 7.01339 36.2387 6.9987 36.2612 6.98915L36.8155 6.75443C36.8426 6.74295 36.8723 6.73926 36.9014 6.74379C36.9305 6.74832 36.9577 6.76089 36.98 6.78007L37.8011 7.48658C37.8213 7.50401 37.8368 7.52629 37.8461 7.55133C37.8554 7.57638 37.8581 7.60337 37.8541 7.62978C37.7861 8.09631 37.6231 8.54393 37.3752 8.94496C37.3612 8.96835 37.3414 8.98771 37.3177 9.00116C37.294 9.0146 37.2672 9.02168 37.2399 9.02169ZM32.0234 6.75601L32.5776 6.99072C32.6002 7.00028 32.6203 7.01497 32.6362 7.03363C32.6521 7.05229 32.6635 7.0744 32.6693 7.09822L32.9624 8.28007C32.9725 8.32022 32.9664 8.36272 32.9455 8.39842L32.6271 8.94279C32.6133 8.96673 32.5935 8.98661 32.5695 9.00046C32.5456 9.01431 32.5185 9.02163 32.4908 9.02169H31.5989C31.572 9.02171 31.5454 9.01481 31.5219 9.00165C31.4983 8.9885 31.4786 8.96952 31.4644 8.94654C31.2165 8.54551 31.0535 8.09789 30.9855 7.63135C30.9815 7.60495 30.9843 7.57796 30.9936 7.55291C31.0029 7.52787 31.0183 7.50559 31.0386 7.48816L31.8597 6.78165C31.8819 6.76262 31.909 6.75014 31.9379 6.74561C31.9668 6.74108 31.9964 6.74468 32.0234 6.75601ZM37.0912 5.0353L36.7348 6.04871C36.7277 6.06942 36.7163 6.08841 36.7013 6.10448C36.6864 6.12054 36.6683 6.13332 36.6482 6.14201L36.0648 6.38915C36.038 6.40047 36.0086 6.40418 35.9799 6.39987C35.9511 6.39555 35.9241 6.38338 35.9019 6.36469L34.7922 5.43392C34.7745 5.41925 34.7602 5.40088 34.7503 5.38009C34.7404 5.35931 34.7352 5.33662 34.735 5.3136V4.65128C34.735 4.62532 34.7415 4.59978 34.7537 4.5769C34.7659 4.55402 34.7836 4.53451 34.8052 4.52011L35.65 3.95719C35.6721 3.94248 35.6975 3.93355 35.7239 3.93124C35.7503 3.92893 35.7768 3.93331 35.8011 3.94398C36.2872 4.15598 36.7185 4.47599 37.0624 4.87968C37.0805 4.90078 37.0927 4.92629 37.0977 4.95362C37.1028 4.98094 37.1006 5.00912 37.0912 5.0353ZM33.1887 3.95719L34.0336 4.52011C34.0552 4.53451 34.0729 4.55402 34.0852 4.5769C34.0974 4.59978 34.1038 4.62532 34.1039 4.65128V5.3136C34.1039 5.33665 34.0988 5.35942 34.0891 5.38031C34.0793 5.4012 34.0651 5.4197 34.0474 5.43451L32.9378 6.36528C32.9155 6.38397 32.8885 6.39614 32.8598 6.40046C32.831 6.40477 32.8016 6.40106 32.7749 6.38974L32.1907 6.14201C32.1704 6.13343 32.1522 6.12072 32.1371 6.10469C32.1221 6.08866 32.1106 6.06966 32.1033 6.04891L31.7469 5.0355C31.7376 5.00922 31.7355 4.98097 31.7407 4.9536C31.7459 4.92623 31.7582 4.90073 31.7765 4.87968C32.1205 4.47558 32.5523 4.15529 33.0388 3.94319C33.0629 3.93285 33.0893 3.92871 33.1155 3.93116C33.1417 3.93361 33.1668 3.94255 33.1887 3.95719ZM33.5301 10.416L33.1409 9.43589C33.132 9.41361 33.1283 9.3896 33.1301 9.36567C33.1319 9.34175 33.1391 9.31854 33.1512 9.29782L33.4504 8.785C33.4642 8.76107 33.4841 8.74118 33.508 8.72734C33.5319 8.71349 33.5591 8.70617 33.5867 8.70611H35.2522C35.2798 8.70617 35.307 8.71349 35.3309 8.72734C35.3548 8.74118 35.3747 8.76107 35.3885 8.785L35.6879 9.29782C35.7 9.31853 35.7072 9.34172 35.7091 9.36565C35.7109 9.38957 35.7072 9.4136 35.6983 9.43589L35.3119 10.4156C35.3025 10.4395 35.2873 10.4608 35.2678 10.4775C35.2482 10.4943 35.2248 10.506 35.1997 10.5116C34.687 10.6293 34.1543 10.6293 33.6415 10.5116C33.6166 10.5059 33.5934 10.4942 33.574 10.4776C33.5546 10.4609 33.5395 10.4398 33.5301 10.416Z" fill="white"/>
<ellipse cx="34.3671" cy="7.17468" rx="3.10094" ry="3.10095" fill="#196719"/>
<g filter="url(#filter0_d_4393_60503)">
<ellipse cx="34.4221" cy="7.1889" rx="2.35271" ry="2.35272" fill="white"/>
<ellipse cx="34.422" cy="7.18864" rx="1.3942" ry="1.39421" fill="#FCCE17"/>
<path d="M37.1232 7.18858C37.1232 8.68045 35.9138 9.88985 34.422 9.88985C32.9301 9.88985 31.7207 8.68045 31.7207 7.18858C31.7207 5.69671 32.9301 4.4873 34.422 4.4873C35.9138 4.4873 37.1232 5.69671 37.1232 7.18858ZM32.2121 7.18858C32.2121 8.40906 33.2015 9.39846 34.422 9.39846C35.6424 9.39846 36.6318 8.40906 36.6318 7.18858C36.6318 5.9681 35.6424 4.9787 34.422 4.9787C33.2015 4.9787 32.2121 5.9681 32.2121 7.18858Z" fill="#E0E0E0"/>
<path d="M36.3389 7.18876C36.3389 8.24751 35.4807 9.1058 34.4219 9.1058C33.3632 9.1058 32.5049 8.24751 32.5049 7.18876C32.5049 6.13001 33.3632 5.27173 34.4219 5.27173C35.4807 5.27173 36.3389 6.13001 36.3389 7.18876ZM32.9266 7.18876C32.9266 8.01459 33.5961 8.68405 34.4219 8.68405C35.2477 8.68405 35.9172 8.01459 35.9172 7.18876C35.9172 6.36294 35.2477 5.69348 34.4219 5.69348C33.5961 5.69348 32.9266 6.36294 32.9266 7.18876Z" fill="#70E000"/>
<path d="M36.3389 7.18876C36.3389 7.44051 36.2893 7.68979 36.193 7.92238C36.0967 8.15496 35.9555 8.3663 35.7774 8.54431C35.5994 8.72232 35.3881 8.86353 35.1555 8.95987C34.9229 9.05621 34.6737 9.1058 34.4219 9.1058C34.1702 9.1058 33.9209 9.05621 33.6883 8.95987C33.4557 8.86353 33.2444 8.72232 33.0664 8.54431C32.8884 8.3663 32.7471 8.15496 32.6508 7.92238C32.5545 7.68979 32.5049 7.44051 32.5049 7.18876H32.9266C32.9266 7.38513 32.9653 7.57957 33.0404 7.76098C33.1156 7.9424 33.2257 8.10724 33.3646 8.24609C33.5034 8.38494 33.6683 8.49508 33.8497 8.57023C34.0311 8.64537 34.2255 8.68405 34.4219 8.68405C34.6183 8.68405 34.8127 8.64537 34.9941 8.57023C35.1755 8.49508 35.3404 8.38494 35.4792 8.24609C35.6181 8.10724 35.7282 7.9424 35.8034 7.76098C35.8785 7.57957 35.9172 7.38513 35.9172 7.18876H36.3389Z" fill="#196719"/>
<g clip-path="url(#clip0_4393_60503)">
<path d="M34.4223 5.77271C33.6416 5.77271 33.0063 6.40793 33.0063 7.18869C33.0063 7.96946 33.6416 8.60468 34.4223 8.60468C35.2031 8.60468 35.8383 7.96946 35.8383 7.18869C35.8383 6.40793 35.2031 5.77271 34.4223 5.77271ZM35.3958 7.84223H35.088C35.0784 7.8422 35.0691 7.83968 35.0608 7.8349C35.0526 7.83012 35.0457 7.82326 35.0409 7.81499L34.9311 7.62656C34.9238 7.61424 34.9217 7.59957 34.9252 7.58571L35.0264 7.1778C35.0284 7.16958 35.0323 7.16195 35.0378 7.15551C35.0433 7.14907 35.0502 7.144 35.058 7.1407L35.2493 7.05969C35.2587 7.05572 35.2689 7.05445 35.279 7.05602C35.289 7.05758 35.2984 7.06192 35.3061 7.06854L35.5895 7.31239C35.5965 7.3184 35.6018 7.32609 35.605 7.33474C35.6082 7.34338 35.6092 7.3527 35.6078 7.36181C35.5843 7.52283 35.5281 7.67733 35.4425 7.81574C35.4377 7.82382 35.4309 7.8305 35.4227 7.83514C35.4145 7.83978 35.4052 7.84222 35.3958 7.84223ZM33.5953 7.06023L33.7866 7.14124C33.7944 7.14454 33.8014 7.14961 33.8069 7.15605C33.8123 7.16249 33.8163 7.17013 33.8183 7.17835L33.9195 7.58626C33.9229 7.60011 33.9208 7.61478 33.9136 7.6271L33.8037 7.81499C33.799 7.82326 33.7921 7.83012 33.7838 7.8349C33.7756 7.83968 33.7662 7.8422 33.7567 7.84223H33.4488C33.4395 7.84223 33.4304 7.83985 33.4222 7.83531C33.4141 7.83077 33.4073 7.82422 33.4024 7.81629C33.3169 7.67787 33.2606 7.52338 33.2371 7.36236C33.2357 7.35324 33.2367 7.34392 33.2399 7.33528C33.2431 7.32664 33.2485 7.31895 33.2554 7.31293L33.5388 7.06908C33.5465 7.06251 33.5559 7.05821 33.5658 7.05664C33.5758 7.05508 33.586 7.05632 33.5953 7.06023ZM35.3445 6.46633L35.2215 6.81611C35.219 6.82326 35.2151 6.82981 35.2099 6.83536C35.2048 6.8409 35.1985 6.84531 35.1916 6.84831L34.9902 6.93361C34.981 6.93752 34.9708 6.9388 34.9609 6.93731C34.951 6.93582 34.9417 6.93162 34.934 6.92517L34.551 6.60392C34.5449 6.59885 34.5399 6.59251 34.5365 6.58534C34.5331 6.57817 34.5313 6.57033 34.5313 6.56239V6.33379C34.5313 6.32483 34.5335 6.31602 34.5377 6.30812C34.5419 6.30022 34.548 6.29349 34.5555 6.28852L34.8471 6.09423C34.8547 6.08915 34.8634 6.08607 34.8726 6.08527C34.8817 6.08448 34.8908 6.08599 34.8992 6.08967C35.067 6.16284 35.2159 6.27329 35.3346 6.41262C35.3408 6.41991 35.345 6.42871 35.3467 6.43814C35.3485 6.44757 35.3477 6.4573 35.3445 6.46633ZM33.9975 6.09423L34.2892 6.28852C34.2966 6.29349 34.3027 6.30022 34.307 6.30812C34.3112 6.31602 34.3134 6.32483 34.3134 6.33379V6.56239C34.3134 6.57035 34.3117 6.57821 34.3083 6.58541C34.3049 6.59262 34.3 6.59901 34.2939 6.60412L33.9109 6.92537C33.9033 6.93182 33.8939 6.93603 33.884 6.93752C33.8741 6.939 33.864 6.93772 33.8547 6.93381L33.6531 6.84831C33.6461 6.84535 33.6398 6.84096 33.6346 6.83543C33.6294 6.8299 33.6254 6.82334 33.6229 6.81618L33.4999 6.4664C33.4967 6.45733 33.496 6.44758 33.4978 6.43814C33.4996 6.42869 33.5038 6.41989 33.5101 6.41262C33.6289 6.27315 33.7779 6.1626 33.9458 6.0894C33.9541 6.08583 33.9632 6.0844 33.9723 6.08524C33.9813 6.08609 33.99 6.08918 33.9975 6.09423ZM34.1154 8.32346L33.9811 7.98519C33.978 7.9775 33.9767 7.96921 33.9773 7.96095C33.9779 7.95269 33.9804 7.94468 33.9846 7.93753L34.0879 7.76053C34.0926 7.75227 34.0995 7.74541 34.1078 7.74063C34.116 7.73585 34.1254 7.73333 34.1349 7.7333H34.7098C34.7193 7.73333 34.7287 7.73585 34.7369 7.74063C34.7452 7.74541 34.752 7.75227 34.7568 7.76053L34.8601 7.93753C34.8643 7.94468 34.8668 7.95268 34.8674 7.96094C34.8681 7.9692 34.8668 7.97749 34.8637 7.98519L34.7304 8.32332C34.7271 8.33159 34.7219 8.33893 34.7151 8.34471C34.7084 8.35049 34.7003 8.35453 34.6916 8.35647C34.5147 8.39709 34.3308 8.39709 34.1538 8.35647C34.1452 8.3545 34.1372 8.35047 34.1305 8.34471C34.1238 8.33896 34.1186 8.33167 34.1154 8.32346Z" fill="#196719"/>
</g>
</g>
<path d="M19.1005 38.6435C19.7778 35.3332 23.4843 29.6466 28.1111 24.7776C33.8946 18.6915 28.1243 35.5579 19.1005 38.6435Z" fill="#FCCE17"/>
<path fill-rule="evenodd" clip-rule="evenodd" d="M94.8389 6.44434H89.7356V11.7025H88.4209V16.3034H89.7356V36.4163C89.7276 37.6881 89.9792 38.7409 90.4903 39.5747C91.0014 40.4085 91.7162 41.0233 92.6346 41.4191C93.5611 41.815 95.8691 41.9371 95.8691 41.9371C95.8691 41.9371 98.9372 42.2657 100.991 41.4191V37.4396C99.6183 37.6039 97.9834 37.6039 96.5639 37.6039C96.2205 37.6039 95.917 37.5491 95.6535 37.4396C95.3979 37.3302 95.1983 37.1407 95.0545 36.8711C94.9107 36.5932 94.8389 36.2058 94.8389 35.7089V16.3034H100.909V11.7025H94.8389V6.44434Z" fill="black"/>
<path d="M79.2188 40.6227V9.99072H84.064V15.1283H84.2517C84.5802 14.0021 85.1316 13.1517 85.9059 12.5768C86.6802 11.994 87.5718 11.7027 88.5808 11.7027C89.1355 11.7027 89.9388 11.7027 90.3924 11.7027V16.2693C89.9388 16.2693 89.9388 16.2693 89.4853 16.2693C89.0317 16.2693 88.4688 16.2693 88.1246 16.2693C87.3894 16.2693 86.7325 16.4308 86.1537 16.7536C85.5827 17.0686 85.1291 17.5096 84.7928 18.0766C84.4643 18.6436 84.2165 19.1011 84.2165 19.8414V40.6227H79.2188Z" fill="black"/>
<path d="M69.7061 38.2331C68.0836 38.2331 66.6804 37.8884 65.4966 37.199C64.3198 36.5027 63.411 35.5347 62.7704 34.2952C60.8846 30.6262 61.021 19.7978 62.7704 16.4132C63.411 15.1667 64.3198 14.1988 65.4966 13.5094C66.6804 12.813 68.0836 12.4648 69.7061 12.4648C71.3287 12.4648 72.7283 12.813 73.9052 13.5094C75.089 14.1988 76.0012 15.1667 76.6419 16.4132C78.3912 19.7978 78.5276 30.6262 76.6419 34.2952C76.0012 35.5347 75.089 36.5027 73.9052 37.199C72.7283 37.8884 71.3287 38.2331 69.7061 38.2331ZM69.727 34.7861C70.4652 34.7861 71.0814 34.5772 71.5759 34.1594C72.0703 33.7346 72.4428 33.1566 72.6935 32.4255C72.9512 31.6943 73.08 30.8621 73.08 29.929C73.08 28.9959 72.9512 18.9619 72.6935 18.2307C72.4428 17.4995 72.0703 16.9216 71.5759 16.4968C71.0814 16.072 70.4652 15.8596 69.727 15.8596C68.9819 15.8596 68.3552 16.072 67.8468 16.4968C67.3455 16.9216 66.9659 17.4995 66.7083 18.2307C66.4576 18.9619 66.3323 28.9959 66.3323 29.929C66.3323 30.8621 66.4576 31.6943 66.7083 32.4255C66.9659 33.1566 67.3455 33.7346 67.8468 34.1594C68.3552 34.5772 68.9819 34.7861 69.727 34.7861Z" fill="black"/>
<path d="M46.4204 38.6508V19.0233L50.3236 18.366V20.7637H50.5002C50.6736 20.3796 50.9246 19.9893 51.2529 19.5928C51.5875 19.19 52.0212 18.8555 52.554 18.5891C53.093 18.3165 53.7621 18.1802 54.5614 18.1802C55.6022 18.1802 56.5625 18.4528 57.4423 18.998C58.322 19.537 59.0252 20.3517 59.5519 21.4421C60.0785 22.5263 60.3418 26.5154 60.3418 28.151C60.3418 29.7432 60.0847 31.0877 59.5704 32.1843C59.0624 33.2747 58.3685 34.1018 57.4887 34.6656C56.6152 35.2232 55.6363 35.502 54.5521 35.502C53.7838 35.502 53.1302 35.375 52.5912 35.121C52.0584 34.867 51.6216 34.5479 51.2808 34.1638C50.9401 33.7734 50.6798 33.38 50.5002 32.9835H50.3794V38.6508H46.4204ZM50.2957 28.1324C50.2957 28.9812 50.4134 29.7216 50.6489 30.3535C50.8843 30.9854 51.2251 31.478 51.6711 31.8311C52.1172 32.1781 52.6593 32.3516 53.2975 32.3516C53.9418 32.3516 54.487 32.175 54.9331 31.8218C55.3792 31.4625 55.7168 30.9669 55.9461 30.3349C56.1815 29.6968 56.2992 28.9626 56.2992 28.1324C56.2992 27.3084 56.1846 23.9544 55.9553 23.3287C55.7261 22.7029 55.3885 22.2135 54.9424 21.8603C54.4963 21.5072 53.948 21.3306 53.2975 21.3306C52.6531 21.3306 52.1079 21.501 51.6618 21.8417C51.222 22.1825 50.8843 22.6657 50.6489 23.2915C50.4134 23.9172 50.2957 27.2836 50.2957 28.1324Z" fill="black"/>
<path d="M41.8576 23.1497C41.8017 22.5859 41.5617 22.1479 41.1377 21.8358C40.7137 21.5236 40.1383 21.3675 39.4114 21.3675C38.9175 21.3675 38.5005 21.4374 38.1603 21.5772C37.8202 21.7123 37.5593 21.901 37.3776 22.1433C37.2005 22.3856 37.112 22.6605 37.112 22.968C37.1026 23.2243 37.1562 23.4479 37.2727 23.639C37.3939 23.83 37.5593 23.9954 37.7689 24.1352C37.9786 24.2703 38.2209 24.3891 38.4958 24.4917C38.7707 24.5895 39.0643 24.6734 39.3765 24.7433L40.6625 25.0508C41.2868 25.1906 41.8599 25.377 42.3818 25.6099C42.9037 25.8429 43.3556 26.1295 43.7377 26.4696C44.1198 26.8097 44.4157 27.2104 44.6253 27.6717C44.8397 28.133 44.9492 28.6619 44.9538 29.2583C44.9492 30.1343 44.7255 30.8937 44.2829 31.5368C43.8449 32.1751 43.2112 32.6713 42.3818 33.0254C41.5571 33.3749 40.5623 33.5496 39.3974 33.5496C38.2419 33.5496 37.2354 33.3726 36.3781 33.0185C35.5254 32.6643 34.8591 32.1402 34.3792 31.4459C33.9039 30.747 33.6546 29.8826 33.6313 28.8529H36.5598C36.5924 29.3328 36.7299 29.7335 36.9722 30.055C37.2191 30.3719 37.5476 30.6119 37.9577 30.7749C38.3723 30.9334 38.8406 31.0126 39.3625 31.0126C39.875 31.0126 40.32 30.938 40.6974 30.7889C41.0795 30.6398 41.3754 30.4325 41.585 30.1669C41.7947 29.9013 41.8996 29.5961 41.8996 29.2513C41.8996 28.9298 41.804 28.6595 41.613 28.4405C41.4266 28.2215 41.1517 28.0352 40.7883 27.8814C40.4295 27.7276 39.9892 27.5879 39.4673 27.4621L37.9087 27.0707C36.7019 26.7771 35.7491 26.3182 35.0502 25.6938C34.3512 25.0694 34.0041 24.2284 34.0088 23.1707C34.0041 22.304 34.2347 21.5469 34.7007 20.8992C35.1713 20.2515 35.8166 19.746 36.6367 19.3826C37.4568 19.0191 38.3887 18.8374 39.4324 18.8374C40.4947 18.8374 41.422 19.0191 42.2141 19.3826C43.0108 19.746 43.6305 20.2515 44.0732 20.8992C44.5158 21.5469 44.7442 22.297 44.7581 23.1497H41.8576Z" fill="black"/>
<path d="M140.345 32.0782C139.4 32.0782 138.582 31.8715 137.892 31.4582C137.207 31.0407 136.677 30.4604 136.304 29.7173C135.451 28.0092 135.436 24.9989 136.304 23.2717C136.677 22.5244 137.207 21.9441 137.892 21.5308C138.582 21.1133 139.4 20.9045 140.345 20.9045C141.29 20.9045 142.106 21.1133 142.791 21.5308C143.481 21.9441 144.013 22.5244 144.386 23.2717C145.254 24.9989 145.239 28.0092 144.386 29.7173C144.013 30.4604 143.481 31.0407 142.791 31.4582C142.106 31.8715 141.29 32.0782 140.345 32.0782ZM140.357 30.0116C140.787 30.0116 141.146 29.8864 141.434 29.6359C141.722 29.3812 141.939 29.0347 142.086 28.5963C142.236 28.1579 142.311 26.4175 142.311 25.8581C142.311 25.2986 142.236 24.7997 142.086 24.3614C141.939 23.923 141.722 23.5765 141.434 23.3218C141.146 23.0671 140.787 22.9398 140.357 22.9398C139.923 22.9398 139.558 23.0671 139.262 23.3218C138.97 23.5765 138.748 23.923 138.598 24.3614C138.452 24.7997 138.379 25.2986 138.379 25.8581C138.379 26.4175 138.452 28.1579 138.598 28.5963C138.748 29.0347 138.97 29.3812 139.262 29.6359C139.558 29.8864 139.923 30.0116 140.357 30.0116Z" fill="black"/>
<path d="M127.525 35.1943C126.062 35.1943 124.796 34.8833 123.727 34.2613C122.666 33.633 121.846 32.7597 121.268 31.6413C119.874 28.9303 119.9 23.8259 121.268 21.1806C121.846 20.0559 122.666 19.1826 123.727 18.5606C124.796 17.9323 126.062 17.6182 127.525 17.6182C128.989 17.6182 130.252 17.9323 131.314 18.5606C132.382 19.1826 133.205 20.0559 133.783 21.1806C135.151 23.8259 135.177 28.9303 133.783 31.6413C133.205 32.7597 132.382 33.633 131.314 34.2613C130.252 34.8833 128.989 35.1943 127.525 35.1943ZM127.544 32.0843C128.21 32.0843 128.766 31.8958 129.212 31.5188C129.659 31.1355 129.995 30.6141 130.221 29.9544C130.453 29.2947 130.57 28.5438 130.57 27.7019C130.57 26.86 130.453 23.4801 130.221 22.8204C129.995 22.1607 129.659 21.6392 129.212 21.256C128.766 20.8727 128.21 20.6811 127.544 20.6811C126.872 20.6811 126.307 20.8727 125.848 21.256C125.396 21.6392 125.053 22.1607 124.821 22.8204C124.594 23.4801 124.481 26.86 124.481 27.7019C124.481 28.5438 124.594 29.2947 124.821 29.9544C125.053 30.6141 125.396 31.1355 125.848 31.5188C126.307 31.8958 126.872 32.0843 127.544 32.0843Z" fill="black"/>
<path d="M102.224 41.05V6.44434H106.897V16.8107H107.039C107.244 16.4307 107.54 16.0445 107.928 15.6522C108.322 15.2537 108.834 14.9227 109.463 14.6591C110.1 14.3894 110.889 14.2546 111.833 14.2546C113.061 14.2546 114.195 14.5243 115.233 15.0637C116.271 15.597 117.101 16.4031 117.723 17.482C119.494 20.539 119.332 33.1889 117.745 36.0254C117.145 37.1043 116.326 37.9227 115.288 38.4805C114.257 39.0322 113.101 39.308 111.822 39.308C110.915 39.308 110.143 39.1823 109.507 38.931C108.878 38.6797 108.363 38.364 107.961 37.984C107.558 37.5978 107.251 37.2085 107.039 36.8162H106.831V41.05H102.224ZM106.798 21.5001C106.798 22.3399 106.937 33.5888 107.215 34.2141C107.492 34.8393 107.895 35.3266 108.421 35.676C108.948 36.0193 109.588 36.191 110.341 36.191C111.101 36.191 111.745 36.0163 112.271 35.6668C112.798 35.3113 113.196 34.8209 113.467 34.1957C113.745 33.5643 113.884 22.3215 113.884 21.5001C113.884 20.6848 113.749 19.9676 113.478 19.3485C113.207 18.7294 112.809 18.2451 112.282 17.8957C111.756 17.5463 111.109 17.3716 110.341 17.3716C109.58 17.3716 108.937 17.5402 108.41 17.8773C107.891 18.2145 107.492 18.6926 107.215 19.3117C106.937 19.9309 106.798 20.6603 106.798 21.5001Z" fill="black"/>
<defs>
<filter id="filter0_d_4393_60503" x="31.1419" y="4.05317" width="6.56003" height="6.56028" filterUnits="userSpaceOnUse" color-interpolation-filters="sRGB">
<feFlood flood-opacity="0" result="BackgroundImageFix"/>
<feColorMatrix in="SourceAlpha" type="matrix" values="0 0 0 0 0 0 0 0 0 0 0 0 0 0 0 0 0 0 127 0" result="hardAlpha"/>
<feOffset dy="0.144711"/>
<feGaussianBlur stdDeviation="0.289422"/>
<feColorMatrix type="matrix" values="0 0 0 0 0.08 0 0 0 0 0.08 0 0 0 0 0.08 0 0 0 0.08 0"/>
<feBlend mode="normal" in2="BackgroundImageFix" result="effect1_dropShadow_4393_60503"/>
<feBlend mode="normal" in="SourceGraphic" in2="effect1_dropShadow_4393_60503" result="shape"/>
</filter>
<clipPath id="clip0_4393_60503">
<rect width="3.48551" height="3.48551" fill="white" transform="translate(32.6797 5.44604)"/>
</clipPath>
</defs>
</svg>
