<svg width="146" height="42" viewBox="0 0 146 42" fill="none" xmlns="http://www.w3.org/2000/svg">
<ellipse cx="16.7535" cy="8.77015" rx="3.38513" ry="3.38514" fill="#FCCE17"/>
<path d="M21.028 13.376C14.8381 19.5659 6.39942 10.3535 12.6861 4.06681C-3.8414 8.66667 -0.0807328 37.5555 16.313 37.5555C18.1265 28.0046 30.458 18.2925 37.7119 10.4744C40.0089 8.17733 39.2836 4.76801 37.8328 3.46233C34.9312 0.850962 32.1506 2.33394 31.0625 3.34142L21.028 13.376Z" fill="#196719" stroke="#196719" stroke-width="3.22394" stroke-linecap="round"/>
<path d="M34.4196 3.02563C32.1574 3.02563 30.317 4.86607 30.317 7.1282C30.317 9.39033 32.1574 11.2308 34.4196 11.2308C36.6817 11.2308 38.5221 9.39033 38.5221 7.1282C38.5221 4.86607 36.6817 3.02563 34.4196 3.02563ZM37.2401 9.02169H36.3482C36.3205 9.02163 36.2934 9.01431 36.2695 9.00046C36.2455 8.98661 36.2257 8.96673 36.2119 8.94279L35.8935 8.39684C35.8726 8.36114 35.8665 8.31864 35.8766 8.27849L36.1697 7.09664C36.1755 7.07283 36.1869 7.05071 36.2028 7.03205C36.2187 7.01339 36.2388 6.9987 36.2614 6.98915L36.8156 6.75443C36.8427 6.74295 36.8724 6.73926 36.9015 6.74379C36.9306 6.74832 36.9578 6.76089 36.9801 6.78007L37.8012 7.48658C37.8214 7.50401 37.8369 7.52629 37.8462 7.55133C37.8555 7.57638 37.8583 7.60337 37.8543 7.62978C37.7863 8.09631 37.6233 8.54393 37.3754 8.94496C37.3614 8.96835 37.3415 8.98771 37.3178 9.00116C37.2941 9.0146 37.2673 9.02168 37.2401 9.02169ZM32.0235 6.75601L32.5778 6.99072C32.6003 7.00028 32.6204 7.01497 32.6363 7.03363C32.6522 7.05229 32.6636 7.0744 32.6695 7.09822L32.9626 8.28007C32.9727 8.32022 32.9666 8.36272 32.9456 8.39842L32.6273 8.94279C32.6134 8.96673 32.5936 8.98661 32.5697 9.00046C32.5457 9.01431 32.5186 9.02163 32.491 9.02169H31.5991C31.5721 9.02171 31.5456 9.01481 31.522 9.00165C31.4985 8.9885 31.4787 8.96952 31.4645 8.94654C31.2166 8.54551 31.0537 8.09789 30.9857 7.63135C30.9817 7.60495 30.9844 7.57796 30.9937 7.55291C31.003 7.52787 31.0185 7.50559 31.0387 7.48816L31.8598 6.78165C31.882 6.76262 31.9091 6.75014 31.938 6.74561C31.9669 6.74108 31.9965 6.74468 32.0235 6.75601ZM37.0913 5.0353L36.7349 6.04871C36.7278 6.06942 36.7164 6.08841 36.7015 6.10448C36.6866 6.12054 36.6685 6.13332 36.6483 6.14201L36.0649 6.38915C36.0381 6.40047 36.0088 6.40418 35.98 6.39987C35.9513 6.39555 35.9243 6.38338 35.902 6.36469L34.7923 5.43392C34.7746 5.41925 34.7603 5.40088 34.7504 5.38009C34.7405 5.35931 34.7353 5.33662 34.7351 5.3136V4.65128C34.7352 4.62532 34.7416 4.59978 34.7538 4.5769C34.7661 4.55402 34.7838 4.53451 34.8054 4.52011L35.6501 3.95719C35.6722 3.94248 35.6976 3.93355 35.724 3.93124C35.7504 3.92893 35.7769 3.93331 35.8012 3.94398C36.2873 4.15598 36.7187 4.47599 37.0625 4.87968C37.0806 4.90078 37.0928 4.92629 37.0979 4.95362C37.1029 4.98094 37.1007 5.00912 37.0913 5.0353ZM33.1888 3.95719L34.0338 4.52011C34.0554 4.53451 34.0731 4.55402 34.0853 4.5769C34.0975 4.59978 34.104 4.62532 34.104 4.65128V5.3136C34.104 5.33665 34.0989 5.35942 34.0892 5.38031C34.0794 5.4012 34.0652 5.4197 34.0476 5.43451L32.9379 6.36528C32.9156 6.38397 32.8886 6.39614 32.8599 6.40046C32.8311 6.40477 32.8018 6.40106 32.775 6.38974L32.1908 6.14201C32.1705 6.13343 32.1523 6.12072 32.1373 6.10469C32.1222 6.08866 32.1107 6.06966 32.1034 6.04891L31.747 5.0355C31.7377 5.00922 31.7356 4.98097 31.7408 4.9536C31.746 4.92623 31.7583 4.90073 31.7766 4.87968C32.1207 4.47558 32.5524 4.15529 33.0389 3.94319C33.0631 3.93285 33.0894 3.92871 33.1156 3.93116C33.1418 3.93361 33.167 3.94255 33.1888 3.95719ZM33.5302 10.416L33.1411 9.43589C33.1322 9.41361 33.1285 9.3896 33.1302 9.36567C33.132 9.34175 33.1392 9.31854 33.1513 9.29782L33.4505 8.785C33.4644 8.76107 33.4842 8.74118 33.5081 8.72734C33.5321 8.71349 33.5592 8.70617 33.5868 8.70611H35.2523C35.2799 8.70617 35.3071 8.71349 35.331 8.72734C35.3549 8.74118 35.3748 8.76107 35.3886 8.785L35.688 9.29782C35.7001 9.31853 35.7074 9.34172 35.7092 9.36565C35.711 9.38957 35.7073 9.4136 35.6985 9.43589L35.3121 10.4156C35.3026 10.4395 35.2874 10.4608 35.2679 10.4775C35.2483 10.4943 35.225 10.506 35.1998 10.5116C34.6871 10.6293 34.1544 10.6293 33.6417 10.5116C33.6167 10.5059 33.5935 10.4942 33.5741 10.4776C33.5547 10.4609 33.5396 10.4398 33.5302 10.416Z" fill="white"/>
<ellipse cx="34.3671" cy="7.17468" rx="3.10094" ry="3.10095" fill="#196719"/>
<g filter="url(#filter0_d_4393_60671)">
<ellipse cx="34.4222" cy="7.1889" rx="2.35271" ry="2.35272" fill="white"/>
<ellipse cx="34.4222" cy="7.18864" rx="1.3942" ry="1.39421" fill="#FCCE17"/>
<path d="M37.1234 7.18858C37.1234 8.68045 35.914 9.88985 34.4221 9.88985C32.9302 9.88985 31.7208 8.68045 31.7208 7.18858C31.7208 5.69671 32.9302 4.4873 34.4221 4.4873C35.914 4.4873 37.1234 5.69671 37.1234 7.18858ZM32.2122 7.18858C32.2122 8.40906 33.2016 9.39846 34.4221 9.39846C35.6426 9.39846 36.632 8.40906 36.632 7.18858C36.632 5.9681 35.6426 4.9787 34.4221 4.9787C33.2016 4.9787 32.2122 5.9681 32.2122 7.18858Z" fill="#E0E0E0"/>
<path d="M36.3392 7.18876C36.3392 8.24751 35.4809 9.1058 34.4222 9.1058C33.3634 9.1058 32.5051 8.24751 32.5051 7.18876C32.5051 6.13001 33.3634 5.27173 34.4222 5.27173C35.4809 5.27173 36.3392 6.13001 36.3392 7.18876ZM32.9269 7.18876C32.9269 8.01459 33.5963 8.68405 34.4222 8.68405C35.248 8.68405 35.9174 8.01459 35.9174 7.18876C35.9174 6.36294 35.248 5.69348 34.4222 5.69348C33.5963 5.69348 32.9269 6.36294 32.9269 7.18876Z" fill="#70E000"/>
<path d="M36.3392 7.18876C36.3392 7.44051 36.2896 7.68979 36.1933 7.92238C36.0969 8.15496 35.9557 8.3663 35.7777 8.54431C35.5997 8.72232 35.3884 8.86353 35.1558 8.95987C34.9232 9.05621 34.6739 9.1058 34.4222 9.1058C34.1704 9.1058 33.9211 9.05621 33.6885 8.95987C33.456 8.86353 33.2446 8.72232 33.0666 8.54431C32.8886 8.3663 32.7474 8.15496 32.6511 7.92238C32.5547 7.68979 32.5051 7.44051 32.5051 7.18876H32.9269C32.9269 7.38513 32.9655 7.57957 33.0407 7.76098C33.1158 7.9424 33.226 8.10724 33.3648 8.24609C33.5037 8.38494 33.6685 8.49508 33.8499 8.57023C34.0313 8.64537 34.2258 8.68405 34.4222 8.68405C34.6185 8.68405 34.813 8.64537 34.9944 8.57023C35.1758 8.49508 35.3406 8.38494 35.4795 8.24609C35.6183 8.10724 35.7285 7.9424 35.8036 7.76098C35.8788 7.57957 35.9174 7.38513 35.9174 7.18876H36.3392Z" fill="#196719"/>
<g clip-path="url(#clip0_4393_60671)">
<path d="M34.4226 5.77271C33.6418 5.77271 33.0066 6.40793 33.0066 7.18869C33.0066 7.96946 33.6418 8.60468 34.4226 8.60468C35.2033 8.60468 35.8386 7.96946 35.8386 7.18869C35.8386 6.40793 35.2033 5.77271 34.4226 5.77271ZM35.3961 7.84223H35.0882C35.0787 7.8422 35.0693 7.83968 35.0611 7.8349C35.0528 7.83012 35.046 7.82326 35.0412 7.81499L34.9313 7.62656C34.9241 7.61424 34.922 7.59957 34.9255 7.58571L35.0266 7.1778C35.0287 7.16958 35.0326 7.16195 35.0381 7.15551C35.0436 7.14907 35.0505 7.144 35.0583 7.1407L35.2496 7.05969C35.2589 7.05572 35.2692 7.05445 35.2792 7.05602C35.2893 7.05758 35.2986 7.06192 35.3063 7.06854L35.5897 7.31239C35.5967 7.3184 35.6021 7.32609 35.6053 7.33474C35.6085 7.34338 35.6094 7.3527 35.6081 7.36181C35.5846 7.52283 35.5283 7.67733 35.4428 7.81574C35.4379 7.82382 35.4311 7.8305 35.4229 7.83514C35.4147 7.83978 35.4055 7.84222 35.3961 7.84223ZM33.5956 7.06023L33.7869 7.14124C33.7947 7.14454 33.8016 7.14961 33.8071 7.15605C33.8126 7.16249 33.8165 7.17013 33.8185 7.17835L33.9197 7.58626C33.9232 7.60011 33.9211 7.61478 33.9138 7.6271L33.804 7.81499C33.7992 7.82326 33.7923 7.83012 33.7841 7.8349C33.7758 7.83968 33.7665 7.8422 33.7569 7.84223H33.4491C33.4398 7.84223 33.4306 7.83985 33.4225 7.83531C33.4144 7.83077 33.4075 7.82422 33.4027 7.81629C33.3171 7.67787 33.2608 7.52338 33.2374 7.36236C33.236 7.35324 33.2369 7.34392 33.2401 7.33528C33.2434 7.32664 33.2487 7.31895 33.2557 7.31293L33.5391 7.06908C33.5468 7.06251 33.5561 7.05821 33.5661 7.05664C33.5761 7.05508 33.5863 7.05632 33.5956 7.06023ZM35.3447 6.46633L35.2217 6.81611C35.2193 6.82326 35.2153 6.82981 35.2102 6.83536C35.205 6.8409 35.1988 6.84531 35.1918 6.84831L34.9905 6.93361C34.9812 6.93752 34.9711 6.9388 34.9612 6.93731C34.9512 6.93582 34.9419 6.93162 34.9342 6.92517L34.5512 6.60392C34.5451 6.59885 34.5402 6.59251 34.5368 6.58534C34.5334 6.57817 34.5316 6.57033 34.5315 6.56239V6.33379C34.5315 6.32483 34.5337 6.31602 34.5379 6.30812C34.5422 6.30022 34.5483 6.29349 34.5557 6.28852L34.8473 6.09423C34.8549 6.08915 34.8637 6.08607 34.8728 6.08527C34.8819 6.08448 34.8911 6.08599 34.8995 6.08967C35.0672 6.16284 35.2161 6.27329 35.3348 6.41262C35.341 6.41991 35.3452 6.42871 35.347 6.43814C35.3487 6.44757 35.348 6.4573 35.3447 6.46633ZM33.9978 6.09423L34.2894 6.28852C34.2969 6.29349 34.303 6.30022 34.3072 6.30812C34.3114 6.31602 34.3137 6.32483 34.3137 6.33379V6.56239C34.3137 6.57035 34.3119 6.57821 34.3086 6.58541C34.3052 6.59262 34.3003 6.59901 34.2942 6.60412L33.9112 6.92537C33.9035 6.93182 33.8942 6.93603 33.8843 6.93752C33.8743 6.939 33.8642 6.93772 33.855 6.93381L33.6533 6.84831C33.6463 6.84535 33.64 6.84096 33.6348 6.83543C33.6296 6.8299 33.6257 6.82334 33.6232 6.81618L33.5001 6.4664C33.4969 6.45733 33.4962 6.44758 33.498 6.43814C33.4998 6.42869 33.5041 6.41989 33.5104 6.41262C33.6291 6.27315 33.7781 6.1626 33.946 6.0894C33.9544 6.08583 33.9635 6.0844 33.9725 6.08524C33.9816 6.08609 33.9902 6.08918 33.9978 6.09423ZM34.1156 8.32346L33.9813 7.98519C33.9782 7.9775 33.977 7.96921 33.9776 7.96095C33.9782 7.95269 33.9807 7.94468 33.9848 7.93753L34.0881 7.76053C34.0929 7.75227 34.0997 7.74541 34.108 7.74063C34.1163 7.73585 34.1256 7.73333 34.1352 7.7333H34.71C34.7195 7.73333 34.7289 7.73585 34.7372 7.74063C34.7454 7.74541 34.7523 7.75227 34.757 7.76053L34.8604 7.93753C34.8646 7.94468 34.8671 7.95268 34.8677 7.96094C34.8683 7.9692 34.867 7.97749 34.864 7.98519L34.7306 8.32332C34.7274 8.33159 34.7221 8.33893 34.7154 8.34471C34.7086 8.35049 34.7006 8.35453 34.6919 8.35647C34.5149 8.39709 34.3311 8.39709 34.1541 8.35647C34.1455 8.3545 34.1375 8.35047 34.1308 8.34471C34.1241 8.33896 34.1189 8.33167 34.1156 8.32346Z" fill="#196719"/>
</g>
</g>
<path d="M19.1004 38.6435C19.7777 35.3332 23.4842 29.6466 28.111 24.7776C33.8946 18.6915 28.1242 35.5579 19.1004 38.6435Z" fill="#FCCE17"/>
<path fill-rule="evenodd" clip-rule="evenodd" d="M94.8386 6.44434H89.7353V11.7025H88.4206V16.3034H89.7353V36.4163C89.7273 37.6881 89.9789 38.7409 90.49 39.5747C91.0011 40.4085 91.7159 41.0233 92.6343 41.4191C93.5608 41.815 95.8688 41.9371 95.8688 41.9371C95.8688 41.9371 98.9369 42.2657 100.991 41.4191V37.4396C99.618 37.6039 97.9831 37.6039 96.5636 37.6039C96.2202 37.6039 95.9167 37.5491 95.6532 37.4396C95.3976 37.3302 95.198 37.1407 95.0542 36.8711C94.9104 36.5932 94.8386 36.2058 94.8386 35.7089V16.3034H100.909V11.7025H94.8386V6.44434Z" fill="black"/>
<path d="M79.2188 40.6227V9.99072H84.064V15.1283H84.2517C84.5802 14.0021 85.1316 13.1517 85.9059 12.5768C86.6802 11.994 87.5718 11.7027 88.5808 11.7027C89.1355 11.7027 89.9388 11.7027 90.3924 11.7027V16.2693C89.9388 16.2693 89.9388 16.2693 89.4853 16.2693C89.0317 16.2693 88.4688 16.2693 88.1246 16.2693C87.3894 16.2693 86.7325 16.4308 86.1537 16.7536C85.5827 17.0686 85.1291 17.5096 84.7928 18.0766C84.4643 18.6436 84.2165 19.1011 84.2165 19.8414V40.6227H79.2188Z" fill="black"/>
<path d="M69.7059 38.2331C68.0834 38.2331 66.6802 37.8884 65.4964 37.199C64.3195 36.5027 63.4108 35.5347 62.7701 34.2952C60.8844 30.6262 61.0208 19.7978 62.7701 16.4132C63.4108 15.1667 64.3195 14.1988 65.4964 13.5094C66.6802 12.813 68.0834 12.4648 69.7059 12.4648C71.3284 12.4648 72.7281 12.813 73.9049 13.5094C75.0888 14.1988 76.001 15.1667 76.6416 16.4132C78.391 19.7978 78.5274 30.6262 76.6416 34.2952C76.001 35.5347 75.0888 36.5027 73.9049 37.199C72.7281 37.8884 71.3284 38.2331 69.7059 38.2331ZM69.7268 34.7861C70.4649 34.7861 71.0812 34.5772 71.5756 34.1594C72.07 33.7346 72.4426 33.1566 72.6933 32.4255C72.9509 31.6943 73.0798 30.8621 73.0798 29.929C73.0798 28.9959 72.9509 18.9619 72.6933 18.2307C72.4426 17.4995 72.07 16.9216 71.5756 16.4968C71.0812 16.072 70.4649 15.8596 69.7268 15.8596C68.9817 15.8596 68.3549 16.072 67.8466 16.4968C67.3452 16.9216 66.9657 17.4995 66.7081 18.2307C66.4574 18.9619 66.332 28.9959 66.332 29.929C66.332 30.8621 66.4574 31.6943 66.7081 32.4255C66.9657 33.1566 67.3452 33.7346 67.8466 34.1594C68.3549 34.5772 68.9817 34.7861 69.7268 34.7861Z" fill="black"/>
<path d="M46.4205 38.6508V19.0233L50.3237 18.366V20.7637H50.5003C50.6738 20.3796 50.9247 19.9893 51.2531 19.5928C51.5876 19.19 52.0213 18.8555 52.5541 18.5891C53.0931 18.3165 53.7622 18.1802 54.5615 18.1802C55.6023 18.1802 56.5626 18.4528 57.4424 18.998C58.3222 19.537 59.0254 20.3517 59.552 21.4421C60.0786 22.5263 60.3419 26.5154 60.3419 28.151C60.3419 29.7432 60.0848 31.0877 59.5706 32.1843C59.0625 33.2747 58.3686 34.1018 57.4889 34.6656C56.6153 35.2232 55.6364 35.502 54.5522 35.502C53.7839 35.502 53.1303 35.375 52.5913 35.121C52.0585 34.867 51.6217 34.5479 51.2809 34.1638C50.9402 33.7734 50.68 33.38 50.5003 32.9835H50.3795V38.6508H46.4205ZM50.2958 28.1324C50.2958 28.9812 50.4136 29.7216 50.649 30.3535C50.8844 30.9854 51.2252 31.478 51.6713 31.8311C52.1173 32.1781 52.6594 32.3516 53.2976 32.3516C53.9419 32.3516 54.4871 32.175 54.9332 31.8218C55.3793 31.4625 55.7169 30.9669 55.9462 30.3349C56.1816 29.6968 56.2993 28.9626 56.2993 28.1324C56.2993 27.3084 56.1847 23.9544 55.9555 23.3287C55.7262 22.7029 55.3886 22.2135 54.9425 21.8603C54.4964 21.5072 53.9481 21.3306 53.2976 21.3306C52.6532 21.3306 52.108 21.501 51.662 21.8417C51.2221 22.1825 50.8844 22.6657 50.649 23.2915C50.4136 23.9172 50.2958 27.2836 50.2958 28.1324Z" fill="black"/>
<path d="M41.8575 23.1497C41.8016 22.5859 41.5616 22.1479 41.1376 21.8358C40.7136 21.5236 40.1382 21.3675 39.4113 21.3675C38.9174 21.3675 38.5004 21.4374 38.1602 21.5772C37.8201 21.7123 37.5591 21.901 37.3774 22.1433C37.2004 22.3856 37.1118 22.6605 37.1118 22.968C37.1025 23.2243 37.1561 23.4479 37.2726 23.639C37.3937 23.83 37.5591 23.9954 37.7688 24.1352C37.9785 24.2703 38.2208 24.3891 38.4957 24.4917C38.7706 24.5895 39.0642 24.6734 39.3763 24.7433L40.6623 25.0508C41.2867 25.1906 41.8598 25.377 42.3817 25.6099C42.9035 25.8429 43.3555 26.1295 43.7376 26.4696C44.1197 26.8097 44.4155 27.2104 44.6252 27.6717C44.8395 28.133 44.949 28.6619 44.9537 29.2583C44.949 30.1343 44.7254 30.8937 44.2827 31.5368C43.8448 32.1751 43.2111 32.6713 42.3817 33.0254C41.557 33.3749 40.5622 33.5496 39.3973 33.5496C38.2418 33.5496 37.2353 33.3726 36.378 33.0185C35.5253 32.6643 34.859 32.1402 34.3791 31.4459C33.9038 30.747 33.6545 29.8826 33.6312 28.8529H36.5597C36.5923 29.3328 36.7298 29.7335 36.9721 30.055C37.219 30.3719 37.5475 30.6119 37.9575 30.7749C38.3722 30.9334 38.8405 31.0126 39.3624 31.0126C39.8749 31.0126 40.3199 30.938 40.6973 30.7889C41.0794 30.6398 41.3752 30.4325 41.5849 30.1669C41.7946 29.9013 41.8994 29.5961 41.8994 29.2513C41.8994 28.9298 41.8039 28.6595 41.6129 28.4405C41.4265 28.2215 41.1516 28.0352 40.7881 27.8814C40.4294 27.7276 39.9891 27.5879 39.4672 27.4621L37.9086 27.0707C36.7018 26.7771 35.7489 26.3182 35.05 25.6938C34.3511 25.0694 34.004 24.2284 34.0086 23.1707C34.004 22.304 34.2346 21.5469 34.7006 20.8992C35.1712 20.2515 35.8165 19.746 36.6366 19.3826C37.4566 19.0191 38.3885 18.8374 39.4322 18.8374C40.4946 18.8374 41.4218 19.0191 42.2139 19.3826C43.0107 19.746 43.6304 20.2515 44.0731 20.8992C44.5157 21.5469 44.744 22.297 44.758 23.1497H41.8575Z" fill="black"/>
<path d="M140.345 32.0782C139.4 32.0782 138.582 31.8715 137.892 31.4582C137.207 31.0407 136.677 30.4604 136.304 29.7173C135.451 28.0092 135.436 24.9989 136.304 23.2717C136.677 22.5244 137.207 21.9441 137.892 21.5308C138.582 21.1133 139.4 20.9045 140.345 20.9045C141.29 20.9045 142.106 21.1133 142.792 21.5308C143.481 21.9441 144.013 22.5244 144.386 23.2717C145.254 24.9989 145.239 28.0092 144.386 29.7173C144.013 30.4604 143.481 31.0407 142.792 31.4582C142.106 31.8715 141.29 32.0782 140.345 32.0782ZM140.357 30.0116C140.787 30.0116 141.146 29.8864 141.434 29.6359C141.722 29.3812 141.94 29.0347 142.086 28.5963C142.236 28.1579 142.311 26.4175 142.311 25.8581C142.311 25.2986 142.236 24.7997 142.086 24.3614C141.94 23.923 141.722 23.5765 141.434 23.3218C141.146 23.0671 140.787 22.9398 140.357 22.9398C139.923 22.9398 139.558 23.0671 139.262 23.3218C138.97 23.5765 138.748 23.923 138.598 24.3614C138.452 24.7997 138.379 25.2986 138.379 25.8581C138.379 26.4175 138.452 28.1579 138.598 28.5963C138.748 29.0347 138.97 29.3812 139.262 29.6359C139.558 29.8864 139.923 30.0116 140.357 30.0116Z" fill="black"/>
<path d="M127.525 35.1943C126.061 35.1943 124.795 34.8833 123.727 34.2613C122.665 33.633 121.845 32.7597 121.267 31.6413C119.874 28.9303 119.9 23.8259 121.267 21.1806C121.845 20.0559 122.665 19.1826 123.727 18.5606C124.795 17.9323 126.061 17.6182 127.525 17.6182C128.989 17.6182 130.252 17.9323 131.314 18.5606C132.382 19.1826 133.205 20.0559 133.783 21.1806C135.15 23.8259 135.176 28.9303 133.783 31.6413C133.205 32.7597 132.382 33.633 131.314 34.2613C130.252 34.8833 128.989 35.1943 127.525 35.1943ZM127.544 32.0843C128.21 32.0843 128.766 31.8958 129.212 31.5188C129.658 31.1355 129.994 30.6141 130.221 29.9544C130.453 29.2947 130.569 28.5438 130.569 27.7019C130.569 26.86 130.453 23.4801 130.221 22.8204C129.994 22.1607 129.658 21.6392 129.212 21.256C128.766 20.8727 128.21 20.6811 127.544 20.6811C126.872 20.6811 126.306 20.8727 125.848 21.256C125.395 21.6392 125.053 22.1607 124.82 22.8204C124.594 23.4801 124.481 26.86 124.481 27.7019C124.481 28.5438 124.594 29.2947 124.82 29.9544C125.053 30.6141 125.395 31.1355 125.848 31.5188C126.306 31.8958 126.872 32.0843 127.544 32.0843Z" fill="black"/>
<path d="M102.223 41.05V6.44434H106.896V16.8107H107.039C107.243 16.4307 107.54 16.0445 107.927 15.6522C108.322 15.2537 108.834 14.9227 109.463 14.6591C110.099 14.3894 110.889 14.2546 111.832 14.2546C113.061 14.2546 114.194 14.5243 115.233 15.0637C116.271 15.597 117.101 16.4031 117.723 17.482C119.494 20.539 119.331 33.1889 117.745 36.0254C117.145 37.1043 116.326 37.9227 115.288 38.4805C114.256 39.0322 113.101 39.308 111.821 39.308C110.915 39.308 110.143 39.1823 109.507 38.931C108.878 38.6797 108.362 38.364 107.96 37.984C107.558 37.5978 107.251 37.2085 107.039 36.8162H106.83V41.05H102.223ZM106.797 21.5001C106.797 22.3399 106.936 33.5888 107.214 34.2141C107.492 34.8393 107.894 35.3266 108.421 35.676C108.947 36.0193 109.587 36.191 110.34 36.191C111.101 36.191 111.745 36.0163 112.271 35.6668C112.798 35.3113 113.196 34.8209 113.467 34.1957C113.745 33.5643 113.884 22.3215 113.884 21.5001C113.884 20.6848 113.748 19.9676 113.478 19.3485C113.207 18.7294 112.809 18.2451 112.282 17.8957C111.755 17.5463 111.108 17.3716 110.34 17.3716C109.58 17.3716 108.936 17.5402 108.41 17.8773C107.891 18.2145 107.492 18.6926 107.214 19.3117C106.936 19.9309 106.797 20.6603 106.797 21.5001Z" fill="black"/>
<defs>
<filter id="filter0_d_4393_60671" x="31.142" y="4.05317" width="6.56021" height="6.56028" filterUnits="userSpaceOnUse" color-interpolation-filters="sRGB">
<feFlood flood-opacity="0" result="BackgroundImageFix"/>
<feColorMatrix in="SourceAlpha" type="matrix" values="0 0 0 0 0 0 0 0 0 0 0 0 0 0 0 0 0 0 127 0" result="hardAlpha"/>
<feOffset dy="0.144711"/>
<feGaussianBlur stdDeviation="0.289422"/>
<feColorMatrix type="matrix" values="0 0 0 0 0.08 0 0 0 0 0.08 0 0 0 0 0.08 0 0 0 0.08 0"/>
<feBlend mode="normal" in2="BackgroundImageFix" result="effect1_dropShadow_4393_60671"/>
<feBlend mode="normal" in="SourceGraphic" in2="effect1_dropShadow_4393_60671" result="shape"/>
</filter>
<clipPath id="clip0_4393_60671">
<rect width="3.48551" height="3.48551" fill="white" transform="translate(32.6798 5.44604)"/>
</clipPath>
</defs>
</svg>
