<svg width="146" height="42" viewBox="0 0 146 42" fill="none" xmlns="http://www.w3.org/2000/svg">
<ellipse cx="16.7535" cy="8.77022" rx="3.38513" ry="3.38514" fill="#FCCE17"/>
<path d="M21.028 13.376C14.8381 19.5659 6.39942 10.3535 12.6861 4.06681C-3.8414 8.66667 -0.0807328 37.5555 16.313 37.5555C18.1265 28.0046 30.458 18.2925 37.7119 10.4744C40.0089 8.17733 39.2836 4.76801 37.8328 3.46233C34.9312 0.850962 32.1506 2.33394 31.0625 3.34142L21.028 13.376Z" fill="#196719" stroke="#196719" stroke-width="3.22394" stroke-linecap="round"/>
<path d="M34.4196 3.0257C32.1574 3.0257 30.317 4.86613 30.317 7.12826C30.317 9.39039 32.1574 11.2308 34.4196 11.2308C36.6817 11.2308 38.5221 9.39039 38.5221 7.12826C38.5221 4.86613 36.6817 3.0257 34.4196 3.0257ZM37.2401 9.02175H36.3482C36.3205 9.02169 36.2934 9.01437 36.2695 9.00052C36.2455 8.98667 36.2257 8.96679 36.2119 8.94285L35.8935 8.3969C35.8726 8.3612 35.8665 8.3187 35.8766 8.27856L36.1697 7.0967C36.1755 7.07289 36.1869 7.05077 36.2028 7.03211C36.2187 7.01345 36.2388 6.99876 36.2614 6.98921L36.8156 6.75449C36.8427 6.74301 36.8724 6.73932 36.9015 6.74385C36.9306 6.74838 36.9578 6.76095 36.9801 6.78013L37.8012 7.48664C37.8214 7.50407 37.8369 7.52635 37.8462 7.55139C37.8555 7.57644 37.8583 7.60343 37.8543 7.62984C37.7863 8.09637 37.6233 8.544 37.3754 8.94502C37.3614 8.96841 37.3415 8.98777 37.3178 9.00122C37.2941 9.01466 37.2673 9.02174 37.2401 9.02175ZM32.0235 6.75607L32.5778 6.99078C32.6003 7.00034 32.6204 7.01503 32.6363 7.03369C32.6522 7.05235 32.6636 7.07447 32.6695 7.09828L32.9626 8.28013C32.9727 8.32028 32.9666 8.36278 32.9456 8.39848L32.6273 8.94285C32.6134 8.96679 32.5936 8.98667 32.5697 9.00052C32.5457 9.01437 32.5186 9.02169 32.491 9.02175H31.5991C31.5721 9.02177 31.5456 9.01487 31.522 9.00171C31.4985 8.98856 31.4787 8.96958 31.4645 8.9466C31.2166 8.54557 31.0537 8.09795 30.9857 7.63142C30.9817 7.60501 30.9844 7.57802 30.9937 7.55297C31.003 7.52793 31.0185 7.50565 31.0387 7.48822L31.8598 6.78171C31.882 6.76268 31.9091 6.7502 31.938 6.74567C31.9669 6.74114 31.9965 6.74474 32.0235 6.75607ZM37.0913 5.03536L36.7349 6.04877C36.7278 6.06948 36.7164 6.08847 36.7015 6.10454C36.6866 6.1206 36.6685 6.13338 36.6483 6.14207L36.0649 6.38921C36.0381 6.40053 36.0088 6.40424 35.98 6.39993C35.9513 6.39561 35.9243 6.38344 35.902 6.36475L34.7923 5.43398C34.7746 5.41931 34.7603 5.40094 34.7504 5.38015C34.7405 5.35937 34.7353 5.33668 34.7351 5.31366V4.65134C34.7352 4.62539 34.7416 4.59984 34.7538 4.57696C34.7661 4.55408 34.7838 4.53458 34.8054 4.52017L35.6501 3.95725C35.6722 3.94254 35.6976 3.93361 35.724 3.9313C35.7504 3.92899 35.7769 3.93337 35.8012 3.94404C36.2873 4.15604 36.7187 4.47605 37.0625 4.87974C37.0806 4.90085 37.0928 4.92635 37.0979 4.95368C37.1029 4.981 37.1007 5.00918 37.0913 5.03536ZM33.1888 3.95725L34.0338 4.52017C34.0554 4.53458 34.0731 4.55408 34.0853 4.57696C34.0975 4.59984 34.104 4.62539 34.104 4.65134V5.31366C34.104 5.33671 34.0989 5.35948 34.0892 5.38037C34.0794 5.40126 34.0652 5.41976 34.0476 5.43457L32.9379 6.36534C32.9156 6.38403 32.8886 6.3962 32.8599 6.40052C32.8311 6.40483 32.8018 6.40112 32.775 6.3898L32.1908 6.14207C32.1705 6.13349 32.1523 6.12078 32.1373 6.10475C32.1222 6.08872 32.1107 6.06972 32.1034 6.04897L31.747 5.03556C31.7377 5.00929 31.7356 4.98103 31.7408 4.95366C31.746 4.92629 31.7583 4.90079 31.7766 4.87974C32.1207 4.47564 32.5524 4.15535 33.0389 3.94325C33.0631 3.93291 33.0894 3.92878 33.1156 3.93122C33.1418 3.93367 33.167 3.94262 33.1888 3.95725ZM33.5302 10.416L33.1411 9.43595C33.1322 9.41367 33.1285 9.38966 33.1302 9.36573C33.132 9.34181 33.1392 9.3186 33.1513 9.29788L33.4505 8.78506C33.4644 8.76113 33.4842 8.74124 33.5081 8.7274C33.5321 8.71355 33.5592 8.70623 33.5868 8.70617H35.2523C35.2799 8.70623 35.3071 8.71355 35.331 8.7274C35.3549 8.74124 35.3748 8.76113 35.3886 8.78506L35.688 9.29788C35.7001 9.31859 35.7074 9.34179 35.7092 9.36571C35.711 9.38964 35.7073 9.41366 35.6985 9.43595L35.3121 10.4156C35.3026 10.4396 35.2874 10.4609 35.2679 10.4776C35.2483 10.4944 35.225 10.5061 35.1998 10.5117C34.6871 10.6294 34.1544 10.6294 33.6417 10.5117C33.6167 10.506 33.5935 10.4943 33.5741 10.4776C33.5547 10.461 33.5396 10.4398 33.5302 10.416Z" fill="white"/>
<ellipse cx="34.3671" cy="7.17487" rx="3.10094" ry="3.10095" fill="#196719"/>
<g filter="url(#filter0_d_3843_71896)">
<ellipse cx="34.4222" cy="7.1889" rx="2.35271" ry="2.35272" fill="white"/>
<ellipse cx="34.4222" cy="7.18888" rx="1.3942" ry="1.39421" fill="#FCCE17"/>
<path d="M37.1234 7.1887C37.1234 8.68057 35.914 9.88998 34.4221 9.88998C32.9302 9.88998 31.7208 8.68057 31.7208 7.1887C31.7208 5.69683 32.9302 4.48743 34.4221 4.48743C35.914 4.48743 37.1234 5.69683 37.1234 7.1887ZM32.2122 7.1887C32.2122 8.40918 33.2016 9.39858 34.4221 9.39858C35.6426 9.39858 36.632 8.40918 36.632 7.1887C36.632 5.96822 35.6426 4.97882 34.4221 4.97882C33.2016 4.97882 32.2122 5.96822 32.2122 7.1887Z" fill="#E0E0E0"/>
<path d="M36.3392 7.18895C36.3392 8.24769 35.4809 9.10598 34.4222 9.10598C33.3634 9.10598 32.5051 8.24769 32.5051 7.18895C32.5051 6.1302 33.3634 5.27191 34.4222 5.27191C35.4809 5.27191 36.3392 6.1302 36.3392 7.18895ZM32.9269 7.18895C32.9269 8.01477 33.5963 8.68423 34.4222 8.68423C35.248 8.68423 35.9174 8.01477 35.9174 7.18895C35.9174 6.36312 35.248 5.69366 34.4222 5.69366C33.5963 5.69366 32.9269 6.36312 32.9269 7.18895Z" fill="#70E000"/>
<path d="M36.3392 7.18895C36.3392 7.44069 36.2896 7.68998 36.1933 7.92256C36.0969 8.15515 35.9557 8.36648 35.7777 8.54449C35.5997 8.72251 35.3884 8.86371 35.1558 8.96005C34.9232 9.05639 34.6739 9.10598 34.4222 9.10598C34.1704 9.10598 33.9211 9.05639 33.6885 8.96005C33.456 8.86371 33.2446 8.72251 33.0666 8.54449C32.8886 8.36648 32.7474 8.15515 32.6511 7.92256C32.5547 7.68998 32.5051 7.44069 32.5051 7.18895H32.9269C32.9269 7.38531 32.9655 7.57975 33.0407 7.76117C33.1158 7.94258 33.226 8.10742 33.3648 8.24627C33.5037 8.38512 33.6685 8.49526 33.8499 8.57041C34.0313 8.64555 34.2258 8.68423 34.4222 8.68423C34.6185 8.68423 34.813 8.64555 34.9944 8.57041C35.1758 8.49526 35.3406 8.38512 35.4795 8.24627C35.6183 8.10742 35.7285 7.94258 35.8036 7.76117C35.8788 7.57975 35.9174 7.38531 35.9174 7.18895H36.3392Z" fill="#196719"/>
<g clip-path="url(#clip0_3843_71896)">
<path d="M34.4223 5.77295C33.6415 5.77295 33.0063 6.40817 33.0063 7.18894C33.0063 7.9697 33.6415 8.60492 34.4223 8.60492C35.203 8.60492 35.8383 7.9697 35.8383 7.18894C35.8383 6.40817 35.203 5.77295 34.4223 5.77295ZM35.3958 7.84247H35.0879C35.0784 7.84245 35.069 7.83992 35.0608 7.83514C35.0525 7.83036 35.0457 7.8235 35.0409 7.81524L34.931 7.6268C34.9238 7.61448 34.9217 7.59981 34.9252 7.58596L35.0263 7.17804C35.0283 7.16983 35.0323 7.16219 35.0378 7.15575C35.0433 7.14931 35.0502 7.14424 35.058 7.14094L35.2493 7.05993C35.2586 7.05597 35.2689 7.0547 35.2789 7.05626C35.2889 7.05782 35.2983 7.06216 35.306 7.06878L35.5894 7.31263C35.5964 7.31865 35.6018 7.32634 35.605 7.33498C35.6082 7.34362 35.6091 7.35294 35.6078 7.36205C35.5843 7.52308 35.528 7.67757 35.4425 7.81599C35.4376 7.82406 35.4308 7.83074 35.4226 7.83538C35.4144 7.84002 35.4052 7.84247 35.3958 7.84247ZM33.5953 7.06048L33.7866 7.14149C33.7944 7.14479 33.8013 7.14986 33.8068 7.1563C33.8123 7.16274 33.8162 7.17037 33.8182 7.17859L33.9194 7.5865C33.9229 7.60036 33.9208 7.61503 33.9135 7.62735L33.8037 7.81524C33.7989 7.8235 33.792 7.83036 33.7838 7.83514C33.7755 7.83992 33.7662 7.84245 33.7566 7.84247H33.4488C33.4395 7.84248 33.4303 7.84009 33.4222 7.83555C33.4141 7.83101 33.4072 7.82446 33.4024 7.81653C33.3168 7.67812 33.2605 7.52362 33.2371 7.3626C33.2357 7.35348 33.2366 7.34417 33.2398 7.33552C33.243 7.32688 33.2484 7.31919 33.2554 7.31318L33.5388 7.06933C33.5465 7.06276 33.5558 7.05845 33.5658 7.05689C33.5758 7.05532 33.586 7.05657 33.5953 7.06048ZM35.3444 6.46658L35.2214 6.81636C35.219 6.8235 35.215 6.83006 35.2099 6.8356C35.2047 6.84115 35.1985 6.84556 35.1915 6.84856L34.9902 6.93385C34.9809 6.93776 34.9708 6.93904 34.9609 6.93756C34.9509 6.93607 34.9416 6.93186 34.9339 6.92541L34.5509 6.60416C34.5448 6.5991 34.5399 6.59276 34.5365 6.58558C34.5331 6.57841 34.5313 6.57058 34.5312 6.56263V6.33403C34.5312 6.32508 34.5334 6.31626 34.5376 6.30836C34.5419 6.30047 34.548 6.29373 34.5554 6.28876L34.847 6.09447C34.8546 6.08939 34.8634 6.08631 34.8725 6.08552C34.8816 6.08472 34.8908 6.08623 34.8991 6.08991C35.0669 6.16309 35.2158 6.27353 35.3345 6.41287C35.3407 6.42015 35.3449 6.42895 35.3467 6.43839C35.3484 6.44782 35.3477 6.45754 35.3444 6.46658ZM33.9975 6.09447L34.2891 6.28876C34.2966 6.29373 34.3027 6.30047 34.3069 6.30836C34.3111 6.31626 34.3133 6.32508 34.3134 6.33403V6.56263C34.3134 6.57059 34.3116 6.57845 34.3082 6.58566C34.3049 6.59287 34.3 6.59925 34.2939 6.60437L33.9109 6.92562C33.9032 6.93207 33.8939 6.93627 33.884 6.93776C33.874 6.93925 33.8639 6.93797 33.8547 6.93406L33.653 6.84856C33.646 6.8456 33.6397 6.84121 33.6345 6.83568C33.6293 6.83014 33.6254 6.82358 33.6229 6.81642L33.4998 6.46665C33.4966 6.45758 33.4959 6.44783 33.4977 6.43838C33.4995 6.42893 33.5038 6.42013 33.5101 6.41287C33.6288 6.27339 33.7778 6.16285 33.9457 6.08964C33.9541 6.08607 33.9632 6.08464 33.9722 6.08549C33.9813 6.08633 33.9899 6.08942 33.9975 6.09447ZM34.1153 8.3237L33.981 7.98543C33.9779 7.97774 33.9767 7.96945 33.9773 7.96119C33.9779 7.95294 33.9804 7.94493 33.9845 7.93778L34.0878 7.76078C34.0926 7.75252 34.0994 7.74565 34.1077 7.74087C34.116 7.7361 34.1253 7.73357 34.1349 7.73355H34.7097C34.7192 7.73357 34.7286 7.7361 34.7369 7.74087C34.7451 7.74565 34.752 7.75252 34.7567 7.76078L34.8601 7.93778C34.8643 7.94492 34.8668 7.95293 34.8674 7.96119C34.868 7.96944 34.8667 7.97774 34.8637 7.98543L34.7303 8.32357C34.7271 8.33183 34.7218 8.33918 34.7151 8.34495C34.7083 8.35073 34.7003 8.35477 34.6916 8.35672C34.5146 8.39733 34.3307 8.39733 34.1538 8.35672C34.1452 8.35475 34.1372 8.35071 34.1305 8.34496C34.1238 8.33921 34.1186 8.33191 34.1153 8.3237Z" fill="#196719"/>
</g>
</g>
<path d="M19.1004 38.6436C19.7777 35.3333 23.4842 29.6466 28.111 24.7777C33.8946 18.6916 28.1242 35.5579 19.1004 38.6436Z" fill="#FCCE17"/>
<path fill-rule="evenodd" clip-rule="evenodd" d="M94.8386 6.44458H89.7353V11.7028H88.4206V16.3037H89.7353V36.4166C89.7273 37.6883 89.9789 38.7411 90.49 39.5749C91.0011 40.4087 91.7159 41.0235 92.6343 41.4194C93.5608 41.8152 95.8688 41.9373 95.8688 41.9373C95.8688 41.9373 98.9369 42.266 100.991 41.4194V37.4399C99.618 37.6041 97.9831 37.6041 96.5636 37.6041C96.2202 37.6041 95.9167 37.5494 95.6532 37.4399C95.3976 37.3304 95.198 37.1409 95.0542 36.8714C94.9104 36.5935 94.8386 36.206 94.8386 35.7091V16.3037H100.909V11.7028H94.8386V6.44458Z" fill="black"/>
<path d="M79.2188 40.6227V9.99078H84.064V15.1283H84.2517C84.5802 14.0022 85.1316 13.1517 85.9059 12.5768C86.6802 11.9941 87.5718 11.7027 88.5808 11.7027C89.1355 11.7027 89.9388 11.7027 90.3924 11.7027V16.2694C89.9388 16.2694 89.9388 16.2694 89.4853 16.2694C89.0317 16.2694 88.4688 16.2694 88.1246 16.2694C87.3894 16.2694 86.7325 16.4308 86.1537 16.7537C85.5827 17.0687 85.1291 17.5097 84.7928 18.0767C84.4643 18.6437 84.2165 19.1012 84.2165 19.8414V40.6227H79.2188Z" fill="black"/>
<path d="M69.7059 38.2331C68.0834 38.2331 66.6802 37.8884 65.4964 37.199C64.3195 36.5027 63.4108 35.5347 62.7701 34.2952C60.8844 30.6262 61.0208 19.7978 62.7701 16.4132C63.4108 15.1667 64.3195 14.1988 65.4964 13.5094C66.6802 12.813 68.0834 12.4648 69.7059 12.4648C71.3284 12.4648 72.7281 12.813 73.9049 13.5094C75.0888 14.1988 76.001 15.1667 76.6416 16.4132C78.391 19.7978 78.5274 30.6262 76.6416 34.2952C76.001 35.5347 75.0888 36.5027 73.9049 37.199C72.7281 37.8884 71.3284 38.2331 69.7059 38.2331ZM69.7268 34.7861C70.4649 34.7861 71.0812 34.5772 71.5756 34.1594C72.07 33.7346 72.4426 33.1566 72.6933 32.4255C72.9509 31.6943 73.0798 30.8621 73.0798 29.929C73.0798 28.9959 72.9509 18.9619 72.6933 18.2307C72.4426 17.4995 72.07 16.9216 71.5756 16.4968C71.0812 16.072 70.4649 15.8596 69.7268 15.8596C68.9817 15.8596 68.3549 16.072 67.8466 16.4968C67.3452 16.9216 66.9657 17.4995 66.7081 18.2307C66.4574 18.9619 66.332 28.9959 66.332 29.929C66.332 30.8621 66.4574 31.6943 66.7081 32.4255C66.9657 33.1566 67.3452 33.7346 67.8466 34.1594C68.3549 34.5772 68.9817 34.7861 69.7268 34.7861Z" fill="black"/>
<path d="M46.4205 38.6509V19.0234L50.3237 18.3662V20.7638H50.5003C50.6738 20.3797 50.9247 19.9894 51.2531 19.5929C51.5876 19.1902 52.0213 18.8556 52.5541 18.5892C53.0931 18.3166 53.7622 18.1803 54.5615 18.1803C55.6023 18.1803 56.5626 18.4529 57.4424 18.9981C58.3222 19.5371 59.0254 20.3518 59.552 21.4422C60.0786 22.5265 60.3419 26.5155 60.3419 28.1511C60.3419 29.7434 60.0848 31.0878 59.5706 32.1844C59.0625 33.2748 58.3686 34.1019 57.4889 34.6657C56.6153 35.2233 55.6364 35.5021 54.5522 35.5021C53.7839 35.5021 53.1303 35.3751 52.5913 35.1211C52.0585 34.8671 51.6217 34.548 51.2809 34.1639C50.9402 33.7736 50.68 33.3801 50.5003 32.9836H50.3795V38.6509H46.4205ZM50.2958 28.1325C50.2958 28.9813 50.4136 29.7217 50.649 30.3536C50.8844 30.9856 51.2252 31.4781 51.6713 31.8313C52.1173 32.1782 52.6594 32.3517 53.2976 32.3517C53.9419 32.3517 54.4871 32.1751 54.9332 31.822C55.3793 31.4626 55.7169 30.967 55.9462 30.335C56.1816 29.6969 56.2993 28.9627 56.2993 28.1325C56.2993 27.3085 56.1847 23.9545 55.9555 23.3288C55.7262 22.703 55.3886 22.2136 54.9425 21.8604C54.4964 21.5073 53.9481 21.3307 53.2976 21.3307C52.6532 21.3307 52.108 21.5011 51.662 21.8419C51.2221 22.1826 50.8844 22.6659 50.649 23.2916C50.4136 23.9174 50.2958 27.2837 50.2958 28.1325Z" fill="black"/>
<path d="M41.8575 23.15C41.8016 22.5862 41.5616 22.1482 41.1376 21.836C40.7136 21.5238 40.1382 21.3677 39.4113 21.3677C38.9174 21.3677 38.5004 21.4376 38.1602 21.5774C37.8201 21.7125 37.5591 21.9012 37.3774 22.1435C37.2004 22.3858 37.1118 22.6607 37.1118 22.9683C37.1025 23.2245 37.1561 23.4482 37.2726 23.6392C37.3937 23.8303 37.5591 23.9957 37.7688 24.1354C37.9785 24.2706 38.2208 24.3894 38.4957 24.4919C38.7706 24.5897 39.0642 24.6736 39.3763 24.7435L40.6623 25.051C41.2867 25.1908 41.8598 25.3772 42.3817 25.6102C42.9035 25.8431 43.3555 26.1297 43.7376 26.4698C44.1197 26.81 44.4155 27.2107 44.6252 27.672C44.8395 28.1333 44.949 28.6621 44.9537 29.2585C44.949 30.1345 44.7254 30.894 44.2827 31.537C43.8448 32.1753 43.2111 32.6716 42.3817 33.0257C41.557 33.3752 40.5622 33.5499 39.3973 33.5499C38.2418 33.5499 37.2353 33.3728 36.378 33.0187C35.5253 32.6646 34.859 32.1404 34.3791 31.4461C33.9038 30.7472 33.6545 29.8829 33.6312 28.8531H36.5597C36.5923 29.3331 36.7298 29.7338 36.9721 30.0553C37.219 30.3721 37.5475 30.6121 37.9575 30.7752C38.3722 30.9336 38.8405 31.0128 39.3624 31.0128C39.8749 31.0128 40.3199 30.9383 40.6973 30.7892C41.0794 30.6401 41.3752 30.4327 41.5849 30.1671C41.7946 29.9015 41.8994 29.5963 41.8994 29.2515C41.8994 28.93 41.8039 28.6598 41.6129 28.4408C41.4265 28.2218 41.1516 28.0354 40.7881 27.8817C40.4294 27.7279 39.9891 27.5881 39.4672 27.4623L37.9086 27.0709C36.7018 26.7774 35.7489 26.3184 35.05 25.694C34.3511 25.0697 34.004 24.2286 34.0086 23.1709C34.004 22.3043 34.2346 21.5471 34.7006 20.8995C35.1712 20.2518 35.8165 19.7462 36.6366 19.3828C37.4566 19.0194 38.3885 18.8376 39.4322 18.8376C40.4946 18.8376 41.4218 19.0194 42.2139 19.3828C43.0107 19.7462 43.6304 20.2518 44.0731 20.8995C44.5157 21.5471 44.744 22.2973 44.758 23.15H41.8575Z" fill="black"/>
<path d="M140.345 32.0782C139.4 32.0782 138.582 31.8716 137.892 31.4583C137.207 31.0408 136.677 30.4605 136.304 29.7173C135.451 28.0093 135.436 24.9989 136.304 23.2718C136.677 22.5245 137.207 21.9442 137.892 21.5308C138.582 21.1133 139.4 20.9046 140.345 20.9046C141.29 20.9046 142.106 21.1133 142.792 21.5308C143.481 21.9442 144.013 22.5245 144.386 23.2718C145.254 24.9989 145.239 28.0093 144.386 29.7173C144.013 30.4605 143.481 31.0408 142.792 31.4583C142.106 31.8716 141.29 32.0782 140.345 32.0782ZM140.357 30.0117C140.787 30.0117 141.146 29.8864 141.434 29.6359C141.722 29.3813 141.94 29.0347 142.086 28.5964C142.236 28.158 142.311 26.4176 142.311 25.8581C142.311 25.2987 142.236 24.7998 142.086 24.3614C141.94 23.9231 141.722 23.5765 141.434 23.3219C141.146 23.0672 140.787 22.9399 140.357 22.9399C139.923 22.9399 139.558 23.0672 139.262 23.3219C138.97 23.5765 138.748 23.9231 138.598 24.3614C138.452 24.7998 138.379 25.2987 138.379 25.8581C138.379 26.4176 138.452 28.158 138.598 28.5964C138.748 29.0347 138.97 29.3813 139.262 29.6359C139.558 29.8864 139.923 30.0117 140.357 30.0117Z" fill="black"/>
<path d="M127.525 35.1943C126.061 35.1943 124.795 34.8833 123.727 34.2613C122.665 33.633 121.845 32.7597 121.267 31.6413C119.874 28.9303 119.9 23.8259 121.267 21.1806C121.845 20.0559 122.665 19.1826 123.727 18.5606C124.795 17.9323 126.061 17.6182 127.525 17.6182C128.989 17.6182 130.252 17.9323 131.314 18.5606C132.382 19.1826 133.205 20.0559 133.783 21.1806C135.15 23.8259 135.176 28.9303 133.783 31.6413C133.205 32.7597 132.382 33.633 131.314 34.2613C130.252 34.8833 128.989 35.1943 127.525 35.1943ZM127.544 32.0843C128.21 32.0843 128.766 31.8958 129.212 31.5188C129.658 31.1355 129.994 30.6141 130.221 29.9544C130.453 29.2947 130.569 28.5438 130.569 27.7019C130.569 26.86 130.453 23.4801 130.221 22.8204C129.994 22.1607 129.658 21.6392 129.212 21.256C128.766 20.8727 128.21 20.6811 127.544 20.6811C126.872 20.6811 126.306 20.8727 125.848 21.256C125.395 21.6392 125.053 22.1607 124.82 22.8204C124.594 23.4801 124.481 26.86 124.481 27.7019C124.481 28.5438 124.594 29.2947 124.82 29.9544C125.053 30.6141 125.395 31.1355 125.848 31.5188C126.306 31.8958 126.872 32.0843 127.544 32.0843Z" fill="black"/>
<path d="M102.223 41.0502V6.44458H106.896V16.811H107.039C107.243 16.4309 107.54 16.0447 107.927 15.6524C108.322 15.254 108.834 14.923 109.463 14.6594C110.099 14.3897 110.889 14.2548 111.832 14.2548C113.061 14.2548 114.194 14.5245 115.233 15.064C116.271 15.5973 117.101 16.4033 117.723 17.4822C119.494 20.5392 119.331 33.1891 117.745 36.0257C117.145 37.1046 116.326 37.9229 115.288 38.4807C114.256 39.0324 113.101 39.3083 111.821 39.3083C110.915 39.3083 110.143 39.1826 109.507 38.9313C108.878 38.6799 108.362 38.3643 107.96 37.9842C107.558 37.598 107.251 37.2088 107.039 36.8165H106.83V41.0502H102.223ZM106.797 21.5004C106.797 22.3402 106.936 33.5891 107.214 34.2143C107.492 34.8396 107.894 35.3269 108.421 35.6763C108.947 36.0196 109.587 36.1912 110.34 36.1912C111.101 36.1912 111.745 36.0165 112.271 35.6671C112.798 35.3116 113.196 34.8212 113.467 34.1959C113.745 33.5645 113.884 22.3218 113.884 21.5004C113.884 20.6851 113.748 19.9679 113.478 19.3488C113.207 18.7296 112.809 18.2454 112.282 17.896C111.755 17.5466 111.108 17.3719 110.34 17.3719C109.58 17.3719 108.936 17.5404 108.41 17.8776C107.891 18.2147 107.492 18.6929 107.214 19.312C106.936 19.9311 106.797 20.6606 106.797 21.5004Z" fill="black"/>
<defs>
<filter id="filter0_d_3843_71896" x="31.142" y="4.05329" width="6.56021" height="6.56021" filterUnits="userSpaceOnUse" color-interpolation-filters="sRGB">
<feFlood flood-opacity="0" result="BackgroundImageFix"/>
<feColorMatrix in="SourceAlpha" type="matrix" values="0 0 0 0 0 0 0 0 0 0 0 0 0 0 0 0 0 0 127 0" result="hardAlpha"/>
<feOffset dy="0.144711"/>
<feGaussianBlur stdDeviation="0.289422"/>
<feColorMatrix type="matrix" values="0 0 0 0 0.08 0 0 0 0 0.08 0 0 0 0 0.08 0 0 0 0.08 0"/>
<feBlend mode="normal" in2="BackgroundImageFix" result="effect1_dropShadow_3843_71896"/>
<feBlend mode="normal" in="SourceGraphic" in2="effect1_dropShadow_3843_71896" result="shape"/>
</filter>
<clipPath id="clip0_3843_71896">
<rect width="3.48551" height="3.48551" fill="white" transform="translate(32.6795 5.44617)"/>
</clipPath>
</defs>
</svg>
