<svg width="146" height="42" viewBox="0 0 146 42" fill="none" xmlns="http://www.w3.org/2000/svg">
<ellipse cx="16.7533" cy="8.77022" rx="3.38513" ry="3.38514" fill="#FCCE17"/>
<path d="M21.028 13.376C14.8381 19.5659 6.39942 10.3535 12.6861 4.06681C-3.8414 8.66667 -0.0807328 37.5555 16.313 37.5555C18.1265 28.0046 30.458 18.2925 37.7119 10.4744C40.0089 8.17733 39.2836 4.76801 37.8328 3.46233C34.9312 0.850962 32.1506 2.33394 31.0625 3.34142L21.028 13.376Z" fill="#196719" stroke="#196719" stroke-width="3.22394" stroke-linecap="round"/>
<path d="M34.4194 3.0257C32.1573 3.0257 30.3169 4.86613 30.3169 7.12826C30.3169 9.39039 32.1573 11.2308 34.4194 11.2308C36.6816 11.2308 38.522 9.39039 38.522 7.12826C38.522 4.86613 36.6816 3.0257 34.4194 3.0257ZM37.2399 9.02175H36.348C36.3204 9.02169 36.2933 9.01437 36.2693 9.00052C36.2454 8.98667 36.2256 8.96679 36.2117 8.94285L35.8934 8.3969C35.8724 8.3612 35.8663 8.3187 35.8764 8.27856L36.1695 7.0967C36.1754 7.07289 36.1868 7.05077 36.2027 7.03211C36.2186 7.01345 36.2387 6.99876 36.2612 6.98921L36.8155 6.75449C36.8426 6.74301 36.8723 6.73932 36.9014 6.74385C36.9305 6.74838 36.9577 6.76095 36.98 6.78013L37.8011 7.48664C37.8213 7.50407 37.8368 7.52635 37.8461 7.55139C37.8554 7.57644 37.8581 7.60343 37.8541 7.62984C37.7861 8.09637 37.6231 8.544 37.3752 8.94502C37.3612 8.96841 37.3414 8.98777 37.3177 9.00122C37.294 9.01466 37.2672 9.02174 37.2399 9.02175ZM32.0234 6.75607L32.5776 6.99078C32.6002 7.00034 32.6203 7.01503 32.6362 7.03369C32.6521 7.05235 32.6635 7.07447 32.6693 7.09828L32.9624 8.28013C32.9725 8.32028 32.9664 8.36278 32.9455 8.39848L32.6271 8.94285C32.6133 8.96679 32.5935 8.98667 32.5695 9.00052C32.5456 9.01437 32.5185 9.02169 32.4908 9.02175H31.5989C31.572 9.02177 31.5454 9.01487 31.5219 9.00171C31.4983 8.98856 31.4786 8.96958 31.4644 8.9466C31.2165 8.54557 31.0535 8.09795 30.9855 7.63142C30.9815 7.60501 30.9843 7.57802 30.9936 7.55297C31.0029 7.52793 31.0183 7.50565 31.0386 7.48822L31.8597 6.78171C31.8819 6.76268 31.909 6.7502 31.9379 6.74567C31.9668 6.74114 31.9964 6.74474 32.0234 6.75607ZM37.0912 5.03536L36.7348 6.04877C36.7277 6.06948 36.7163 6.08847 36.7013 6.10454C36.6864 6.1206 36.6683 6.13338 36.6482 6.14207L36.0648 6.38921C36.038 6.40053 36.0086 6.40424 35.9799 6.39993C35.9511 6.39561 35.9241 6.38344 35.9019 6.36475L34.7922 5.43398C34.7745 5.41931 34.7602 5.40094 34.7503 5.38015C34.7404 5.35937 34.7352 5.33668 34.735 5.31366V4.65134C34.735 4.62539 34.7415 4.59984 34.7537 4.57696C34.7659 4.55408 34.7836 4.53458 34.8052 4.52017L35.65 3.95725C35.6721 3.94254 35.6975 3.93361 35.7239 3.9313C35.7503 3.92899 35.7768 3.93337 35.8011 3.94404C36.2872 4.15604 36.7185 4.47605 37.0624 4.87974C37.0805 4.90085 37.0927 4.92635 37.0977 4.95368C37.1028 4.981 37.1006 5.00918 37.0912 5.03536ZM33.1887 3.95725L34.0336 4.52017C34.0552 4.53458 34.0729 4.55408 34.0852 4.57696C34.0974 4.59984 34.1038 4.62539 34.1039 4.65134V5.31366C34.1039 5.33671 34.0988 5.35948 34.0891 5.38037C34.0793 5.40126 34.0651 5.41976 34.0474 5.43457L32.9378 6.36534C32.9155 6.38403 32.8885 6.3962 32.8598 6.40052C32.831 6.40483 32.8016 6.40112 32.7749 6.3898L32.1907 6.14207C32.1704 6.13349 32.1522 6.12078 32.1371 6.10475C32.1221 6.08872 32.1106 6.06972 32.1033 6.04897L31.7469 5.03556C31.7376 5.00929 31.7355 4.98103 31.7407 4.95366C31.7459 4.92629 31.7582 4.90079 31.7765 4.87974C32.1205 4.47564 32.5523 4.15535 33.0388 3.94325C33.0629 3.93291 33.0893 3.92878 33.1155 3.93122C33.1417 3.93367 33.1668 3.94262 33.1887 3.95725ZM33.5301 10.416L33.1409 9.43595C33.132 9.41367 33.1283 9.38966 33.1301 9.36573C33.1319 9.34181 33.1391 9.3186 33.1512 9.29788L33.4504 8.78506C33.4642 8.76113 33.4841 8.74124 33.508 8.7274C33.5319 8.71355 33.5591 8.70623 33.5867 8.70617H35.2522C35.2798 8.70623 35.307 8.71355 35.3309 8.7274C35.3548 8.74124 35.3747 8.76113 35.3885 8.78506L35.6879 9.29788C35.7 9.31859 35.7072 9.34179 35.7091 9.36571C35.7109 9.38964 35.7072 9.41366 35.6983 9.43595L35.3119 10.4156C35.3025 10.4396 35.2873 10.4609 35.2678 10.4776C35.2482 10.4944 35.2248 10.5061 35.1997 10.5117C34.687 10.6294 34.1543 10.6294 33.6415 10.5117C33.6166 10.506 33.5934 10.4943 33.574 10.4776C33.5546 10.461 33.5395 10.4398 33.5301 10.416Z" fill="white"/>
<ellipse cx="34.3671" cy="7.17487" rx="3.10094" ry="3.10095" fill="#196719"/>
<g filter="url(#filter0_d_4037_75894)">
<ellipse cx="34.4221" cy="7.1889" rx="2.35271" ry="2.35272" fill="white"/>
<ellipse cx="34.422" cy="7.18888" rx="1.3942" ry="1.39421" fill="#FCCE17"/>
<path d="M37.1232 7.1887C37.1232 8.68057 35.9138 9.88998 34.422 9.88998C32.9301 9.88998 31.7207 8.68057 31.7207 7.1887C31.7207 5.69683 32.9301 4.48743 34.422 4.48743C35.9138 4.48743 37.1232 5.69683 37.1232 7.1887ZM32.2121 7.1887C32.2121 8.40918 33.2015 9.39858 34.422 9.39858C35.6424 9.39858 36.6318 8.40918 36.6318 7.1887C36.6318 5.96822 35.6424 4.97882 34.422 4.97882C33.2015 4.97882 32.2121 5.96822 32.2121 7.1887Z" fill="#E0E0E0"/>
<path d="M36.3389 7.18895C36.3389 8.24769 35.4807 9.10598 34.4219 9.10598C33.3632 9.10598 32.5049 8.24769 32.5049 7.18895C32.5049 6.1302 33.3632 5.27191 34.4219 5.27191C35.4807 5.27191 36.3389 6.1302 36.3389 7.18895ZM32.9266 7.18895C32.9266 8.01477 33.5961 8.68423 34.4219 8.68423C35.2477 8.68423 35.9172 8.01477 35.9172 7.18895C35.9172 6.36312 35.2477 5.69366 34.4219 5.69366C33.5961 5.69366 32.9266 6.36312 32.9266 7.18895Z" fill="#70E000"/>
<path d="M36.3389 7.18895C36.3389 7.44069 36.2893 7.68998 36.193 7.92256C36.0967 8.15515 35.9555 8.36648 35.7774 8.54449C35.5994 8.72251 35.3881 8.86371 35.1555 8.96005C34.9229 9.05639 34.6737 9.10598 34.4219 9.10598C34.1702 9.10598 33.9209 9.05639 33.6883 8.96005C33.4557 8.86371 33.2444 8.72251 33.0664 8.54449C32.8884 8.36648 32.7471 8.15515 32.6508 7.92256C32.5545 7.68998 32.5049 7.44069 32.5049 7.18895H32.9266C32.9266 7.38531 32.9653 7.57975 33.0404 7.76117C33.1156 7.94258 33.2257 8.10742 33.3646 8.24627C33.5034 8.38512 33.6683 8.49526 33.8497 8.57041C34.0311 8.64555 34.2255 8.68423 34.4219 8.68423C34.6183 8.68423 34.8127 8.64555 34.9941 8.57041C35.1755 8.49526 35.3404 8.38512 35.4792 8.24627C35.6181 8.10742 35.7282 7.94258 35.8034 7.76117C35.8785 7.57975 35.9172 7.38531 35.9172 7.18895H36.3389Z" fill="#196719"/>
<g clip-path="url(#clip0_4037_75894)">
<path d="M34.4218 5.77295C33.6411 5.77295 33.0059 6.40817 33.0059 7.18894C33.0059 7.9697 33.6411 8.60492 34.4218 8.60492C35.2026 8.60492 35.8378 7.9697 35.8378 7.18894C35.8378 6.40817 35.2026 5.77295 34.4218 5.77295ZM35.3953 7.84247H35.0875C35.078 7.84245 35.0686 7.83992 35.0603 7.83514C35.0521 7.83036 35.0452 7.8235 35.0405 7.81524L34.9306 7.6268C34.9233 7.61448 34.9212 7.59981 34.9247 7.58596L35.0259 7.17804C35.0279 7.16983 35.0318 7.16219 35.0373 7.15575C35.0428 7.14931 35.0497 7.14424 35.0575 7.14094L35.2488 7.05993C35.2582 7.05597 35.2685 7.0547 35.2785 7.05626C35.2885 7.05782 35.2979 7.06216 35.3056 7.06878L35.589 7.31263C35.596 7.31865 35.6013 7.32634 35.6045 7.33498C35.6078 7.34362 35.6087 7.35294 35.6073 7.36205C35.5839 7.52308 35.5276 7.67757 35.442 7.81599C35.4372 7.82406 35.4304 7.83074 35.4222 7.83538C35.414 7.84002 35.4047 7.84247 35.3953 7.84247ZM33.5949 7.06048L33.7862 7.14149C33.7939 7.14479 33.8009 7.14986 33.8064 7.1563C33.8119 7.16274 33.8158 7.17037 33.8178 7.17859L33.919 7.5865C33.9224 7.60036 33.9203 7.61503 33.9131 7.62735L33.8032 7.81524C33.7985 7.8235 33.7916 7.83036 33.7834 7.83514C33.7751 7.83992 33.7657 7.84245 33.7562 7.84247H33.4484C33.439 7.84248 33.4299 7.84009 33.4218 7.83555C33.4136 7.83101 33.4068 7.82446 33.4019 7.81653C33.3164 7.67812 33.2601 7.52362 33.2366 7.3626C33.2353 7.35348 33.2362 7.34417 33.2394 7.33552C33.2426 7.32688 33.248 7.31919 33.255 7.31318L33.5384 7.06933C33.546 7.06276 33.5554 7.05845 33.5653 7.05689C33.5753 7.05532 33.5855 7.05657 33.5949 7.06048ZM35.344 6.46658L35.221 6.81636C35.2185 6.8235 35.2146 6.83006 35.2094 6.8356C35.2043 6.84115 35.1981 6.84556 35.1911 6.84856L34.9897 6.93385C34.9805 6.93776 34.9704 6.93904 34.9604 6.93756C34.9505 6.93607 34.9412 6.93186 34.9335 6.92541L34.5505 6.60416C34.5444 6.5991 34.5395 6.59276 34.536 6.58558C34.5326 6.57841 34.5308 6.57058 34.5308 6.56263V6.33403C34.5308 6.32508 34.533 6.31626 34.5372 6.30836C34.5414 6.30047 34.5476 6.29373 34.555 6.28876L34.8466 6.09447C34.8542 6.08939 34.863 6.08631 34.8721 6.08552C34.8812 6.08472 34.8903 6.08623 34.8987 6.08991C35.0665 6.16309 35.2154 6.27353 35.3341 6.41287C35.3403 6.42015 35.3445 6.42895 35.3463 6.43839C35.348 6.44782 35.3472 6.45754 35.344 6.46658ZM33.9971 6.09447L34.2887 6.28876C34.2961 6.29373 34.3023 6.30047 34.3065 6.30836C34.3107 6.31626 34.3129 6.32508 34.3129 6.33403V6.56263C34.3129 6.57059 34.3112 6.57845 34.3078 6.58566C34.3045 6.59287 34.2996 6.59925 34.2935 6.60437L33.9105 6.92562C33.9028 6.93207 33.8935 6.93627 33.8835 6.93776C33.8736 6.93925 33.8635 6.93797 33.8542 6.93406L33.6526 6.84856C33.6456 6.8456 33.6393 6.84121 33.6341 6.83568C33.6289 6.83014 33.6249 6.82358 33.6224 6.81642L33.4994 6.46665C33.4962 6.45758 33.4955 6.44783 33.4973 6.43838C33.4991 6.42893 33.5033 6.42013 33.5096 6.41287C33.6284 6.27339 33.7774 6.16285 33.9453 6.08964C33.9537 6.08607 33.9628 6.08464 33.9718 6.08549C33.9808 6.08633 33.9895 6.08942 33.9971 6.09447ZM34.1149 8.3237L33.9806 7.98543C33.9775 7.97774 33.9762 7.96945 33.9768 7.96119C33.9775 7.95294 33.9799 7.94493 33.9841 7.93778L34.0874 7.76078C34.0922 7.75252 34.099 7.74565 34.1073 7.74087C34.1155 7.7361 34.1249 7.73357 34.1344 7.73355H34.7093C34.7188 7.73357 34.7282 7.7361 34.7364 7.74087C34.7447 7.74565 34.7515 7.75252 34.7563 7.76078L34.8596 7.93778C34.8638 7.94492 34.8663 7.95293 34.867 7.96119C34.8676 7.96944 34.8663 7.97774 34.8633 7.98543L34.7299 8.32357C34.7266 8.33183 34.7214 8.33918 34.7146 8.34495C34.7079 8.35073 34.6998 8.35477 34.6912 8.35672C34.5142 8.39733 34.3303 8.39733 34.1534 8.35672C34.1447 8.35475 34.1367 8.35071 34.13 8.34496C34.1233 8.33921 34.1181 8.33191 34.1149 8.3237Z" fill="#196719"/>
</g>
</g>
<path d="M19.1005 38.6436C19.7778 35.3333 23.4843 29.6466 28.1111 24.7777C33.8946 18.6916 28.1243 35.5579 19.1005 38.6436Z" fill="#FCCE17"/>
<path fill-rule="evenodd" clip-rule="evenodd" d="M94.8389 6.44458H89.7356V11.7028H88.4209V16.3037H89.7356V36.4166C89.7276 37.6883 89.9792 38.7411 90.4903 39.5749C91.0014 40.4087 91.7162 41.0235 92.6346 41.4194C93.5611 41.8152 95.8691 41.9373 95.8691 41.9373C95.8691 41.9373 98.9372 42.266 100.991 41.4194V37.4399C99.6183 37.6041 97.9834 37.6041 96.5639 37.6041C96.2205 37.6041 95.917 37.5494 95.6535 37.4399C95.3979 37.3304 95.1983 37.1409 95.0545 36.8714C94.9107 36.5935 94.8389 36.206 94.8389 35.7091V16.3037H100.909V11.7028H94.8389V6.44458Z" fill="black"/>
<path d="M79.2188 40.6227V9.99078H84.064V15.1283H84.2517C84.5802 14.0022 85.1316 13.1517 85.9059 12.5768C86.6802 11.9941 87.5718 11.7027 88.5808 11.7027C89.1355 11.7027 89.9388 11.7027 90.3924 11.7027V16.2694C89.9388 16.2694 89.9388 16.2694 89.4853 16.2694C89.0317 16.2694 88.4688 16.2694 88.1246 16.2694C87.3894 16.2694 86.7325 16.4308 86.1537 16.7537C85.5827 17.0687 85.1291 17.5097 84.7928 18.0767C84.4643 18.6437 84.2165 19.1012 84.2165 19.8414V40.6227H79.2188Z" fill="black"/>
<path d="M69.7061 38.2331C68.0836 38.2331 66.6804 37.8884 65.4966 37.199C64.3198 36.5027 63.411 35.5347 62.7704 34.2952C60.8846 30.6262 61.021 19.7978 62.7704 16.4132C63.411 15.1667 64.3198 14.1988 65.4966 13.5094C66.6804 12.813 68.0836 12.4648 69.7061 12.4648C71.3287 12.4648 72.7283 12.813 73.9052 13.5094C75.089 14.1988 76.0012 15.1667 76.6419 16.4132C78.3912 19.7978 78.5276 30.6262 76.6419 34.2952C76.0012 35.5347 75.089 36.5027 73.9052 37.199C72.7283 37.8884 71.3287 38.2331 69.7061 38.2331ZM69.727 34.7861C70.4652 34.7861 71.0814 34.5772 71.5759 34.1594C72.0703 33.7346 72.4428 33.1566 72.6935 32.4255C72.9512 31.6943 73.08 30.8621 73.08 29.929C73.08 28.9959 72.9512 18.9619 72.6935 18.2307C72.4428 17.4995 72.0703 16.9216 71.5759 16.4968C71.0814 16.072 70.4652 15.8596 69.727 15.8596C68.9819 15.8596 68.3552 16.072 67.8468 16.4968C67.3455 16.9216 66.9659 17.4995 66.7083 18.2307C66.4576 18.9619 66.3323 28.9959 66.3323 29.929C66.3323 30.8621 66.4576 31.6943 66.7083 32.4255C66.9659 33.1566 67.3455 33.7346 67.8468 34.1594C68.3552 34.5772 68.9819 34.7861 69.727 34.7861Z" fill="black"/>
<path d="M46.4204 38.6509V19.0234L50.3236 18.3662V20.7638H50.5002C50.6736 20.3797 50.9246 19.9894 51.2529 19.5929C51.5875 19.1902 52.0212 18.8556 52.554 18.5892C53.093 18.3166 53.7621 18.1803 54.5614 18.1803C55.6022 18.1803 56.5625 18.4529 57.4423 18.9981C58.322 19.5371 59.0252 20.3518 59.5519 21.4422C60.0785 22.5265 60.3418 26.5155 60.3418 28.1511C60.3418 29.7434 60.0847 31.0878 59.5704 32.1844C59.0624 33.2748 58.3685 34.1019 57.4887 34.6657C56.6152 35.2233 55.6363 35.5021 54.5521 35.5021C53.7838 35.5021 53.1302 35.3751 52.5912 35.1211C52.0584 34.8671 51.6216 34.548 51.2808 34.1639C50.9401 33.7736 50.6798 33.3801 50.5002 32.9836H50.3794V38.6509H46.4204ZM50.2957 28.1325C50.2957 28.9813 50.4134 29.7217 50.6489 30.3536C50.8843 30.9856 51.2251 31.4781 51.6711 31.8313C52.1172 32.1782 52.6593 32.3517 53.2975 32.3517C53.9418 32.3517 54.487 32.1751 54.9331 31.822C55.3792 31.4626 55.7168 30.967 55.9461 30.335C56.1815 29.6969 56.2992 28.9627 56.2992 28.1325C56.2992 27.3085 56.1846 23.9545 55.9553 23.3288C55.7261 22.703 55.3885 22.2136 54.9424 21.8604C54.4963 21.5073 53.948 21.3307 53.2975 21.3307C52.6531 21.3307 52.1079 21.5011 51.6618 21.8419C51.222 22.1826 50.8843 22.6659 50.6489 23.2916C50.4134 23.9174 50.2957 27.2837 50.2957 28.1325Z" fill="black"/>
<path d="M41.8576 23.15C41.8017 22.5862 41.5617 22.1482 41.1377 21.836C40.7137 21.5238 40.1383 21.3677 39.4114 21.3677C38.9175 21.3677 38.5005 21.4376 38.1603 21.5774C37.8202 21.7125 37.5593 21.9012 37.3776 22.1435C37.2005 22.3858 37.112 22.6607 37.112 22.9683C37.1026 23.2245 37.1562 23.4482 37.2727 23.6392C37.3939 23.8303 37.5593 23.9957 37.7689 24.1354C37.9786 24.2706 38.2209 24.3894 38.4958 24.4919C38.7707 24.5897 39.0643 24.6736 39.3765 24.7435L40.6625 25.051C41.2868 25.1908 41.8599 25.3772 42.3818 25.6102C42.9037 25.8431 43.3556 26.1297 43.7377 26.4698C44.1198 26.81 44.4157 27.2107 44.6253 27.672C44.8397 28.1333 44.9492 28.6621 44.9538 29.2585C44.9492 30.1345 44.7255 30.894 44.2829 31.537C43.8449 32.1753 43.2112 32.6716 42.3818 33.0257C41.5571 33.3752 40.5623 33.5499 39.3974 33.5499C38.2419 33.5499 37.2354 33.3728 36.3781 33.0187C35.5254 32.6646 34.8591 32.1404 34.3792 31.4461C33.9039 30.7472 33.6546 29.8829 33.6313 28.8531H36.5598C36.5924 29.3331 36.7299 29.7338 36.9722 30.0553C37.2191 30.3721 37.5476 30.6121 37.9577 30.7752C38.3723 30.9336 38.8406 31.0128 39.3625 31.0128C39.875 31.0128 40.32 30.9383 40.6974 30.7892C41.0795 30.6401 41.3754 30.4327 41.585 30.1671C41.7947 29.9015 41.8996 29.5963 41.8996 29.2515C41.8996 28.93 41.804 28.6598 41.613 28.4408C41.4266 28.2218 41.1517 28.0354 40.7883 27.8817C40.4295 27.7279 39.9892 27.5881 39.4673 27.4623L37.9087 27.0709C36.7019 26.7774 35.7491 26.3184 35.0502 25.694C34.3512 25.0697 34.0041 24.2286 34.0088 23.1709C34.0041 22.3043 34.2347 21.5471 34.7007 20.8995C35.1713 20.2518 35.8166 19.7462 36.6367 19.3828C37.4568 19.0194 38.3887 18.8376 39.4324 18.8376C40.4947 18.8376 41.422 19.0194 42.2141 19.3828C43.0108 19.7462 43.6305 20.2518 44.0732 20.8995C44.5158 21.5471 44.7442 22.2973 44.7581 23.15H41.8576Z" fill="black"/>
<path d="M140.345 32.0782C139.4 32.0782 138.582 31.8716 137.892 31.4583C137.207 31.0408 136.677 30.4605 136.304 29.7173C135.451 28.0093 135.436 24.9989 136.304 23.2718C136.677 22.5245 137.207 21.9442 137.892 21.5308C138.582 21.1133 139.4 20.9046 140.345 20.9046C141.29 20.9046 142.106 21.1133 142.791 21.5308C143.481 21.9442 144.013 22.5245 144.386 23.2718C145.254 24.9989 145.239 28.0093 144.386 29.7173C144.013 30.4605 143.481 31.0408 142.791 31.4583C142.106 31.8716 141.29 32.0782 140.345 32.0782ZM140.357 30.0117C140.787 30.0117 141.146 29.8864 141.434 29.6359C141.722 29.3813 141.939 29.0347 142.086 28.5964C142.236 28.158 142.311 26.4176 142.311 25.8581C142.311 25.2987 142.236 24.7998 142.086 24.3614C141.939 23.9231 141.722 23.5765 141.434 23.3219C141.146 23.0672 140.787 22.9399 140.357 22.9399C139.923 22.9399 139.558 23.0672 139.262 23.3219C138.97 23.5765 138.748 23.9231 138.598 24.3614C138.452 24.7998 138.379 25.2987 138.379 25.8581C138.379 26.4176 138.452 28.158 138.598 28.5964C138.748 29.0347 138.97 29.3813 139.262 29.6359C139.558 29.8864 139.923 30.0117 140.357 30.0117Z" fill="black"/>
<path d="M127.525 35.1943C126.062 35.1943 124.796 34.8833 123.727 34.2613C122.666 33.633 121.846 32.7597 121.268 31.6413C119.874 28.9303 119.9 23.8259 121.268 21.1806C121.846 20.0559 122.666 19.1826 123.727 18.5606C124.796 17.9323 126.062 17.6182 127.525 17.6182C128.989 17.6182 130.252 17.9323 131.314 18.5606C132.382 19.1826 133.205 20.0559 133.783 21.1806C135.151 23.8259 135.177 28.9303 133.783 31.6413C133.205 32.7597 132.382 33.633 131.314 34.2613C130.252 34.8833 128.989 35.1943 127.525 35.1943ZM127.544 32.0843C128.21 32.0843 128.766 31.8958 129.212 31.5188C129.659 31.1355 129.995 30.6141 130.221 29.9544C130.453 29.2947 130.57 28.5438 130.57 27.7019C130.57 26.86 130.453 23.4801 130.221 22.8204C129.995 22.1607 129.659 21.6392 129.212 21.256C128.766 20.8727 128.21 20.6811 127.544 20.6811C126.872 20.6811 126.307 20.8727 125.848 21.256C125.396 21.6392 125.053 22.1607 124.821 22.8204C124.594 23.4801 124.481 26.86 124.481 27.7019C124.481 28.5438 124.594 29.2947 124.821 29.9544C125.053 30.6141 125.396 31.1355 125.848 31.5188C126.307 31.8958 126.872 32.0843 127.544 32.0843Z" fill="black"/>
<path d="M102.224 41.0502V6.44458H106.897V16.811H107.039C107.244 16.4309 107.54 16.0447 107.928 15.6524C108.322 15.254 108.834 14.923 109.463 14.6594C110.1 14.3897 110.889 14.2548 111.833 14.2548C113.061 14.2548 114.195 14.5245 115.233 15.064C116.271 15.5973 117.101 16.4033 117.723 17.4822C119.494 20.5392 119.332 33.1891 117.745 36.0257C117.145 37.1046 116.326 37.9229 115.288 38.4807C114.257 39.0324 113.101 39.3083 111.822 39.3083C110.915 39.3083 110.143 39.1826 109.507 38.9313C108.878 38.6799 108.363 38.3643 107.961 37.9842C107.558 37.598 107.251 37.2088 107.039 36.8165H106.831V41.0502H102.224ZM106.798 21.5004C106.798 22.3402 106.937 33.5891 107.215 34.2143C107.492 34.8396 107.895 35.3269 108.421 35.6763C108.948 36.0196 109.588 36.1912 110.341 36.1912C111.101 36.1912 111.745 36.0165 112.271 35.6671C112.798 35.3116 113.196 34.8212 113.467 34.1959C113.745 33.5645 113.884 22.3218 113.884 21.5004C113.884 20.6851 113.749 19.9679 113.478 19.3488C113.207 18.7296 112.809 18.2454 112.282 17.896C111.756 17.5466 111.109 17.3719 110.341 17.3719C109.58 17.3719 108.937 17.5404 108.41 17.8776C107.891 18.2147 107.492 18.6929 107.215 19.312C106.937 19.9311 106.798 20.6606 106.798 21.5004Z" fill="black"/>
<defs>
<filter id="filter0_d_4037_75894" x="31.1419" y="4.05329" width="6.56003" height="6.56021" filterUnits="userSpaceOnUse" color-interpolation-filters="sRGB">
<feFlood flood-opacity="0" result="BackgroundImageFix"/>
<feColorMatrix in="SourceAlpha" type="matrix" values="0 0 0 0 0 0 0 0 0 0 0 0 0 0 0 0 0 0 127 0" result="hardAlpha"/>
<feOffset dy="0.144711"/>
<feGaussianBlur stdDeviation="0.289422"/>
<feColorMatrix type="matrix" values="0 0 0 0 0.08 0 0 0 0 0.08 0 0 0 0 0.08 0 0 0 0.08 0"/>
<feBlend mode="normal" in2="BackgroundImageFix" result="effect1_dropShadow_4037_75894"/>
<feBlend mode="normal" in="SourceGraphic" in2="effect1_dropShadow_4037_75894" result="shape"/>
</filter>
<clipPath id="clip0_4037_75894">
<rect width="3.48551" height="3.48551" fill="white" transform="translate(32.6792 5.44617)"/>
</clipPath>
</defs>
</svg>
