<svg width="18" height="18" viewBox="0 0 18 18" fill="none" xmlns="http://www.w3.org/2000/svg">
<g id="vuesax/outline/arrow-right">
<g id="arrow-right">
<path id="Vector" d="M6.71093 15.4222C6.57019 15.4222 6.42945 15.3704 6.31834 15.2593C6.10352 15.0444 6.10352 14.6889 6.31834 14.4741L11.148 9.64444C11.5035 9.28888 11.5035 8.7111 11.148 8.35555L6.31834 3.52592C6.10352 3.3111 6.10352 2.95555 6.31834 2.74073C6.53315 2.52592 6.88871 2.52592 7.10352 2.74073L11.9332 7.57036C12.3109 7.94814 12.5257 8.45925 12.5257 8.99999C12.5257 9.54073 12.3183 10.0518 11.9332 10.4296L7.10352 15.2593C6.99241 15.363 6.85167 15.4222 6.71093 15.4222Z" fill="#196719"/>
</g>
</g>
</svg>
