<svg width="20" height="20" viewBox="0 0 20 20" fill="none" xmlns="http://www.w3.org/2000/svg">
<g id="vuesax/outline/search-status">
<g id="search-status">
<path id="Vector" d="M16.667 4.29166H11.667C11.6368 4.29166 11.6056 4.27938 11.5799 4.25374C11.5543 4.22809 11.542 4.19681 11.542 4.16666C11.542 4.13652 11.5543 4.10524 11.5799 4.07959C11.6056 4.05395 11.6368 4.04166 11.667 4.04166H16.667C16.6971 4.04166 16.7284 4.05395 16.7541 4.07959C16.7797 4.10524 16.792 4.13652 16.792 4.16666C16.792 4.19681 16.7797 4.22809 16.7541 4.25374C16.7284 4.27938 16.6971 4.29166 16.667 4.29166Z" fill="#A3A3A3" stroke="#A3A3A3"/>
<path id="Vector_2" d="M14.167 6.79166H11.667C11.6368 6.79166 11.6056 6.77938 11.5799 6.75374C11.5543 6.72809 11.542 6.69681 11.542 6.66666C11.542 6.63652 11.5543 6.60524 11.5799 6.57959C11.6056 6.55395 11.6368 6.54166 11.667 6.54166H14.167C14.1971 6.54166 14.2284 6.55395 14.2541 6.57959C14.2797 6.60524 14.292 6.63652 14.292 6.66666C14.292 6.69681 14.2797 6.72809 14.2541 6.75374C14.2284 6.77938 14.1971 6.79166 14.167 6.79166Z" fill="#A3A3A3" stroke="#A3A3A3"/>
<path id="Vector_3" d="M9.58366 18.125C4.87533 18.125 1.04199 14.2917 1.04199 9.58333C1.04199 4.875 4.87533 1.04166 9.58366 1.04166C9.92533 1.04166 10.2087 1.325 10.2087 1.66666C10.2087 2.00833 9.92533 2.29166 9.58366 2.29166C5.55866 2.29166 2.29199 5.56666 2.29199 9.58333C2.29199 13.6 5.55866 16.875 9.58366 16.875C13.6087 16.875 16.8753 13.6 16.8753 9.58333C16.8753 9.24166 17.1587 8.95833 17.5003 8.95833C17.842 8.95833 18.1253 9.24166 18.1253 9.58333C18.1253 14.2917 14.292 18.125 9.58366 18.125Z" fill="#A3A3A3"/>
<path id="Vector_4" d="M18.3335 18.9583C18.1752 18.9583 18.0169 18.9 17.8919 18.775L16.2252 17.1083C15.9835 16.8667 15.9835 16.4667 16.2252 16.225C16.4669 15.9833 16.8669 15.9833 17.1085 16.225L18.7752 17.8917C19.0169 18.1333 19.0169 18.5333 18.7752 18.775C18.6502 18.9 18.4919 18.9583 18.3335 18.9583Z" fill="#A3A3A3"/>
</g>
</g>
</svg>
