<svg width="24" height="24" viewBox="0 0 24 24" fill="none" xmlns="http://www.w3.org/2000/svg">
<path d="M9.2861 4.67695L9.28641 4.6771L17.8464 8.9571C19.6939 9.88085 20.45 11.0126 20.45 11.9999C20.45 12.9872 19.6939 14.1189 17.8464 15.0427L9.28641 19.3227C7.87661 20.0276 6.71169 20.3927 5.81039 20.4786C4.90696 20.5647 4.33744 20.3669 4.00881 20.0378C3.68012 19.7087 3.48309 19.1388 3.56991 18.2357C3.65652 17.3349 4.02215 16.1713 4.72692 14.7641C4.72697 14.764 4.72702 14.7639 4.72708 14.7638L5.59672 13.0345L5.59674 13.0345L5.59898 13.03C5.91703 12.3811 5.91703 11.6286 5.59898 10.9798L5.59899 10.9798L5.59723 10.9763L4.72723 9.23628L4.72708 9.23597C4.02226 7.82878 3.65724 6.6652 3.57136 5.76446C3.48527 4.86164 3.68296 4.29156 4.01232 3.96219C4.34169 3.63283 4.91177 3.43514 5.81459 3.52123C6.71532 3.60711 7.87891 3.97213 9.2861 4.67695ZM9.44002 13.2499H14.84C15.5262 13.2499 16.09 12.686 16.09 11.9999C16.09 11.3137 15.5262 10.7499 14.84 10.7499H9.44002C8.75388 10.7499 8.19002 11.3137 8.19002 11.9999C8.19002 12.686 8.75388 13.2499 9.44002 13.2499Z" fill="white" stroke="white"/>
</svg>
