<svg width="24" height="24" viewBox="0 0 24 24" fill="none" xmlns="http://www.w3.org/2000/svg">
<path d="M9.28586 4.67695L9.28617 4.6771L17.8462 8.9571C19.6937 9.88085 20.4498 11.0126 20.4498 11.9999C20.4498 12.9872 19.6937 14.1189 17.8462 15.0427L9.28617 19.3227C7.87636 20.0276 6.71145 20.3927 5.81015 20.4786C4.90671 20.5647 4.33719 20.3669 4.00856 20.0378C3.67988 19.7087 3.48284 19.1388 3.56967 18.2357C3.65628 17.3349 4.0219 16.1713 4.72667 14.7641C4.72673 14.764 4.72678 14.7639 4.72683 14.7638L5.59647 13.0345L5.59649 13.0345L5.59874 13.03C5.91679 12.3811 5.91679 11.6286 5.59874 10.9798L5.59875 10.9798L5.59699 10.9763L4.72699 9.23628L4.72683 9.23597C4.02201 7.82878 3.657 6.6652 3.57111 5.76446C3.48503 4.86164 3.68271 4.29156 4.01208 3.96219C4.34145 3.63283 4.91152 3.43514 5.81435 3.52123C6.71508 3.60711 7.87867 3.97213 9.28586 4.67695ZM9.43977 13.2499H14.8398C15.5259 13.2499 16.0898 12.686 16.0898 11.9999C16.0898 11.3137 15.5259 10.7499 14.8398 10.7499H9.43977C8.75363 10.7499 8.18977 11.3137 8.18977 11.9999C8.18977 12.686 8.75363 13.2499 9.43977 13.2499Z" fill="white" stroke="white"/>
</svg>
