<svg width="80" height="82" viewBox="0 0 80 82" fill="none" xmlns="http://www.w3.org/2000/svg">
<path d="M24.9603 1.46724C25.2278 1.30695 25.5155 1.18319 25.8159 1.09923L25.9907 0.254642L27.4186 0.228882L27.6247 1.06795C27.9273 1.14258 28.2188 1.25705 28.4913 1.40836L29.2126 0.935462L30.2412 1.92909L29.7941 2.66511C29.9545 2.93193 30.0782 3.2191 30.1621 3.5189L31.0067 3.6937L31.0324 5.12158L30.1934 5.32583C30.1191 5.6286 30.0046 5.92007 29.853 6.19249L30.3259 6.91563L29.3322 7.94238L28.5962 7.49525C28.3294 7.65562 28.0422 7.7794 27.7424 7.86326L27.5584 8.70785L26.1305 8.73361L25.9245 7.89454C25.6224 7.8199 25.3315 7.70543 25.0596 7.55413L24.3365 8.02703L23.3042 7.03524L23.7514 6.29922C23.5911 6.0317 23.4673 5.74394 23.3833 5.44359L22.5388 5.25959L22.513 3.83171L23.3521 3.62562C23.4267 3.32295 23.5412 3.03151 23.6925 2.75895L23.2196 2.03581L24.2243 1.0201L24.9603 1.46724ZM25.7221 3.36985C25.5114 3.58783 25.3701 3.86338 25.316 4.16166C25.262 4.45994 25.2976 4.76755 25.4183 5.0456C25.5391 5.32365 25.7396 5.55964 25.9945 5.72375C26.2494 5.88785 26.5472 5.97269 26.8503 5.96755C27.1534 5.9624 27.4481 5.8675 27.6973 5.69484C27.9464 5.52217 28.1388 5.27951 28.2501 4.99752C28.3613 4.71554 28.3864 4.4069 28.3223 4.11062C28.2581 3.81435 28.1076 3.54376 27.8896 3.33305C27.7446 3.19223 27.5733 3.08145 27.3853 3.00705C27.1974 2.93266 26.9966 2.89612 26.7945 2.89954C26.5924 2.90296 26.393 2.94627 26.2077 3.02698C26.0224 3.10769 25.8548 3.22421 25.7147 3.36985H25.7221Z" fill="#E0E0E0"/>
<path d="M25.2915 48.8564C25.4456 48.7635 25.6115 48.6917 25.7846 48.643L25.8859 48.1553L26.7102 48.1406L26.828 48.6246C27.0028 48.6668 27.1711 48.7324 27.3285 48.8196L27.7443 48.5473L28.3368 49.1195L28.0884 49.5409C28.1813 49.695 28.2531 49.8609 28.3018 50.034L28.7895 50.1352L28.8042 50.9596L28.3202 51.0773C28.278 51.2522 28.2124 51.4205 28.1252 51.5778L28.3975 51.9937L27.8253 52.5862L27.4002 52.3286C27.2458 52.4213 27.08 52.4937 26.9071 52.5439L26.8004 53.037L25.976 53.0517L25.8583 52.5678C25.6834 52.5255 25.5151 52.4599 25.3578 52.3727L24.9419 52.6451L24.3494 52.0728L24.607 51.6478C24.5143 51.4933 24.4419 51.3276 24.3917 51.1546L23.906 51.0534L23.8912 50.2291L24.3752 50.1113C24.4174 49.9365 24.483 49.7681 24.5702 49.6108L24.2979 49.195L24.8701 48.6025L25.2952 48.8601L25.2915 48.8564ZM25.7313 49.9604C25.6094 50.0863 25.5276 50.2454 25.4963 50.4178C25.4649 50.5901 25.4854 50.7679 25.5552 50.9286C25.6249 51.0893 25.7408 51.2257 25.8881 51.3205C26.0354 51.4152 26.2076 51.4642 26.3827 51.4611C26.5579 51.458 26.7281 51.403 26.872 51.3031C27.0159 51.2031 27.1269 51.0627 27.1909 50.8997C27.2549 50.7366 27.2691 50.5582 27.2317 50.3871C27.1943 50.216 27.1069 50.0598 26.9807 49.9384C26.8977 49.8573 26.7995 49.7933 26.6918 49.7501C26.5841 49.707 26.469 49.6855 26.3529 49.6868C26.2369 49.6882 26.1223 49.7124 26.0156 49.7581C25.909 49.8038 25.8123 49.87 25.7313 49.9531V49.9604Z" fill="#E0E0E0"/>
<path d="M7.34721 6.01028C7.45249 5.94662 7.56571 5.89712 7.68394 5.86308L7.75386 5.53003H8.31508L8.39972 5.8502C8.51897 5.88049 8.63395 5.92562 8.74197 5.98452L9.02534 5.80052L9.43015 6.19061L9.24614 6.48134C9.30981 6.58662 9.35931 6.69984 9.39335 6.81807L9.7264 6.88799V7.44L9.39519 7.52097C9.36638 7.64041 9.32183 7.7555 9.2627 7.86322L9.44671 8.14659L9.05662 8.5514L8.76589 8.36739C8.66061 8.43106 8.54739 8.48055 8.42916 8.5146L8.35924 8.84765H7.80722L7.72626 8.51644C7.60681 8.48763 7.49172 8.44307 7.38401 8.38395L7.10064 8.56796L6.69583 8.17603L6.87983 7.88714C6.81617 7.78186 6.76667 7.66864 6.73263 7.55041L6.39958 7.48049L6.39038 6.92847L6.71975 6.84751C6.75005 6.72826 6.79517 6.61328 6.85407 6.50526L6.67007 6.22189L7.06016 5.81708L7.35089 6.00108L7.34721 6.01028ZM7.64714 6.75918C7.56425 6.84505 7.50869 6.95357 7.48747 7.07101C7.46624 7.18846 7.48031 7.30955 7.5279 7.419C7.57549 7.52845 7.65446 7.62133 7.75483 7.6859C7.8552 7.75047 7.97246 7.78384 8.09179 7.78178C8.21111 7.77973 8.32715 7.74234 8.42524 7.67434C8.52332 7.60635 8.59904 7.5108 8.64283 7.39978C8.68662 7.28876 8.69651 7.16725 8.67125 7.0506C8.64599 6.93396 8.58672 6.82743 8.50092 6.74446C8.44391 6.68934 8.3766 6.64599 8.30282 6.61689C8.22905 6.58779 8.15027 6.57352 8.07098 6.57489C7.99169 6.57626 7.91344 6.59324 7.84072 6.62486C7.76799 6.65648 7.70221 6.70213 7.64714 6.75918Z" fill="#E0E0E0"/>
<path d="M34.8156 4.82711C35.0232 4.70167 35.2466 4.60451 35.4799 4.53822L35.6161 3.88132L36.7201 3.86108L36.8802 4.5143C37.1161 4.57199 37.3433 4.66111 37.5555 4.77927L38.1075 4.41126L38.9226 5.19512L38.5767 5.76186C38.7026 5.96986 38.7998 6.19392 38.8656 6.42796L39.5243 6.56412L39.5427 7.66815L38.8914 7.82824C38.8321 8.0654 38.7417 8.2937 38.6227 8.50722L38.9907 9.07027L38.2197 9.86886L37.6456 9.52109C37.4379 9.64615 37.2145 9.74328 36.9814 9.80998L36.8434 10.4669L35.7393 10.4871L35.5793 9.8339C35.3408 9.77757 35.1112 9.68905 34.8966 9.57077L34.3446 9.93878L33.5442 9.1678L33.8919 8.5937C33.7667 8.38536 33.6696 8.16139 33.603 7.9276L32.9461 7.79144L32.9259 6.68741L33.5791 6.52732C33.6368 6.29196 33.7259 6.06544 33.8441 5.85386L33.4761 5.29081L34.2471 4.49222L34.8156 4.82711ZM35.4081 6.29915C35.2444 6.46895 35.1348 6.68348 35.093 6.9156C35.0513 7.14773 35.0793 7.38703 35.1735 7.60323C35.2678 7.81943 35.424 8.00282 35.6225 8.13021C35.821 8.25759 36.0528 8.32325 36.2887 8.31887C36.5245 8.3145 36.7537 8.24028 36.9473 8.10562C37.1409 7.97096 37.2903 7.78189 37.3765 7.56235C37.4626 7.3428 37.4817 7.10262 37.4314 6.87221C37.3811 6.64179 37.2635 6.43148 37.0936 6.26787C36.98 6.16001 36.8463 6.07562 36.7 6.01954C36.5538 5.96347 36.3979 5.9368 36.2413 5.94107C36.0848 5.94535 35.9306 5.98047 35.7876 6.04445C35.6446 6.10842 35.5157 6.19998 35.4081 6.31388V6.29915Z" fill="#E0E0E0"/>
<path d="M64.1921 32.2623C64.4583 32.1019 64.7449 31.9782 65.0441 31.8943L65.2281 31.0497L66.6541 31.0239L66.8602 31.863C67.1631 31.9368 67.4547 32.0513 67.7269 32.2034L68.4463 31.7305L69.4731 32.7223L69.0278 33.4583C69.1871 33.7257 69.3108 34.0127 69.3958 34.3121L70.2404 34.4961L70.2661 35.9221L69.4271 36.1282C69.3533 36.4306 69.2387 36.7215 69.0867 36.9931L69.5596 37.7144L68.5696 38.7301L67.8336 38.2829C67.5666 38.4431 67.2795 38.5668 66.9798 38.6509L66.7958 39.4955L65.3698 39.5195L65.1637 38.6841C64.8616 38.6094 64.5708 38.495 64.2988 38.3437L63.5775 38.8166L62.5508 37.8248L62.9979 37.0887C62.8376 36.8226 62.7138 36.536 62.6299 36.2368L61.7853 36.0528L61.7614 34.636L62.5986 34.4299C62.6733 34.1272 62.7877 33.8358 62.939 33.5632L62.4662 32.8437L63.4579 31.817L64.194 32.2641L64.1921 32.2623ZM64.9521 34.1631C64.742 34.381 64.6012 34.6563 64.5475 34.9543C64.4939 35.2522 64.5298 35.5594 64.6507 35.8369C64.7716 36.1144 64.972 36.3499 65.2267 36.5136C65.4814 36.6772 65.7789 36.7617 66.0816 36.7563C66.3842 36.7509 66.6785 36.6558 66.9272 36.4832C67.1759 36.3106 67.3678 36.0681 67.4787 35.7865C67.5896 35.5048 67.6145 35.1965 67.5503 34.9007C67.4861 34.6049 67.3355 34.3347 67.1178 34.1244C66.9732 33.9844 66.8024 33.8744 66.6153 33.8005C66.4281 33.7267 66.2281 33.6905 66.0269 33.6941C65.8257 33.6977 65.6272 33.741 65.4427 33.8215C65.2583 33.9019 65.0916 34.018 64.9521 34.1631Z" fill="#E0E0E0"/>
<path d="M74.2737 4.49948C74.2748 3.90514 74.1388 3.31856 73.8762 2.78536C73.6137 2.25216 73.2317 1.78671 72.7599 1.42522C72.2881 1.06373 71.7393 0.815928 71.1562 0.7011C70.5731 0.586272 69.9713 0.607508 69.3977 0.763157C68.8241 0.918806 68.2941 1.20467 67.849 1.59852C67.4039 1.99237 67.0557 2.48359 66.8313 3.03397C66.607 3.58435 66.5127 4.17906 66.5556 4.77184C66.5986 5.36463 66.7778 5.93951 67.0791 6.45177L67.0902 6.46649C67.2374 6.71674 67.4232 6.89523 67.6109 7.15651L69.8576 10.13C69.9228 10.2144 70.0064 10.2828 70.1021 10.3298C70.1978 10.3768 70.303 10.4013 70.4096 10.4013C70.5163 10.4013 70.6215 10.3768 70.7172 10.3298C70.8129 10.2828 70.8965 10.2144 70.9617 10.13L73.1697 7.20619C73.3703 6.97148 73.5577 6.72576 73.7309 6.47017L73.7401 6.45913C74.0906 5.8656 74.2749 5.18873 74.2737 4.49948ZM70.4096 6.18128C70.0734 6.18092 69.7449 6.0809 69.4656 5.89385C69.1862 5.70681 68.9686 5.44115 68.8402 5.13044C68.7118 4.81974 68.6784 4.47794 68.7442 4.14825C68.81 3.81857 68.972 3.51579 69.2099 3.2782C69.4477 3.0406 69.7507 2.87886 70.0805 2.8134C70.4102 2.74795 70.752 2.78172 71.0625 2.91046C71.3731 3.0392 71.6385 3.25712 71.8253 3.53668C72.012 3.81624 72.1117 4.14488 72.1117 4.48108C72.1117 4.7045 72.0676 4.92574 71.9821 5.13214C71.8965 5.33854 71.7711 5.52605 71.6131 5.68396C71.455 5.84186 71.2673 5.96706 71.0608 6.05239C70.8544 6.13773 70.6331 6.18153 70.4096 6.18128Z" fill="#E0E0E0"/>
<path d="M6.24142 60.1113C6.633 59.8391 6.93606 59.4579 7.11301 59.015C7.28997 58.5721 7.33304 58.087 7.23689 57.6199C6.9848 56.2969 5.76485 55.4118 4.53385 55.6492C3.30286 55.8866 2.49139 57.1489 2.74348 58.4737C2.8258 58.9476 3.04686 59.3863 3.37866 59.7345C3.71046 60.0827 4.1381 60.3246 4.60745 60.4297C1.25488 61.622 2.14362 65.3463 2.14362 65.3463L10.319 63.7933C10.319 63.7933 9.76696 59.9623 6.24142 60.1113Z" fill="#E0E0E0"/>
<path d="M16.1465 75.9876L14.472 75.5717C14.472 75.5717 14.1242 76.9849 12.6485 76.6481C12.3632 76.5885 12.1035 76.4415 11.9057 76.2275C11.7078 76.0134 11.5815 75.7431 11.5445 75.4539C11.5097 75.2118 11.5327 74.9648 11.6117 74.7332C11.6907 74.5017 11.8234 74.2921 11.999 74.1217C12.4001 73.7206 13.1324 73.4464 14.207 73.9267L15.1436 70.1307L13.4784 69.7203L12.9264 71.945C12.9264 71.945 10.4441 71.9726 9.81115 74.545C9.20393 77.0069 11.2703 78.122 12.2161 78.3539C12.9411 78.5323 15.4454 78.9648 16.1465 75.9876Z" fill="#E0E0E0"/>
<path d="M13.6499 68.9349L15.3383 69.3508L15.7269 67.7732L14.0386 67.3573L13.6499 68.9349Z" fill="#E0E0E0"/>
<path d="M80 81.7234C80 81.7491 62.0889 81.7712 40.0009 81.7712C17.9129 81.7712 0 81.7418 0 81.7234C0 81.705 17.9056 81.6755 40.0009 81.6755C62.0963 81.6755 80 81.6958 80 81.7234Z" fill="black"/>
<path d="M4.53564 35.4084H8.37951L8.04094 37.1325H1.11682L1.39099 35.7617L5.55871 32.4956C6.58914 31.6712 6.90379 31.1892 6.90379 30.5875C6.90379 29.9858 6.44562 29.5809 5.55871 29.5809C5.18437 29.5866 4.81593 29.6751 4.47994 29.8403C4.14394 30.0054 3.84875 30.243 3.61561 30.5359L2.19141 29.5037C2.92743 28.4972 4.29459 27.8311 5.87152 27.8311C7.80542 27.8311 9.07137 28.8633 9.07137 30.2875C9.07137 31.3713 8.5764 32.2858 6.96819 33.5279L4.53564 35.4084Z" fill="#141414"/>
<path d="M17.5374 35.2138H16.036L15.6569 37.133H13.5924L13.9843 35.2138H9.05847L9.33264 33.7896L14.7166 27.9879H17.0277L12.0118 33.4878H14.4149L14.7553 31.7766H16.7278L16.3874 33.4878H17.8907L17.5374 35.2138Z" fill="#141414"/>
<path d="M23.573 26.1329H25.4811L18.7667 38.4392H16.8641L23.573 26.1329Z" fill="#141414"/>
<path d="M32.2873 27.9879L32.0131 29.3606L27.1278 37.133H24.7762L29.4646 29.712H26.5003L26.1985 31.2025H24.318L24.9602 27.9879H32.2873Z" fill="#141414"/>
<path d="M3.75491 40.5804C3.76245 40.3919 3.7074 40.2463 3.58977 40.1438C3.47364 40.0412 3.29794 39.9899 3.06266 39.9899C2.9028 39.9899 2.76405 40.0126 2.64641 40.0578C2.52877 40.1016 2.43451 40.1626 2.36363 40.2411C2.29425 40.318 2.25127 40.407 2.23468 40.508C2.21809 40.5909 2.22337 40.6633 2.25052 40.7252C2.27917 40.787 2.32366 40.8405 2.38399 40.8858C2.44582 40.9295 2.51897 40.968 2.60343 41.0012C2.68789 41.0328 2.77762 41.06 2.87264 41.0826L3.27079 41.1821C3.46534 41.2274 3.64029 41.2877 3.79563 41.3631C3.95248 41.4385 4.08369 41.5313 4.18926 41.6414C4.29634 41.7515 4.37175 41.8812 4.41549 42.0305C4.45922 42.1798 4.46526 42.351 4.43358 42.544C4.38532 42.8275 4.27296 43.0734 4.09651 43.2815C3.92005 43.4881 3.68855 43.6487 3.402 43.7634C3.11545 43.8765 2.78365 43.933 2.40661 43.933C2.03259 43.933 1.71663 43.8757 1.45873 43.7611C1.20084 43.6465 1.01307 43.4768 0.895433 43.2521C0.779305 43.0259 0.744617 42.7461 0.79137 42.4128H1.73925C1.72266 42.5681 1.74528 42.6978 1.80712 42.8019C1.87046 42.9045 1.96472 42.9821 2.0899 43.0349C2.21508 43.0862 2.36212 43.1118 2.53104 43.1118C2.69844 43.1118 2.847 43.0877 2.9767 43.0394C3.10791 42.9912 3.21423 42.9241 3.29568 42.8381C3.37712 42.7521 3.42689 42.6533 3.44498 42.5417C3.46308 42.4377 3.44725 42.3502 3.39748 42.2793C3.34771 42.2084 3.26777 42.1481 3.15768 42.0983C3.04909 42.0471 2.91411 42.0018 2.75274 41.9626L2.26862 41.8359C1.89459 41.7409 1.61181 41.5924 1.42027 41.3903C1.22874 41.1882 1.16012 40.916 1.21441 40.5736C1.26267 40.2931 1.37955 40.048 1.56506 39.8384C1.75207 39.6272 1.98734 39.4636 2.27088 39.3475C2.55592 39.2298 2.86736 39.171 3.20519 39.171C3.54905 39.171 3.83937 39.2306 4.07615 39.3497C4.31293 39.4674 4.48562 39.6318 4.5942 39.8429C4.70279 40.054 4.73597 40.2999 4.69374 40.5804H3.75491Z" fill="#141414"/>
<path d="M8.50393 39.2344H9.48348L8.98579 42.2431C8.92998 42.581 8.80104 42.8766 8.59894 43.1299C8.39685 43.3833 8.13971 43.5809 7.82752 43.7226C7.51533 43.8629 7.16694 43.933 6.78236 43.933C6.39778 43.933 6.07352 43.8629 5.80959 43.7226C5.54567 43.5809 5.35488 43.3833 5.23725 43.1299C5.11961 42.8766 5.08869 42.581 5.14449 42.2431L5.64219 39.2344H6.62174L6.13536 42.1594C6.10821 42.3359 6.12178 42.4927 6.17608 42.63C6.23188 42.7672 6.32388 42.875 6.45207 42.9535C6.58027 43.0319 6.73862 43.0711 6.92714 43.0711C7.11717 43.0711 7.2891 43.0319 7.44293 42.9535C7.59828 42.875 7.72572 42.7672 7.82525 42.63C7.9263 42.4927 7.9904 42.3359 8.01754 42.1594L8.50393 39.2344Z" fill="#141414"/>
<path d="M9.52024 43.8674L10.2894 39.2344H12.1173C12.4672 39.2344 12.7545 39.3015 12.9792 39.4357C13.2054 39.5684 13.3638 39.7532 13.4543 39.9899C13.5463 40.2252 13.5674 40.4967 13.5176 40.8044C13.4663 41.1135 13.3547 41.3857 13.1828 41.621C13.0124 41.8548 12.7907 42.0373 12.5177 42.1685C12.2447 42.2997 11.9295 42.3653 11.5721 42.3653H10.407L10.536 41.5803H11.5427C11.7327 41.5803 11.8948 41.5479 12.0291 41.483C12.1648 41.4167 12.2726 41.3254 12.3526 41.2093C12.4325 41.0917 12.4845 40.9567 12.5087 40.8044C12.5343 40.649 12.526 40.514 12.4838 40.3994C12.4416 40.2848 12.3639 40.1958 12.2508 40.1325C12.1392 40.0676 11.9891 40.0352 11.8006 40.0352H11.14L10.4998 43.8674H9.52024Z" fill="#141414"/>
<path d="M13.6449 43.8674L14.414 39.2344H16.2419C16.5918 39.2344 16.8791 39.3015 17.1039 39.4357C17.3301 39.5684 17.4884 39.7532 17.5789 39.9899C17.6709 40.2252 17.692 40.4967 17.6423 40.8044C17.591 41.1135 17.4794 41.3857 17.3075 41.621C17.137 41.8548 16.9153 42.0373 16.6424 42.1685C16.3694 42.2997 16.0542 42.3653 15.6967 42.3653H14.5317L14.6606 41.5803H15.6673C15.8574 41.5803 16.0195 41.5479 16.1537 41.483C16.2894 41.4167 16.3973 41.3254 16.4772 41.2093C16.5571 41.0917 16.6092 40.9567 16.6333 40.8044C16.6589 40.649 16.6506 40.514 16.6084 40.3994C16.5662 40.2848 16.4885 40.1958 16.3754 40.1325C16.2638 40.0676 16.1137 40.0352 15.9252 40.0352H15.2646L14.6244 43.8674H13.6449Z" fill="#141414"/>
<path d="M22.4026 41.6142C22.3181 42.1089 22.1545 42.5289 21.9117 42.8743C21.6704 43.2197 21.3755 43.4821 21.0271 43.6615C20.6803 43.841 20.3062 43.9308 19.9051 43.9308C19.4843 43.9308 19.1216 43.835 18.8169 43.6435C18.5138 43.4519 18.2944 43.1752 18.1586 42.8132C18.0229 42.4497 17.9972 42.0116 18.0817 41.4989C18.1631 41.0027 18.3253 40.5819 18.5681 40.2365C18.8109 39.8897 19.1073 39.6257 19.4572 39.4448C19.807 39.2623 20.1833 39.171 20.586 39.171C21.0038 39.171 21.3642 39.2675 21.6674 39.4606C21.972 39.6536 22.1915 39.9326 22.3257 40.2976C22.4614 40.6611 22.4871 41.0999 22.4026 41.6142ZM21.4276 41.4989C21.4804 41.1806 21.4781 40.9137 21.4208 40.698C21.365 40.4809 21.2624 40.3165 21.1131 40.2049C20.9638 40.0933 20.7753 40.0375 20.5476 40.0375C20.3002 40.0375 20.0732 40.0993 19.8666 40.223C19.6615 40.3466 19.4881 40.5261 19.3463 40.7614C19.206 40.9951 19.1088 41.2794 19.0545 41.6142C19.0002 41.934 19.0017 42.2009 19.059 42.4151C19.1178 42.6292 19.2226 42.7913 19.3734 42.9014C19.5258 43.01 19.715 43.0643 19.9413 43.0643C20.1871 43.0643 20.4118 43.004 20.6154 42.8833C20.8205 42.7612 20.9932 42.584 21.1335 42.3517C21.2737 42.118 21.3718 41.8337 21.4276 41.4989Z" fill="#141414"/>
<path d="M22.7527 43.8674L23.5218 39.2344H25.3497C25.6996 39.2344 25.9877 39.2962 26.2139 39.4199C26.4416 39.5435 26.6015 39.7192 26.6935 39.947C26.787 40.1732 26.8089 40.4401 26.7591 40.7478C26.7078 41.0555 26.597 41.3194 26.4266 41.5396C26.2576 41.7598 26.0375 41.9294 25.766 42.0486C25.496 42.1662 25.1831 42.225 24.8272 42.225H23.6033L23.739 41.4378H24.8023C24.9893 41.4378 25.1491 41.4121 25.2819 41.3609C25.4146 41.3096 25.5194 41.2327 25.5963 41.1301C25.6747 41.0276 25.726 40.9001 25.7502 40.7478C25.7758 40.5925 25.7667 40.4628 25.723 40.3587C25.6793 40.2531 25.6001 40.1732 25.4855 40.1189C25.3708 40.0631 25.22 40.0352 25.033 40.0352H24.3724L23.7322 43.8674H22.7527ZM25.6031 41.759L26.4062 43.8674H25.3248L24.5466 41.759H25.6031Z" fill="#141414"/>
<path d="M27.4276 40.042L27.5633 39.2344H31.3684L31.2327 40.042H29.8143L29.1808 43.8674H28.2126L28.846 40.042H27.4276Z" fill="#141414"/>
<path d="M5.48333 25.2809H2.80237C2.80237 21.5493 4.31305 17.7367 6.94617 14.811C9.71729 11.7363 13.3146 10.0435 17.0665 10.0435C24.734 10.0435 30.0904 15.6409 30.0904 23.6599H27.4149C27.4149 17.1221 23.2582 12.7299 17.072 12.7299C11.0072 12.7244 5.48333 18.7083 5.48333 25.2809Z" fill="#FCCE17"/>
<path d="M6.95363 24.5362C7.38236 24.5362 7.73013 24.5785 7.72829 24.6171C7.72645 24.6558 7.38052 24.6852 6.95363 24.6852C6.52673 24.6852 6.17712 24.6502 6.17712 24.6042C6.17712 24.5582 6.52673 24.5288 6.95363 24.5362Z" fill="#263238"/>
<path d="M8.80465 18.659C9.17266 18.8945 9.42107 19.1355 9.38059 19.1999C9.34011 19.2643 9.01258 19.1337 8.64457 18.911C8.27656 18.6884 8.03183 18.4437 8.07047 18.3701C8.10911 18.2965 8.44584 18.4253 8.80465 18.659Z" fill="#263238"/>
<path d="M13.4415 14.6089C13.6163 15.0009 13.7028 15.345 13.6255 15.3744C13.5482 15.4038 13.3513 15.1186 13.1636 14.7341C12.9759 14.3495 12.8894 13.998 12.9796 13.9686C13.0698 13.9392 13.2685 14.2115 13.4415 14.6089Z" fill="#263238"/>
<path d="M19.5505 14.127C19.4438 14.5429 19.2984 14.8631 19.2267 14.8483C19.1549 14.8336 19.1696 14.4803 19.2616 14.059C19.3536 13.6376 19.4972 13.3229 19.5855 13.3395C19.6738 13.3561 19.6572 13.713 19.5505 14.127Z" fill="#263238"/>
<path d="M24.5407 17.6335C24.1837 17.869 23.8617 18.0126 23.8194 17.9537C23.7771 17.8948 24.0255 17.6409 24.3714 17.3888C24.7173 17.1367 25.0412 16.995 25.0927 17.0686C25.1442 17.1422 24.8977 17.3962 24.5407 17.6335Z" fill="#263238"/>
<path d="M26.1839 23.4114C25.757 23.4114 25.4092 23.3783 25.4092 23.3415C25.4092 23.3047 25.7552 23.2679 26.1839 23.2624C26.6126 23.2568 26.9586 23.2881 26.9604 23.3323C26.9622 23.3764 26.6163 23.4114 26.1839 23.4114Z" fill="#263238"/>
<path d="M16.3396 24.2102C16.206 24.2111 16.0762 24.1663 15.9716 24.0833L11.4653 20.5872C11.3404 20.4896 11.2593 20.3463 11.24 20.189C11.2207 20.0316 11.2646 19.873 11.3622 19.7481C11.4599 19.6232 11.6031 19.5421 11.7604 19.5228C11.9178 19.5035 12.0764 19.5474 12.2013 19.645L16.312 22.832L21.9886 17.6191C22.1045 17.5115 22.2584 17.4544 22.4164 17.4602C22.5744 17.4661 22.7237 17.5345 22.8313 17.6504C22.9389 17.7663 22.9961 17.9202 22.9902 18.0783C22.9843 18.2363 22.9159 18.3856 22.8 18.4932L16.7518 24.0501C16.6398 24.154 16.4924 24.2113 16.3396 24.2102Z" fill="#FCCE17"/>
<path d="M19.396 6.10217H14.2291C14.1488 6.10217 14.0837 6.16725 14.0837 6.24754V8.11887C14.0837 8.19915 14.1488 8.26424 14.2291 8.26424H19.396C19.4763 8.26424 19.5413 8.19915 19.5413 8.11887V6.24754C19.5413 6.16725 19.4763 6.10217 19.396 6.10217Z" fill="#FCCE17"/>
<path d="M18.2221 7.18542H15.4013V9.7431H18.2221V7.18542Z" fill="#FCCE17"/>
<path d="M5.16874 12.7191L3.04982 15.3433C2.96746 15.4453 2.98338 15.5947 3.08537 15.6771L4.53416 16.8469C4.63615 16.9293 4.7856 16.9134 4.86796 16.8114L6.98688 14.1872C7.06924 14.0853 7.05332 13.9358 6.95132 13.8534L5.50254 12.6836C5.40054 12.6012 5.2511 12.6171 5.16874 12.7191Z" fill="#FCCE17"/>
<path d="M19.3959 8.26455C19.3959 8.29583 18.2385 8.31975 16.8198 8.31975C15.4012 8.31975 14.2438 8.29583 14.2438 8.26455C14.2438 8.23327 15.3993 8.20935 16.8198 8.20935C18.2404 8.20935 19.3959 8.23511 19.3959 8.26455Z" fill="#263238"/>
<path d="M5.12093 16.3602C5.09149 16.3933 4.7014 16.0952 4.21931 15.7327C3.73721 15.3702 3.34528 15.0758 3.3692 15.039C3.39312 15.0022 3.82554 15.2414 4.31315 15.6076C4.80077 15.9738 5.14854 16.3289 5.12093 16.3602Z" fill="#263238"/>
<path d="M5.56985 15.6998C5.54041 15.7329 5.15032 15.4348 4.66823 15.0723C4.18613 14.7098 3.79236 14.4154 3.81628 14.3786C3.8402 14.3418 4.27446 14.581 4.76207 14.949C5.24968 15.317 5.59745 15.6685 5.56985 15.6998Z" fill="#263238"/>
<path d="M6.12004 15.1458C6.09244 15.1789 5.70235 14.8808 5.22026 14.5183C4.73816 14.1559 4.35175 13.8614 4.36831 13.8246C4.38487 13.7878 4.82648 14.0271 5.31226 14.3951C5.79803 14.7631 6.14948 15.1145 6.12004 15.1458Z" fill="#263238"/>
<path d="M6.65368 14.4854C6.62608 14.5185 6.23415 14.2204 5.75205 13.8579C5.26996 13.4955 4.87803 13.201 4.90379 13.1642C4.92955 13.1274 5.36196 13.3667 5.84774 13.7347C6.33351 14.1027 6.68128 14.4541 6.65368 14.4854Z" fill="#263238"/>
<path d="M29.7825 13.5486L27.5017 11.0639C27.4131 10.9673 27.2629 10.9609 27.1663 11.0496L25.7945 12.3088C25.6979 12.3974 25.6915 12.5476 25.7802 12.6442L28.061 15.1289C28.1496 15.2255 28.2998 15.2319 28.3964 15.1432L29.7682 13.884C29.8647 13.7953 29.8712 13.6452 29.7825 13.5486Z" fill="#FCCE17"/>
<path d="M26.1876 12.9639C26.16 12.9307 26.5115 12.5959 26.942 12.1653C27.3726 11.7347 27.7204 11.398 27.7535 11.4293C27.7866 11.4605 27.4867 11.8525 27.0506 12.2794C26.6145 12.7063 26.2134 12.9951 26.1876 12.9639Z" fill="#263238"/>
<path d="M26.7747 13.5046C26.7452 13.4715 27.0985 13.1366 27.5272 12.7061C27.956 12.2755 28.3074 11.9388 28.3405 11.97C28.3737 12.0013 28.0719 12.3932 27.6377 12.8201C27.2034 13.247 26.8004 13.5359 26.7747 13.5046Z" fill="#263238"/>
<path d="M27.2401 14.132C27.2106 14.0988 27.5639 13.7639 27.9926 13.3334C28.4214 12.9028 28.7728 12.5661 28.8059 12.5974C28.8391 12.6286 28.5373 13.0187 28.1012 13.4456C27.6651 13.8725 27.2658 14.1632 27.2401 14.132Z" fill="#263238"/>
<path d="M27.8143 14.7635C27.7848 14.7304 28.1381 14.3955 28.5669 13.965C28.9956 13.5344 29.347 13.1977 29.3802 13.2289C29.4133 13.2602 29.1115 13.6522 28.6754 14.079C28.2393 14.5059 27.84 14.7893 27.8143 14.7635Z" fill="#263238"/>
<path d="M14.8087 8.26238C14.7663 8.26238 14.7314 7.78397 14.7314 7.19699C14.7314 6.61001 14.7663 6.12976 14.8087 6.12976C14.851 6.12976 14.8878 6.60817 14.8878 7.19699C14.8878 7.78581 14.8528 8.26238 14.8087 8.26238Z" fill="#263238"/>
<path d="M15.8208 8.26238C15.7785 8.26238 15.7435 7.78397 15.7435 7.19699C15.7435 6.61001 15.7785 6.12976 15.8208 6.12976C15.8631 6.12976 15.8981 6.60817 15.8981 7.19699C15.8981 7.78581 15.8631 8.26238 15.8208 8.26238Z" fill="#263238"/>
<path d="M16.8309 8.26238C16.7886 8.26238 16.7536 7.78397 16.7536 7.19699C16.7536 6.61001 16.7886 6.12976 16.8309 6.12976C16.8732 6.12976 16.9082 6.60817 16.9082 7.19699C16.9082 7.78581 16.875 8.26238 16.8309 8.26238Z" fill="#263238"/>
<path d="M17.8431 8.26238C17.7989 8.26238 17.7658 7.78397 17.7658 7.19699C17.7658 6.61001 17.7989 6.12976 17.8431 6.12976C17.8873 6.12976 17.9204 6.60817 17.9204 7.19699C17.9204 7.78581 17.8854 8.26238 17.8431 8.26238Z" fill="#263238"/>
<path d="M18.8532 8.26238C18.8108 8.26238 18.7759 7.78397 18.7759 7.19699C18.7759 6.61001 18.8108 6.12976 18.8532 6.12976C18.8955 6.12976 18.9304 6.60817 18.9304 7.19699C18.9304 7.78581 18.8881 8.26238 18.8532 8.26238Z" fill="#263238"/>
<path d="M17.4334 24.3644C17.9608 23.837 17.9608 22.9818 17.4334 22.4544C16.9059 21.927 16.0508 21.927 15.5233 22.4544C14.9959 22.9818 14.9959 23.837 15.5233 24.3644C16.0508 24.8919 16.9059 24.8919 17.4334 24.3644Z" fill="#FCCE17"/>
<path d="M17.8283 23.4114C17.8154 23.4114 17.8172 23.2918 17.7602 23.0876C17.6784 22.8026 17.5043 22.5528 17.2652 22.3773C17.0736 22.235 16.8462 22.1488 16.6084 22.1282C16.3706 22.1076 16.1318 22.1535 15.9185 22.2607C15.7053 22.368 15.5261 22.5324 15.4008 22.7356C15.2756 22.9388 15.2093 23.1727 15.2093 23.4114C15.2093 23.6501 15.2756 23.8841 15.4008 24.0873C15.5261 24.2905 15.7053 24.4548 15.9185 24.5621C16.1318 24.6693 16.3706 24.7152 16.6084 24.6947C16.8462 24.6741 17.0736 24.5878 17.2652 24.4455C17.5039 24.2697 17.6779 24.02 17.7602 23.7353C17.8172 23.531 17.8154 23.4114 17.8283 23.4114C17.8412 23.4114 17.8283 23.4409 17.8283 23.4979C17.8312 23.5821 17.8225 23.6663 17.8025 23.7482C17.7365 24.0554 17.5645 24.3296 17.3167 24.5228C17.1316 24.6682 16.9127 24.7643 16.6804 24.8023C16.4481 24.8402 16.21 24.8188 15.9882 24.7399C15.7137 24.6426 15.476 24.4627 15.3079 24.2248C15.1398 23.9869 15.0496 23.7027 15.0496 23.4114C15.0496 23.1201 15.1398 22.836 15.3079 22.5981C15.476 22.3602 15.7137 22.1802 15.9882 22.0829C16.2099 22.0043 16.4478 21.9828 16.68 22.0205C16.9122 22.0581 17.1312 22.1536 17.3167 22.2982C17.5644 22.4923 17.7363 22.7671 17.8025 23.0747C17.8225 23.1565 17.8312 23.2407 17.8283 23.3249C17.8375 23.3783 17.8338 23.4114 17.8283 23.4114Z" fill="#263238"/>
<path d="M64.0191 28.0374L66.3265 27.6694C67.8389 28.8896 69.753 29.5 71.6926 29.3805C73.6322 29.261 75.4569 28.4204 76.8081 27.0237C78.1592 25.6271 78.9391 23.7755 78.9943 21.8331C79.0496 19.8906 78.3762 17.9977 77.1066 16.5266C75.837 15.0554 74.0629 14.1124 72.1333 13.8829C70.2036 13.6534 68.2579 14.154 66.6787 15.2863C65.0994 16.4186 64.0008 18.1008 63.5989 20.002C63.197 21.9032 63.5208 23.8861 64.5067 25.5607L64.0191 28.0374Z" fill="white"/>
<path d="M64.0192 28.0378C64.0192 28.0378 64.0192 27.9863 64.0449 27.8814L64.1332 27.4104C64.2124 26.9872 64.3301 26.3671 64.4829 25.5575C64.4833 25.5548 64.4842 25.5523 64.4857 25.5501C64.4872 25.5478 64.4891 25.5459 64.4914 25.5445C64.4937 25.5431 64.4962 25.5423 64.4989 25.5419C64.5015 25.5416 64.5042 25.5419 64.5068 25.5427C64.5085 25.5418 64.5104 25.5413 64.5123 25.5413C64.5142 25.5413 64.5161 25.5418 64.5178 25.5427L64.4847 25.5685C63.8263 24.457 63.4539 23.1995 63.4009 21.9086C63.3846 21.5069 63.4 21.1045 63.4469 20.7052C63.5016 20.2778 63.589 19.8552 63.7082 19.4411C64.1428 17.9399 65.0181 16.6038 66.2208 15.6058C67.4236 14.6078 68.8982 13.9939 70.4538 13.8437C71.6744 13.7285 72.9049 13.9029 74.0454 14.3528C75.1858 14.8026 76.204 15.5152 77.0173 16.4326L77.3301 16.8006C77.4276 16.9294 77.5141 17.0638 77.6098 17.1926C77.7915 17.4544 77.9568 17.7273 78.1048 18.0096C78.1857 18.1457 78.2373 18.2966 78.3053 18.4383C78.3734 18.58 78.4433 18.7217 78.4893 18.8725C78.5984 19.1646 78.6887 19.4633 78.7598 19.7668C79.0429 20.9463 79.0523 22.1749 78.7874 23.3586C78.4326 24.8978 77.6191 26.2931 76.4544 27.3602C75.2897 28.4273 73.8287 29.1159 72.2644 29.3351C71.8346 29.3934 71.4009 29.4187 70.9672 29.4105C70.5645 29.3914 70.1633 29.3484 69.7656 29.2817C68.4997 29.046 67.3129 28.4969 66.3137 27.6846H66.3303L64.6043 27.944L64.1645 28.0084L64.0192 28.0286L64.1719 28.001L64.6153 27.9274L66.3229 27.6441H66.3395C67.3376 28.443 68.5188 28.9811 69.7767 29.21C70.1712 29.2757 70.5694 29.3168 70.969 29.3332C71.3998 29.3402 71.8304 29.3137 72.2571 29.2541C73.8026 29.0305 75.2445 28.3451 76.3937 27.2878C77.5429 26.2306 78.3459 24.8507 78.6973 23.3292C78.9572 22.159 78.9465 20.945 78.666 19.7797C78.5939 19.4804 78.5048 19.1856 78.3992 18.8965C78.3532 18.7474 78.2759 18.6113 78.2152 18.4677C78.1544 18.3242 78.0956 18.1788 78.0164 18.0445C77.8707 17.7657 77.7072 17.4965 77.527 17.2386C77.435 17.1098 77.343 16.9773 77.251 16.8503L76.9419 16.4823C76.1385 15.5761 75.133 14.8718 74.0067 14.4264C72.8805 13.9811 71.6652 13.8073 70.4593 13.9191C69.3918 14.0246 68.3577 14.3503 67.4225 14.8758C66.4872 15.4012 65.6711 16.1149 65.0257 16.9718C64.4633 17.7214 64.0429 18.5677 63.7855 19.4687C63.6666 19.8786 63.5786 20.2969 63.5223 20.72C63.4736 21.116 63.4564 21.5153 63.4708 21.9141C63.5158 23.196 63.8767 24.4468 64.5215 25.5556C64.525 25.5594 64.5269 25.5643 64.5269 25.5694C64.5269 25.5745 64.525 25.5795 64.5215 25.5832C64.5179 25.5862 64.5133 25.5878 64.5086 25.5878C64.5039 25.5878 64.4994 25.5862 64.4957 25.5832L64.5289 25.5722C64.3669 26.3726 64.2418 26.9872 64.1608 27.4122C64.1185 27.6202 64.0854 27.7802 64.0633 27.887C64.0412 27.9937 64.0192 28.0378 64.0192 28.0378Z" fill="#263238"/>
<path d="M73.5671 21.8441C73.5667 21.6878 73.6127 21.5349 73.6993 21.4048C73.7859 21.2747 73.9092 21.1733 74.0535 21.1133C74.1978 21.0533 74.3567 21.0375 74.51 21.0679C74.6633 21.0983 74.8041 21.1736 74.9146 21.2841C75.0251 21.3946 75.1004 21.5354 75.1308 21.6887C75.1612 21.842 75.1454 22.0009 75.0854 22.1452C75.0254 22.2895 74.924 22.4128 74.7939 22.4994C74.6638 22.5859 74.5109 22.632 74.3546 22.6316C74.1459 22.6311 73.9459 22.548 73.7983 22.4004C73.6507 22.2528 73.5676 22.0528 73.5671 21.8441Z" fill="#263238"/>
<path d="M70.4095 21.8441C70.4092 21.6879 70.4552 21.5351 70.5417 21.405C70.6282 21.275 70.7514 21.1735 70.8956 21.1135C71.0398 21.0534 71.1986 21.0376 71.3518 21.0678C71.505 21.0981 71.6459 21.1731 71.7565 21.2834C71.867 21.3937 71.9424 21.5344 71.973 21.6876C72.0036 21.8407 71.9881 21.9995 71.9284 22.1439C71.8687 22.2882 71.7675 22.4116 71.6377 22.4985C71.5078 22.5853 71.3551 22.6316 71.1989 22.6316C70.9899 22.6316 70.7894 22.5487 70.6414 22.4011C70.4934 22.2534 70.41 22.0531 70.4095 21.8441Z" fill="#263238"/>
<path d="M67.2614 22.2377C67.1833 22.1025 67.1471 21.9472 67.1573 21.7914C67.1675 21.6356 67.2236 21.4863 67.3187 21.3625C67.4137 21.2386 67.5433 21.1457 67.6912 21.0955C67.839 21.0453 67.9984 21.0401 68.1492 21.0805C68.3001 21.1209 68.4355 21.2051 68.5384 21.3225C68.6414 21.4399 68.7072 21.5851 68.7276 21.7399C68.748 21.8947 68.722 22.0521 68.6529 22.1921C68.5839 22.3321 68.4749 22.4485 68.3396 22.5266C68.1582 22.6308 67.9429 22.6589 67.7409 22.6047C67.5388 22.5506 67.3664 22.4186 67.2614 22.2377Z" fill="#263238"/>
<path d="M12.1334 50.0926C11.6495 49.8626 10.8343 49.3823 10.3301 49.1947C9.83177 48.9814 9.27576 48.9438 8.75321 49.0879C8.45696 49.1873 8.16071 49.4247 8.15887 49.7375L10.1369 51.1966L12.1334 50.6704V50.0926Z" fill="#FF9A6C"/>
<path d="M9.96947 50.0723C9.96947 50.0723 6.41633 49.3013 5.82383 48.9977C5.23133 48.6941 2.14372 47.1484 1.62667 47.1484C1.10961 47.1484 0.668 47.2883 0.574158 47.8035L1.24946 48.3279L1.33594 48.5966L2.49149 49.1983L2.69574 49.5773L5.63982 51.1487C5.63982 51.1487 8.72743 52.7164 9.24265 52.8048C9.75786 52.8931 12.3303 53.1084 13.4306 54.045L17.8467 52.2307C17.8467 52.2307 16.5716 50.4201 15.589 49.9729C14.7131 49.5755 13.2429 49.5755 12.2143 49.9968L9.96947 50.0723Z" fill="#FFBF9D"/>
<path d="M12.9246 53.0362C12.9246 53.0362 18.5459 65.2947 19.4512 67.7566C19.4512 67.7566 25.735 66.7225 25.9503 63.2356L17.8541 52.1953L12.9246 53.0362Z" fill="#FFBF9D"/>
<path d="M7.70447 50.3497C7.70447 50.3497 7.68239 50.3497 7.64375 50.3497C7.58626 50.344 7.52953 50.3322 7.47446 50.3148C7.27294 50.2534 7.07715 50.1746 6.88932 50.0792C6.65012 49.9633 6.37227 49.8106 6.06682 49.6395C5.9141 49.5548 5.75401 49.4647 5.58657 49.3782C5.41912 49.2917 5.23696 49.2163 5.05111 49.1353C4.70701 48.9794 4.35145 48.8503 3.98756 48.7489C3.65451 48.6661 3.33434 48.6035 3.09329 48.6845C2.9998 48.7219 2.91497 48.7781 2.84408 48.8497C2.77318 48.9212 2.71772 49.0065 2.68112 49.1003C2.65394 49.172 2.62261 49.2421 2.58728 49.3101C2.58728 49.3101 2.58728 49.288 2.59648 49.2512C2.60878 49.1948 2.62539 49.1395 2.64616 49.0856C2.67868 48.9998 2.72262 48.9187 2.77681 48.8446C2.84841 48.7432 2.94823 48.6651 3.06385 48.6201C3.20649 48.5723 3.35805 48.5572 3.50731 48.5759C3.67422 48.5924 3.83967 48.6213 4.00228 48.6624C4.37393 48.7603 4.737 48.8883 5.08791 49.0451C5.27192 49.1261 5.45592 49.2015 5.62705 49.2917C5.79817 49.3819 5.95642 49.4757 6.10914 49.5622C6.41275 49.737 6.68508 49.8952 6.91876 50.0167C7.09984 50.1156 7.28733 50.2023 7.47998 50.2761C7.62351 50.3295 7.70447 50.3405 7.70447 50.3497Z" fill="#FF9A6C"/>
<path d="M4.31503 48.5864C4.1418 48.5514 3.97407 48.4932 3.81638 48.4134C3.43687 48.2343 3.04665 48.0788 2.64794 47.9479C2.42978 47.8861 2.20178 47.8667 1.97632 47.8908C1.88636 47.8936 1.79789 47.9145 1.71628 47.9525C1.63468 47.9905 1.56163 48.0446 1.50159 48.1116C1.42963 48.2114 1.38233 48.3268 1.36358 48.4484C1.36192 48.4956 1.3526 48.5422 1.33598 48.5864C1.32738 48.5396 1.32738 48.4915 1.33598 48.4447C1.34286 48.3134 1.3848 48.1863 1.45743 48.0767C1.51375 48 1.58673 47.9371 1.67087 47.8927C1.76712 47.8469 1.87037 47.8177 1.97632 47.8062C2.21365 47.7763 2.45456 47.7945 2.68474 47.8596C3.08911 47.9893 3.48082 48.1556 3.85502 48.3564C4.01237 48.4247 4.16593 48.5015 4.31503 48.5864Z" fill="#FF9A6C"/>
<path d="M13.1841 49.7245C13.1841 49.7245 13.1344 49.7539 13.0406 49.787C12.906 49.8357 12.7691 49.8774 12.6303 49.9122C12.1735 50.031 11.7053 50.1007 11.2337 50.1201C10.7622 50.1404 10.2898 50.1121 9.82418 50.0354C9.64018 50.0042 9.50401 49.9729 9.40649 49.9453C9.35432 49.9374 9.3039 49.9206 9.25745 49.8956C9.25745 49.8809 9.47825 49.9232 9.83522 49.9674C10.2978 50.0246 10.7643 50.0437 11.23 50.0244C11.696 50.0004 12.1594 49.9388 12.6155 49.8404C12.956 49.7742 13.1712 49.7116 13.1841 49.7245Z" fill="#FF9A6C"/>
<path d="M65.5225 42.4465L57.3453 40.7536L55.3212 39.2356L44.5201 41.3185C44.3472 41.635 42.5973 44.0786 42.5973 44.0786L38.3431 45.5231C36.535 45.9981 34.9211 47.0277 33.7282 48.4671C32.5939 49.868 31.6646 51.4231 30.9681 53.0857C29.0545 57.5772 26.2926 62.7662 26.2926 62.7662L24.5611 59.9767L17.2634 63.4139C17.2634 63.4139 21.5379 72.0309 22.9529 73.2619C24.5261 74.629 28.1437 74.7873 30.6443 72.2369C32.1513 70.6987 36.5067 64.6191 37.4138 63.0974L38.7608 69.4603L39.9991 76.723L37.9971 81.7224H67.2172L66.0083 76.9972C66.0083 76.9972 67.1988 64.6817 67.5282 62.389C68.3028 56.9811 65.5225 42.4465 65.5225 42.4465Z" fill="#FCCE17"/>
<path d="M65.5226 42.4468C65.5226 42.4468 71.3739 44.0881 72.662 49.9045C73.4421 53.4282 76.0918 63.4731 77.0247 71.7423C77.5767 76.6589 77.562 81.202 77.5767 81.7227H68.5973L64.7921 44.0881L65.5226 42.4468Z" fill="#FCCE17"/>
<path d="M50.515 47.4411C50.515 47.4411 50.515 47.4632 50.4911 47.5019L50.4083 47.6711C50.3347 47.8202 50.2243 48.0392 50.1047 48.317C49.8452 48.869 49.5398 49.6878 49.0467 50.6023L49.0227 50.6483L48.9823 50.6134C48.375 50.0963 47.7163 49.4744 47.0355 48.8028C45.8303 47.6067 44.7741 46.4935 43.9939 45.7041L43.0647 44.7712L42.8089 44.5191C42.7778 44.4913 42.7494 44.4604 42.7242 44.4271C42.7598 44.4495 42.7925 44.4761 42.8218 44.5063L43.0867 44.7455C43.3149 44.9552 43.6387 45.2662 44.038 45.6563C44.8311 46.4346 45.8965 47.5405 47.098 48.7347C47.7789 49.4063 48.4339 50.0227 49.0338 50.549L48.9675 50.56C49.4644 49.6584 49.7808 48.8433 50.0532 48.2949C50.1875 48.0171 50.2997 47.8036 50.3807 47.6583C50.4175 47.5939 50.4488 47.5387 50.4745 47.4963C50.486 47.4765 50.4996 47.458 50.515 47.4411Z" fill="black"/>
<path d="M57.4594 40.9622C57.4588 41.0056 57.4533 41.0488 57.4428 41.091C57.4244 41.183 57.4024 41.3044 57.3748 41.459C57.3085 41.7755 57.1908 42.2318 57.0399 42.7875C56.7215 43.8915 56.2063 45.4169 55.5678 47.0638C55.2311 47.936 54.8999 48.7603 54.5908 49.4908L54.5668 49.5478L54.5208 49.5074C53.6873 48.7713 52.9402 48.1917 52.4342 47.7612C52.1803 47.5459 51.9816 47.3729 51.8472 47.2515L51.6982 47.1116C51.6632 47.0785 51.6467 47.0619 51.6485 47.0601C51.6697 47.0712 51.6895 47.0848 51.7074 47.1006L51.8656 47.2312L52.4673 47.7207C52.9844 48.1402 53.737 48.7088 54.5797 49.4411L54.5098 49.4577C54.8134 48.7217 55.1428 47.901 55.4777 47.0307C56.1088 45.3746 56.6332 43.875 56.9663 42.7691C57.1319 42.2171 57.2533 41.7644 57.3343 41.4498C57.3692 41.3007 57.3987 41.1811 57.4208 41.0818C57.4306 41.041 57.4435 41.001 57.4594 40.9622Z" fill="black"/>
<path d="M38.5308 68.6454C38.5231 68.6329 38.5175 68.6193 38.5143 68.6049L38.4756 68.4798C38.4425 68.3572 38.3965 68.1952 38.3376 67.9941C38.275 67.7843 38.2143 67.5248 38.1407 67.2231C38.0671 66.9213 37.988 66.5754 37.9089 66.1926C37.5018 64.1962 37.2154 62.1771 37.0514 60.1462C36.8435 57.767 36.7975 55.605 36.8085 54.0428C36.8085 53.2607 36.8288 52.6278 36.8508 52.1917C36.8619 51.9782 36.8692 51.8108 36.8748 51.6875C36.8748 51.636 36.8748 51.5918 36.884 51.5569C36.882 51.5422 36.882 51.5274 36.884 51.5127C36.8855 51.528 36.8855 51.5434 36.884 51.5587V51.6893C36.884 51.8126 36.884 51.9801 36.884 52.1917C36.884 52.6296 36.8692 53.2607 36.8729 54.0428C36.8729 55.6031 36.9355 57.7634 37.1434 60.137C37.3089 62.1649 37.5853 64.1821 37.9714 66.1798C38.0469 66.5625 38.1168 66.9158 38.1886 67.2102C38.2603 67.5046 38.3137 67.7751 38.3726 67.9848L38.494 68.4743L38.5216 68.6013C38.5308 68.6307 38.5327 68.6454 38.5308 68.6454Z" fill="black"/>
<path d="M66.0084 48.8981C66.0193 48.914 66.028 48.9313 66.0341 48.9496C66.0507 48.9882 66.0728 49.0379 66.0985 49.1005C66.1574 49.2403 66.2365 49.4372 66.3396 49.6856C66.3911 49.8144 66.4518 49.9543 66.5107 50.1107L66.6855 50.6259C66.7481 50.8099 66.8143 51.0105 66.8861 51.2202C66.9578 51.43 67.0057 51.66 67.0701 51.8974C67.6221 53.7908 67.8981 56.5306 67.7399 59.5281C67.5816 62.5255 67.2283 65.2322 67.0038 67.1753C66.8916 68.1469 66.7996 68.9363 66.7352 69.4883C66.7039 69.7551 66.6781 69.9667 66.6597 70.1157L66.6377 70.2795C66.6363 70.2983 66.6326 70.3168 66.6266 70.3347C66.6242 70.3164 66.6242 70.2978 66.6266 70.2795L66.6395 70.1139C66.6542 69.963 66.6745 69.7459 66.6984 69.4846C66.7499 68.9326 66.8309 68.145 66.9358 67.168C67.1363 65.2138 67.4749 62.5163 67.6368 59.5244C67.7987 56.5325 67.5264 53.8073 66.9983 51.9139L66.8143 51.2368L66.6303 50.6443C66.5714 50.4603 66.5162 50.2855 66.4647 50.1272C66.4132 49.969 66.3506 49.8273 66.3009 49.6985C66.2053 49.4464 66.1317 49.2495 66.0764 49.1078C66.0544 49.0434 66.036 48.9938 66.0212 48.9533C66.0141 48.9356 66.0098 48.917 66.0084 48.8981Z" fill="black"/>
<path d="M26.3404 69.0312C26.3146 69.0312 26.2833 67.6291 26.2723 65.9031C26.2613 64.1771 26.2723 62.775 26.2999 62.775C26.3275 62.775 26.3569 64.1771 26.368 65.9031C26.379 67.6291 26.368 69.0312 26.3404 69.0312Z" fill="black"/>
<path d="M52.8924 77.5237V77.4464C52.8924 77.3912 52.9072 77.3176 52.9182 77.222C52.944 77.0195 52.9789 76.7307 53.0249 76.359C53.0488 76.175 53.0746 75.9634 53.104 75.737C53.1335 75.5107 53.1556 75.2605 53.1832 75.001C53.2365 74.4674 53.3101 73.862 53.3672 73.1886C53.3948 72.8537 53.4224 72.5004 53.4536 72.1342C53.4849 71.768 53.4996 71.3853 53.5236 70.9897C53.5788 70.1985 53.6027 69.3502 53.634 68.4596C53.6744 66.6766 53.6689 64.7151 53.5769 62.6598C53.4849 60.6044 53.2972 58.6503 53.0893 56.8783C52.9734 55.9933 52.8722 55.1524 52.7415 54.3703C52.6808 53.9784 52.6275 53.5993 52.5575 53.2369C52.4876 52.8744 52.4306 52.5266 52.3735 52.1936C52.2613 51.5293 52.1325 50.9331 52.0276 50.4069C51.9742 50.1437 51.9264 49.899 51.8804 49.6708C51.8344 49.4427 51.7847 49.2421 51.7424 49.0581L51.5584 48.2098C51.54 48.116 51.5234 48.0424 51.5124 47.989C51.5013 47.9357 51.4995 47.9117 51.4995 47.9117C51.5088 47.9356 51.5162 47.9603 51.5216 47.9853L51.5786 48.2043L51.7829 49.0507L51.9282 49.6616C51.9761 49.8861 52.0276 50.129 52.0846 50.3977C52.1932 50.9221 52.3275 51.5182 52.4435 52.1825C52.5048 52.5149 52.5661 52.8627 52.6275 53.2258C52.6937 53.5938 52.7471 53.9618 52.8115 54.3593C52.9439 55.1432 53.0488 55.9841 53.1684 56.8691C53.38 58.6429 53.5604 60.5989 53.6634 62.6561C53.7665 64.7133 53.7591 66.6784 53.7131 68.4633C53.6781 69.3557 53.6524 70.204 53.5935 70.9952C53.5677 71.3908 53.5493 71.7736 53.5181 72.1416C53.4868 72.5096 53.4536 72.861 53.4242 73.1978C53.3727 73.8712 53.2936 74.4858 53.2402 75.0084C53.2089 75.2752 53.1795 75.5236 53.1537 75.7444C53.128 75.9652 53.093 76.1786 53.0654 76.3663C53.012 76.7343 52.9697 77.0251 52.9421 77.2256L52.9072 77.4501C52.9044 77.475 52.8994 77.4997 52.8924 77.5237Z" fill="black"/>
<path d="M56.7823 57.6619H56.8191L56.935 57.649L57.3858 57.5975L59.11 57.4135L65.2465 56.7769H65.2925V56.8229C65.3385 58.6795 65.3937 60.7808 65.4508 63.0091V63.0294L65.4379 63.0422L64.7019 63.839L62.0191 66.7058L61.9952 66.7315L61.9639 66.715L57.4429 64.4701L57.4226 64.4609V64.4444C57.2257 62.3927 57.0546 60.6962 56.9497 59.5057C56.8945 58.9205 56.8522 58.4605 56.8228 58.1422C56.8099 57.9895 56.7988 57.8717 56.7915 57.7852C56.7841 57.6987 56.7915 57.6674 56.7915 57.6674C56.7915 57.6674 56.7915 57.7116 56.808 57.7926C56.8246 57.8735 56.832 58.0005 56.8504 58.1606C56.8835 58.4826 56.9332 58.9444 56.9976 59.5333C57.1209 60.7146 57.2957 62.4019 57.5091 64.4425L57.487 64.4112L62.0136 66.6432L61.9602 66.6524L64.6375 63.7746L65.3735 62.9797L65.3606 63.0128C65.3073 60.7845 65.2557 58.685 65.2116 56.8265L65.2594 56.867L59.1412 57.4522L57.4061 57.6141L56.9442 57.6546L56.8246 57.6656L56.7823 57.6619Z" fill="black"/>
<path d="M65.3036 58.9576C65.1993 58.9866 65.0929 59.0069 64.9853 59.0184C64.7792 59.0515 64.4811 59.0938 64.1112 59.1416C63.3752 59.2355 62.3466 59.344 61.215 59.4526L58.3151 59.736L57.4374 59.828C57.3309 59.8451 57.2232 59.8531 57.1154 59.8519C57.2196 59.8229 57.3261 59.8026 57.4337 59.7912C57.6398 59.7581 57.9379 59.7157 58.3077 59.6679C59.0437 59.5741 60.0723 59.4655 61.2058 59.3569L64.1039 59.0736L64.9816 58.9816C65.088 58.9644 65.1958 58.9564 65.3036 58.9576Z" fill="black"/>
<g opacity="0.3">
<path d="M67.081 66.194L67.3902 69.9533C68.0728 66.7332 69.1456 63.272 68.9781 59.9857C68.8107 56.6994 68.5015 53.5547 66.6505 50.5793C67.4552 52.8195 67.8243 55.1928 67.7379 57.5715C67.5686 61.4173 67.081 66.194 67.081 66.194Z" fill="black"/>
</g>
<path d="M25.1223 59.1967C25.0229 58.9702 24.8471 58.7859 24.6255 58.676C24.3679 58.5876 24.0882 58.7128 23.8435 58.8342L17.1678 62.1573C16.728 62.3763 16.2478 62.6358 16.0858 63.0958C15.8742 63.6846 16.2698 64.3065 16.6379 64.8125C17.2524 65.6571 17.9885 66.5772 19.0299 66.6968L24.7727 62.759C25.4738 62.656 25.9099 61.874 25.8768 61.1656C25.8436 60.4571 25.4793 59.8113 25.1223 59.1967Z" fill="#FCCE17"/>
<path d="M25.8473 61.6032C25.8303 61.627 25.8105 61.6486 25.7884 61.6677L25.6044 61.8388C25.4462 61.986 25.2125 62.1939 24.9199 62.4442C24.333 62.9465 23.4994 63.6144 22.5279 64.2952C21.5563 64.9761 20.6676 65.5373 19.9923 65.9163C19.6574 66.1095 19.3832 66.2604 19.1918 66.3598L18.971 66.472C18.9195 66.4978 18.8919 66.5088 18.8901 66.5052C18.9113 66.4851 18.9355 66.4683 18.9618 66.4555L19.1734 66.3267L19.9573 65.8575C20.6179 65.46 21.5177 64.8896 22.4782 64.2106C23.4387 63.5316 24.2778 62.8747 24.8702 62.3871L25.575 61.8038L25.759 61.6474C25.8216 61.618 25.8455 61.5996 25.8473 61.6032Z" fill="black"/>
<g opacity="0.3">
<path d="M57.3729 41.3832C56.5872 43.9924 55.4868 46.9438 54.5576 49.4794C53.7664 48.8078 52.6587 47.919 51.8656 47.2456C52.5481 48.5997 53.3676 49.8803 54.311 51.0674C54.4214 51.2054 54.5686 51.3563 54.7398 51.3231C54.9109 51.29 54.9882 51.1134 55.0471 50.9551L56.4952 47.1223C57.1723 45.3301 57.8255 43.2398 57.3729 41.3832Z" fill="black"/>
</g>
<path d="M44.9526 12.9969C47.3446 12.3087 49.5821 12.9969 51.7884 14.1414C53.9946 15.2859 55.7739 17.1757 56.9258 19.3745C58.1402 21.6912 58.6775 24.3905 58.2378 26.9684C57.798 29.5464 56.3407 31.9752 54.1584 33.4086C51.1756 35.3738 47.065 35.2708 43.9939 33.4509C40.9229 31.6311 38.9006 28.2767 38.3652 24.7457C37.9972 22.3131 38.2953 19.7481 39.4306 17.5694C40.5659 15.3908 42.5734 13.6244 44.9507 12.9951" fill="#263238"/>
<path d="M52.8059 20.4837C52.344 19.595 52.3643 18.5406 52.1122 17.5691C51.5602 15.4328 49.6097 13.889 47.49 13.2725C45.5193 12.6966 43.2394 13.129 41.0498 14.119C39.552 14.7979 38.1885 15.8394 37.2942 17.2194C36.7093 18.1445 36.3541 19.1959 36.258 20.2861C36.162 21.3763 36.328 22.4737 36.7422 23.4867L47.6703 20.6125C48.8075 21.3485 49.9722 22.1085 51.2878 22.4526C51.6706 22.571 52.0773 22.5894 52.4692 22.5059C52.6636 22.4599 52.8407 22.359 52.9794 22.2151C53.1181 22.0712 53.2124 21.8905 53.2512 21.6945C53.2972 21.2565 53.0064 20.872 52.8059 20.4837Z" fill="#263238"/>
<path d="M55.4132 39.8616L52.5924 20.0222C52.4673 19.0837 52.0404 18.1269 51.0964 18.1711L41.1602 17.2142C38.0468 17.3578 36.5858 21.4464 36.8618 24.5432C37.1691 27.9914 37.6788 32.1886 38.4718 34.6763C40.0672 39.6758 44.095 39.7273 44.095 39.7273C44.095 39.7273 44.3398 40.7209 44.6471 42.5794L51.0872 46.863L55.4132 39.8616Z" fill="#FFBF9D"/>
<path d="M39.263 28.3171C39.2877 28.4887 39.3786 28.6438 39.5161 28.7493C39.6536 28.8549 39.8269 28.9025 39.999 28.882C40.0837 28.876 40.1663 28.8531 40.2419 28.8147C40.3175 28.7762 40.3847 28.723 40.4394 28.6582C40.4941 28.5933 40.5353 28.5182 40.5605 28.4372C40.5857 28.3561 40.5944 28.2709 40.586 28.1865C40.5609 28.015 40.47 27.8599 40.3327 27.7542C40.1953 27.6484 40.0222 27.6002 39.85 27.6197C39.7654 27.6262 39.6829 27.6495 39.6074 27.6882C39.5318 27.7269 39.4648 27.7803 39.4101 27.8452C39.3555 27.9101 39.3143 27.9853 39.2891 28.0663C39.2638 28.1474 39.255 28.2326 39.263 28.3171Z" fill="#263238"/>
<path d="M38.1039 26.5778C38.1977 26.6514 38.6393 26.2098 39.3477 26.1012C40.0562 25.9926 40.6266 26.2705 40.691 26.1711C40.7223 26.127 40.6155 25.9871 40.3653 25.8546C40.0267 25.6903 39.6459 25.6338 39.2741 25.6927C38.906 25.7474 38.565 25.9182 38.3008 26.1803C38.1075 26.379 38.0579 26.5391 38.1039 26.5778Z" fill="#263238"/>
<path d="M45.8009 27.2535C45.8251 27.4254 45.9158 27.581 46.0533 27.6869C46.1909 27.7929 46.3645 27.8407 46.5369 27.8203C46.6215 27.8143 46.7041 27.7914 46.7797 27.7529C46.8554 27.7145 46.9225 27.6613 46.9773 27.5964C47.032 27.5316 47.0731 27.4564 47.0983 27.3754C47.1235 27.2944 47.1322 27.2091 47.1239 27.1247C47.0996 26.9528 47.009 26.7972 46.8714 26.6913C46.7338 26.5854 46.5603 26.5375 46.3878 26.558C46.3033 26.5642 46.2208 26.5873 46.1453 26.6258C46.0698 26.6643 46.0028 26.7175 45.9481 26.7823C45.8934 26.8471 45.8522 26.9221 45.8269 27.0031C45.8017 27.084 45.7928 27.1691 45.8009 27.2535Z" fill="#263238"/>
<path d="M44.8329 25.6416C44.9268 25.7152 45.3702 25.2736 46.0768 25.165C46.7834 25.0565 47.3556 25.3343 47.4201 25.2349C47.4513 25.1908 47.3446 25.0509 47.0944 24.9185C46.7552 24.7538 46.3737 24.6973 46.0014 24.7565C45.6286 24.8115 45.2834 24.985 45.0169 25.2515C44.8329 25.4355 44.7833 25.6195 44.8329 25.6416Z" fill="#263238"/>
<path d="M43.3094 31.2848C43.3094 31.2443 42.8549 31.2351 42.1299 31.2535C41.9459 31.2535 41.7619 31.2535 41.7195 31.1339C41.6772 31.0143 41.703 30.8045 41.7582 30.5819C41.8612 30.1194 41.9698 29.6342 42.0839 29.1264C42.5255 27.0545 42.8199 25.3635 42.7334 25.3469C42.6469 25.3304 42.2237 27.003 41.7803 29.0638C41.6754 29.5735 41.5742 30.0611 41.4803 30.5267C41.4435 30.742 41.3607 30.9922 41.4951 31.248C41.5303 31.3081 41.5791 31.3592 41.6376 31.3972C41.696 31.4352 41.7625 31.4591 41.8318 31.4669C41.9356 31.481 42.0408 31.481 42.1446 31.4669C42.8677 31.3897 43.313 31.3234 43.3094 31.2848Z" fill="#263238"/>
<path d="M44.0969 39.7276C46.5163 39.3951 48.7956 38.3968 50.6806 36.8442C50.6806 36.8442 49.0743 40.8648 44.4245 41.2696L44.0969 39.7276Z" fill="#FF9A6C"/>
<path d="M43.8689 32.9444C43.9774 32.7546 44.1325 32.5955 44.3196 32.4822C44.5066 32.3689 44.7194 32.3051 44.9379 32.2967C45.0967 32.2876 45.2558 32.3108 45.4054 32.3648C45.555 32.4189 45.692 32.5028 45.8083 32.6114C45.9208 32.7151 45.9988 32.8507 46.0317 33.0001C46.0646 33.1495 46.0508 33.3054 45.9923 33.4468C45.8432 33.743 45.4531 33.8663 45.1017 33.8148C44.7496 33.7477 44.4144 33.6114 44.1154 33.4137C44.0264 33.368 43.947 33.3055 43.8817 33.2297C43.8497 33.1947 43.8287 33.1511 43.8215 33.1042C43.8143 33.0574 43.8212 33.0095 43.8413 32.9665" fill="#FF9A6C"/>
<path d="M45.4659 31.4559C45.3481 31.467 45.4659 32.2361 44.8899 32.8801C44.314 33.5242 43.4878 33.5665 43.497 33.6732C43.497 33.7247 43.7031 33.7946 44.049 33.7523C44.5 33.6898 44.9144 33.4702 45.2193 33.1322C45.5119 32.8084 45.667 32.3834 45.6517 31.9472C45.6315 31.6215 45.5174 31.4449 45.4659 31.4559Z" fill="#263238"/>
<path d="M44.6306 23.5291C44.73 23.7131 45.4218 23.5125 46.2664 23.4849C47.111 23.4573 47.8176 23.5824 47.9004 23.3929C47.9372 23.3028 47.7937 23.1408 47.4937 22.9955C47.0978 22.8226 46.6678 22.742 46.2361 22.7599C45.8045 22.7777 45.3826 22.8935 45.0023 23.0985C44.7171 23.2678 44.5864 23.4426 44.6306 23.5291Z" fill="#263238"/>
<path d="M37.8407 23.4556C37.9898 23.5973 38.4516 23.3563 39.0368 23.2588C39.6219 23.1612 40.1408 23.2017 40.2218 23.0159C40.2604 22.9257 40.1574 22.7785 39.9182 22.6589C39.5992 22.5215 39.2466 22.4818 38.905 22.5447C38.5634 22.6075 38.2482 22.7702 37.999 23.0122C37.8131 23.2091 37.7708 23.3857 37.8407 23.4556Z" fill="#263238"/>
<path d="M54.4142 18.786C53.0746 15.945 48.2279 12.4176 45.1513 13.0487L40.5898 16.6847C40.8638 17.5097 41.3554 18.2455 42.0129 18.8142C42.6704 19.3829 43.4693 19.7635 44.3251 19.9158C45.236 20.0667 46.3032 19.9986 46.9251 20.6831C47.5471 21.3676 47.398 22.5452 47.9997 23.2721C48.8333 24.2804 50.7028 23.9786 51.3762 25.1011C51.6725 25.5905 51.6375 26.2272 51.9393 26.713C52.3441 27.3588 54.2007 28.001 54.8834 27.6735C55.566 27.3459 55.4115 26.1241 55.5605 25.4488C55.8163 24.2988 55.5734 23.7523 55.36 23.1561C54.8613 21.743 55.0545 20.1403 54.4142 18.786Z" fill="#263238"/>
<path d="M52.8464 28.5629C52.7894 28.1802 53.093 27.2142 53.461 27.0909C54.4436 26.7817 56.2707 26.5849 56.6774 29.1388C57.2294 32.6349 53.6155 32.4675 53.5916 32.3681C53.5677 32.2688 53.0451 29.8767 52.8464 28.5629Z" fill="#FFBF9D"/>
<path d="M54.4472 30.8783C54.4619 30.8636 54.5153 30.9114 54.6312 30.9409C54.7856 30.9808 54.9496 30.9583 55.0876 30.8783C55.4335 30.6851 55.6506 30.0503 55.5678 29.4173C55.5288 29.1169 55.4232 28.829 55.2587 28.5746C55.2088 28.4706 55.1343 28.3804 55.0416 28.3118C54.9489 28.2432 54.8409 28.1982 54.7269 28.1808C54.6541 28.1733 54.581 28.1916 54.5204 28.2327C54.4598 28.2738 54.4157 28.3349 54.3957 28.4053C54.3644 28.5102 54.3957 28.5764 54.3791 28.5893C54.3626 28.6022 54.2963 28.5433 54.3 28.3943C54.3061 28.3051 54.3424 28.2207 54.4031 28.155C54.4872 28.0665 54.603 28.0149 54.7251 28.0115C54.9974 27.9876 55.2771 28.1955 55.4464 28.4513C55.6434 28.7303 55.7697 29.0529 55.8144 29.3916C55.9045 30.0981 55.6488 30.8139 55.1667 31.0476C55.0776 31.09 54.9801 31.112 54.8815 31.112C54.7828 31.112 54.6854 31.09 54.5963 31.0476C54.4675 30.9556 54.4362 30.8857 54.4472 30.8783Z" fill="#FF9A6C"/>
<path d="M41.4878 15.5085C41.3277 16.9805 39.3643 19.0506 38.5437 20.2705C36.9668 22.5982 36.6871 23.3434 37.2428 28.0834C36.1976 26.5433 35.3586 25.0124 35.2187 23.1557C35.0789 21.2991 35.5462 19.3726 36.6797 17.8969C37.8132 16.4211 39.6367 15.4496 41.497 15.5048" fill="#263238"/>
<path d="M49.825 10.5164C50.561 9.70493 51.6245 9.17683 52.7286 8.90083C54.3018 8.50705 56.0296 8.61378 57.4612 9.29828C58.8927 9.98278 60.0004 11.2671 60.2893 12.7392C60.4314 13.4954 60.3646 14.2759 60.0961 14.997C59.8277 15.718 59.3677 16.3523 58.7658 16.8315C59.5844 17.6251 60.5823 18.2096 61.6749 18.5353C61.3768 18.9825 60.8266 19.2438 60.2709 19.3376C59.7123 19.4075 59.1468 19.4037 58.5891 19.3266C58.9698 19.8954 59.5395 20.3113 60.1973 20.5005C59.2918 20.7096 58.3473 20.6785 57.4575 20.4104C56.5872 20.1466 55.7542 19.7724 54.9789 19.2971C52.2869 17.7349 50.802 16.3659 48.984 13.961C48.7467 12.9232 49.0834 11.3297 49.825 10.5164Z" fill="#263238"/>
<path d="M55.6286 17.8917C53.6524 15.0047 51.137 13.4608 48.8609 12.9806L55.6286 17.8917Z" fill="#263238"/>
<path d="M48.8609 12.9806C48.9652 13.0223 49.073 13.055 49.1829 13.0781C49.3908 13.137 49.6908 13.2272 50.0514 13.3652C50.9904 13.7299 51.8731 14.2255 52.6735 14.8372C53.474 15.4474 54.2035 16.1455 54.8484 16.9183C55.0913 17.2182 55.2882 17.4703 55.4152 17.6359C55.4784 17.7298 55.5498 17.8178 55.6286 17.8991C55.5754 17.7984 55.5138 17.7024 55.4446 17.612C55.3268 17.428 55.1392 17.1796 54.9018 16.876C54.2731 16.08 53.5488 15.3643 52.7453 14.7452C51.9353 14.1274 51.0355 13.6371 50.0772 13.2916C49.7881 13.1887 49.4932 13.1033 49.194 13.0358C49.0846 13.0085 48.9732 12.9901 48.8609 12.9806Z" fill="#455A64"/>
<path d="M57.9838 20.3511L57.9396 20.3659L57.8108 20.4174C57.7004 20.4652 57.5348 20.5278 57.3177 20.6014C56.704 20.8068 56.0676 20.9366 55.4224 20.9878C54.466 21.059 53.5043 20.9971 52.5648 20.8038C51.4142 20.5621 50.2892 20.2115 49.2049 19.7568C48.0457 19.2839 46.9527 18.7981 45.9793 18.3216C45.1147 17.9032 44.2825 17.421 43.4897 16.879C42.9567 16.5118 42.4534 16.1033 41.9845 15.6572C41.8152 15.5008 41.6938 15.3701 41.6165 15.2891L41.519 15.1916C41.4969 15.1714 41.4859 15.1603 41.484 15.1622C41.4822 15.164 41.484 15.1751 41.5116 15.199L41.6018 15.3039C41.6809 15.3959 41.7987 15.5302 41.9698 15.6921C42.4309 16.1513 42.9301 16.5705 43.4621 16.9452C44.2522 17.5002 45.0846 17.9924 45.9517 18.4172C46.9269 18.9012 48.0181 19.3906 49.1791 19.8654C50.2702 20.3213 51.4028 20.6707 52.5612 20.9087C53.5099 21.098 54.4808 21.1513 55.4445 21.0669C56.0888 21.008 56.723 20.8683 57.3324 20.6511C57.5477 20.5683 57.7115 20.5002 57.82 20.445L57.9433 20.3843C57.9709 20.3603 57.9856 20.353 57.9838 20.3511Z" fill="#455A64"/>
<path d="M47.558 37.6789L47.2249 37.0275C47.2488 37.0146 49.5599 35.8296 50.4487 35.0826C52.5427 33.3235 54.4674 30.5137 54.4876 30.4824L55.0948 30.8964C55.0139 31.016 53.0947 33.8184 50.9216 35.6438C49.9648 36.4424 47.6555 37.6292 47.558 37.6789Z" fill="#455A64"/>
<path d="M49.2785 35.6462C49.2785 35.6462 46.121 37.0557 46.121 37.3685C46.121 37.6813 46.6215 38.307 46.9968 38.2757C47.3722 38.2444 48.4578 37.6335 48.6529 37.3832C48.8479 37.133 49.1939 36.489 49.5729 36.1762L49.2785 35.6462Z" fill="#263238"/>
<path d="M55.0691 26.1718L54.3331 26.1369C54.3598 24.0144 53.9942 21.9053 53.2548 19.9157C51.6577 15.8013 48.5866 13.5932 44.13 13.3504C43.7246 13.3326 43.3185 13.3604 42.9193 13.4332L43.2413 13.1277C43.3973 12.9804 43.5787 12.8626 43.7767 12.7799C44.0481 12.6665 44.3431 12.621 44.636 12.6475C50.2629 13.1351 52.8059 16.7121 53.9485 19.6709C54.727 21.7483 55.1071 23.9537 55.0691 26.1718Z" fill="#455A64"/>
<path d="M54.7012 32.8636C55.9887 32.8636 57.0325 31.3626 57.0325 29.511C57.0325 27.6594 55.9887 26.1584 54.7012 26.1584C53.4136 26.1584 52.3698 27.6594 52.3698 29.511C52.3698 31.3626 53.4136 32.8636 54.7012 32.8636Z" fill="#455A64"/>
<path d="M57.0325 29.5116C57.0303 29.4963 57.0303 29.4808 57.0325 29.4656C57.0325 29.4288 57.0325 29.3846 57.0215 29.3294C57.0133 29.1556 56.9954 28.9824 56.9681 28.8105C56.873 28.1766 56.6262 27.575 56.2487 27.0569C56.1215 26.8894 55.9745 26.7381 55.8107 26.6061C55.6324 26.4657 55.4314 26.3568 55.2164 26.2841C54.9862 26.2095 54.7426 26.1863 54.5025 26.216C54.2485 26.2542 54.0053 26.345 53.7885 26.4828C53.3292 26.8024 52.9746 27.2505 52.7691 27.7709C52.5393 28.325 52.421 28.919 52.421 29.5189C52.421 30.1188 52.5393 30.7128 52.7691 31.267C52.9744 31.7875 53.3291 32.2356 53.7885 32.555C54.0053 32.6928 54.2485 32.7837 54.5025 32.8218C54.7426 32.8507 54.9861 32.8274 55.2164 32.7537C55.4314 32.6811 55.6324 32.5722 55.8107 32.4317C55.974 32.2993 56.121 32.148 56.2487 31.9809C56.6262 31.4629 56.873 30.8613 56.9681 30.2273C56.9953 30.0555 57.0132 29.8823 57.0215 29.7084C57.0215 29.6532 57.0215 29.6091 57.0325 29.5723C57.0301 29.557 57.0301 29.5415 57.0325 29.5263C57.0354 29.5415 57.0354 29.5571 57.0325 29.5723V29.7084C57.0306 29.8838 57.0183 30.0589 56.9957 30.2329C56.9134 30.8781 56.6719 31.4927 56.2928 32.0214C56.164 32.1947 56.0144 32.3517 55.8475 32.4888C55.6635 32.6374 55.4549 32.7526 55.2311 32.8292C54.9899 32.9083 54.7344 32.9341 54.4822 32.9046C54.2159 32.8664 53.9607 32.7724 53.7333 32.6286C53.2572 32.3047 52.8888 31.8459 52.6753 31.3111C52.4384 30.7459 52.3165 30.1391 52.3165 29.5263C52.3165 28.9134 52.4384 28.3067 52.6753 27.7414C52.8888 27.2066 53.2572 26.7478 53.7333 26.424C53.9607 26.2802 54.2159 26.1861 54.4822 26.1479C54.7344 26.1185 54.9899 26.1442 55.2311 26.2234C55.4549 26.3 55.6635 26.4152 55.8475 26.5638C56.0149 26.7004 56.1645 26.8574 56.2928 27.0312C56.6724 27.5595 56.914 28.1743 56.9957 28.8197C57.0182 28.993 57.0305 29.1675 57.0325 29.3423V29.4803C57.0338 29.4907 57.0338 29.5012 57.0325 29.5116Z" fill="#263238"/>
<path d="M55.06 31.4579C55.8801 31.4579 56.5449 30.5023 56.5449 29.3234C56.5449 28.1446 55.8801 27.189 55.06 27.189C54.2399 27.189 53.5751 28.1446 53.5751 29.3234C53.5751 30.5023 54.2399 31.4579 55.06 31.4579Z" fill="#455A64"/>
<path d="M56.5449 29.323C56.5338 29.323 56.5449 29.1611 56.4915 28.8759C56.4299 28.476 56.2721 28.0971 56.0315 27.7718C55.8679 27.5487 55.6409 27.3801 55.3801 27.2879C55.2353 27.2413 55.0821 27.2269 54.9311 27.2456C54.772 27.2693 54.6196 27.3264 54.484 27.413C54.1953 27.6142 53.9719 27.8957 53.8418 28.2227C53.6963 28.5725 53.6218 28.9478 53.6229 29.3267C53.621 29.7057 53.6955 30.0811 53.8418 30.4307C53.9719 30.7577 54.1953 31.0392 54.484 31.2404C54.6196 31.327 54.772 31.3841 54.9311 31.4078C55.0821 31.4265 55.2353 31.4121 55.3801 31.3655C55.6409 31.2733 55.8679 31.1046 56.0315 30.8815C56.2721 30.5563 56.4299 30.1774 56.4915 29.7775C56.5375 29.4923 56.5338 29.3304 56.5449 29.3322C56.5473 29.3708 56.5473 29.4095 56.5449 29.4481C56.5446 29.5601 56.5372 29.672 56.5228 29.783C56.474 30.1959 56.3214 30.5896 56.0793 30.9275C55.9107 31.166 55.6731 31.3471 55.3985 31.4464C55.2436 31.4991 55.0789 31.5167 54.9164 31.498C54.744 31.4712 54.5791 31.4085 54.4325 31.314C54.1266 31.1064 53.8896 30.8123 53.7517 30.4694C53.5999 30.1072 53.5217 29.7185 53.5217 29.3258C53.5217 28.9331 53.5999 28.5443 53.7517 28.1822C53.8896 27.8392 54.1266 27.5452 54.4325 27.3376C54.5786 27.2433 54.7428 27.1807 54.9146 27.1536C55.0777 27.1349 55.243 27.1525 55.3985 27.2051C55.6731 27.3045 55.9107 27.4856 56.0793 27.724C56.3214 28.062 56.474 28.4557 56.5228 28.8685C56.5372 28.9796 56.5446 29.0914 56.5449 29.2034C56.5473 29.2432 56.5473 29.2832 56.5449 29.323Z" fill="#263238"/>
<path d="M55.1629 30.8579C55.7524 30.8579 56.2302 30.1708 56.2302 29.3233C56.2302 28.4758 55.7524 27.7887 55.1629 27.7887C54.5735 27.7887 54.0957 28.4758 54.0957 29.3233C54.0957 30.1708 54.5735 30.8579 55.1629 30.8579Z" fill="#455A64"/>
<path d="M56.2303 29.3235C56.2211 29.3235 56.2211 29.2076 56.188 29.0033C56.1406 28.7162 56.0259 28.4444 55.8531 28.2102C55.7367 28.0515 55.5751 27.9315 55.3894 27.8662C55.2836 27.8323 55.1716 27.8229 55.0616 27.8385C54.9517 27.8541 54.8467 27.8944 54.7546 27.9563C54.3553 28.2194 54.1437 28.7715 54.1418 29.3216C54.14 29.8718 54.3553 30.4257 54.7546 30.6888C54.8467 30.7507 54.9517 30.791 55.0616 30.8066C55.1716 30.8223 55.2836 30.8128 55.3894 30.779C55.5751 30.7136 55.7367 30.5937 55.8531 30.4349C56.0259 30.2007 56.1406 29.9289 56.188 29.6418C56.2211 29.4376 56.2211 29.3216 56.2303 29.3235C56.2347 29.3509 56.2347 29.3789 56.2303 29.4063C56.2312 29.4868 56.2269 29.5673 56.2174 29.6473C56.1843 29.9464 56.0754 30.232 55.9009 30.4772C55.7767 30.6469 55.6042 30.7751 55.4059 30.8452C55.2929 30.8832 55.1731 30.8964 55.0545 30.8838C54.9289 30.8665 54.8085 30.8226 54.7012 30.755C54.4785 30.6043 54.3061 30.3902 54.2062 30.1405C54.0955 29.8785 54.0385 29.5969 54.0385 29.3124C54.0385 29.028 54.0955 28.7464 54.2062 28.4844C54.3061 28.2347 54.4785 28.0206 54.7012 27.8698C54.8085 27.8023 54.9289 27.7584 55.0545 27.741C55.1731 27.7285 55.2929 27.7417 55.4059 27.7797C55.6042 27.8498 55.7767 27.978 55.9009 28.1477C56.0754 28.3928 56.1843 28.6785 56.2174 28.9776C56.2269 29.0575 56.2312 29.1381 56.2303 29.2186C56.2369 29.2532 56.2369 29.2888 56.2303 29.3235Z" fill="#263238"/>
</svg>
