<svg width="32" height="32" viewBox="0 0 32 32" fill="none" xmlns="http://www.w3.org/2000/svg">
<path fill-rule="evenodd" clip-rule="evenodd" d="M9.31851 6.52073C13.7661 6.17278 18.234 6.17278 22.6816 6.52073L25.6692 6.75447C27.3333 6.88466 28.6946 8.13185 28.9697 9.77821C29.658 13.8975 29.658 18.1025 28.9697 22.2219C28.6946 23.8682 27.3333 25.1154 25.6692 25.2456L22.6816 25.4793C18.234 25.8273 13.7661 25.8273 9.31851 25.4793L6.33091 25.2456C4.66681 25.1154 3.30545 23.8682 3.03037 22.2219C2.34209 18.1025 2.34209 13.8975 3.03037 9.77821C3.30545 8.13185 4.66681 6.88466 6.33091 6.75447L9.31851 6.52073ZM13.3333 19.2936V12.7065C13.3333 12.3956 13.6725 12.2036 13.9391 12.3635L19.4283 15.657C19.6873 15.8124 19.6873 16.1877 19.4283 16.343L13.9391 19.6366C13.6725 19.7965 13.3333 19.6045 13.3333 19.2936Z" fill="#196719"/>
</svg>
