<svg width="32" height="32" viewBox="0 0 32 32" fill="none" xmlns="http://www.w3.org/2000/svg">
<path d="M29.0797 8.3029C29.157 8.19521 29.0428 8.05616 28.9192 8.10406C28.0409 8.4445 27.123 8.67419 26.1867 8.78739C27.2293 8.16455 28.0337 7.21645 28.4799 6.09396C28.5253 5.97962 28.4004 5.8775 28.2927 5.93699C27.3238 6.4721 26.2788 6.85743 25.1932 7.07935C25.1478 7.08864 25.1009 7.07317 25.069 7.03951C24.2544 6.17994 23.1821 5.60763 22.0131 5.40985C20.8196 5.20793 19.5928 5.40786 18.5251 5.9783C17.4574 6.54875 16.6093 7.45743 16.1137 8.56183C15.6425 9.61191 15.5153 10.7825 15.7477 11.9066C15.7658 11.9939 15.6975 12.0762 15.6086 12.0707C13.4965 11.9395 11.4329 11.3777 9.54491 10.4192C7.66169 9.46311 5.99405 8.13302 4.64356 6.51098C4.58362 6.43899 4.47002 6.44831 4.42635 6.53118C4.00613 7.3286 3.78611 8.21739 3.7867 9.12072C3.785 10.0199 4.00566 10.9055 4.42904 11.6988C4.85243 12.4921 5.46539 13.1683 6.21337 13.6674C5.42014 13.6458 4.64237 13.4497 3.93503 13.0941C3.84388 13.0483 3.73454 13.1136 3.73928 13.2155C3.79443 14.4011 4.22971 15.5914 4.98312 16.5047C5.78488 17.4765 6.89771 18.1416 8.13337 18.3874C7.65771 18.5321 7.16387 18.6085 6.6667 18.6141C6.39612 18.6109 6.12606 18.5909 5.85808 18.5543C5.75873 18.5407 5.67759 18.6351 5.71238 18.7291C6.08093 19.7258 6.73203 20.5955 7.58814 21.2303C8.50341 21.9089 9.60747 22.2855 10.7467 22.3074C8.82297 23.8211 6.44788 24.6472 4.00004 24.6541C3.74851 24.6549 3.4971 24.6467 3.24628 24.6296C3.10494 24.62 3.03993 24.8083 3.16176 24.8806C5.54679 26.296 8.27282 27.0441 11.0534 27.0407C13.1063 27.062 15.1429 26.6741 17.0442 25.8995C18.9455 25.1249 20.6734 23.9792 22.127 22.5294C23.5805 21.0795 24.7307 19.3546 25.5101 17.4553C26.2896 15.5559 26.6828 13.5204 26.6667 11.4674V10.8276C26.6667 10.7855 26.6866 10.7459 26.7202 10.7206C27.6246 10.0377 28.4199 9.22246 29.0797 8.3029Z" fill="#196719"/>
</svg>
