<svg width="32" height="32" viewBox="0 0 32 32" fill="none" xmlns="http://www.w3.org/2000/svg">
<path fill-rule="evenodd" clip-rule="evenodd" d="M24.6441 26.3868L24.645 26.3845L24.6682 26.3265L28.6666 6.16774V6.10226C28.6666 5.59999 28.481 5.16151 28.0772 4.8985C27.7237 4.66828 27.3174 4.65189 27.0324 4.67352C26.7311 4.69639 26.4469 4.77161 26.2502 4.83422C26.149 4.86644 26.0643 4.89747 26.0037 4.92095C25.9733 4.93273 25.9487 4.94273 25.9308 4.95018L25.9132 4.95759L3.62006 13.7028L3.61393 13.705C3.60189 13.7094 3.58597 13.7154 3.56674 13.7228C3.5284 13.7378 3.47621 13.7591 3.4149 13.7869C3.29453 13.8415 3.12821 13.9257 2.95954 14.0412C2.67307 14.2373 2.12759 14.7018 2.2197 15.4381C2.29599 16.0479 2.7164 16.4353 2.99982 16.6358C3.15175 16.7433 3.2971 16.8208 3.40354 16.8715C3.45747 16.8972 3.50328 16.9168 3.5374 16.9307C3.5545 16.9377 3.5688 16.9433 3.57987 16.9475L3.59404 16.9528L3.60309 16.9561L7.50341 18.2692C7.49025 18.5139 7.51452 18.7634 7.57942 19.0096L9.53313 26.4208C9.76478 27.2996 10.5597 27.9117 11.4685 27.911C12.2831 27.9104 13.0055 27.4176 13.3124 26.6824L16.3627 23.421L21.6013 27.4373L21.6758 27.4698C22.1518 27.6775 22.5964 27.7433 23.003 27.6877C23.409 27.6323 23.7316 27.462 23.974 27.2681C24.2124 27.0773 24.3759 26.862 24.4787 26.6999C24.5309 26.6175 24.5698 26.5451 24.5968 26.4906C24.6104 26.4633 24.6211 26.4401 24.6291 26.4221L24.6391 26.3989L24.6427 26.3903L24.6441 26.3868ZM9.51328 18.4998C9.46888 18.3313 9.53859 18.1535 9.68564 18.0601L22.915 9.65893C22.915 9.65893 23.6931 9.18653 23.6653 9.65893C23.6653 9.65893 23.8042 9.74235 23.3872 10.1313C22.9917 10.5008 13.9583 19.2222 13.0443 20.1047C12.9915 20.1556 12.96 20.2141 12.9414 20.285L11.467 25.911L9.51328 18.4998Z" fill="#196719"/>
</svg>
