<svg width="32" height="32" viewBox="0 0 32 32" fill="none" xmlns="http://www.w3.org/2000/svg">
<path fill-rule="evenodd" clip-rule="evenodd" d="M24.6442 26.3868L24.6452 26.3845L24.6684 26.3265L28.6667 6.16774V6.10226C28.6667 5.59999 28.4812 5.16151 28.0773 4.8985C27.7238 4.66828 27.3175 4.65189 27.0326 4.67352C26.7312 4.69639 26.447 4.77161 26.2503 4.83422C26.1491 4.86644 26.0644 4.89747 26.0038 4.92095C25.9734 4.93273 25.9488 4.94273 25.9309 4.95018L25.9133 4.95759L3.62019 13.7028L3.61405 13.705C3.60201 13.7094 3.58609 13.7154 3.56686 13.7228C3.52852 13.7378 3.47633 13.7591 3.41502 13.7869C3.29465 13.8415 3.12834 13.9257 2.95967 14.0412C2.6732 14.2373 2.12771 14.7018 2.21982 15.4381C2.29611 16.0479 2.71652 16.4353 2.99994 16.6358C3.15187 16.7433 3.29722 16.8208 3.40366 16.8715C3.45759 16.8972 3.5034 16.9168 3.53752 16.9307C3.55462 16.9377 3.56893 16.9433 3.57999 16.9475L3.59416 16.9528L3.60321 16.9561L7.50354 18.2692C7.49037 18.5139 7.51464 18.7634 7.57954 19.0096L9.53325 26.4208C9.7649 27.2996 10.5599 27.9117 11.4686 27.911C12.2832 27.9104 13.0056 27.4176 13.3126 26.6824L16.3628 23.421L21.6014 27.4373L21.6759 27.4698C22.1519 27.6775 22.5965 27.7433 23.0031 27.6877C23.4091 27.6323 23.7317 27.462 23.9741 27.2681C24.2126 27.0773 24.376 26.862 24.4788 26.6999C24.531 26.6175 24.5699 26.5451 24.5969 26.4906C24.6105 26.4633 24.6212 26.4401 24.6292 26.4221L24.6393 26.3989L24.6428 26.3903L24.6442 26.3868ZM9.51341 18.4998C9.469 18.3313 9.53871 18.1535 9.68576 18.0601L22.9151 9.65893C22.9151 9.65893 23.6932 9.18653 23.6654 9.65893C23.6654 9.65893 23.8043 9.74235 23.3873 10.1313C22.9918 10.5008 13.9584 19.2222 13.0444 20.1047C12.9916 20.1556 12.9601 20.2141 12.9415 20.285L11.4671 25.911L9.51341 18.4998Z" fill="#196719"/>
</svg>
