<svg width="80" height="81" viewBox="0 0 80 81" fill="none" xmlns="http://www.w3.org/2000/svg">
<path d="M66.8363 9.17603L74.4836 9.17603V6.92289L66.8363 6.92289V9.17603Z" fill="#EBEBEB"/>
<path d="M71.1009 4.08176C72.3755 4.06163 75.5891 4.00927 76.8214 3.99719H78.7483H78.8409V4.08982V6.34295V6.44362H78.7402L74.9146 6.42953C73.9622 6.42953 72.0433 6.40134 71.0889 6.38724H71.0607V6.34295L71.105 4.08982L71.1009 4.08176ZM71.1009 4.08176L71.1472 6.33489L71.1009 6.28858C72.0554 6.2765 73.9722 6.25636 74.9266 6.24831L78.7523 6.23422L78.6516 6.33489L78.6617 4.08176L78.7523 4.17438L76.8576 4.16432C75.6495 4.15223 72.3594 4.1019 71.105 4.08176H71.1009Z" fill="#EBEBEB"/>
<path d="M62.5676 4.08176C63.8422 4.06163 67.0578 4.00927 68.288 3.99719H70.217H70.3076V4.08982V6.34295V6.44362H70.2069L66.3812 6.42953C65.4288 6.42953 63.5079 6.40134 62.5555 6.38724H62.5092V6.34295L62.5535 4.08982L62.5676 4.08176ZM62.5676 4.08176L62.6139 6.33489L62.5676 6.28858C63.522 6.2765 65.4389 6.25636 66.3933 6.24831L70.219 6.23422L70.1183 6.33489V4.08176L70.2109 4.17438L68.3142 4.16432C67.1061 4.15223 63.816 4.1019 62.5616 4.08176H62.5676Z" fill="#EBEBEB"/>
<path d="M1.75926 4.08176C3.0318 4.06163 6.2474 4.00927 7.47766 3.99719H9.40662H9.49924V4.08982V6.34295V6.44362H9.39856L5.57287 6.42953C4.62047 6.42953 2.70159 6.40134 1.74718 6.38724H1.70087V6.34295L1.74718 4.08982L1.75926 4.08176ZM1.75926 4.08176L1.7955 6.33489L1.7512 6.28858C2.70561 6.2765 4.62047 6.25636 5.5769 6.24831L9.40259 6.23422L9.30191 6.33489V4.08176L9.39453 4.17438L7.4978 4.16432C6.28968 4.15223 2.99959 4.1019 1.74718 4.08176H1.75926Z" fill="#EBEBEB"/>
<path d="M6.02592 70.4958H13.6733V68.2427H6.02592V70.4958Z" fill="#EBEBEB"/>
<path d="M1.75926 65.4037C3.0318 65.3815 6.2474 65.3312 7.47766 65.3191H9.40662H9.49924V65.4117V67.6648V67.7655H9.39856L5.57287 67.7514C4.62047 67.7514 2.70159 67.7232 1.74718 67.7091H1.70087V67.6648L1.74718 65.4117L1.75926 65.4037ZM1.75926 65.4037L1.7955 67.6568L1.7512 67.6105C2.70561 67.5984 4.62047 67.5783 5.5769 67.5702L9.40259 67.5561L9.30191 67.6568V65.4037L9.39453 65.4943H7.4978C6.28968 65.4822 2.99959 65.4318 1.74718 65.4117L1.75926 65.4037Z" fill="#EBEBEB"/>
<path d="M20.0198 21.104C21.2944 21.0839 24.508 21.0336 25.7402 21.0215H27.6672H27.7699V21.1141V23.3672V23.4679H27.6692L23.8435 23.4538C22.8911 23.4538 20.9722 23.4256 20.0178 23.4135H19.9715V23.3692L20.0158 21.1161L20.0198 21.104ZM20.0198 21.104L20.0641 23.3572L20.0198 23.3129C20.9742 23.2988 22.8911 23.2786 23.8455 23.2706L27.6712 23.2565L27.5705 23.3572V21.104L27.6631 21.1967H25.7684C24.5603 21.1846 21.2702 21.1322 20.0158 21.1121L20.0198 21.104Z" fill="#EBEBEB"/>
<path d="M71.1009 68.2408C72.3755 68.2206 75.5891 68.1703 76.8214 68.1582H78.7483H78.8409V68.2508V70.504V70.6066H78.7402L74.9146 70.5926C73.9622 70.5926 72.0433 70.5644 71.0889 70.5523H71.0607V70.506L71.105 68.2528L71.1009 68.2408ZM71.1009 68.2408L71.1472 70.4939L71.1009 70.4496C72.0554 70.4355 73.9722 70.4154 74.9266 70.4073L78.7523 70.3932L78.6516 70.4939L78.6617 68.2408L78.7523 68.3334H76.8576C75.6495 68.3213 72.3594 68.2689 71.105 68.2488L71.1009 68.2408Z" fill="#EBEBEB"/>
<path d="M58.5485 39.7151H50.9012V41.9682H58.5485V39.7151Z" fill="#EBEBEB"/>
<path d="M54.2819 44.8094C53.0074 44.8295 49.7938 44.8819 48.5615 44.8939H46.6346H46.5419V44.8013V42.5482V42.4475H46.6426L50.4683 42.4616C51.4207 42.4616 53.3396 42.4898 54.294 42.5039H54.3403V42.5522L54.294 44.8053L54.2819 44.8094ZM54.2819 44.8094L54.2376 42.5522L54.2819 42.5985C53.3275 42.6106 51.4126 42.6307 50.4562 42.6388L46.6305 42.6529L46.7312 42.5522V44.8053L46.6386 44.7127L48.5353 44.7228C49.7434 44.7349 53.0315 44.7852 54.2859 44.8053L54.2819 44.8094Z" fill="#EBEBEB"/>
<path d="M7.04273 40.6091L0.140376 19.3967C-0.0996014 18.6308 -0.0299476 17.8013 0.334404 17.0862C0.698756 16.371 1.3288 15.8271 2.08947 15.571C2.85126 15.3334 3.67614 15.4069 4.3839 15.7755C5.09167 16.1441 5.6248 16.7778 5.86683 17.5382L12.7692 38.7466C12.8974 39.1209 12.9499 39.5169 12.9237 39.9116C12.8975 40.3064 12.7932 40.692 12.6167 41.0461C12.4402 41.4001 12.1952 41.7156 11.8957 41.9742C11.5963 42.2327 11.2485 42.4292 10.8724 42.5522C10.4934 42.6769 10.0935 42.7256 9.69566 42.6954C9.2978 42.6652 8.90982 42.5567 8.55399 42.3761C8.19816 42.1956 7.88149 41.9466 7.62214 41.6433C7.3628 41.3401 7.16589 40.9886 7.04273 40.6091ZM14.0498 52.3298C13.6707 52.4552 13.2705 52.5042 12.8724 52.4739C12.4742 52.4437 12.0861 52.3347 11.7303 52.1535C11.3745 51.9722 11.0582 51.7222 10.7997 51.4179C10.5411 51.1137 10.3455 50.7611 10.2241 50.3808L9.88179 49.3297C9.6402 48.5638 9.7091 47.7337 10.0737 47.0181C10.4382 46.3025 11.0693 45.7588 11.8309 45.504C12.5921 45.2669 13.4163 45.3405 14.1235 45.7086C14.8308 46.0768 15.3638 46.7096 15.6062 47.4692L15.9485 48.5203C16.0779 48.8949 16.1312 49.2915 16.1055 49.687C16.0797 50.0824 15.9754 50.4688 15.7986 50.8235C15.6218 51.1782 15.3761 51.4941 15.0759 51.7527C14.7756 52.0114 14.4268 52.2076 14.0498 52.3298Z" fill="#EBEBEB"/>
<path d="M16.2747 27.5957L15.6042 11.3607C15.585 10.7757 15.7962 10.2066 16.1924 9.77581C16.5885 9.34501 17.138 9.08696 17.7225 9.0572C18.3033 9.04036 18.8672 9.25414 19.2909 9.65181C19.7146 10.0495 19.9637 10.5987 19.9836 11.1795L20.6541 27.4145C20.6718 27.7026 20.6317 27.9913 20.5363 28.2638C20.4409 28.5362 20.2921 28.7869 20.0986 29.001C19.905 29.2152 19.6707 29.3886 19.4093 29.511C19.1479 29.6334 18.8646 29.7024 18.5762 29.7139C18.2857 29.7272 17.9955 29.6827 17.7223 29.5832C17.449 29.4837 17.1982 29.3311 16.9842 29.1342C16.7703 28.9373 16.5974 28.6999 16.4757 28.4359C16.3539 28.1718 16.2856 27.8863 16.2747 27.5957ZM18.8923 37.1901C18.3061 37.2136 17.7346 37.0035 17.3031 36.606C16.8716 36.2085 16.6155 35.656 16.5909 35.0699L16.5586 34.2645C16.5394 33.6797 16.7507 33.1109 17.1469 32.6804C17.5431 32.2499 18.0925 31.9923 18.6769 31.963C19.2571 31.9495 19.8192 32.1661 20.2402 32.5657C20.6613 32.9652 20.9071 33.5152 20.924 34.0954L20.9582 34.9008C20.9736 35.1876 20.9321 35.4746 20.836 35.7452C20.7399 36.0159 20.5912 36.2648 20.3984 36.4777C20.2055 36.6905 19.9725 36.8631 19.7126 36.9854C19.4527 37.1077 19.1712 37.1772 18.8843 37.1901H18.8923Z" fill="#EBEBEB"/>
<path d="M79.5094 30.2979H64.8328V48.1014H79.5094V30.2979Z" fill="#EBEBEB"/>
<path d="M77.8321 31.9226H66.5101V46.4763H77.8321V31.9226Z" fill="white"/>
<path d="M66.951 31.9226H66.5101V46.4763H66.951V31.9226Z" fill="#C7C7C7"/>
<path d="M79.9503 30.2979H79.5093V48.1014H79.9503V30.2979Z" fill="#C7C7C7"/>
<path d="M72.9735 35.2874H70.3035V43.2408H72.9735V35.2874Z" fill="#DBDBDB"/>
<path d="M76.3582 37.9211H69.0471V33.8296H76.3663L76.3582 37.9211ZM69.2485 37.7197H76.1649V34.0309H69.2485V37.7197Z" fill="#EBEBEB"/>
<path d="M64.4925 7.45239H49.816V25.256H64.4925V7.45239Z" fill="#EBEBEB"/>
<path d="M62.8153 9.07727H51.4932V23.631H62.8153V9.07727Z" fill="white"/>
<path d="M51.9342 9.07727H51.4932V23.631H51.9342V9.07727Z" fill="#C7C7C7"/>
<path d="M64.9355 7.45239H64.4946V25.256H64.9355V7.45239Z" fill="#C7C7C7"/>
<path d="M58.3473 12.8386H56.0599V18.6215H58.3473V12.8386Z" fill="#EBEBEB"/>
<path d="M60.8561 20.4415H54.5095V16.2534H60.8561V20.4415ZM54.7108 20.2402H60.6547V16.4548H54.7108V20.2402Z" fill="#DBDBDB"/>
<path d="M46.9427 40.5044C56.5109 49.3035 63.5079 56.2381 63.967 59.6329C65.0604 67.687 60.3085 67.9387 59.5514 67.8742C54.3907 67.4292 44.5647 52.058 40.6464 43.6173C37.1529 36.0827 41.8384 35.8089 46.9427 40.5044Z" fill="#FCCE17"/>
<path opacity="0.1" d="M48.9965 46.5028C48.7707 46.9765 48.6148 47.4804 48.5334 47.9988C49.2006 47.1867 49.646 46.2155 49.8261 45.1799C49.4875 45.5788 49.2081 46.0243 48.9965 46.5028ZM60.6528 57.4523C60.4283 57.9264 60.273 58.4302 60.1917 58.9484C60.5292 58.5473 60.8085 58.1006 61.0213 57.6215C61.2458 57.1481 61.401 56.645 61.4824 56.1274C61.1445 56.5275 60.8651 56.9736 60.6528 57.4523ZM43.1231 38.6621C42.6497 38.4377 42.1466 38.2824 41.629 38.201C42.4404 38.8692 43.412 39.3141 44.448 39.4917C44.0484 39.1526 43.6022 38.8725 43.1231 38.6601V38.6621ZM60.0366 65.6011C59.5646 65.3741 59.062 65.2174 58.5446 65.1359C59.3559 65.805 60.3274 66.2512 61.3636 66.4306C60.9652 66.0909 60.5195 65.8108 60.0407 65.599L60.0366 65.6011ZM53.5934 59.8162C53.4171 59.3233 53.1724 58.8577 52.8665 58.4329C52.9094 58.955 53.0267 59.4683 53.2148 59.9572C53.3922 60.4497 53.6382 60.9147 53.9457 61.3384C53.9039 60.8162 53.7865 60.3028 53.5974 59.8142L53.5934 59.8162ZM55.4498 52.4427C54.956 52.6177 54.4901 52.8632 54.0666 53.1716C54.5909 53.1295 55.1064 53.0114 55.5968 52.8212C56.09 52.6439 56.5557 52.3978 56.9801 52.0903C56.4573 52.1336 55.9433 52.2516 55.4539 52.4407L55.4498 52.4427Z" fill="black"/>
<path opacity="0.1" d="M62.026 67.1353C61.303 67.6426 60.4341 67.8999 59.5514 67.8682C54.3907 67.4232 44.5648 52.05 40.6485 43.6113C39.239 40.5769 39.1605 38.7204 39.9014 37.8949L62.026 67.1353Z" fill="black"/>
<path d="M53.3699 80.4426L15.0022 80.3781C15.0988 79.5888 21.4918 43.9998 30.7721 35.8008C33.9595 32.9818 40.0565 35.0759 40.8216 35.7021C48.2454 41.7628 53.9296 79.9815 53.3699 80.4426Z" fill="#FCCE17"/>
<path opacity="0.1" d="M31.8211 51.458C31.5951 51.9314 31.4397 52.4355 31.36 52.954C32.0277 52.1424 32.4725 51.1708 32.6507 50.1351C32.3128 50.5345 32.0335 50.9799 31.8211 51.458ZM27.3531 72.1167C27.1292 72.5897 26.9733 73.092 26.89 73.6087C27.5572 72.7965 28.0026 71.8253 28.1827 70.7898C27.8453 71.191 27.566 71.6377 27.3531 72.1167ZM39.3155 70.7072C39.0884 71.1794 38.9311 71.6819 38.8483 72.1993C39.521 71.3903 39.9677 70.4177 40.143 69.3803C39.8057 69.7805 39.5271 70.2266 39.3155 70.7052V70.7072ZM43.1412 38.6701H43.125C42.6517 38.4456 42.1485 38.2903 41.631 38.209C42.031 38.5471 42.4771 38.8264 42.9559 39.0386C43.121 39.111 43.2861 39.1795 43.4553 39.2399C43.3485 39.0365 43.2459 38.8493 43.1412 38.6681V38.6701ZM45.4889 54.3373C45.0162 54.1131 44.5137 53.9578 43.9969 53.8762C44.3955 54.2152 44.8411 54.4946 45.3198 54.7058C45.7937 54.9298 46.2965 55.0863 46.8138 55.1709C46.4145 54.8309 45.9683 54.5501 45.4889 54.3373ZM47.4259 75.0383C46.9527 74.8132 46.4495 74.6572 45.9319 74.5752C46.3309 74.9147 46.7772 75.1941 47.2568 75.4048C47.7293 75.63 48.2318 75.786 48.7488 75.8679C48.348 75.53 47.9012 75.2507 47.4219 75.0383H47.4259ZM16.6372 74.392C16.4962 74.3296 16.3533 74.2712 16.2103 74.2168C16.1821 74.3437 16.1559 74.4685 16.1298 74.5933L16.468 74.7605C16.9409 74.9844 17.4433 75.1396 17.9601 75.2216C17.5597 74.8829 17.1129 74.6036 16.6331 74.392H16.6372ZM27.5444 59.5402C27.0721 59.3141 26.5695 59.1575 26.0524 59.0751C26.4517 59.4157 26.8987 59.6958 27.3793 59.9067C27.8522 60.1309 28.3546 60.2869 28.8713 60.3698C28.4696 60.0311 28.0214 59.7518 27.5404 59.5402H27.5444ZM41.6149 80.0037C41.6245 80.146 41.6413 80.2878 41.6652 80.4285H41.8968C41.8108 80.2818 41.7167 80.1399 41.6149 80.0037ZM32.842 41.191C32.6647 40.6978 32.4186 40.2321 32.1111 39.8077C32.1549 40.3297 32.2722 40.8428 32.4594 41.332C32.6359 41.8255 32.882 42.2913 33.1903 42.7152C33.1485 42.193 33.0311 41.6796 32.842 41.191ZM38.0771 58.1992C37.9013 57.7062 37.6566 57.2405 37.3503 56.8159C37.4562 57.8633 37.8322 58.8651 38.4416 59.7235C38.3948 59.2008 38.2735 58.6875 38.0812 58.1992H38.0771ZM21.1313 66.0842C20.9548 65.5919 20.7087 65.1274 20.4004 64.7049C20.5001 65.7505 20.8723 66.7516 21.4797 67.6084C21.4371 67.0867 21.3212 66.5736 21.1354 66.0842H21.1313ZM23.2194 79.3513C23.0443 78.8579 22.7996 78.392 22.4925 77.968C22.536 78.4902 22.654 79.0035 22.8428 79.4922C22.9552 79.8016 23.0898 80.1024 23.2455 80.3923H23.5013C23.4384 80.038 23.3454 79.6898 23.2234 79.3513H23.2194ZM47.0715 65.0553C46.5785 65.2312 46.1128 65.4759 45.6883 65.7822C46.7364 65.6817 47.7401 65.3089 48.5998 64.7009C48.0772 64.7431 47.5637 64.8618 47.0756 65.0533L47.0715 65.0553ZM33.4883 77.5552C32.9945 77.7307 32.528 77.9754 32.103 78.2821C33.1523 78.1824 34.1573 77.8104 35.0186 77.2029C34.4938 77.2433 33.978 77.3621 33.4883 77.5552ZM22.426 54.142C22.0222 54.2907 21.6348 54.481 21.2703 54.7098C21.2542 54.7561 21.2401 54.8044 21.226 54.8507C21.6843 54.7923 22.1344 54.6808 22.567 54.5185C23.0603 54.3423 23.5261 54.0969 23.9503 53.7896C23.428 53.8338 22.9147 53.9525 22.426 54.142ZM33.1199 65.5909C32.6268 65.7641 32.161 66.0069 31.7366 66.3117C32.2588 66.2698 32.7722 66.1525 33.2608 65.9634C33.7548 65.7865 34.2212 65.5404 34.6461 65.2325C34.1228 65.2784 33.6089 65.399 33.1199 65.5909ZM40.1833 47.2376C39.691 47.4152 39.2255 47.6598 38.8 47.9645C39.8462 47.8651 40.8484 47.4945 41.7075 46.8893C41.1853 46.9312 40.6719 47.0485 40.1833 47.2376Z" fill="black"/>
<path d="M39.1524 42.3669C36.8771 42.3307 34.0119 38.1224 33.2367 35.1022C33.1843 34.9008 33.9495 33.0423 34.773 30.7489C35.2683 29.3556 35.7797 27.7931 36.1543 26.3313C36.2288 26.0312 44.752 30.8738 44.752 30.8738C44.752 30.8738 43.0727 33.6927 42.4505 36.2479C42.4014 36.4499 42.3717 36.6562 42.362 36.864C42.362 36.8922 42.362 36.9264 42.3499 36.9667C42.2472 38.1506 41.3512 42.3992 39.1524 42.3669Z" fill="#F7A9A0"/>
<path d="M36.708 26.5023C36.5066 29.0796 36.5368 35.4343 41.3975 36.7713C41.7077 36.8604 42.025 36.9231 42.3459 36.9585C42.3559 36.9246 42.3607 36.8893 42.3599 36.8538C42.3724 36.6505 42.4014 36.4485 42.4465 36.2498C43.0768 33.6946 44.754 30.8616 44.754 30.8616C44.754 30.8616 38.6047 27.3681 36.708 26.5023Z" fill="#263238"/>
<path d="M37.9262 15.2569C35.967 18.1604 34.8213 27.9421 36.4664 30.6946C38.8444 34.6995 44.1721 36.6425 47.9314 33.4511C51.5738 30.3583 52.8424 17.5966 50.8711 14.9408C47.9696 11.0305 40.8216 10.9681 37.9262 15.2569Z" fill="#F7A9A0"/>
<path d="M45.2473 24.2291C45.2473 24.2029 45.1889 24.2512 45.1869 24.2794C45.0863 24.9499 44.8607 25.701 44.2184 25.8137C44.1983 25.8137 44.1943 25.852 44.2184 25.852C44.9715 25.8782 45.2614 24.8774 45.2473 24.2291Z" fill="#263238"/>
<path d="M44.7782 23.4237C43.7191 23.1499 43.2479 25.2862 44.2285 25.5399C45.2091 25.7936 45.6642 23.6513 44.7782 23.4237Z" fill="#263238"/>
<path d="M48.8757 24.9702C48.8858 24.946 48.92 25.0124 48.914 25.0406C48.7489 25.697 48.6723 26.4783 49.2241 26.8286C49.2402 26.8387 49.2241 26.8709 49.21 26.8649C48.5093 26.6031 48.614 25.5662 48.8757 24.9702Z" fill="#263238"/>
<path d="M49.6167 24.4062C50.7 24.5572 50.3194 26.7117 49.3167 26.5728C48.3139 26.4338 48.7106 24.2814 49.6167 24.4062Z" fill="#263238"/>
<path d="M44.1399 22.1873C44.4371 22.1502 44.7321 22.0978 45.0239 22.0303C45.3641 21.9679 45.64 21.9518 45.8957 21.7001C45.9609 21.621 45.998 21.5226 46.0013 21.4203C46.0046 21.3179 45.9738 21.2173 45.9138 21.1343C45.638 20.794 45.2031 20.7698 44.7923 20.8302C44.3767 20.8764 43.9933 21.076 43.7171 21.39C43.4211 21.7121 43.7372 22.2155 44.1399 22.1873Z" fill="#263238"/>
<path d="M50.6959 23.6048C50.4203 23.4853 50.1515 23.3509 49.8905 23.2021C49.5845 23.0411 49.3247 22.9464 49.1536 22.6303C49.1141 22.5359 49.1071 22.4311 49.1337 22.3323C49.1603 22.2335 49.219 22.1464 49.3005 22.0846C49.663 21.841 50.0858 21.9437 50.4624 22.1209C50.847 22.286 51.1558 22.5891 51.3282 22.9706C51.5295 23.3592 51.0724 23.7539 50.6959 23.6048Z" fill="#263238"/>
<path d="M43.856 29.4523C44.7681 29.2972 45.8232 29.6355 46.4897 29.8671C46.5682 29.8671 46.6689 29.7362 46.691 29.6657L46.9468 28.2562C47.1119 28.3891 47.9535 29.0113 48.0019 28.7455C48.3361 26.5307 48.7086 24.0822 48.5757 21.815C48.5757 21.7984 48.5691 21.7826 48.5574 21.7708C48.5457 21.7591 48.5298 21.7526 48.5133 21.7526C48.4967 21.7526 48.4809 21.7591 48.4692 21.7708C48.4574 21.7826 48.4509 21.7984 48.4509 21.815C48.0482 23.9231 48.0139 26.0897 47.6455 28.214C47.3716 28.0368 46.9266 27.7206 46.6629 27.6703C46.5863 27.6703 46.4615 29.1764 46.3951 29.3959C46.3951 29.3959 45.1447 28.7113 43.9064 29.1724C43.5862 29.2811 43.4231 29.5248 43.856 29.4523Z" fill="#263238"/>
<path d="M44.8265 30.779C45.2292 30.7287 46.1373 29.3414 45.5131 29.1118C44.8889 28.8823 43.3083 28.9789 42.5633 29.8266C41.9089 30.5696 43.9325 30.3441 44.2123 30.5354C44.4459 30.6945 44.5345 30.8173 44.8265 30.779Z" fill="#263238"/>
<path d="M44.2145 30.5374C44.2571 30.5713 44.3014 30.6029 44.3473 30.6321C44.4702 30.1488 44.2306 29.4944 43.3406 29.281C43.0424 29.4009 42.7747 29.5859 42.5573 29.8226C41.913 30.5676 43.9346 30.3462 44.2145 30.5374Z" fill="#FF9ABB"/>
<path d="M41.5223 30.7429C41.6472 30.9301 41.7599 31.1738 41.9955 31.2442C42.241 31.2906 42.4935 31.2844 42.7365 31.2261C42.7413 31.2248 42.7465 31.2252 42.7511 31.2272C42.7557 31.2292 42.7595 31.2327 42.7619 31.2372C42.7642 31.2416 42.765 31.2468 42.764 31.2517C42.7631 31.2566 42.7604 31.2611 42.7566 31.2644C42.6359 31.3741 42.4879 31.4493 42.328 31.4819C42.1682 31.5145 42.0025 31.5033 41.8485 31.4496C41.5626 31.3348 41.4679 31.0469 41.4458 30.761C41.4498 30.7207 41.5042 30.7167 41.5223 30.7429Z" fill="#263238"/>
<path d="M36.1099 22.9485C38.4275 23.6915 40.3484 21.1827 40.3504 18.7846C40.3504 18.7846 46.4151 21.1545 47.9515 16.1932C47.9515 16.1932 48.9582 18.9899 51.7932 19.7631L51.7187 21.4807C52.4074 21.4525 53.5309 19.7913 52.3228 17.9731C52.3228 17.9731 52.8282 15.4361 51.3483 13.4769C50.9535 12.9242 50.4076 12.4972 49.7762 12.2472C49.1447 11.9972 48.4544 11.9348 47.7884 12.0674C46.891 11.0099 45.617 10.3433 44.2365 10.209C41.8525 9.93714 40.3866 11.8198 40.3866 11.8198C40.3866 11.8198 37.1348 11.6506 36.0656 13.7266C35.7494 14.3092 35.5598 14.9521 35.5091 15.6131C35.4585 16.2741 35.5479 16.9383 35.7717 17.5624C35.7717 17.5624 34.781 18.2389 34.7146 20.2182C34.6682 21.4726 35.4213 22.725 36.1099 22.9485Z" fill="#263238"/>
<path d="M47.9213 15.714C47.8693 16.1338 47.7728 16.5469 47.6334 16.9463C47.5069 17.3435 47.3332 17.7241 47.1159 18.0799C46.6891 18.7842 46.0126 19.3019 45.2212 19.5296C44.4379 19.7974 43.5842 19.6605 42.7667 19.5437C42.364 19.4309 41.9492 19.3424 41.5586 19.2115C41.168 19.0806 40.7652 18.9195 40.3505 18.7846C40.727 18.986 41.1136 19.1591 41.4982 19.3484C41.8828 19.5377 42.3036 19.6263 42.7164 19.7672C43.552 19.9363 44.4419 20.0813 45.3037 19.8175C46.1609 19.5612 46.8837 18.9793 47.3172 18.1967C47.7243 17.4331 47.932 16.5792 47.9213 15.714Z" fill="#263238"/>
<path d="M40.3827 11.8017C39.5844 11.6125 38.7557 11.5898 37.9483 11.7352C37.1106 11.8709 36.348 12.2989 35.7959 12.9433C35.543 13.279 35.3452 13.6529 35.21 14.0508C35.0615 14.4416 34.9818 14.8551 34.9744 15.273C34.9445 16.1052 35.2276 16.9184 35.7677 17.5523C35.3372 16.8777 35.1392 16.0807 35.2039 15.2831C35.2672 14.5013 35.5538 13.7542 36.0295 13.1306C36.271 12.8293 36.5676 12.5765 36.9033 12.3856C37.2484 12.2 37.6159 12.0593 37.9967 11.9668C38.7784 11.7866 39.5836 11.7309 40.3827 11.8017Z" fill="#263238"/>
<path d="M47.7844 12.0574C48.4295 11.9849 49.082 12.0155 49.7174 12.148C50.3412 12.2668 50.9202 12.5551 51.3908 12.9813C51.8615 13.4076 52.2056 13.9553 52.3853 14.5643C52.5868 15.1804 52.696 15.823 52.7095 16.4711C52.8105 15.8131 52.7749 15.1414 52.6048 14.4978C52.4395 13.8338 52.0857 13.2317 51.586 12.7642C51.0696 12.3158 50.4334 12.0281 49.7557 11.9366C49.0976 11.833 48.4249 11.8742 47.7844 12.0574Z" fill="#263238"/>
<path d="M50.4402 19.4147C49.8108 19.0134 49.2527 18.5098 48.7892 17.9247C48.5655 17.6353 48.3819 17.3169 48.2435 16.9784C48.1051 16.6302 48.0065 16.2674 47.9495 15.8971C47.8935 16.2834 47.9196 16.6773 48.026 17.0529C48.1305 17.4349 48.309 17.7928 48.5516 18.1059C48.7909 18.4172 49.0776 18.689 49.4013 18.9113C49.7173 19.1355 50.0684 19.3056 50.4402 19.4147Z" fill="#263238"/>
<path d="M37.904 23.7076C37.904 23.7076 36.6576 20.0973 35.0851 20.4598C33.5125 20.8222 33.8468 25.6345 35.2864 26.6896C35.4601 26.8356 35.6612 26.9452 35.878 27.012C36.0948 27.0788 36.3228 27.1014 36.5485 27.0785C36.7742 27.0556 36.993 26.9876 37.1919 26.8786C37.3908 26.7696 37.5659 26.6218 37.7067 26.444L37.904 23.7076Z" fill="#F7A9A0"/>
<path d="M35.22 21.8371C35.1938 21.8271 35.1797 21.8613 35.1979 21.8774C36.1925 22.6526 36.4885 23.8648 36.5952 25.0628C36.3798 24.5514 35.9912 24.195 35.3187 24.4346C35.2824 24.4467 35.2985 24.501 35.3308 24.5031C35.5467 24.4959 35.7596 24.556 35.9399 24.675C36.1203 24.794 36.2592 24.9661 36.3375 25.1675C36.467 25.504 36.5589 25.8538 36.6114 26.2105C36.6355 26.3253 36.8328 26.3233 36.8268 26.1964V26.1682C37.2496 24.7427 36.708 22.417 35.22 21.8371Z" fill="#263238"/>
<g opacity="0.2">
<path d="M41.9492 26.5548C41.9364 26.5868 41.912 26.6127 41.8808 26.6272C41.8497 26.6418 41.8141 26.6438 41.7815 26.633C41.7488 26.6222 41.7215 26.5994 41.7051 26.5691C41.6888 26.5389 41.6846 26.5035 41.6934 26.4703C41.7053 26.4371 41.7296 26.4098 41.7611 26.3941C41.7926 26.3783 41.8289 26.3753 41.8626 26.3857C41.8964 26.3968 41.9245 26.4208 41.9407 26.4524C41.9569 26.4841 41.96 26.5209 41.9492 26.5548Z" fill="black"/>
<path d="M44.6554 27.312C44.6427 27.3439 44.6182 27.3698 44.5871 27.3844C44.5559 27.3989 44.5203 27.401 44.4877 27.3902C44.455 27.3794 44.4277 27.3565 44.4114 27.3263C44.395 27.296 44.3908 27.2606 44.3997 27.2274C44.4051 27.2107 44.4139 27.1952 44.4253 27.1819C44.4368 27.1686 44.4508 27.1576 44.4666 27.1498C44.4823 27.1419 44.4995 27.1372 44.517 27.136C44.5346 27.1349 44.5522 27.1372 44.5688 27.1428C44.6026 27.1539 44.6307 27.1779 44.6469 27.2096C44.6631 27.2412 44.6662 27.278 44.6554 27.312Z" fill="black"/>
<path d="M43.4069 27.9361C43.3942 27.968 43.3698 27.9939 43.3386 28.0085C43.3074 28.023 43.2719 28.0251 43.2392 28.0143C43.2066 28.0035 43.1793 27.9806 43.1629 27.9504C43.1465 27.9201 43.1424 27.8848 43.1512 27.8515C43.1639 27.8196 43.1884 27.7937 43.2195 27.7791C43.2507 27.7646 43.2863 27.7625 43.3189 27.7733C43.3516 27.7841 43.3789 27.807 43.3952 27.8372C43.4116 27.8675 43.4158 27.9028 43.4069 27.9361Z" fill="black"/>
<path d="M42.368 25.5259C42.3569 25.5597 42.3329 25.5878 42.3012 25.604C42.2696 25.6202 42.2328 25.6232 42.1988 25.6125C42.1734 25.6043 42.1509 25.5889 42.1342 25.5679C42.1176 25.547 42.1075 25.5217 42.1053 25.495C42.1031 25.4684 42.1089 25.4417 42.1219 25.4183C42.1349 25.395 42.1545 25.376 42.1783 25.3638C42.2021 25.3516 42.229 25.3468 42.2555 25.3499C42.282 25.353 42.3071 25.364 42.3274 25.3813C42.3477 25.3987 42.3624 25.4217 42.3696 25.4474C42.3769 25.4732 42.3763 25.5005 42.368 25.5259Z" fill="black"/>
<path d="M43.3889 26.6594C43.3834 26.6761 43.3747 26.6916 43.3632 26.7049C43.3517 26.7182 43.3377 26.7291 43.322 26.737C43.3062 26.7449 43.2891 26.7495 43.2715 26.7507C43.254 26.7519 43.2364 26.7496 43.2197 26.744C43.2031 26.7384 43.1877 26.7296 43.1744 26.7181C43.1611 26.7066 43.1503 26.6926 43.1424 26.6769C43.1346 26.6612 43.1299 26.6441 43.1286 26.6266C43.1274 26.6091 43.1296 26.5915 43.1352 26.5748C43.1407 26.5582 43.1495 26.5428 43.161 26.5295C43.1725 26.5162 43.1865 26.5054 43.2022 26.4975C43.2179 26.4897 43.235 26.485 43.2525 26.4837C43.27 26.4825 43.2876 26.4847 43.3043 26.4903C43.3374 26.5022 43.3647 26.5264 43.3805 26.5579C43.3962 26.5894 43.3992 26.6257 43.3889 26.6594Z" fill="black"/>
<path d="M50.5529 26.9856C50.5448 27.0111 50.5293 27.0336 50.5084 27.0502C50.4875 27.0669 50.4621 27.077 50.4355 27.0792C50.4089 27.0814 50.3822 27.0756 50.3588 27.0626C50.3355 27.0496 50.3165 27.03 50.3043 27.0062C50.2921 26.9824 50.2873 26.9555 50.2904 26.929C50.2935 26.9024 50.3045 26.8774 50.3218 26.8571C50.3392 26.8368 50.3622 26.8221 50.3879 26.8148C50.4137 26.8076 50.441 26.8082 50.4664 26.8165C50.4833 26.8218 50.4989 26.8303 50.5125 26.8417C50.526 26.8531 50.5372 26.8671 50.5452 26.8829C50.5533 26.8986 50.5581 26.9158 50.5595 26.9335C50.5608 26.9511 50.5586 26.9689 50.5529 26.9856Z" fill="black"/>
<path d="M49.3146 27.3803C49.3092 27.3971 49.3005 27.4125 49.289 27.4259C49.2775 27.4392 49.2635 27.4501 49.2477 27.458C49.232 27.4658 49.2149 27.4705 49.1973 27.4717C49.1798 27.4729 49.1622 27.4706 49.1455 27.4649C49.1121 27.4534 49.0844 27.4293 49.0686 27.3976C49.0528 27.366 49.05 27.3294 49.0609 27.2958C49.0665 27.2791 49.0753 27.2637 49.0868 27.2505C49.0983 27.2372 49.1123 27.2263 49.128 27.2185C49.1437 27.2106 49.1608 27.2059 49.1783 27.2047C49.1958 27.2034 49.2134 27.2057 49.2301 27.2112C49.2467 27.2168 49.2621 27.2255 49.2754 27.237C49.2887 27.2486 49.2995 27.2626 49.3074 27.2783C49.3152 27.294 49.3199 27.3111 49.3212 27.3286C49.3224 27.3461 49.3202 27.3637 49.3146 27.3803Z" fill="black"/>
<path d="M49.2965 28.3025C49.2838 28.3345 49.2594 28.3604 49.2282 28.3749C49.197 28.3894 49.1615 28.3915 49.1288 28.3807C49.0961 28.3699 49.0688 28.3471 49.0525 28.3168C49.0361 28.2865 49.0319 28.2512 49.0408 28.2179C49.0527 28.1848 49.0769 28.1575 49.1084 28.1418C49.1399 28.126 49.1763 28.123 49.2099 28.1334C49.2438 28.1444 49.2718 28.1684 49.288 28.2001C49.3043 28.2318 49.3073 28.2686 49.2965 28.3025Z" fill="black"/>
<path d="M50.3556 28.0065C50.3502 28.0232 50.3415 28.0387 50.33 28.052C50.3185 28.0654 50.3045 28.0763 50.2887 28.0841C50.273 28.092 50.2559 28.0967 50.2383 28.0979C50.2208 28.0991 50.2032 28.0967 50.1865 28.0911C50.1527 28.08 50.1246 28.056 50.1084 28.0243C50.0922 27.9927 50.0891 27.9559 50.0999 27.9219C50.1126 27.89 50.1371 27.8641 50.1683 27.8496C50.1994 27.835 50.235 27.8329 50.2676 27.8437C50.3003 27.8545 50.3276 27.8774 50.3439 27.9077C50.3603 27.9379 50.3645 27.9733 50.3556 28.0065Z" fill="black"/>
</g>
<path d="M32.5259 35.4404C32.5259 35.4404 33.4078 31.2765 33.8971 31.202C34.3864 31.1275 36.3979 35.0901 38.3047 35.9619C40.2115 36.8338 42.4022 36.566 42.7183 36.6365C43.0344 36.7069 41.9371 40.3756 41.5444 41.1749C41.0813 42.1153 40.2638 42.977 38.798 42.6428C36.0858 42.0226 32.7051 37.4117 32.5259 35.4404Z" fill="#FCCE17"/>
<path d="M34.185 32.3175C34.0411 33.4462 33.6895 34.5384 33.1481 35.5391C33.2911 34.4103 33.6427 33.3179 34.185 32.3175Z" fill="#263238"/>
<path d="M42.2311 36.9686C42.1551 38.1006 41.8719 39.209 41.3954 40.2386C41.4693 39.1063 41.7526 37.9975 42.2311 36.9686Z" fill="#263238"/>
<path d="M41.0592 37.4962C40.8909 38.9883 40.5168 40.4499 39.9478 41.8394C40.1149 40.3471 40.489 38.8853 41.0592 37.4962Z" fill="#263238"/>
<path d="M39.4887 37.2889C39.3213 38.7812 38.9472 40.2429 38.3772 41.6321C38.5453 40.14 38.9194 38.6784 39.4887 37.2889Z" fill="#263238"/>
<path d="M37.8376 36.413C37.6699 37.9049 37.2966 39.3665 36.7281 40.7561C36.8946 39.2639 37.268 37.8022 37.8376 36.413Z" fill="#263238"/>
<path d="M36.4704 35.3397C36.3219 36.7597 35.9664 38.1504 35.4153 39.4674C35.5638 38.0474 35.9192 36.6568 36.4704 35.3397Z" fill="#263238"/>
<path d="M35.2341 33.9102C35.0745 35.1693 34.7092 36.3937 34.1528 37.5345C34.3112 36.2751 34.6766 35.0505 35.2341 33.9102Z" fill="#263238"/>
<path d="M20.1971 70.9529C23.8214 69.3964 31.7245 56.2864 35.3146 42.7756C35.8703 40.6856 24.0993 35.0034 23.0945 37.0854C21.828 39.703 14.6378 54.3272 14.4243 55.1306C12.5598 61.9202 17.7386 72.008 20.1971 70.9529Z" fill="#F7A9A0"/>
<path d="M24.2765 31.3127C26.1611 27.3803 27.2464 26.6615 27.0753 22.4975C26.9625 19.7672 28.6579 18.5228 30.0835 20.9834C32.4151 25.0104 31.048 30.5899 30.017 32.388L24.2765 31.3127Z" fill="#F7A9A0"/>
<path d="M21.9811 40.6877C21.9811 40.6877 21.8381 37.6352 23.4328 33.2377C24.5342 30.2033 27.6612 23.8688 37.1389 22.1009C39.386 21.6801 42.8855 22.6747 39.4645 24.6943C37.0362 26.1279 35.0609 26.3051 33.8005 27.3924C33.8005 27.3924 38.1013 29.1865 38.4316 31.4537C38.5785 32.4605 38.9208 35.2432 38.8786 37.4399C38.5118 37.5257 38.1399 37.5876 37.7651 37.6252C37.7651 37.6252 38.2383 40.4783 35.3126 42.7657L21.9811 40.6877Z" fill="#F7A9A0"/>
<path d="M24.951 30.5193C26.431 29.7018 29.6003 28.0185 32.6689 27.5453C36.0798 27.0178 42.7888 26.9231 43.1533 29.4441C43.4191 31.2925 40.8599 31.5543 40.8599 31.5543C40.8599 31.5543 43.6426 32.0999 43.5177 33.8215C43.403 35.392 41.4116 35.4746 41.4116 35.4746C41.4116 35.4746 43.0425 36.0968 42.6418 37.5868C42.1586 39.3808 38.8162 37.7881 36.7644 39.1795C36.2972 39.4916 24.951 30.5193 24.951 30.5193Z" fill="#F7A9A0"/>
<path d="M32.6205 31.2402C34.1407 30.7006 37.906 30.3563 40.8115 31.4979C40.878 31.5221 40.8941 31.5865 40.8297 31.5765C38.1176 31.144 35.363 31.0433 32.6266 31.2764C32.6024 31.2764 32.6024 31.2462 32.6205 31.2402Z" fill="#263238"/>
<path d="M33.2528 34.6672C34.6119 34.335 38.5081 34.1538 41.4136 35.4122C41.48 35.4404 41.4901 35.5048 41.4257 35.4907C38.7413 34.9197 36.0009 34.6542 33.2568 34.6994C33.2367 34.6994 33.2347 34.6712 33.2528 34.6672Z" fill="#263238"/>
<path d="M39.5309 27.6661C38.6611 27.5252 34.787 27.3238 33.7883 27.4285C33.7642 27.4285 33.7561 27.3943 33.7883 27.3903C35.2602 27.05 38.5362 27.1064 39.5007 27.2534C40.4652 27.4003 41.6431 27.6259 42.4545 28.1635C43.6808 28.9689 43.3747 29.9414 43.2338 30.2817C43.0616 30.6814 42.7574 31.0098 42.372 31.2119C41.8969 31.4329 41.3816 31.5541 40.8578 31.5683C40.8337 31.5683 40.8256 31.5321 40.8578 31.5301C41.6209 31.4254 42.5653 31.0347 42.9197 30.322C43.0025 30.1651 43.0533 29.9934 43.0692 29.8168C43.0851 29.6402 43.0658 29.4621 43.0123 29.2931C42.8693 28.8903 42.5089 28.6366 42.1545 28.4413C41.3411 27.9923 40.4249 27.8091 39.5309 27.6661Z" fill="#263238"/>
<path d="M40.8578 31.5684C41.8767 31.5986 42.9902 31.9952 43.5177 32.9517C43.6761 33.2627 43.731 33.6161 43.6745 33.9606C43.618 34.305 43.453 34.6224 43.2036 34.8665C43.0698 35.0102 42.9086 35.1255 42.7294 35.2058C42.5503 35.286 42.3568 35.3295 42.1606 35.3336C42.3897 35.2594 42.5971 35.1301 42.7647 34.9571C43.268 34.5 43.4815 33.7349 43.1512 33.1349C42.7042 32.3013 41.7216 31.8925 40.8498 31.5684H40.8578Z" fill="#263238"/>
<path d="M33.7823 27.3904C34.8636 26.3997 36.3616 26.1198 37.6664 25.548C38.645 25.1231 42.1465 23.615 40.1692 22.427C38.2523 21.6216 34.8153 22.5962 32.9205 23.3371C34.2191 22.6944 35.6041 22.2434 37.0321 21.9982C38.1013 21.8149 39.2732 21.7142 40.3041 22.1612C40.8679 22.3948 41.2746 23.1036 40.9545 23.6794C40.6867 24.1929 40.1954 24.5352 39.7282 24.8292C38.4779 25.5762 37.0845 26.0373 35.7012 26.44C35.0168 26.6542 34.371 26.9764 33.7884 27.3944L33.7823 27.3904Z" fill="#263238"/>
<path d="M32.6024 51.009C33.3655 48.3129 34.2938 45.3893 35.1676 42.7214L35.1817 42.6791C35.5048 42.4199 35.8077 42.1365 36.0878 41.8314C36.8932 40.9615 37.5718 39.9004 37.6503 38.6963V38.6138C38.8407 38.4105 40.053 38.3685 41.2545 38.4889C40.0843 38.4678 38.9152 38.5718 37.7671 38.799L37.8476 38.7024C37.8195 39.9709 37.1288 41.1186 36.2972 42.0287C36.0192 42.3368 35.7183 42.6236 35.3972 42.8865L35.4475 42.814L34.7629 44.8718C34.0944 46.8471 33.3313 49.0559 32.5964 51.009H32.6024Z" fill="#263238"/>
<path d="M21.2985 37.2103L34.0441 52.7708C34.0441 52.7708 23.6543 69.7025 20.1931 71.7483C16.1821 74.1182 11.2269 63.4928 13.9511 54.581L21.2985 37.2103Z" fill="#FCCE17"/>
<path opacity="0.1" d="M32.2823 50.6183C32.1103 50.8877 31.9562 51.1682 31.8212 51.4579C31.5952 51.9314 31.4398 52.4354 31.3601 52.954C31.6971 52.5525 31.9763 52.1059 32.1897 51.6271C32.3013 51.3784 32.3987 51.1236 32.4817 50.8639L32.2823 50.6183ZM14.966 58.8596C14.7412 59.3337 14.5852 59.8375 14.5029 60.3557C14.8416 59.9554 15.1209 59.5085 15.3325 59.0288C15.5583 58.5565 15.7143 58.0539 15.7956 57.5368C15.4554 57.9368 15.1735 58.3828 14.958 58.8617L14.966 58.8596ZM23.5074 43.2871C23.2818 43.7601 23.1258 44.2634 23.0443 44.7811C23.7117 43.9691 24.1571 42.9978 24.337 41.9622C23.9952 42.361 23.7131 42.8073 23.4993 43.2871H23.5074ZM27.5485 59.5402C27.0762 59.3141 26.5737 59.1575 26.0565 59.0751C26.4558 59.4156 26.9029 59.6958 27.3834 59.9067C27.8563 60.1309 28.3587 60.2868 28.8754 60.3698C28.4725 60.0308 28.0229 59.7514 27.5405 59.5402H27.5485ZM16.6755 48.1396L16.5366 48.4678C16.8534 48.5875 17.1821 48.6725 17.5172 48.7216C17.2582 48.4971 16.9753 48.302 16.6735 48.1396H16.6755ZM21.1375 66.0842C20.961 65.5919 20.7148 65.1274 20.4066 64.7049C20.5063 65.7504 20.8784 66.7516 21.4858 67.6084C21.4413 67.0864 21.3234 66.5732 21.1355 66.0842H21.1375ZM22.4282 54.142C21.9358 54.3195 21.4704 54.5641 21.0449 54.8688C22.0886 54.7682 23.0881 54.3969 23.9443 53.7916C23.4242 53.8357 22.913 53.9537 22.4261 54.142H22.4282Z" fill="black"/>
<path d="M30.3614 54.5044C25.3397 49.2692 21.7516 43.9716 20.8978 42.9367C20.8576 42.8864 20.9401 42.828 20.9784 42.8783C21.7697 43.9394 26.7733 49.5713 30.456 54.4399C30.4923 54.4963 30.4097 54.5547 30.3614 54.5044Z" fill="#263238"/>
<path d="M32.6245 50.7753C32.609 50.7561 32.5866 50.7438 32.562 50.7411C32.5375 50.7385 32.5129 50.7457 32.4937 50.7612C32.4744 50.7767 32.4621 50.7992 32.4595 50.8237C32.4569 50.8483 32.4641 50.8729 32.4796 50.8921C32.8259 51.3552 33.6695 52.5532 33.6877 52.666C33.7018 52.7425 31.956 55.5051 31.3882 56.4434C30.2593 58.3038 29.0928 60.1415 27.8887 61.9564C26.6846 63.7712 25.4369 65.5747 24.1456 67.3667C23.5556 68.1842 22.9777 69.0238 22.3334 69.795C21.7495 70.4836 21.0669 71.128 20.2132 71.4622C18.697 72.0663 16.8566 71.3575 15.9566 70.0407C15.842 69.8714 15.7429 69.6922 15.6606 69.5051C15.6606 69.489 15.6224 69.5051 15.6284 69.5151C16.0955 71.1441 17.801 72.1891 19.4541 72.026C21.4515 71.8247 22.7482 69.9964 23.8335 68.5124C25.1758 66.6814 26.4786 64.8236 27.7417 62.939C29.0049 61.0543 30.2331 59.1368 31.4265 57.1863C32.0164 56.2219 34.1186 52.6519 34.1306 52.5693C34.1427 52.4868 32.8178 51.0089 32.6245 50.7753Z" fill="#263238"/>
<path d="M61.279 66.5573C57.4049 67.2842 48.2273 65.6371 35.6871 61.4208C33.6373 60.7301 35.6871 47.6402 37.9422 48.1416C40.7853 48.7738 56.8472 52.9056 57.6164 53.2298C64.0999 55.9722 63.8543 66.074 61.279 66.5573Z" fill="#F7A9A0"/>
<path d="M44.3654 51.2485C43.6607 50.5438 40.1712 45.2966 38.6671 44.179C37.163 43.0615 30.7258 41.2474 29.117 41.195C27.5082 41.1427 21.9046 43.0776 20.928 44.1347C20.1447 44.9824 21.6589 46.8349 24.8866 46.404C27.9069 46.0013 28.6035 45.7556 29.4835 45.8503C30.3634 45.9449 33.0715 47.9161 32.9064 49.2108C32.8078 49.972 32.1775 51.6613 30.8003 51.4881C29.423 51.315 27.6089 51.1901 25.8792 50.4814C24.1496 49.7726 21.3267 50.6163 21.5723 52.2271C21.7475 53.3788 23.5355 53.8379 25.9699 54.9454C27.486 55.64 27.1639 55.7065 29.3788 58.0301C31.7366 60.5047 36.6758 61.7752 36.6758 61.7752L44.3654 51.2485Z" fill="#F7A9A0"/>
<path d="M38.3692 43.6073C36.4704 42.3307 32.1937 40.4037 28.8613 40.5548C26.6082 40.6574 21.3811 46.7967 22.1301 47.9786C22.8791 49.1606 24.0148 48.6713 25.6054 47.737C26.1853 47.3967 28.9137 44.8214 29.7613 45.2583C30.9815 45.8886 33.4461 48.782 33.4461 48.782L38.3692 43.6073Z" fill="#F7A9A0"/>
<path d="M22.0777 47.4107C22.3053 45.6932 23.7913 44.1891 25.3356 42.8239C25.3578 42.8018 25.394 42.838 25.3699 42.8602C24.9672 43.2045 22.6415 45.8281 22.108 47.4228C22.1019 47.4409 22.0757 47.4268 22.0777 47.4107Z" fill="#263238"/>
<path d="M38.3692 43.6073C36.4704 42.3307 32.1937 40.4037 28.8613 40.5548C26.6082 40.6574 23.1631 47.0906 23.9121 48.2766C24.6611 49.4626 26.3283 48.8485 27.8606 47.435C28.3539 46.9779 29.705 44.7509 30.5527 45.1899C31.7729 45.8181 34.763 47.4048 34.763 47.4048L38.3692 43.6073Z" fill="#F7A9A0"/>
<path d="M26.5014 48.4398C27.182 48.0693 27.7699 47.3122 28.227 46.6961C28.6297 46.1605 29.0143 45.5181 29.6123 45.1879C29.8725 45.0319 30.1764 44.9647 30.4781 44.9966C30.7868 45.0683 31.081 45.1922 31.348 45.3631C31.6661 45.5343 31.9742 45.7235 32.2802 45.9168C32.5863 46.1101 32.6829 46.1826 32.993 46.384C33.1199 46.4665 33.0514 46.543 32.9105 46.4565C32.3999 46.1382 31.8606 45.8686 31.2996 45.651C31.0194 45.5072 30.7195 45.4054 30.4097 45.349C30.2499 45.3405 30.0901 45.364 29.9397 45.4183C29.7892 45.4726 29.6512 45.5566 29.5338 45.6651C29.0223 46.1001 28.676 46.7102 28.2049 47.1874C27.7337 47.6646 27.1598 48.2586 26.5256 48.4841C26.4893 48.5022 26.4732 48.4539 26.5014 48.4398Z" fill="#263238"/>
<path d="M23.6322 46.8411C23.7651 46.0357 24.1839 45.2605 24.5967 44.5718C25.0375 43.8451 25.535 43.1543 26.0847 42.506C26.3645 42.1717 26.6525 41.8415 26.9505 41.5234C27.2485 41.2052 27.5082 40.8629 27.8847 40.6757C28.9157 40.1622 30.2647 40.5408 30.7762 40.6153C30.8064 40.6153 30.8064 40.6696 30.7762 40.6656C30.3573 40.6112 28.9982 40.4139 28.3458 40.7039C27.9588 40.9043 27.619 41.1851 27.3491 41.5274C27.0975 41.8113 26.8458 42.0932 26.6021 42.3811C25.6075 43.555 24.6329 44.8799 24.1195 46.3437C23.8335 47.1492 23.7751 48.0834 24.4477 48.7177C24.4718 48.7398 24.4477 48.7741 24.4134 48.76C23.7429 48.4136 23.5174 47.5357 23.6322 46.8411Z" fill="#263238"/>
<path d="M40.0364 45.5182C39.3336 44.7732 37.4893 41.3844 36.4483 40.4844C35.4073 39.5843 31.0359 36.7412 29.6023 37.3674C27.7901 38.1547 30.7862 40.9213 32.1957 41.9985C33.6052 43.0758 34.1669 45.492 34.1669 45.492L40.0364 45.5182Z" fill="#F7A9A0"/>
<path d="M30.1177 40.1359C30.601 40.4682 31.06 40.8588 31.507 41.2373C31.9547 41.5784 32.3766 41.9519 32.7695 42.3548C33.138 42.7737 33.8226 44.2858 33.885 44.5516C34.175 45.7798 34.6079 48.4176 35.3549 50.8821C35.6505 51.8117 36.0561 52.7026 36.563 53.5359C36.6919 53.7373 36.712 53.9386 36.4925 53.6447C34.4307 50.9123 33.7823 45.4899 33.5367 44.6362C33.3816 44.0965 32.836 42.967 32.4655 42.5461C31.7265 41.7025 30.8164 41.0259 30.0694 40.1903C30.0331 40.1561 30.0835 40.1118 30.1177 40.1359Z" fill="#263238"/>
<path d="M31.797 41.6985C30.7902 40.8931 29.0908 39.6044 28.8995 38.2352C28.8866 38.0602 28.9209 37.8849 28.9988 37.7277C29.0767 37.5704 29.1954 37.437 29.3425 37.3412C29.9304 36.9808 30.6231 37.152 31.2231 37.3312C32.391 37.7198 33.4078 38.3862 34.481 38.9621C35.52 39.6004 36.5147 40.3293 37.2013 41.3501C36.4321 40.4259 35.4112 39.7393 34.3703 39.1655C33.0172 38.5332 31.7668 37.6231 30.2828 37.4318C29.7573 37.3634 29.125 37.6332 29.1633 38.2211C29.2619 39.089 29.9445 39.7917 30.5083 40.436C30.911 40.881 31.356 41.2897 31.797 41.7025V41.6985Z" fill="#263238"/>
<path d="M26.6847 41.6461C25.9373 41.9889 25.1529 42.2443 24.347 42.4072C25.0602 41.9835 25.8587 41.7235 26.6847 41.6461Z" fill="#263238"/>
<path d="M29.264 45.8483C30.7198 45.8181 31.8514 47.0202 32.6749 48.0954C32.9012 48.3949 33.0405 48.7509 33.0776 49.1243C33.025 49.8561 32.7045 50.5428 32.1776 51.0533C31.9239 51.2889 31.5937 51.5124 31.2353 51.4882C31.5713 51.4226 31.8696 51.231 32.0689 50.9526C32.4575 50.4533 32.7978 49.7667 32.7937 49.1404C32.7522 48.8216 32.6256 48.5197 32.4273 48.2666C31.6219 47.2216 30.6413 46.0517 29.2661 45.8504L29.264 45.8483Z" fill="#263238"/>
<path d="M42.8392 48.0753L40.4552 65.0674C40.4552 65.0674 58.0534 69.3341 61.7985 67.8864C66.1437 66.2051 66.1518 55.9019 57.4695 52.5171L42.8392 48.0753Z" fill="#FCCE17"/>
<path opacity="0.1" d="M56.362 52.1747C56.0551 52.2434 55.7531 52.3322 55.4579 52.4405C54.9641 52.6155 54.4982 52.861 54.0746 53.1694C54.5962 53.1271 55.1088 53.0098 55.5969 52.821C55.9831 52.6778 56.3541 52.4963 56.7043 52.2794L56.362 52.1747ZM47.0776 65.0612C46.5846 65.2371 46.1189 65.4818 45.6943 65.7881C46.741 65.6848 47.7425 65.31 48.5999 64.7008C48.0773 64.743 47.5637 64.8617 47.0756 65.0532L47.0776 65.0612ZM53.5994 59.8261C53.4232 59.3332 53.1785 58.8675 52.8726 58.4428C52.9154 58.9649 53.0327 59.4781 53.2209 59.967C53.3972 60.4557 53.6412 60.9173 53.9458 61.3382C53.9039 60.816 53.7866 60.3026 53.5974 59.814L53.5994 59.8261ZM60.0427 65.6109C59.5707 65.3839 59.068 65.2272 58.5507 65.1458C59.362 65.8148 60.3335 66.261 61.3696 66.4405C60.97 66.0967 60.5223 65.8131 60.0407 65.5988L60.0427 65.6109ZM45.489 54.3372C45.0162 54.113 44.5138 53.9577 43.9969 53.8761C44.3955 54.2151 44.8411 54.4945 45.3198 54.7057C45.7937 54.9297 46.2966 55.0862 46.8139 55.1708C46.4145 54.8308 45.9683 54.5501 45.489 54.3372ZM60.6528 57.4521C60.4283 57.9262 60.273 58.43 60.1917 58.9482C60.5292 58.547 60.8085 58.1003 61.0213 57.6213C61.2458 57.1479 61.4011 56.6448 61.4824 56.1272C61.1445 56.5273 60.8652 56.9734 60.6528 57.4521Z" fill="black"/>
<path d="M46.6568 50.3405C46.3869 57.5892 45.0802 63.8512 44.9332 65.1902C44.9332 65.2526 44.8245 65.2345 44.8345 65.1721C45.048 63.8653 45.6117 56.3529 46.548 50.3203C46.5601 50.2499 46.6588 50.27 46.6568 50.3405Z" fill="#263238"/>
<path d="M57.3688 68.0696C55.1539 67.7233 52.939 67.389 50.7241 67.0206C48.5093 66.6521 46.3226 66.2152 44.1339 65.7561C42.9258 65.5004 41.8163 65.1822 40.6163 64.8963C40.6163 64.2439 40.7109 63.8734 40.7351 63.0841C40.7351 62.9855 40.5055 62.9694 40.4975 63.068C40.431 63.9238 40.131 65.1782 40.1874 65.1943C42.3539 65.7702 44.7077 66.2313 46.9065 66.6662C49.1053 67.1011 51.3362 67.4716 53.5773 67.7515C54.8337 67.9105 56.0922 68.0233 57.3547 68.1018C57.3589 68.1037 57.3638 68.1038 57.3681 68.1021C57.3725 68.1004 57.3759 68.097 57.3778 68.0928C57.3797 68.0885 57.3798 68.0836 57.3781 68.0793C57.3764 68.075 57.373 68.0715 57.3688 68.0696Z" fill="#263238"/>
<path d="M42.7244 48.9029C42.7506 48.6109 42.7728 48.3169 42.805 48.0229C44.2426 48.3914 45.6742 48.7941 47.0998 49.1968C50.6194 50.2378 54.1471 51.2325 57.6023 52.497C58.294 52.7577 58.947 53.1113 59.5434 53.548C58.9096 53.1776 58.2336 52.8849 57.5298 52.6762C54.0142 51.6392 50.4825 50.6627 46.9931 49.521C45.5957 49.07 44.2044 48.6069 42.817 48.1115L42.8694 48.0773C42.8231 48.3532 42.7667 48.627 42.7144 48.9008L42.7244 48.9029Z" fill="#263238"/>
<path d="M34.7488 11.9002L28.6317 3.12128L31.0479 1.98767L34.7488 11.9002Z" fill="#455A64"/>
<path d="M32.1937 14.1111L25.8692 12.0754L26.6807 10.3096L32.1937 14.1111Z" fill="#455A64"/>
<path d="M36.3254 11.1331L36.6456 4.56494L38.641 4.66159L36.3254 11.1331Z" fill="#455A64"/>
<path d="M6.20108 60.8751C5.05942 60.8751 2.74991 59.9751 3.13852 59.222C3.52713 58.469 4.71712 59.4354 4.76746 59.4657C4.73323 59.4093 3.96205 57.9032 4.64866 57.6434C5.33527 57.3837 6.02994 58.1065 6.20108 58.9421C6.37425 58.1065 7.0528 57.3736 7.75552 57.6434C8.45824 57.9132 7.67096 59.4093 7.63673 59.4657C7.68706 59.4354 8.8831 58.4831 9.26365 59.222C9.64421 59.961 7.34275 60.8751 6.20108 60.8751Z" fill="#455A64"/>
<path d="M11.9658 67.0324C11.9111 67.6624 11.8142 68.288 11.6758 68.905C11.404 70.1312 10.959 71.3212 10.3207 72.1266C9.00103 72.6306 7.60163 72.8939 6.189 72.9039C4.77636 72.8939 3.37696 72.6306 2.05725 72.1266C0.696109 70.4252 0.21085 66.9257 0.404148 65.1256C0.756515 61.8758 2.69755 60.6335 4.38287 60.1885C4.97455 60.0342 5.58357 59.9564 6.19504 59.9569C7.84814 59.9569 11.4866 60.561 11.9819 65.1276C12.0362 65.7617 12.0308 66.3994 11.9658 67.0324Z" fill="#FCCE17"/>
<path d="M6.30976 59.947C6.35608 61.0263 6.38225 62.1075 6.40239 63.1868C6.42252 64.266 6.42655 65.3453 6.42655 66.4265C6.42655 67.5078 6.41447 68.585 6.38427 69.6663C6.37463 70.7438 6.29865 71.8197 6.15674 72.8879L6.19902 72.4852L6.22117 72.0825C6.23929 71.8127 6.23929 71.5429 6.24735 71.2771C6.26077 70.7402 6.26882 70.2032 6.27151 69.6663C6.27151 68.587 6.2856 67.5078 6.27151 66.4285V63.1888C6.29366 62.1075 6.29567 61.0283 6.30976 59.947Z" fill="white"/>
<path d="M5.60707 59.969C5.44658 60.4837 5.31681 61.0074 5.21846 61.5375C5.11174 62.0651 5.03321 62.5966 4.96476 63.1302C4.83552 64.1996 4.76159 65.2749 4.74327 66.3519V67.1573C4.74327 67.4271 4.74327 67.6949 4.75736 67.9627C4.75736 68.5003 4.80569 69.0379 4.82985 69.5735C4.82985 69.8413 4.86811 70.1091 4.89026 70.3789L4.96274 71.1843L5.14597 72.7951C5.05738 72.2636 4.9708 71.732 4.89227 71.1964L4.79965 70.391C4.76944 70.1232 4.73521 69.8554 4.71911 69.5856C4.67481 69.048 4.63454 68.5083 4.62447 67.9748C4.62447 67.7049 4.60031 67.4351 4.60433 67.1694V66.3639C4.62739 65.286 4.71277 64.2104 4.86005 63.1423C4.99958 62.0617 5.2499 60.9983 5.60707 59.969Z" fill="white"/>
<path d="M4.67285 60.104C4.34216 60.5437 4.06692 61.0225 3.85335 61.5296C3.79898 61.6564 3.74059 61.7793 3.69226 61.9081L3.55333 62.2947L3.48487 62.4961C3.46272 62.5605 3.44662 62.6269 3.42849 62.6974L3.31775 63.1001C3.05404 64.1649 2.92884 65.2592 2.94525 66.356L2.96337 67.1775L3.0419 67.997L3.08217 68.3997C3.1023 68.5346 3.12848 68.6695 3.15264 68.8024L3.29157 69.6078C3.3123 69.7437 3.34121 69.8782 3.37816 70.0105L3.4748 70.4132L3.67616 71.2186L4.16343 72.7972C3.97416 72.2798 3.79294 71.7603 3.6077 71.2388L3.39225 70.4334L3.28352 70.0307C3.24421 69.8982 3.21194 69.7638 3.18687 69.628L3.03384 68.8125C3.00968 68.6776 2.98149 68.5407 2.96136 68.4098L2.91706 68.0071L2.82846 67.1815L2.80229 66.3399C2.78803 65.2314 2.92349 64.1261 3.20499 63.0538L3.3258 62.6511C3.34594 62.5847 3.36406 62.5182 3.38621 62.4498L3.46071 62.2484L3.6077 61.8819C3.66005 61.7531 3.72247 61.6303 3.78086 61.5034C4.01483 60.9994 4.31479 60.5289 4.67285 60.104Z" fill="white"/>
<path d="M3.98419 60.2913C3.55527 60.6501 3.17906 61.0677 2.86668 61.5316C2.54633 61.9867 2.27946 62.4772 2.07134 62.9934C1.65148 64.0252 1.43805 65.1293 1.44312 66.2432C1.44312 66.5211 1.45521 66.799 1.46527 67.0768C1.47534 67.3547 1.50957 67.6306 1.5579 67.9064L1.62031 68.3192L1.70488 68.7219C1.73106 68.8588 1.76126 68.9937 1.7975 69.1246L1.90019 69.5273C1.97067 69.7971 2.05725 70.0629 2.13779 70.3327L2.41767 71.122L2.72977 71.8992L3.07005 72.6664C2.54067 71.681 2.11359 70.644 1.79549 69.5716C1.723 69.2998 1.63642 69.0299 1.59414 68.7541L1.50554 68.3413L1.42702 67.9225C1.37466 67.6467 1.35856 67.3648 1.32634 67.0849C1.29412 66.805 1.28808 66.5231 1.29815 66.2412C1.29764 65.1092 1.5257 63.9888 1.96865 62.9471C2.1891 62.4305 2.46885 61.9413 2.80225 61.4893C2.96972 61.2639 3.1513 61.0494 3.3459 60.847C3.54105 60.6424 3.75473 60.4564 3.98419 60.2913Z" fill="white"/>
<path d="M6.9682 59.9771C7.325 60.9978 7.57665 62.0523 7.71924 63.1242C7.86661 64.1922 7.95199 65.2679 7.97496 66.3458V67.1512C7.97496 67.421 7.95885 67.6909 7.95281 67.9566C7.95281 68.4963 7.90247 69.0339 7.85818 69.5675C7.84207 69.8373 7.80784 70.1051 7.77764 70.3729L7.68501 71.1783C7.60649 71.7119 7.5199 72.2454 7.43131 72.777L7.61454 71.1662L7.68703 70.3608C7.70918 70.093 7.73736 69.8252 7.74743 69.5554C7.77159 69.0157 7.81589 68.4802 7.81992 67.9446C7.81992 67.6747 7.84005 67.4049 7.83401 67.1391V66.3337C7.81677 65.2567 7.74283 64.1813 7.61253 63.1121C7.54407 62.5785 7.46554 62.047 7.35882 61.5194C7.25904 60.9981 7.1286 60.483 6.9682 59.9771Z" fill="white"/>
<path d="M7.90448 60.1121C8.25853 60.5364 8.55506 61.0056 8.7864 61.5074C8.8448 61.6323 8.90721 61.7571 8.95957 61.884L9.10857 62.2726L9.18307 62.4739C9.20522 62.5404 9.22334 62.6068 9.24549 62.6753L9.36428 63.078C9.64579 64.1502 9.78125 65.2556 9.76699 66.3641L9.74283 67.1936L9.65423 68.0192L9.60993 68.4319C9.5898 68.5689 9.56161 68.7038 9.53745 68.8346L9.38442 69.6401C9.35905 69.7758 9.32679 69.9102 9.28777 70.0428L9.17904 70.4455L8.96359 71.2509C8.77835 71.7724 8.59713 72.2919 8.40786 72.8093L8.89513 71.2307L9.09649 70.4253L9.19313 70.0226C9.23008 69.8903 9.25899 69.7558 9.27972 69.6199L9.41865 68.8145C9.44281 68.6796 9.46899 68.5447 9.48912 68.4118L9.52939 68.0091L9.60993 67.1896L9.62604 66.3681C9.64539 65.2641 9.52153 64.1622 9.25757 63.0901L9.14682 62.6874C9.1287 62.6209 9.11259 62.5545 9.09246 62.486L9.02199 62.2847L8.88507 61.8981C8.83473 61.7692 8.77634 61.6464 8.72197 61.5195C8.50868 61.0184 8.23409 60.5456 7.90448 60.1121Z" fill="white"/>
<path d="M8.59113 60.2974C8.81783 60.4636 9.02879 60.6503 9.22136 60.8551C9.41654 61.057 9.59816 61.2716 9.76501 61.4974C10.1012 61.9501 10.3843 62.4399 10.6087 62.9572C11.0498 63.9987 11.2772 65.1183 11.2772 66.2493C11.2772 66.5312 11.2631 66.8131 11.251 67.095C11.2389 67.3769 11.2006 67.6568 11.1503 67.9326L11.0819 68.3494L10.9933 68.7622C10.9429 69.0381 10.8563 69.3059 10.7919 69.5777C10.4732 70.6543 10.0447 71.6954 9.51332 72.6846L9.85562 71.9174L10.1657 71.1382L10.4476 70.3509C10.5261 70.0831 10.6127 69.8173 10.6852 69.5455L10.7859 69.1428C10.8221 69.0079 10.8523 68.8709 10.8785 68.7401L10.9631 68.3374L11.0255 67.9246C11.0758 67.6507 11.0879 67.3729 11.1201 67.097C11.1523 66.8212 11.1503 66.5413 11.1402 66.2634C11.1465 65.1494 10.933 64.0451 10.512 63.0136C10.3004 62.4965 10.0301 62.0053 9.70662 61.5498C9.39467 61.0826 9.01924 60.6611 8.59113 60.2974Z" fill="white"/>
<path d="M5.92316 63.8068C6.09675 64.0372 6.25611 64.2779 6.40036 64.5277H6.31378C6.39633 64.3827 6.4809 64.2377 6.5695 64.0968C6.61379 64.0263 6.66011 63.9558 6.70642 63.8954C6.75273 63.835 6.80105 63.7585 6.8534 63.6941C6.8232 63.7726 6.78696 63.8471 6.75273 63.9236C6.7185 64.0002 6.68024 64.0746 6.64198 64.1491C6.56547 64.2961 6.48493 64.4431 6.40036 64.5881L6.35606 64.6626L6.31378 64.5881C6.16846 64.3355 6.03803 64.0747 5.92316 63.8068Z" fill="white"/>
<path d="M6.32188 63.4324C6.40098 63.8004 6.41326 64.1796 6.35813 64.5519C6.27635 64.1842 6.26406 63.8045 6.32188 63.4324Z" fill="white"/>
<path d="M9.66434 59.9811C9.68143 60.2688 9.68143 60.5572 9.66434 60.8449L9.59185 60.7986C9.73884 60.72 9.88784 60.6476 10.0409 60.5771C10.1154 60.5408 10.1919 60.5066 10.2684 60.4744C10.3449 60.4422 10.4234 60.41 10.504 60.3838C10.4355 60.4321 10.363 60.4764 10.2926 60.5207L10.0791 60.6496C9.93213 60.7321 9.78716 60.8127 9.63816 60.8872L9.55963 60.9274V60.8409C9.57845 60.5525 9.61341 60.2655 9.66434 59.9811Z" fill="white"/>
<path d="M10.202 59.8845C10.1369 60.0606 10.0546 60.2299 9.95631 60.3899C9.86042 60.5518 9.74844 60.7036 9.62207 60.843C9.75505 60.4907 9.95161 60.1658 10.202 59.8845Z" fill="white"/>
<path d="M8.76825 62.5646C8.9136 62.8137 9.04403 63.0712 9.15887 63.3357L9.07431 63.3257C9.17095 63.1908 9.27566 63.0579 9.37633 62.923C9.42869 62.8565 9.48305 62.7921 9.53741 62.7216C9.59178 62.6512 9.64816 62.5948 9.70655 62.5364C9.66628 62.6109 9.62198 62.6814 9.5797 62.7518C9.53742 62.8223 9.48909 62.8948 9.44278 62.9632C9.35016 63.1022 9.25351 63.2371 9.15485 63.3659L9.10249 63.4364L9.06827 63.3559C8.95317 63.0981 8.853 62.8339 8.76825 62.5646Z" fill="white"/>
<path d="M9.20723 62.2402C9.22635 62.427 9.22635 62.6152 9.20723 62.802C9.19285 62.9893 9.16048 63.1747 9.11058 63.3557C9.09148 63.169 9.09148 62.9807 9.11058 62.794C9.12366 62.6065 9.15605 62.421 9.20723 62.2402Z" fill="white"/>
<path d="M7.14545 71.0977C7.31904 71.3281 7.4784 71.5688 7.62265 71.8186H7.53607C7.61661 71.6736 7.70319 71.5286 7.79179 71.3877C7.83608 71.3172 7.8824 71.2467 7.92871 71.1863C7.97502 71.1259 8.02334 71.0494 8.07569 70.985C8.04549 71.0615 8.00925 71.138 7.97502 71.2145C7.94079 71.291 7.90253 71.3655 7.86427 71.44C7.78776 71.587 7.70722 71.734 7.62265 71.877L7.57835 71.9535L7.53607 71.879C7.39116 71.6262 7.26074 71.3654 7.14545 71.0977Z" fill="white"/>
<path d="M7.54405 70.7233C7.58468 70.9066 7.6076 71.0933 7.61251 71.281C7.62086 71.4689 7.61007 71.6571 7.5803 71.8428C7.49852 71.4751 7.48622 71.0954 7.54405 70.7233Z" fill="white"/>
<path d="M3.34589 61.2556C3.4452 61.5264 3.52857 61.8027 3.59556 62.0832L3.51099 62.057C3.63181 61.9422 3.75463 61.8295 3.88148 61.7187L4.08284 61.5576C4.14928 61.5073 4.21371 61.4529 4.28419 61.4046C4.23184 61.4711 4.17546 61.5335 4.12109 61.5959C4.06673 61.6583 4.00833 61.7187 3.94994 61.7791C3.83316 61.8999 3.71436 62.0167 3.59355 62.1295L3.52912 62.1899L3.50898 62.1053C3.43831 61.8255 3.38386 61.5418 3.34589 61.2556Z" fill="white"/>
<path d="M3.83517 61.0121C3.82245 61.1995 3.79006 61.3851 3.73852 61.5658C3.69109 61.7485 3.62356 61.9255 3.53717 62.0933C3.55104 61.906 3.58342 61.7206 3.63382 61.5396C3.68216 61.3572 3.74965 61.1803 3.83517 61.0121Z" fill="white"/>
<path d="M12.2215 64.3646C12.2069 64.6527 12.176 64.9398 12.1289 65.2244L12.0624 65.17C12.2181 65.1096 12.3752 65.0532 12.5336 65.0009C12.6121 64.9747 12.6927 64.9485 12.7732 64.9264C12.8537 64.9042 12.9343 64.8801 13.0168 64.862C12.9423 64.9022 12.8658 64.9365 12.7913 64.9747C12.7168 65.013 12.6403 65.0452 12.5638 65.0774C12.4088 65.1439 12.2537 65.2063 12.0987 65.2627L12.0161 65.2929L12.0302 65.2083C12.077 64.9235 12.1409 64.6418 12.2215 64.3646Z" fill="white"/>
<path d="M12.7651 64.3303C12.6804 64.4977 12.5792 64.6562 12.4631 64.8035C12.35 64.9538 12.2218 65.0922 12.0805 65.2163C12.1647 65.048 12.2659 64.8887 12.3825 64.7411C12.4956 64.5913 12.6238 64.4537 12.7651 64.3303Z" fill="white"/>
<path d="M4.28015 67.5419C4.45497 67.7706 4.61633 68.0093 4.7634 68.2568H4.67682C4.75736 68.1098 4.84192 67.9648 4.92851 67.8238C4.9728 67.7514 5.0171 67.6809 5.06341 67.6225C5.10972 67.5641 5.15603 67.4836 5.20637 67.4211C5.17818 67.5017 5.14194 67.5762 5.10771 67.6527C5.07348 67.7292 5.03724 67.8057 5.00099 67.8802C4.92582 68.0292 4.84729 68.1762 4.76541 68.3212L4.72111 68.3977L4.67883 68.3232C4.53037 68.071 4.39723 67.8101 4.28015 67.5419Z" fill="white"/>
<path d="M4.67282 67.1633C4.7559 67.5306 4.77227 67.9098 4.72115 68.2828C4.63807 67.9156 4.6217 67.5364 4.67282 67.1633Z" fill="white"/>
<path d="M1.29614 69.4527C1.54532 69.5981 1.78476 69.7595 2.01296 69.936L1.93242 69.9702C1.95255 69.8031 1.97671 69.638 2.00289 69.4729C2.01698 69.3923 2.03309 69.3098 2.0492 69.2272C2.06531 69.1447 2.08343 69.0641 2.10558 68.9816C2.10558 69.0661 2.10558 69.1507 2.10558 69.2333C2.10558 69.3158 2.09551 69.4004 2.08947 69.4849C2.07538 69.6501 2.05927 69.8172 2.03712 69.9823L2.02504 70.0689L1.95658 70.0145C1.72582 69.8401 1.50531 69.6525 1.29614 69.4527Z" fill="white"/>
<path d="M1.51965 68.9534C1.62732 69.1071 1.71971 69.271 1.79551 69.4427C1.87574 69.6128 1.93783 69.791 1.98075 69.9742C1.76584 69.6648 1.60892 69.3189 1.51764 68.9534H1.51965Z" fill="white"/>
<path d="M0.555115 61.8697C0.826669 61.9667 1.09225 62.0797 1.35046 62.208L1.27797 62.2563C1.26589 62.0892 1.25783 61.9241 1.25381 61.757C1.25381 61.6724 1.25381 61.5899 1.25381 61.5053C1.25381 61.4207 1.25381 61.3382 1.25381 61.2556C1.27193 61.3362 1.28401 61.4207 1.2981 61.5033C1.3122 61.5858 1.32025 61.6684 1.32831 61.7509C1.34643 61.9181 1.36052 62.0832 1.37059 62.2503V62.3369L1.29206 62.2986C1.03849 62.1697 0.792447 62.0265 0.555115 61.8697Z" fill="white"/>
<path d="M0.679993 61.3403C0.950123 61.6021 1.16988 61.9113 1.32835 62.2525C1.19241 62.1232 1.07027 61.9801 0.963899 61.8256C0.853419 61.6736 0.758316 61.5111 0.679993 61.3403Z" fill="white"/>
<path d="M10.7396 67.3506C10.8883 67.5963 11.0228 67.8504 11.1423 68.1117H11.0557C11.1503 67.9748 11.257 67.8399 11.3497 67.709L11.5067 67.5076C11.5611 67.4452 11.6134 67.3788 11.6718 67.3184C11.6336 67.3929 11.5913 67.4653 11.549 67.5378C11.5067 67.6103 11.4624 67.6808 11.4181 67.7513C11.3275 67.8922 11.2349 68.0311 11.1382 68.1661L11.0859 68.2365L11.0517 68.158C10.9313 67.8955 10.827 67.6258 10.7396 67.3506Z" fill="white"/>
<path d="M11.1705 67.0144C11.2157 67.3887 11.1918 67.7682 11.1 68.1339C11.0548 67.7596 11.0787 67.3801 11.1705 67.0144Z" fill="white"/>
<path d="M1.33441 72.1992H11.1463L10.1577 80.4023H2.32104L1.33441 72.1992Z" fill="#455A64"/>
<path d="M1.33441 72.1992L1.5559 74.0496L10.9772 73.5966L11.1463 72.1992H1.33441Z" fill="#263238"/>
<path d="M11.7624 71.1622H0.716248V72.6301H11.7624V71.1622Z" fill="#455A64"/>
<path d="M72.3735 9.17602C72.3738 10.7743 71.9299 12.3413 71.0914 13.702C70.2529 15.0627 69.0527 16.1636 67.6248 16.8818C66.1969 17.6001 64.5975 17.9073 63.0052 17.7694C61.4128 17.6314 59.8901 17.0536 58.6071 16.1005L54.3787 17.1798L56.1385 13.2453C55.5203 12.0891 55.1739 10.8071 55.1255 9.49692C55.0771 8.18669 55.328 6.88268 55.8592 5.68398C56.3904 4.48527 57.1878 3.42343 58.1909 2.57913C59.194 1.73484 60.3763 1.13031 61.6481 0.811506C62.9199 0.492697 64.2476 0.467992 65.5303 0.739268C66.8131 1.01054 68.0171 1.57066 69.0509 2.37706C70.0847 3.18345 70.9211 4.2149 71.4965 5.39301C72.0719 6.57112 72.3711 7.8649 72.3715 9.17602H72.3735Z" fill="white"/>
<path d="M72.3735 9.17597C72.3704 10.4718 72.0777 11.7505 71.5168 12.9186C70.9559 14.0867 70.141 15.1147 69.1317 15.9273C66.1396 18.3758 61.6615 18.4865 58.5647 16.1589L58.6251 16.171L54.3967 17.2663L54.2195 17.3126L54.294 17.1435L56.0458 13.205V13.2916C53.3557 8.36453 56.1626 2.05616 61.6273 0.763478C67.0114 -0.619812 72.4097 3.62872 72.3634 9.17597H72.3735ZM72.3735 9.17597C72.3956 3.64282 67.0336 -0.561419 61.6635 0.872209C57.8258 1.79642 55.029 5.55969 55.2203 9.49613C55.2721 10.8072 55.6234 12.089 56.2472 13.2433L56.227 13.2876L54.4592 17.218L54.3565 17.0972L58.5849 16.034H58.6191L58.6473 16.0542C59.2813 16.5213 59.9755 16.9006 60.7111 17.1817C62.0113 17.6798 63.413 17.8543 64.7955 17.6903C66.1781 17.5263 67.5 17.0287 68.6476 16.2404C69.7951 15.4521 70.7339 14.3966 71.3829 13.1649C72.032 11.9332 72.3719 10.5622 72.3735 9.16994V9.17597Z" fill="#263238"/>
<path d="M62.8213 11.0124V4.20466C62.8234 3.95967 62.9217 3.7253 63.0949 3.55205C63.2681 3.3788 63.5025 3.28055 63.7475 3.27844C63.8681 3.2795 63.9873 3.30429 64.0983 3.35141C64.2093 3.39852 64.3099 3.46704 64.3944 3.55305C64.4789 3.63906 64.5457 3.74087 64.5908 3.85268C64.636 3.96448 64.6587 4.08409 64.6576 4.20466V11.0124C64.66 11.1333 64.6383 11.2535 64.5936 11.3659C64.5489 11.4783 64.4822 11.5807 64.3974 11.667C64.3127 11.7533 64.2115 11.8217 64.0999 11.8684C63.9883 11.915 63.8685 11.9389 63.7475 11.9386C63.6258 11.9389 63.5052 11.9151 63.3927 11.8686C63.2803 11.8222 63.178 11.754 63.092 11.6679C63.0059 11.5819 62.9377 11.4796 62.8913 11.3671C62.8448 11.2547 62.821 11.1341 62.8213 11.0124ZM63.7475 15.0737C63.6258 15.0739 63.5052 15.0501 63.3927 15.0037C63.2803 14.9572 63.178 14.889 63.092 14.803C63.0059 14.7169 62.9377 14.6147 62.8913 14.5022C62.8448 14.3897 62.821 14.2691 62.8213 14.1474V13.8092C62.8234 13.5642 62.9217 13.3298 63.0949 13.1566C63.2681 12.9833 63.5025 12.885 63.7475 12.8829C63.8681 12.884 63.9873 12.9088 64.0983 12.9559C64.2093 13.003 64.3099 13.0715 64.3944 13.1576C64.4789 13.2436 64.5457 13.3454 64.5908 13.4572C64.636 13.569 64.6587 13.6886 64.6576 13.8092V14.1474C64.66 14.2684 64.6383 14.3886 64.5936 14.501C64.5489 14.6134 64.4822 14.7157 64.3974 14.802C64.3127 14.8883 64.2115 14.9568 64.0999 15.0034C63.9883 15.0501 63.8685 15.074 63.7475 15.0737Z" fill="#FCCE17"/>
<path d="M0.55719 80.4063C25.988 80.2835 54.5196 80.2835 79.9504 80.4063C54.5196 80.5312 25.988 80.5312 0.55719 80.4063Z" fill="#263238"/>
</svg>
