<svg width="32" height="32" viewBox="0 0 32 32" fill="none" xmlns="http://www.w3.org/2000/svg">
<g id="Solid/Brands/Telegram">
<path id="Subtract" fill-rule="evenodd" clip-rule="evenodd" d="M24.6438 26.3867L24.6447 26.3844L24.6679 26.3264L28.6663 6.16768V6.1022C28.6663 5.59993 28.4807 5.16145 28.0768 4.89844C27.7234 4.66822 27.317 4.65183 27.0321 4.67345C26.7307 4.69633 26.4466 4.77155 26.2498 4.83416C26.1486 4.86637 26.0639 4.89741 26.0034 4.92089C25.973 4.93267 25.9483 4.94267 25.9304 4.95012L25.9128 4.95753L3.6197 13.7028L3.61356 13.705C3.60152 13.7094 3.5856 13.7153 3.56637 13.7228C3.52803 13.7377 3.47584 13.7591 3.41454 13.7868C3.29416 13.8414 3.12785 13.9256 2.95918 14.0411C2.67271 14.2373 2.12722 14.7017 2.21933 15.438C2.29563 16.0479 2.71603 16.4352 2.99945 16.6358C3.15139 16.7433 3.29674 16.8208 3.40317 16.8714C3.4571 16.8971 3.50292 16.9168 3.53703 16.9307C3.55414 16.9376 3.56844 16.9432 3.5795 16.9474L3.59367 16.9527L3.60273 16.9561L7.50305 18.2691C7.48988 18.5138 7.51416 18.7634 7.57905 19.0095L9.53276 26.4208C9.76441 27.2995 10.5594 27.9116 11.4681 27.9109C12.2827 27.9104 13.0051 27.4176 13.3121 26.6823L16.3623 23.4209L21.6009 27.4372L21.6754 27.4697C22.1514 27.6774 22.5961 27.7432 23.0026 27.6877C23.4086 27.6322 23.7313 27.462 23.9736 27.2681C24.2121 27.0773 24.3755 26.8619 24.4783 26.6998C24.5305 26.6175 24.5695 26.5451 24.5965 26.4906C24.61 26.4632 24.6207 26.44 24.6287 26.422L24.6388 26.3988L24.6423 26.3902L24.6438 26.3867ZM9.51292 18.4997C9.46851 18.3313 9.53822 18.1535 9.68527 18.0601L22.9146 9.65887C22.9146 9.65887 23.6927 9.18647 23.6649 9.65887C23.6649 9.65887 23.8038 9.74229 23.3868 10.1313C22.9913 10.5007 13.9579 19.2221 13.0439 20.1046C12.9911 20.1556 12.9596 20.214 12.941 20.2849L11.4666 25.9109L9.51292 18.4997Z" fill="#141414"/>
</g>
</svg>
