<svg width="33" height="32" viewBox="0 0 33 32" fill="none" xmlns="http://www.w3.org/2000/svg">
<g id="Solid/Brands/Telegram">
<path id="Subtract" fill-rule="evenodd" clip-rule="evenodd" d="M25.4777 26.3868L25.4787 26.3845L25.5019 26.3265L29.5002 6.16774V6.10226C29.5002 5.59999 29.3147 5.16151 28.9108 4.8985C28.5573 4.66828 28.151 4.65189 27.8661 4.67352C27.5647 4.69639 27.2805 4.77161 27.0838 4.83422C26.9826 4.86644 26.8979 4.89747 26.8373 4.92095C26.8069 4.93273 26.7823 4.94273 26.7644 4.95018L26.7468 4.95759L4.45368 13.7028L4.44755 13.705C4.43551 13.7094 4.41958 13.7154 4.40035 13.7228C4.36201 13.7378 4.30983 13.7591 4.24852 13.7869C4.12815 13.8415 3.96183 13.9257 3.79316 14.0412C3.50669 14.2373 2.96121 14.7018 3.05332 15.4381C3.12961 16.0479 3.55001 16.4353 3.83344 16.6358C3.98537 16.7433 4.13072 16.8208 4.23716 16.8715C4.29109 16.8972 4.3369 16.9168 4.37102 16.9307C4.38812 16.9377 4.40242 16.9433 4.41349 16.9475L4.42765 16.9528L4.43671 16.9561L8.33703 18.2692C8.32387 18.5139 8.34814 18.7634 8.41304 19.0096L10.3667 26.4208C10.5984 27.2996 11.3934 27.9117 12.3021 27.911C13.1167 27.9104 13.8391 27.4176 14.146 26.6824L17.1963 23.421L22.4349 27.4373L22.5094 27.4698C22.9854 27.6775 23.43 27.7433 23.8366 27.6877C24.2426 27.6323 24.5652 27.462 24.8076 27.2681C25.0461 27.0773 25.2095 26.862 25.3123 26.6999C25.3645 26.6175 25.4034 26.5451 25.4304 26.4906C25.444 26.4633 25.4547 26.4401 25.4627 26.4221L25.4727 26.3989L25.4763 26.3903L25.4777 26.3868ZM10.3469 18.4998C10.3025 18.3313 10.3722 18.1535 10.5193 18.0601L23.7486 9.65893C23.7486 9.65893 24.5267 9.18653 24.4989 9.65893C24.4989 9.65893 24.6378 9.74235 24.2208 10.1313C23.8253 10.5008 14.7919 19.2222 13.8779 20.1047C13.8251 20.1556 13.7936 20.2141 13.775 20.285L12.3006 25.911L10.3469 18.4998Z" fill="white"/>
</g>
</svg>
