<svg width="8" height="8" viewBox="0 0 8 8" fill="none" xmlns="http://www.w3.org/2000/svg">
<path d="M4.13111 0.984497C2.40775 0.984497 1.00342 2.38883 1.00342 4.11219C1.00342 5.83554 2.40775 7.23987 4.13111 7.23987C5.85446 7.23987 7.25879 5.83554 7.25879 4.11219C7.25879 2.38883 5.85446 0.984497 4.13111 0.984497ZM5.62614 3.39282L3.85274 5.16622C3.80895 5.21 3.74953 5.23502 3.68697 5.23502C3.62442 5.23502 3.56499 5.21 3.52121 5.16622L2.63607 4.28108C2.54537 4.19038 2.54537 4.04025 2.63607 3.94955C2.72677 3.85884 2.8769 3.85884 2.96761 3.94955L3.68697 4.66891L5.29461 3.06128C5.38531 2.97058 5.53544 2.97058 5.62614 3.06128C5.71684 3.15198 5.71684 3.29899 5.62614 3.39282Z" fill="#54F297"/>
</svg>
