<svg width="8" height="8" viewBox="0 0 8 8" fill="none" xmlns="http://www.w3.org/2000/svg">
<path d="M3.99488 0.984497C2.27152 0.984497 0.867188 2.38883 0.867188 4.11219C0.867188 5.83554 2.27152 7.23987 3.99488 7.23987C5.71823 7.23987 7.12256 5.83554 7.12256 4.11219C7.12256 2.38883 5.71823 0.984497 3.99488 0.984497ZM5.48991 3.39282L3.71651 5.16622C3.67272 5.21 3.6133 5.23502 3.55074 5.23502C3.48819 5.23502 3.42876 5.21 3.38498 5.16622L2.49984 4.28108C2.40914 4.19038 2.40914 4.04025 2.49984 3.94955C2.59054 3.85884 2.74067 3.85884 2.83138 3.94955L3.55074 4.66891L5.15838 3.06128C5.24908 2.97058 5.39921 2.97058 5.48991 3.06128C5.58061 3.15198 5.58061 3.29899 5.48991 3.39282Z" fill="#54F297"/>
</svg>
