<svg width="9" height="8" viewBox="0 0 9 8" fill="none" xmlns="http://www.w3.org/2000/svg">
<path d="M4.72241 0.984497C2.99906 0.984497 1.59473 2.38883 1.59473 4.11219C1.59473 5.83554 2.99906 7.23987 4.72241 7.23987C6.44577 7.23987 7.8501 5.83554 7.8501 4.11219C7.8501 2.38883 6.44577 0.984497 4.72241 0.984497ZM6.21745 3.39282L4.44405 5.16622C4.40026 5.21 4.34084 5.23502 4.27828 5.23502C4.21573 5.23502 4.1563 5.21 4.11252 5.16622L3.22738 4.28108C3.13668 4.19038 3.13668 4.04025 3.22738 3.94955C3.31808 3.85884 3.46821 3.85884 3.55891 3.94955L4.27828 4.66891L5.88591 3.06128C5.97662 2.97058 6.12675 2.97058 6.21745 3.06128C6.30815 3.15198 6.30815 3.29899 6.21745 3.39282Z" fill="#54F297"/>
</svg>
