<svg width="8" height="8" viewBox="0 0 8 8" fill="none" xmlns="http://www.w3.org/2000/svg">
<path d="M3.85864 0.984497C2.13529 0.984497 0.730957 2.38883 0.730957 4.11219C0.730957 5.83554 2.13529 7.23987 3.85864 7.23987C5.582 7.23987 6.98633 5.83554 6.98633 4.11219C6.98633 2.38883 5.582 0.984497 3.85864 0.984497ZM5.35368 3.39282L3.58028 5.16622C3.53649 5.21 3.47707 5.23502 3.41451 5.23502C3.35196 5.23502 3.29253 5.21 3.24875 5.16622L2.36361 4.28108C2.27291 4.19038 2.27291 4.04025 2.36361 3.94955C2.45431 3.85884 2.60444 3.85884 2.69514 3.94955L3.41451 4.66891L5.02214 3.06128C5.11285 2.97058 5.26298 2.97058 5.35368 3.06128C5.44438 3.15198 5.44438 3.29899 5.35368 3.39282Z" fill="#54F297"/>
</svg>
