<svg width="12" height="11" viewBox="0 0 12 11" fill="none" xmlns="http://www.w3.org/2000/svg">
<path d="M10.2319 3.21596C10.2231 3.21596 10.2099 3.21596 10.1967 3.21596C7.86815 2.98267 5.54404 2.89463 3.24193 3.12792L2.34397 3.21596C2.1591 3.23357 1.99623 3.10151 1.97863 2.91664C1.96102 2.73177 2.09307 2.57331 2.27354 2.5557L3.1715 2.46766C5.51322 2.22997 7.88576 2.32241 10.2627 2.5557C10.4432 2.57331 10.5752 2.73617 10.5576 2.91664C10.5444 3.08831 10.3992 3.21596 10.2319 3.21596Z" fill="#141414"/>
<path d="M4.72987 2.77141C4.71226 2.77141 4.69466 2.77141 4.67265 2.76701C4.49658 2.7362 4.37333 2.56453 4.40414 2.38846L4.50098 1.81183C4.57141 1.38926 4.66825 0.803833 5.69385 0.803833H6.84711C7.87712 0.803833 7.97395 1.41127 8.03998 1.81623L8.13682 2.38846C8.16763 2.56893 8.04438 2.7406 7.86831 2.76701C7.68784 2.79782 7.51617 2.67457 7.48976 2.4985L7.39292 1.92628C7.3313 1.54333 7.31809 1.4685 6.85151 1.4685H5.69825C5.23167 1.4685 5.22287 1.53012 5.15684 1.92188L5.0556 2.4941C5.02919 2.65697 4.88833 2.77141 4.72987 2.77141Z" fill="#141414"/>
<path d="M7.68346 10.2676H4.85754C3.32133 10.2676 3.25971 9.41806 3.21129 8.73138L2.92517 4.29883C2.91197 4.11836 3.05282 3.9599 3.2333 3.94669C3.41817 3.93789 3.57223 4.07434 3.58544 4.25481L3.87155 8.68737C3.91997 9.35643 3.93757 9.60733 4.85754 9.60733H7.68346C8.60782 9.60733 8.62543 9.35643 8.66945 8.68737L8.95556 4.25481C8.96876 4.07434 9.12723 3.93789 9.3077 3.94669C9.48817 3.9599 9.62902 4.11396 9.61582 4.29883L9.32971 8.73138C9.28129 9.41806 9.21966 10.2676 7.68346 10.2676Z" fill="#141414"/>
<path d="M7.00099 7.8466H5.53521C5.35474 7.8466 5.20508 7.69694 5.20508 7.51647C5.20508 7.336 5.35474 7.18634 5.53521 7.18634H7.00099C7.18146 7.18634 7.33112 7.336 7.33112 7.51647C7.33112 7.69694 7.18146 7.8466 7.00099 7.8466Z" fill="#141414"/>
<path d="M7.37084 6.08592H5.16997C4.9895 6.08592 4.83984 5.93626 4.83984 5.75579C4.83984 5.57532 4.9895 5.42566 5.16997 5.42566H7.37084C7.55132 5.42566 7.70097 5.57532 7.70097 5.75579C7.70097 5.93626 7.55132 6.08592 7.37084 6.08592Z" fill="#141414"/>
</svg>
