<svg width="32" height="32" viewBox="0 0 32 32" fill="none" xmlns="http://www.w3.org/2000/svg">
<g id="Solid/Brands/Twitter">
<path id="Vector" d="M29.0797 8.30296C29.157 8.19527 29.0428 8.05622 28.9192 8.10412C28.0409 8.44456 27.123 8.67425 26.1867 8.78745C27.2293 8.16462 28.0337 7.21651 28.4799 6.09402C28.5253 5.97968 28.4004 5.87756 28.2927 5.93705C27.3238 6.47217 26.2788 6.85749 25.1932 7.07941C25.1478 7.0887 25.1009 7.07323 25.069 7.03957C24.2544 6.18 23.1821 5.60769 22.0131 5.40992C20.8196 5.20799 19.5928 5.40792 18.5251 5.97837C17.4574 6.54881 16.6093 7.45749 16.1137 8.56189C15.6425 9.61197 15.5153 10.7825 15.7477 11.9067C15.7658 11.9939 15.6975 12.0763 15.6086 12.0707C13.4965 11.9396 11.4329 11.3778 9.54491 10.4193C7.66169 9.46317 5.99405 8.13308 4.64356 6.51104C4.58362 6.43905 4.47002 6.44837 4.42635 6.53124C4.00613 7.32866 3.78611 8.21745 3.7867 9.12078C3.785 10.02 4.00566 10.9056 4.42904 11.6989C4.85243 12.4921 5.46539 13.1684 6.21337 13.6674C5.42014 13.6459 4.64237 13.4498 3.93503 13.0942C3.84388 13.0484 3.73454 13.1136 3.73928 13.2155C3.79443 14.4012 4.22971 15.5915 4.98312 16.5047C5.78488 17.4766 6.89771 18.1416 8.13337 18.3874C7.65771 18.5322 7.16387 18.6085 6.6667 18.6141C6.39612 18.611 6.12606 18.591 5.85808 18.5543C5.75873 18.5408 5.67759 18.6351 5.71238 18.7292C6.08093 19.7259 6.73203 20.5955 7.58814 21.2303C8.50341 21.909 9.60747 22.2855 10.7467 22.3074C8.82297 23.8211 6.44788 24.6473 4.00004 24.6541C3.74851 24.6549 3.4971 24.6468 3.24628 24.6297C3.10494 24.6201 3.03993 24.8084 3.16176 24.8807C5.54679 26.2961 8.27282 27.0442 11.0534 27.0408C13.1063 27.0621 15.1429 26.6741 17.0442 25.8996C18.9455 25.125 20.6734 23.9793 22.127 22.5294C23.5805 21.0796 24.7307 19.3546 25.5101 17.4553C26.2896 15.556 26.6828 13.5204 26.6667 11.4674V10.8277C26.6667 10.7856 26.6866 10.746 26.7202 10.7206C27.6246 10.0378 28.4199 9.22252 29.0797 8.30296Z" fill="#141414"/>
</g>
</svg>
