<svg width="33" height="33" viewBox="0 0 33 33" fill="none" xmlns="http://www.w3.org/2000/svg">
<g id="Solid/Brands/Twitter">
<path id="Vector" d="M29.2477 8.80302C29.3249 8.69533 29.2108 8.55628 29.0872 8.60418C28.2089 8.94462 27.291 9.17431 26.3547 9.28751C27.3972 8.66468 28.2017 7.71657 28.6478 6.59409C28.6933 6.47974 28.5684 6.37762 28.4607 6.43711C27.4917 6.97223 26.4467 7.35755 25.3612 7.57947C25.3158 7.58876 25.2689 7.57329 25.237 7.53963C24.4224 6.68006 23.3501 6.10775 22.1811 5.90998C20.9875 5.70805 19.7607 5.90799 18.6931 6.47843C17.6254 7.04887 16.7772 7.95755 16.2817 9.06196C15.8104 10.112 15.6833 11.2826 15.9157 12.4068C15.9337 12.494 15.8655 12.5763 15.7766 12.5708C13.6645 12.4396 11.6009 11.8779 9.71288 10.9193C7.82966 9.96323 6.16202 8.63314 4.81153 7.0111C4.75159 6.93911 4.63799 6.94843 4.59432 7.0313C4.1741 7.82872 3.95407 8.71752 3.95467 9.62084C3.95297 10.52 4.17363 11.4057 4.59701 12.1989C5.0204 12.9922 5.63336 13.6685 6.38134 14.1675C5.58811 14.1459 4.81034 13.9498 4.103 13.5943C4.01185 13.5485 3.9025 13.6137 3.90725 13.7156C3.9624 14.9013 4.39767 16.0916 5.15109 17.0048C5.95285 17.9766 7.06568 18.6417 8.30134 18.8875C7.82568 19.0323 7.33184 19.1086 6.83467 19.1142C6.56408 19.111 6.29403 19.091 6.02605 19.0544C5.92669 19.0408 5.84556 19.1352 5.88035 19.2293C6.2489 20.2259 6.9 21.0956 7.75611 21.7304C8.67137 22.4091 9.77544 22.7856 10.9147 22.8075C8.99094 24.3212 6.61585 25.1473 4.16801 25.1542C3.91648 25.155 3.66507 25.1468 3.41425 25.1298C3.2729 25.1201 3.2079 25.3084 3.32973 25.3807C5.71476 26.7961 8.44079 27.5442 11.2213 27.5408C13.2743 27.5622 15.3109 27.1742 17.2122 26.3996C19.1135 25.625 20.8414 24.4794 22.2949 23.0295C23.7485 21.5797 24.8986 19.8547 25.6781 17.9554C26.4575 16.0561 26.8507 14.0205 26.8347 11.9675V11.3277C26.8347 11.2856 26.8546 11.2461 26.8882 11.2207C27.7926 10.5378 28.5879 9.72258 29.2477 8.80302Z" fill="white"/>
</g>
</svg>
