<svg width="16" height="16" viewBox="0 0 16 16" fill="none" xmlns="http://www.w3.org/2000/svg">
<g id="loma/Bold/user_profile">
<g id="Group 11416">
<g id="Group 11417">
<path id="Ellipse 131" d="M12.8983 4.35291C12.8983 5.6524 11.8448 6.70585 10.5453 6.70585C9.24583 6.70585 8.19238 5.6524 8.19238 4.35291C8.19238 3.05342 9.24583 1.99997 10.5453 1.99997C11.8448 1.99997 12.8983 3.05342 12.8983 4.35291Z" fill="#196719"/>
<path id="Ellipse 343" d="M7.40803 4.35288C7.40803 5.65237 6.35458 6.70582 5.05509 6.70582C3.7556 6.70582 2.70215 5.65237 2.70215 4.35288C2.70215 3.05339 3.7556 1.99994 5.05509 1.99994C6.35458 1.99994 7.40803 3.05339 7.40803 4.35288ZM3.87862 4.35288C3.87862 5.00263 4.40534 5.52935 5.05509 5.52935C5.70484 5.52935 6.23156 5.00263 6.23156 4.35288C6.23156 3.70313 5.70484 3.17641 5.05509 3.17641C4.40534 3.17641 3.87862 3.70313 3.87862 4.35288Z" fill="#196719"/>
</g>
<path id="Subtract" fill-rule="evenodd" clip-rule="evenodd" d="M4.27104 7.60779C2.53839 7.60779 1.13379 9.01239 1.13379 10.745V13.8823C1.13379 14.3155 1.48494 14.6666 1.9181 14.6666H13.6828C14.116 14.6666 14.4671 14.3155 14.4671 13.8823V10.745C14.4671 9.01239 13.0625 7.60779 11.3299 7.60779H4.27104ZM3.84625 9.17635C3.2687 9.17635 2.8005 9.64455 2.8005 10.2221V12.8365C2.8005 12.9809 2.91755 13.0979 3.06193 13.0979H5.87239C6.01678 13.0979 6.13383 12.9809 6.13383 12.8365V10.2221C6.13383 9.64455 5.66563 9.17635 5.08808 9.17635H3.84625Z" fill="#196719"/>
</g>
</g>
</svg>
