<svg width="9" height="9" viewBox="0 0 9 9" fill="none" xmlns="http://www.w3.org/2000/svg">
<path d="M7.72996 3.95203L7.3046 3.45786C7.22328 3.36403 7.1576 3.18888 7.1576 3.06377V2.53206C7.1576 2.20053 6.88549 1.92842 6.55395 1.92842H6.02225C5.90027 1.92842 5.72199 1.86274 5.62816 1.78142L5.13398 1.35605C4.91817 1.17152 4.56474 1.17152 4.3458 1.35605L3.85476 1.78454C3.76093 1.86274 3.58265 1.92842 3.46067 1.92842H2.91958C2.58804 1.92842 2.31594 2.20053 2.31594 2.53206V3.0669C2.31594 3.18888 2.25025 3.36403 2.17206 3.45786L1.74982 3.95516C1.56842 4.17097 1.56842 4.52127 1.74982 4.73708L2.17206 5.23438C2.25025 5.32821 2.31594 5.50337 2.31594 5.62535V6.16018C2.31594 6.49171 2.58804 6.76382 2.91958 6.76382H3.46067C3.58265 6.76382 3.76093 6.8295 3.85476 6.91083L4.34893 7.33619C4.56474 7.52072 4.91817 7.52072 5.13711 7.33619L5.63128 6.91083C5.72512 6.8295 5.90027 6.76382 6.02537 6.76382H6.55708C6.88862 6.76382 7.16072 6.49171 7.16072 6.16018V5.62847C7.16072 5.50649 7.22641 5.32821 7.30773 5.23438L7.73309 4.74021C7.9145 4.5244 7.9145 4.16784 7.72996 3.95203ZM6.04101 3.75499L4.53034 5.26566C4.48655 5.30945 4.42712 5.33447 4.36457 5.33447C4.30202 5.33447 4.24259 5.30945 4.1988 5.26566L3.4419 4.50876C3.3512 4.41806 3.3512 4.26793 3.4419 4.17723C3.53261 4.08652 3.68273 4.08652 3.77344 4.17723L4.36457 4.76836L5.70948 3.42345C5.80018 3.33275 5.95031 3.33275 6.04101 3.42345C6.13171 3.51416 6.13171 3.66428 6.04101 3.75499Z" fill="#54F297"/>
</svg>
