<svg width="77" height="81" viewBox="0 0 77 81" fill="none" xmlns="http://www.w3.org/2000/svg">
<path opacity="0.1" d="M56.4935 39.5972C56.4455 38.2083 56.3551 36.7272 56.2057 35.1945C56.0047 32.1327 55.6211 29.2738 54.9257 27.4755C51.0966 26.6916 31.2043 28.1524 31.1895 28.1524L31.0659 27.5991L31.0161 27.3796L30.9276 26.9941L30.9036 26.9055C30.7745 26.3854 30.6288 25.8708 30.4591 25.3599C30.4591 25.3599 15.3789 24.0134 10.3768 25.3193C10.3768 25.3636 10.3768 25.406 10.3768 25.4503L10.3915 26.6842C10.4063 29.0728 10.351 31.3138 10.4745 33.7743V33.7927C10.4506 33.7905 10.4265 33.7905 10.4026 33.7927C10.2085 33.8184 10.0253 33.8972 9.87323 34.0206C9.7212 34.144 9.60629 34.3071 9.54124 34.4917C9.49161 34.635 9.47337 34.7872 9.48775 34.9381L9.55415 35.7146C9.55415 35.7275 9.55415 35.7386 9.55415 35.7515C9.7386 37.7103 9.92304 39.6507 9.92304 39.6507C9.92304 39.6507 10.019 39.6599 10.1757 39.6673L11.0039 39.7263C9.2406 39.8886 7.31499 42.2163 7.39984 44.2175C7.48468 46.2187 5.55539 49.9869 6.03679 52.1486C6.40568 53.8381 8.30362 56.555 9.22769 58.6189L9.15575 59.0284L5.02972 67.3137C5.30639 66.9079 7.79639 77.7348 19.3611 75.4421L27.5892 62.0367C28.5069 61.3446 29.3467 60.5548 30.0939 59.6813C30.4093 59.368 30.6715 59.0055 30.8704 58.6079C31.1642 58.1385 31.3885 57.6291 31.5363 57.0954C31.5732 56.9552 31.6119 56.8169 31.6525 56.6749C32.3238 54.9651 33.2202 52.6319 33.8769 51.0161C42.5458 50.7579 51.6481 50.2286 56.2187 49.1532H56.2279C56.6705 46.1468 56.6798 42.7733 56.4935 39.5972ZM11.9741 47.1723C11.9025 46.6729 11.8594 46.1697 11.845 45.6654C11.9464 46.1966 12.0571 46.726 12.1733 47.2572C12.1069 47.2276 12.0405 47.1981 11.9741 47.1723Z" fill="black"/>
<path d="M4.08722 66.7843C4.08722 66.7843 7.79087 77.7348 19.3611 75.4422C19.3611 75.4422 21.9286 63.3887 24.0792 61.6088C25.4662 60.4653 28.5298 58.4143 29.1846 56.9295C29.8394 55.4447 32.4696 48.3934 32.9786 47.5449C33.4877 46.6965 27.4601 36.9338 27.4601 36.9338L14.7629 43.4853L7.69865 56.0275C7.69865 56.0275 6.34298 64.1431 4.08722 66.7843Z" fill="white"/>
<path d="M7.57506 57.005C7.57506 57.005 6.66944 63.776 3.6759 67.3136" stroke="#474747" stroke-width="0.0860537" stroke-linecap="round" stroke-linejoin="round"/>
<path d="M19.3611 75.4421C19.3611 75.4421 21.9138 63.7797 24.0792 61.6088C24.0792 61.6088 28.9707 58.7647 29.8523 55.417C30.4628 53.0985 31.5732 50.4259 32.1044 49.2123" stroke="#474747" stroke-width="0.0860537" stroke-linecap="round" stroke-linejoin="round"/>
<path d="M20.3903 49.5868C20.2059 49.4687 23.3507 51.9845 23.4724 55.4226" stroke="#474747" stroke-width="0.0860537" stroke-linecap="round" stroke-linejoin="round"/>
<path d="M54.5439 47.4785C44.3478 49.8763 11.5092 49.5609 11.5092 49.5609C11.2326 48.978 10.8987 47.5098 10.576 45.8093C9.9304 42.3952 9.32726 38.0441 9.32726 38.0441L8.24088 37.9685C8.24088 37.9685 8.05644 36.0282 7.87199 34.0694C7.68755 32.1106 8.79422 32.1124 8.79422 32.1124L8.71491 25.3322L8.69462 23.639C13.6968 22.3332 28.777 23.6796 28.777 23.6796L29.2473 25.3138L29.5092 26.4721L53.2435 25.8026C55.42 31.43 54.5439 47.4785 54.5439 47.4785Z" fill="#FCCE17"/>
<path d="M50.6006 31.0306L35.0335 31.8089C34.3928 31.841 33.8993 32.3864 33.9314 33.0271L34.0895 36.1903C34.1216 36.8311 34.6669 37.3245 35.3077 37.2925L50.8748 36.5141C51.5156 36.4821 52.009 35.9367 51.977 35.296L51.8188 32.1327C51.7868 31.492 51.2414 30.9985 50.6006 31.0306Z" fill="#474747"/>
<path d="M51.8916 38.5808L51.9414 39.1065L34.0171 39.8L34.0023 39.3278L51.8916 38.5808Z" fill="#474747"/>
<path d="M51.9801 40.4087L51.9967 40.8809L34.0742 41.543L34.0576 41.0727L51.9801 40.4087Z" fill="#474747"/>
<path opacity="0.3" d="M53.2399 25.8026C53.2399 25.8026 55.8848 38.3448 54.5439 47.4785C54.5439 47.4785 37.8185 49.441 32.0915 49.1238L31.8572 46.0712L32.3368 45.9974C32.3368 45.9974 30.0275 28.5748 29.5037 26.4721C29.5037 26.4721 49.4219 25.0169 53.2399 25.8026Z" fill="black"/>
<path opacity="0.8" d="M31.3057 46.0269L31.5031 48.3343C31.5031 48.3343 14.6448 49.072 13.1619 48.5353C11.6789 47.9986 13.2412 47.1427 17.1625 46.8347C21.0838 46.5267 31.3057 46.0269 31.3057 46.0269Z" fill="white"/>
<path d="M21.2406 36.2402C22.0911 36.2402 22.7807 35.6159 22.7807 34.8458C22.7807 34.0757 22.0911 33.4514 21.2406 33.4514C20.39 33.4514 19.7004 34.0757 19.7004 34.8458C19.7004 35.6159 20.39 36.2402 21.2406 36.2402Z" fill="#474747"/>
<path d="M9.32727 38.0422C9.67472 41.9439 10.4049 45.802 11.5074 49.5608C18.6583 49.4999 25.8074 49.4206 32.9565 49.1919C40.1056 48.9632 47.452 48.4799 54.5365 47.4784C54.5365 47.4784 55.8055 36.2716 53.2325 25.8025C50.3884 25.2104 29.5756 26.4683 29.5756 26.4683" stroke="#474747" stroke-width="0.0860537" stroke-linecap="round" stroke-linejoin="round"/>
<path d="M31.3057 46.0269L31.5031 48.3344L15.4564 48.7032C14.7942 48.7604 13.7632 48.8471 13.1545 48.5354C12.8778 48.3934 12.6786 48.0466 12.8096 47.7626C12.9276 47.508 13.2375 47.4177 13.5142 47.3623C15.4767 46.9584 17.4797 46.7887 19.4773 46.6411C23.7539 46.3239 28.0373 46.1093 32.3275 45.9974C32.2371 45.9974 31.1913 37.3673 31.0751 36.5705C30.6214 33.4534 30.1898 30.3233 29.6291 27.2228C29.4267 26.0224 29.1376 24.8382 28.7641 23.6796C22.1536 23.2075 15.2498 22.7703 8.67987 23.6391C8.74074 26.5662 8.63191 29.1724 8.78131 32.1124" stroke="#474747" stroke-width="0.0860537" stroke-linecap="round" stroke-linejoin="round"/>
<path d="M11.2621 48.6921C11.2226 48.5728 11.1991 48.4488 11.192 48.3232" stroke="#474747" stroke-width="0.0860537" stroke-linecap="round" stroke-linejoin="round"/>
<path d="M11.299 47.6242C11.5443 47.01 12.2803 46.3164 14.2815 46.0951C17.9316 45.6893 25.8886 44.9589 30.5569 44.7819" stroke="#474747" stroke-width="0.0860537" stroke-linecap="round" stroke-linejoin="round" stroke-dasharray="0.34 0.34"/>
<path d="M30.9184 44.769L31.2873 44.7561L31.2375 44.3872" stroke="#474747" stroke-width="0.0860537" stroke-linecap="round" stroke-linejoin="round"/>
<path d="M31.1342 43.6807C30.2949 37.6439 29.3653 31.6513 28.3011 25.6476" stroke="#474747" stroke-width="0.0860537" stroke-linecap="round" stroke-linejoin="round" stroke-dasharray="0.33 0.33"/>
<path d="M28.2421 25.2953L28.1757 24.9265L27.8068 24.9006" stroke="#474747" stroke-width="0.0860537" stroke-linecap="round" stroke-linejoin="round"/>
<path d="M27.0616 24.8527C23.9943 24.648 15.2719 24.1371 9.4527 24.5355" stroke="#474747" stroke-width="0.0860537" stroke-linecap="round" stroke-linejoin="round" stroke-dasharray="0.35 0.35"/>
<path d="M9.07647 24.5631L8.70758 24.5926" stroke="#474747" stroke-width="0.0860537" stroke-linecap="round" stroke-linejoin="round"/>
<path d="M8.24093 37.9685L7.80011 33.2651C7.78673 33.1239 7.80199 32.9814 7.84496 32.8461C7.88794 32.7109 7.95775 32.5857 8.05021 32.4781C8.14268 32.3705 8.25591 32.2826 8.38312 32.2198C8.51033 32.1569 8.64892 32.1204 8.79058 32.1123C11.5019 31.9556 18.5145 31.5867 21.2055 31.8025C22.4967 31.9058 23.9003 32.3208 24.5256 33.5566C25.0457 34.5747 25.1232 36.1019 24.2507 36.9393C22.9227 38.2119 20.4032 38.1142 18.6916 38.175C15.5044 38.2968 8.24278 37.9961 8.24093 37.9685Z" stroke="#474747" stroke-width="0.0860537" stroke-linecap="round" stroke-linejoin="round"/>
<path d="M24.9147 35.093C24.9147 34.9621 25.5861 37.7951 23.133 38.7303C20.6798 39.6654 9.32727 39.3703 9.32727 39.3703V38.0423C9.32727 38.0423 17.358 38.212 18.6952 38.1751C20.0324 38.1382 24.7708 38.5827 24.9147 35.093Z" fill="#474747"/>
<path d="M22.5557 50.9183C22.5557 50.9183 24.5624 52.0932 25.3131 54.301" stroke="#474747" stroke-width="0.0860537" stroke-linecap="round" stroke-linejoin="round"/>
<path d="M7.85541 32.8189C7.85541 32.8189 17.6974 32.3559 20.2021 32.4389C22.7069 32.5219 23.9335 33.0734 24.1825 34.643C24.4315 36.2127 22.9135 37.1902 21.7035 37.3747C20.4936 37.5591 8.23905 37.6126 8.23905 37.6126" stroke="#474747" stroke-width="0.0860537" stroke-linecap="round" stroke-linejoin="round" stroke-dasharray="0.34 0.34"/>
<path d="M14.619 51.8333C14.619 51.8333 13.0955 46.5416 10.292 45.4995C10.292 45.4995 9.73863 41.888 10.9338 41.6888C12.129 41.4896 15.5044 39.2652 14.6227 36.4893C13.7411 33.7134 11.0943 37.8819 9.33101 38.0424C7.56772 38.2028 5.64211 40.5324 5.72143 42.5354C5.80074 44.5385 3.87698 48.3067 4.35838 50.4666C4.83978 52.6264 7.8075 56.4794 8.04727 58.4844" fill="white"/>
<path d="M14.619 51.8333C14.619 51.8333 13.0955 46.5416 10.292 45.4995C10.292 45.4995 9.73863 41.888 10.9338 41.6888C12.129 41.4896 15.5044 39.2652 14.6227 36.4893C13.7411 33.7134 11.0943 37.8819 9.33101 38.0424C7.56772 38.2028 5.64211 40.5324 5.72143 42.5354C5.80074 44.5385 3.87698 48.3067 4.35838 50.4666C4.83978 52.6264 7.8075 56.4794 8.04727 58.4844" stroke="#474747" stroke-width="0.0860537" stroke-linecap="round" stroke-linejoin="round"/>
<path d="M10.9283 37.229C10.9283 37.229 13.0402 37.6126 14.1874 36.2717C15.3347 34.9308 14.014 34.8459 14.014 34.8459L10.9283 37.229Z" fill="white" stroke="#474747" stroke-width="0.0860537" stroke-linecap="round" stroke-linejoin="round"/>
<path d="M7.15637 40.2169C7.54189 40.2434 7.91468 40.3658 8.24091 40.5729" stroke="#474747" stroke-width="0.0860537" stroke-linecap="round" stroke-linejoin="round"/>
<path d="M7.09186 40.9841C7.47587 41.0205 7.84169 41.1651 8.14688 41.401" stroke="#474747" stroke-width="0.0860537" stroke-linecap="round" stroke-linejoin="round"/>
<path d="M12.793 48.0725C12.793 48.0725 21.8308 47.6058 24.2102 47.7423" stroke="#474747" stroke-width="0.0860537" stroke-linecap="round" stroke-linejoin="round"/>
<path d="M22.0097 47.0524C22.0097 47.0524 24.2839 46.868 25.6986 47.0524" stroke="#474747" stroke-width="0.0860537" stroke-linecap="round" stroke-linejoin="round"/>
<path d="M27.7718 47.7164H31.4515" stroke="#474747" stroke-width="0.0860537" stroke-linecap="round" stroke-linejoin="round"/>
<path d="M29.998 27.505C29.998 27.505 46.1609 26.0608 52.6552 26.8853C52.6552 26.8853 54.4074 30.1075 54.0256 46.6208C46.7263 47.5565 39.3824 48.1026 32.025 48.2569" stroke="#474747" stroke-width="0.0860537" stroke-linecap="round" stroke-linejoin="round" stroke-dasharray="0.34 0.34"/>
<g opacity="0.1">
<path d="M73.752 50.3579C73.2927 48.4046 72.6195 47.6706 71.9444 47.1062C71.9444 47.1062 71.9297 45.9995 71.0646 45.3687C70.8336 45.1652 70.5869 44.9801 70.3268 44.8153C69.5153 44.2067 68.6207 43.5242 68.6207 43.5242C68.2002 42.3069 67.6303 40.8332 67.0142 39.3835L67.0456 39.7136C66.4148 38.1735 65.7969 36.6408 65.6235 36.1317V36.1206C65.8079 36.6113 65.9924 37.0853 66.1953 37.5224L63.886 29.3607C63.8307 29.0324 63.7735 28.7096 63.7163 28.3979C63.6057 27.4757 63.305 25.7382 62.5802 25.6147C62.5531 25.6128 62.526 25.6128 62.499 25.6147C62.499 25.6147 61.645 25.2458 61.645 26.7601C60.6287 27.0994 60.2359 27.8667 60.1381 28.7687C60.0852 29.0547 60.079 29.3475 60.1197 29.6356C60.1381 29.9694 60.1768 30.3106 60.2285 30.65L56.9564 26.3488L56.641 25.9393L52.6054 20.6273L47.1809 13.4708C46.979 13.2052 46.7268 12.9819 46.4387 12.8137C46.1505 12.6456 45.8321 12.5358 45.5015 12.4908C45.1709 12.4457 44.8347 12.4663 44.512 12.5512C44.1894 12.6361 43.8867 12.7838 43.6211 12.9857L36.887 18.1004L34.2587 20.0961C32.2427 21.1456 32.7684 23.2187 33.3272 23.9547L45.0708 39.413C45.0097 39.4052 44.948 39.4022 44.8864 39.4037C44.8864 39.4037 44.5507 38.6125 43.7207 38.7379C43.5439 38.7461 43.3729 38.8029 43.2264 38.9021C43.0925 38.9725 42.9788 39.076 42.8962 39.2027C42.8042 39.3137 42.7216 39.4322 42.6491 39.5568C42.2267 40.2799 42.6177 42.0487 43.2282 44.2085C43.267 44.3487 43.3057 44.4833 43.3426 44.6088V44.6291L43.4994 45.1695C44.097 47.2426 45.2147 51.3133 45.4213 53.309C45.436 53.4935 45.4452 53.6908 45.4489 53.8753C45.4618 56.1734 44.4419 60.021 44.8808 61.6109C44.938 61.8193 44.9971 62.0185 45.0561 62.2158C45.3825 63.2782 45.674 64.2835 46.1867 65.2813C46.8101 66.4986 47.5535 67.6662 48.2488 68.8448C49.5252 71.0102 50.8458 73.1497 52.2107 75.2635C52.8396 76.2336 53.5756 77.119 54.2875 78.0301C54.614 78.4488 55.3259 79.0778 55.4495 79.6145C55.4495 79.6145 61.7631 80.1365 65.297 77.8918L64.965 72.8675L67.3351 59.2463C68.0121 58.2189 70.1018 56.2122 70.5187 55.5777C70.7345 55.2623 70.9447 54.9487 71.1495 54.6426C72.708 53.1873 73.4882 52.0603 73.8313 50.7489C73.8387 50.7526 73.8147 50.6032 73.752 50.3579ZM51.8953 53.333L51.8639 53.274C52.5088 53.566 53.192 53.7647 53.8928 53.8642C53.1569 53.7794 52.325 53.6613 51.8953 53.333ZM54.5587 53.9435L54.898 53.9675C54.7845 53.9671 54.6711 53.9591 54.5587 53.9435ZM51.8289 53.1947L51.4047 52.3536C50.8144 50.6604 49.4809 46.669 49.4754 46.6524C49.2142 45.5023 48.8652 44.3738 48.4314 43.2771C48.7452 43.3877 49.0815 43.4187 49.4102 43.3671C49.7389 43.3156 50.0497 43.1833 50.3146 42.982L53.5424 40.5307C53.8762 40.7317 54.2174 40.9125 54.5513 41.0711L57.5743 43.4339L55.1766 53.2887L51.8289 53.1947ZM64.0649 30.4969C64.3158 31.6737 64.7123 33.3669 65.238 35.0066C64.7277 33.5367 64.3342 32.0288 64.0613 30.4969H64.0649Z" fill="black"/>
<path d="M50.3625 77.8513L50.381 77.9398C50.381 77.9398 50.3755 77.9067 50.3625 77.8513Z" fill="black"/>
</g>
<path d="M61.5676 30.8582C61.752 30.7365 64.456 29.2646 65.8098 33.6784C67.1636 38.0921 68.7517 45.6027 68.7517 45.6027L65.535 46.228C65.535 46.228 62.5544 44.6418 59.8836 40.6688C59.8836 40.6688 56.1394 39.6986 54.5089 37.3931C53.0333 35.2978 57.5854 27.6046 57.5854 27.6046L61.5676 30.8582Z" fill="white"/>
<path d="M60.4111 36.351C61.2079 37.5462 62.7167 40.0601 64.753 40.8532" stroke="#474747" stroke-width="0.0860537" stroke-linecap="round" stroke-linejoin="round"/>
<path d="M58.1572 37.6365C58.5261 37.7859 59.4483 38.3171 59.8836 38.3374C59.8836 38.3374 61.7631 42.0576 64.8636 43.2657" stroke="#474747" stroke-width="0.0860537" stroke-linecap="round" stroke-linejoin="round"/>
<path d="M56.4326 39.007C57.5854 39.9716 58.9595 40.6301 59.8836 40.667C59.8836 40.667 61.7631 44.3872 64.8636 45.5953" stroke="#474747" stroke-width="0.0860537" stroke-linecap="round" stroke-linejoin="round"/>
<path d="M46.7311 12.0487L36.532 19.7959C35.6462 20.4687 35.4736 21.7322 36.1464 22.6181L50.312 41.267C50.9848 42.1528 52.2484 42.3254 53.1342 41.6526L63.3333 33.9054C64.2191 33.2326 64.3918 31.969 63.7189 31.0832L49.5533 12.4343C48.8805 11.5485 47.6169 11.3758 46.7311 12.0487Z" fill="#474747"/>
<path d="M63.0431 33.5013L53.6844 40.6116C53.4189 40.814 53.1161 40.9619 52.7933 41.0469C52.4705 41.132 52.1341 41.1525 51.8034 41.1073C51.4727 41.062 51.1541 40.9519 50.866 40.7833C50.578 40.6147 50.326 40.3909 50.1246 40.1247L36.5956 22.3147C36.3752 22.0271 36.2203 21.6947 36.1418 21.3409C36.0328 20.8657 36.0634 20.3692 36.23 19.9111C36.3965 19.453 36.6919 19.0528 37.0807 18.7586L39.7109 16.7629L46.4431 11.6464C46.7088 11.4446 47.0116 11.297 47.3343 11.2123C47.657 11.1275 47.9933 11.1071 48.3239 11.1523C48.6545 11.1976 48.9729 11.3075 49.261 11.4758C49.5491 11.6441 49.8012 11.8676 50.0029 12.1334L55.4311 19.2788L59.4667 24.5908L63.5245 29.9397C63.727 30.2051 63.8751 30.5077 63.9605 30.8304C64.0459 31.1531 64.0668 31.4895 64.0221 31.8203C63.9774 32.151 63.8679 32.4698 63.6999 32.7582C63.5319 33.0467 63.3087 33.2992 63.0431 33.5013Z" fill="#FCCE17"/>
<path opacity="0.1" d="M55.4237 19.2788L39.7053 16.7611L46.4431 11.6464C46.7088 11.4446 47.0116 11.297 47.3343 11.2123C47.657 11.1275 47.9933 11.1071 48.3239 11.1523C48.6545 11.1976 48.9729 11.3075 49.261 11.4758C49.5491 11.6441 49.8012 11.8676 50.0029 12.1334L55.4237 19.2788Z" fill="black"/>
<path opacity="0.1" d="M63.0431 33.5013L53.6844 40.6116C53.4189 40.8139 53.1161 40.9619 52.7933 41.0469C52.4705 41.132 52.1341 41.1525 51.8034 41.1072C51.4727 41.062 51.1541 40.9519 50.866 40.7833C50.578 40.6147 50.326 40.3909 50.1246 40.1247L36.5956 22.3147C36.3752 22.027 36.2203 21.6946 36.1418 21.3408L59.7766 25.0168L63.5245 29.9507C63.9299 30.486 64.1068 31.16 64.0166 31.8253C63.9264 32.4907 63.5764 33.0933 63.0431 33.5013Z" fill="black"/>
<path d="M47.7714 13.4547L46.119 14.7099C45.7881 14.9612 45.7236 15.4333 45.975 15.7643L47.9754 18.3978C48.2267 18.7288 48.6988 18.7933 49.0298 18.5419L50.6822 17.2867C51.0131 17.0353 51.0776 16.5633 50.8262 16.2323L48.8258 13.5988C48.5744 13.2678 48.1024 13.2033 47.7714 13.4547Z" fill="white" stroke="#474747" stroke-width="0.0860537" stroke-linecap="round" stroke-linejoin="round"/>
<path d="M46.9799 14.0535L49.8332 17.9305" stroke="#474747" stroke-width="0.0860537" stroke-linecap="round" stroke-linejoin="round"/>
<path d="M46.9799 17.0876L49.8332 14.9241" stroke="#474747" stroke-width="0.0860537" stroke-linecap="round" stroke-linejoin="round"/>
<path d="M52.5058 39.4515L52.0188 39.8093L46.0779 31.9889L46.5611 31.6237L52.5058 39.4515Z" fill="#474747"/>
<path d="M53.3303 38.841L52.8434 39.2025L46.895 31.3691L47.3746 31.0039L53.3303 38.841Z" fill="#474747"/>
<path d="M54.1529 38.2341L53.6678 38.5919L47.7102 30.7512L48.1916 30.3842L54.1529 38.2341Z" fill="#474747"/>
<path d="M54.9774 37.6236L54.4904 37.9814L48.6122 30.244L49.0917 29.877L54.9774 37.6236Z" fill="#474747"/>
<path d="M55.8664 36.967L55.3794 37.3266L49.4919 29.5763L49.9733 29.2092L55.8664 36.967Z" fill="#474747"/>
<path d="M55.8664 27.8481L55.3794 28.2059L49.4919 20.4555L49.9733 20.0903L55.8664 27.8481Z" fill="#474747"/>
<path d="M43.0443 14.2486L42.2908 14.8209L58.8807 36.6615L59.6342 36.0892L43.0443 14.2486Z" fill="#474747"/>
<path d="M63.0431 33.5013L53.6844 40.6116C53.4189 40.814 53.1161 40.9619 52.7933 41.0469C52.4705 41.132 52.1341 41.1525 51.8034 41.1073C51.4727 41.062 51.1541 40.9519 50.866 40.7833C50.578 40.6147 50.326 40.3909 50.1246 40.1247L36.5956 22.3147C36.3752 22.027 36.2203 21.6947 36.1418 21.3409C36.0328 20.8657 36.0634 20.3692 36.23 19.9111C36.3965 19.453 36.6919 19.0528 37.0807 18.7586L39.7109 16.7629L46.4431 11.6464C46.7088 11.4446 47.0116 11.297 47.3343 11.2123C47.657 11.1275 47.9933 11.1071 48.3239 11.1523C48.6545 11.1976 48.9729 11.3075 49.261 11.4758C49.5491 11.6441 49.8012 11.8676 50.0029 12.1334L55.4311 19.2788L59.4667 24.5908L63.5245 29.9397C63.727 30.2051 63.8751 30.5077 63.9605 30.8304C64.0459 31.1531 64.0668 31.4895 64.0221 31.8203C63.9774 32.151 63.8679 32.4698 63.6999 32.7582C63.5319 33.0467 63.3087 33.2992 63.0431 33.5013Z" stroke="#474747" stroke-width="0.0860537" stroke-linecap="round" stroke-linejoin="round"/>
<path d="M55.4569 79.6124C55.4569 79.6124 66.3502 83.4858 69.6462 75.0493C69.6462 75.0493 64.491 68.7781 67.3056 63.6543C69.0763 60.4265 73.9733 53.3014 73.9733 53.3014C73.9733 53.3014 76.0188 51.3592 76.6551 49.4078C76.6551 49.4078 76.3047 47.2332 74.7627 45.7613C74.7627 45.7613 74.7461 44.6546 73.8811 44.0238C73.016 43.393 71.4298 42.1794 71.4298 42.1794C71.4298 42.1794 68.8218 35.923 68.4344 34.7924C68.0471 33.6617 67.2687 31.524 66.8796 29.1631C66.4904 26.8023 66.1307 24.2606 65.3044 24.268C65.3044 24.268 64.4523 23.8991 64.4523 25.4134C64.4523 25.4134 62.6632 26.3356 62.9269 28.287C63.1907 30.2385 63.4341 31.2474 63.3641 32.3448C63.294 33.4423 63.6463 37.2529 64.5279 38.4481C64.5279 38.4481 64.823 43.797 65.2657 45.1895C65.2804 45.232 65.2933 45.2707 65.3063 45.3057C65.7711 46.4843 61.1267 51.0235 58.6128 52.2519C58.6128 52.2519 58.349 52.7425 57.3733 52.6079C56.3976 52.4732 54.7468 52.4105 54.4628 51.6857C54.1787 50.9608 52.2882 45.3057 52.2882 45.3057C52.2882 45.3057 50.7591 38.0571 47.7047 38.0589C47.7047 38.0589 47.2417 36.9522 46.0447 37.5572C44.8477 38.1622 45.6315 41.4601 46.1609 43.2639C46.6903 45.0678 48.0312 49.8099 48.2488 51.9918C48.4665 54.1738 47.2307 58.5452 47.6955 60.2642C48.1603 61.9832 48.6767 63.1434 50.1597 65.958C51.6426 68.7726 54.9276 77.1648 55.4569 79.6124Z" fill="white"/>
<path d="M55.4569 79.6124C55.4569 79.6124 53.1255 70.8365 49.6986 65.1611C46.2716 59.4858 48.2876 57.479 48.2876 52.7554C48.2876 48.0318 44.4382 39.99 45.4766 38.2175C46.515 36.445 47.9316 37.8633 48.5236 39.5178C49.1157 41.1723 48.2876 42.1185 46.6276 42.2365" stroke="#474747" stroke-width="0.0860537" stroke-linecap="round" stroke-linejoin="round"/>
<path d="M47.7047 38.0663C47.7047 38.0663 49.6949 37.9446 50.9177 41.1262C52.1406 44.3079 54.0994 52.3773 56.1394 54.8323" stroke="#474747" stroke-width="0.0860537" stroke-linecap="round" stroke-linejoin="round"/>
<path d="M54.5292 51.8517C54.5402 51.8775 57.3788 53.46 61.7834 52.073" stroke="#474747" stroke-width="0.0860537" stroke-linecap="round" stroke-linejoin="round"/>
<path d="M48.0828 47.4047C48.3041 47.134 48.5927 46.9261 48.9197 46.8022C49.2467 46.6782 49.6005 46.6423 49.9457 46.6983" stroke="#474747" stroke-width="0.0860537" stroke-linecap="round" stroke-linejoin="round"/>
<path d="M48.4609 48.4063C48.6522 48.1776 48.9039 48.0074 49.1874 47.9151C49.4708 47.8228 49.7745 47.8121 50.0638 47.8843" stroke="#474747" stroke-width="0.0860537" stroke-linecap="round" stroke-linejoin="round"/>
<path d="M64.4523 25.4078C61.5565 26.3725 63.7145 30.7457 63.3641 32.3411C63.0136 33.9366 63.9174 36.991 64.6127 38.6473C64.6127 40.5895 65.3044 45.302 65.3044 45.302C64.8765 46.8016 61.3056 51.2209 57.8362 52.6042" stroke="#474747" stroke-width="0.0860537" stroke-linecap="round" stroke-linejoin="round"/>
<path d="M66.5771 27.6101C66.5771 27.6101 66.3613 24.2625 65.3044 24.2625C64.2476 24.2625 64.3121 26.5182 64.7511 28.193C65.1901 29.8677 66.898 29.6279 66.5771 27.6101Z" stroke="#474747" stroke-width="0.0860537" stroke-linecap="round" stroke-linejoin="round"/>
<path d="M66.5771 27.6101C66.5771 27.6101 67.4772 32.8723 69.0025 36.1776" stroke="#474747" stroke-width="0.0860537" stroke-linecap="round" stroke-linejoin="round"/>
<path d="M70.8008 48.5022C71.5386 47.307 71.8651 46.1764 72.1381 44.7377C72.0698 43.8358 71.0314 40.892 69.8251 38.0405" stroke="#474747" stroke-width="0.0860537" stroke-linecap="round" stroke-linejoin="round"/>
<path d="M71.5276 42.4579C72.7246 43.358 74.807 44.0496 74.5672 45.6027C74.3027 47.1563 73.759 48.6491 72.9626 50.009" stroke="#474747" stroke-width="0.0860537" stroke-linecap="round" stroke-linejoin="round"/>
<path d="M69.9118 75.4421C69.9118 75.4421 65.7416 69.6524 66.5771 65.6536C67.1913 62.7117 71.1402 57.5676 73.9733 53.3069C75.5337 51.8516 76.3139 50.7247 76.6551 49.4133C76.1553 46.951 75.3437 46.2335 74.5635 45.6027" stroke="#474747" stroke-width="0.0860537" stroke-linecap="round" stroke-linejoin="round"/>
<path d="M71.024 43.4133C70.5595 43.2827 70.0731 43.2489 69.595 43.3139C69.1169 43.3789 68.6572 43.5415 68.2444 43.7914" stroke="#474747" stroke-width="0.0860537" stroke-linecap="round" stroke-linejoin="round"/>
<path d="M70.7898 44.4038C70.2233 44.318 69.6443 44.4197 69.1409 44.6934" stroke="#474747" stroke-width="0.0860537" stroke-linecap="round" stroke-linejoin="round"/>
</svg>
